<svg version="1.1" xmlns="http://www.w3.org/2000/svg" viewBox="0 0 251.526732971 185.0656169244536" width="251.526732971" height="185.0656169244536">
  <!-- svg-source:excalidraw -->
  
  <defs>
    <style class="style-fonts">
      @font-face {
        font-family: "Virgil";
        src: url("https://unpkg.com/revedraw@1.0.0-alpha.10/dist/excalidraw-assets/Virgil.woff2");
      }
      @font-face {
        font-family: "Cascadia";
        src: url("https://unpkg.com/revedraw@1.0.0-alpha.10/dist/excalidraw-assets/Cascadia.woff2");
      }
    </style>
    
  </defs>
  <g stroke-linecap="round" transform="translate(38.43749802748448 69.66782288856882) rotate(0 91 20.5)"><path d="M0 0 C0 0, 0 0, 0 0 M0 0 C0 0, 0 0, 0 0 M-0.26 6.4 C1.72 4.12, 3.7 1.84, 4.99 0.36 M-0.26 6.4 C1.72 4.12, 3.69 1.85, 4.99 0.36 M0.13 12.04 C3.48 8.19, 6.82 4.35, 10.63 -0.03 M0.13 12.04 C2.49 9.33, 4.85 6.61, 10.63 -0.03 M-0.13 18.44 C4.87 12.68, 9.88 6.93, 15.62 0.33 M-0.13 18.44 C4.28 13.36, 8.69 8.29, 15.62 0.33 M0.27 24.08 C6.94 16.41, 13.61 8.73, 21.26 -0.07 M0.27 24.08 C6.04 17.44, 11.82 10.8, 21.26 -0.07 M0 30.48 C7.15 22.26, 14.3 14.04, 26.25 0.29 M0 30.48 C7.83 21.48, 15.66 12.47, 26.25 0.29 M-0.26 36.88 C7.3 28.18, 14.86 19.49, 31.89 -0.1 M-0.26 36.88 C7.94 27.45, 16.14 18.01, 31.89 -0.1 M0.79 41.77 C13.49 27.16, 26.19 12.55, 36.88 0.26 M0.79 41.77 C8.96 32.38, 17.12 22.98, 36.88 0.26 M6.44 41.37 C19.09 26.82, 31.74 12.27, 42.52 -0.14 M6.44 41.37 C18.27 27.76, 30.09 14.16, 42.52 -0.14 M11.42 41.73 C23.39 27.97, 35.35 14.21, 47.51 0.22 M11.42 41.73 C21.17 30.52, 30.92 19.3, 47.51 0.22 M16.41 42.09 C25.91 31.16, 35.41 20.24, 53.15 -0.17 M16.41 42.09 C24.4 32.9, 32.4 23.7, 53.15 -0.17 M22.05 41.7 C34.67 27.18, 47.29 12.67, 58.14 0.19 M22.05 41.7 C34.58 27.28, 47.11 12.87, 58.14 0.19 M27.04 42.06 C40.54 26.53, 54.03 11.01, 63.78 -0.21 M27.04 42.06 C38.4 28.99, 49.76 15.92, 63.78 -0.21 M32.68 41.66 C40.24 32.98, 47.79 24.29, 68.77 0.15 M32.68 41.66 C46.59 25.67, 60.49 9.67, 68.77 0.15 M37.67 42.02 C52.34 25.15, 67.01 8.28, 74.41 -0.24 M37.67 42.02 C50.49 27.28, 63.3 12.54, 74.41 -0.24 M43.31 41.63 C53.32 30.12, 63.33 18.61, 79.4 0.12 M43.31 41.63 C51.38 32.35, 59.44 23.08, 79.4 0.12 M48.3 41.99 C58.99 29.7, 69.67 17.41, 85.04 -0.28 M48.3 41.99 C60.91 27.48, 73.52 12.98, 85.04 -0.28 M53.94 41.59 C67.83 25.62, 81.71 9.65, 90.03 0.08 M53.94 41.59 C65.18 28.67, 76.42 15.74, 90.03 0.08 M58.93 41.95 C69.68 29.59, 80.43 17.23, 95.67 -0.31 M58.93 41.95 C68.49 30.95, 78.06 19.95, 95.67 -0.31 M64.57 41.56 C76.36 28, 88.14 14.44, 100.66 0.05 M64.57 41.56 C72.16 32.84, 79.74 24.11, 100.66 0.05 M69.56 41.92 C79.44 30.55, 89.33 19.18, 106.3 -0.34 M69.56 41.92 C81.64 28.02, 93.73 14.12, 106.3 -0.34 M75.2 41.52 C88.27 26.5, 101.33 11.47, 111.29 0.02 M75.2 41.52 C85.72 29.43, 96.23 17.34, 111.29 0.02 M80.19 41.88 C94.58 25.33, 108.97 8.78, 116.27 0.38 M80.19 41.88 C92.41 27.83, 104.63 13.77, 116.27 0.38 M85.83 41.49 C97.17 28.45, 108.5 15.41, 121.92 -0.02 M85.83 41.49 C94.41 31.63, 102.98 21.76, 121.92 -0.02 M90.82 41.85 C100.73 30.45, 110.65 19.05, 126.91 0.34 M90.82 41.85 C103.1 27.73, 115.37 13.61, 126.91 0.34 M96.46 41.46 C106.21 30.24, 115.96 19.03, 132.55 -0.05 M96.46 41.46 C108.83 27.23, 121.2 13, 132.55 -0.05 M101.45 41.82 C108.79 33.37, 116.13 24.93, 137.54 0.31 M101.45 41.82 C113.91 27.48, 126.37 13.15, 137.54 0.31 M107.09 41.42 C117.25 29.74, 127.4 18.06, 143.18 -0.09 M107.09 41.42 C114.71 32.66, 122.33 23.89, 143.18 -0.09 M112.08 41.78 C123.11 29.09, 134.15 16.4, 148.17 0.27 M112.08 41.78 C120.25 32.39, 128.41 23, 148.17 0.27 M117.73 41.39 C127.22 30.46, 136.72 19.53, 153.81 -0.12 M117.73 41.39 C127.05 30.66, 136.38 19.93, 153.81 -0.12 M122.71 41.75 C130.53 32.75, 138.35 23.76, 158.8 0.24 M122.71 41.75 C130.53 32.75, 138.35 23.75, 158.8 0.24 M128.36 41.35 C139 29.1, 149.65 16.85, 164.44 -0.16 M128.36 41.35 C135.97 32.59, 143.58 23.84, 164.44 -0.16 M133.34 41.71 C147.24 25.73, 161.13 9.75, 169.43 0.2 M133.34 41.71 C140.96 32.95, 148.57 24.19, 169.43 0.2 M138.33 42.07 C150.1 28.53, 161.88 14.98, 175.07 -0.19 M138.33 42.07 C145.91 33.36, 153.48 24.64, 175.07 -0.19 M143.97 41.68 C157.46 26.16, 170.96 10.63, 180.06 0.17 M143.97 41.68 C153.52 30.69, 163.07 19.71, 180.06 0.17 M148.96 42.04 C157.54 32.16, 166.13 22.29, 183.73 2.04 M148.96 42.04 C159.13 30.34, 169.3 18.64, 183.73 2.04 M154.6 41.64 C165.24 29.4, 175.88 17.16, 184.12 7.68 M154.6 41.64 C163.27 31.67, 171.94 21.7, 184.12 7.68 M159.59 42 C165.56 35.14, 171.53 28.27, 183.86 14.08 M159.59 42 C167.57 32.82, 175.56 23.64, 183.86 14.08 M165.23 41.61 C169.71 36.45, 174.2 31.3, 184.26 19.72 M165.23 41.61 C172.37 33.39, 179.51 25.18, 184.26 19.72 M170.22 41.97 C173.71 37.96, 177.2 33.94, 184 26.12 M170.22 41.97 C174.16 37.44, 178.09 32.91, 184 26.12 M175.86 41.57 C178.26 38.81, 180.66 36.06, 183.74 32.52 M175.86 41.57 C177.81 39.33, 179.77 37.08, 183.74 32.52 M180.85 41.93 C181.73 40.92, 182.61 39.91, 184.13 38.16 M180.85 41.93 C181.98 40.64, 183.11 39.34, 184.13 38.16" stroke="#ffffff" stroke-width="0.5" fill="none"></path><path d="M0 0 C43.29 0, 86.57 0, 182 0 M0 0 C60.84 0, 121.68 0, 182 0 M182 0 C182 8.95, 182 17.89, 182 41 M182 0 C182 15.91, 182 31.81, 182 41 M182 41 C123.1 41, 64.2 41, 0 41 M182 41 C133.74 41, 85.48 41, 0 41 M0 41 C0 28.49, 0 15.97, 0 0 M0 41 C0 28.54, 0 16.09, 0 0" stroke="#1e1e1e" stroke-width="1" fill="none"></path></g><g transform="translate(83.12753098646886 77.66782288856882) rotate(0 46.309967041015625 12.5)"><text x="46.309967041015625" y="0" font-family="HanziPen SC, HanziPen Remote, Virgil, KaiTi, Segoe UI Emoji" font-size="20px" fill="#1e1e1e" text-anchor="middle" style="white-space: pre;" direction="ltr" dominant-baseline="text-before-edge">GPU Server</text></g><g stroke-linecap="round" transform="translate(10 10) rotate(0 115.7633664855 82.5328084622268)"><path d="M0 0 C80.69 0, 161.38 0, 231.53 0 M0 0 C88.1 0, 176.2 0, 231.53 0 M231.53 0 C231.53 47.8, 231.53 95.6, 231.53 165.07 M231.53 0 C231.53 56.89, 231.53 113.78, 231.53 165.07 M231.53 165.07 C164.81 165.07, 98.1 165.07, 0 165.07 M231.53 165.07 C173.37 165.07, 115.22 165.07, 0 165.07 M0 165.07 C0 127.31, 0 89.56, 0 0 M0 165.07 C0 106.02, 0 46.98, 0 0" stroke="#1e1e1e" stroke-width="1" fill="none"></path></g><g stroke-linecap="round" transform="translate(38.7223001826477 124.61923235460358) rotate(0 30 19.5)"><path d="M0 0 C0 0, 0 0, 0 0 M0 0 C0 0, 0 0, 0 0 M-0.26 6.4 C1.22 4.69, 2.71 2.98, 4.99 0.36 M-0.26 6.4 C1.51 4.36, 3.27 2.33, 4.99 0.36 M0.13 12.04 C4.2 7.36, 8.28 2.67, 10.63 -0.03 M0.13 12.04 C2.93 8.83, 5.72 5.61, 10.63 -0.03 M-0.13 18.44 C3.48 14.29, 7.08 10.15, 15.62 0.33 M-0.13 18.44 C4.71 12.87, 9.55 7.3, 15.62 0.33 M0.27 24.08 C4.48 19.23, 8.7 14.38, 21.26 -0.07 M0.27 24.08 C6.46 16.95, 12.66 9.82, 21.26 -0.07 M0 30.48 C5.89 23.71, 11.77 16.94, 26.25 0.29 M0 30.48 C6.72 22.75, 13.44 15.02, 26.25 0.29 M-0.26 36.88 C10.54 24.45, 21.34 12.03, 31.89 -0.1 M-0.26 36.88 C11.54 23.31, 23.33 9.75, 31.89 -0.1 M2.11 40.26 C15.33 25.05, 28.55 9.83, 36.88 0.26 M2.11 40.26 C9.57 31.67, 17.03 23.09, 36.88 0.26 M7.09 40.62 C21.23 24.35, 35.37 8.09, 42.52 -0.14 M7.09 40.62 C19.7 26.11, 32.31 11.61, 42.52 -0.14 M12.74 40.22 C23.96 27.32, 35.18 14.41, 47.51 0.22 M12.74 40.22 C25.81 25.19, 38.88 10.15, 47.51 0.22 M17.72 40.58 C30.49 25.9, 43.25 11.21, 53.15 -0.17 M17.72 40.58 C26.52 30.47, 35.31 20.35, 53.15 -0.17 M22.71 40.94 C33.02 29.08, 43.33 17.23, 58.14 0.19 M22.71 40.94 C36.66 24.9, 50.61 8.85, 58.14 0.19 M28.35 40.55 C36.84 30.78, 45.33 21.01, 61.81 2.06 M28.35 40.55 C36.4 31.29, 44.45 22.03, 61.81 2.06 M33.34 40.91 C40.23 32.98, 47.13 25.05, 62.21 7.7 M33.34 40.91 C41.5 31.52, 49.67 22.12, 62.21 7.7 M38.98 40.51 C45.36 33.18, 51.73 25.85, 61.95 14.1 M38.98 40.51 C44.51 34.16, 50.03 27.8, 61.95 14.1 M43.97 40.87 C50.1 33.82, 56.24 26.76, 62.34 19.74 M43.97 40.87 C49.83 34.13, 55.69 27.4, 62.34 19.74 M49.61 40.48 C53.28 36.26, 56.94 32.05, 62.08 26.14 M49.61 40.48 C54.19 35.22, 58.76 29.95, 62.08 26.14 M54.6 40.84 C56.46 38.7, 58.32 36.56, 61.82 32.54 M54.6 40.84 C57.04 38.03, 59.48 35.22, 61.82 32.54" stroke="#ffffff" stroke-width="0.5" fill="none"></path><path d="M0 0 C22.95 0, 45.89 0, 60 0 M0 0 C15.01 0, 30.02 0, 60 0 M60 0 C60 10.29, 60 20.58, 60 39 M60 0 C60 8.06, 60 16.12, 60 39 M60 39 C40.53 39, 21.06 39, 0 39 M60 39 C36.52 39, 13.05 39, 0 39 M0 39 C0 27.73, 0 16.45, 0 0 M0 39 C0 24.45, 0 9.89, 0 0" stroke="#1e1e1e" stroke-width="1" fill="none"></path></g><g transform="translate(51.47231544143676 131.61923235460358) rotate(0 17.249984741210938 12.5)"><text x="17.249984741210938" y="0" font-family="HanziPen SC, HanziPen Remote, Virgil, KaiTi, Segoe UI Emoji" font-size="20px" fill="#1e1e1e" text-anchor="middle" style="white-space: pre;" direction="ltr" dominant-baseline="text-before-edge">NAS</text></g><g stroke-linecap="round" transform="translate(87.19916151966515 20.32748544844935) rotate(0 42 19.5)"><path d="M0 0 C0 0, 0 0, 0 0 M0 0 C0 0, 0 0, 0 0 M-0.26 6.4 C1.13 4.79, 2.53 3.19, 4.99 0.36 M-0.26 6.4 C1.54 4.32, 3.35 2.25, 4.99 0.36 M0.13 12.04 C3.81 7.81, 7.49 3.58, 10.63 -0.03 M0.13 12.04 C3.29 8.41, 6.45 4.78, 10.63 -0.03 M-0.13 18.44 C3.79 13.93, 7.71 9.43, 15.62 0.33 M-0.13 18.44 C4.85 12.71, 9.83 6.98, 15.62 0.33 M0.27 24.08 C7.56 15.69, 14.86 7.29, 21.26 -0.07 M0.27 24.08 C7.36 15.92, 14.45 7.76, 21.26 -0.07 M0 30.48 C9.86 19.14, 19.72 7.81, 26.25 0.29 M0 30.48 C6.27 23.27, 12.54 16.06, 26.25 0.29 M-0.26 36.88 C9.17 26.04, 18.59 15.2, 31.89 -0.1 M-0.26 36.88 C8.65 26.63, 17.56 16.38, 31.89 -0.1 M2.11 40.26 C11.97 28.91, 21.83 17.57, 36.88 0.26 M2.11 40.26 C10.98 30.04, 19.86 19.83, 36.88 0.26 M7.09 40.62 C15.73 30.68, 24.37 20.75, 42.52 -0.14 M7.09 40.62 C20.55 25.13, 34.01 9.65, 42.52 -0.14 M12.74 40.22 C25.75 25.25, 38.76 10.28, 47.51 0.22 M12.74 40.22 C20.4 31.41, 28.06 22.59, 47.51 0.22 M17.72 40.58 C27.3 29.56, 36.89 18.54, 53.15 -0.17 M17.72 40.58 C30.79 25.55, 43.86 10.52, 53.15 -0.17 M22.71 40.94 C33.79 28.19, 44.88 15.44, 58.14 0.19 M22.71 40.94 C36.86 24.67, 51.01 8.39, 58.14 0.19 M28.35 40.55 C41.04 25.96, 53.72 11.37, 63.78 -0.21 M28.35 40.55 C39.95 27.21, 51.55 13.86, 63.78 -0.21 M33.34 40.91 C44.99 27.51, 56.64 14.11, 68.77 0.15 M33.34 40.91 C46.41 25.88, 59.47 10.84, 68.77 0.15 M38.98 40.51 C49.8 28.07, 60.62 15.62, 74.41 -0.24 M38.98 40.51 C53.15 24.21, 67.32 7.92, 74.41 -0.24 M43.97 40.87 C55.15 28.01, 66.33 15.15, 79.4 0.12 M43.97 40.87 C55.17 27.99, 66.37 15.11, 79.4 0.12 M49.61 40.48 C57.46 31.45, 65.3 22.43, 84.38 0.48 M49.61 40.48 C59.76 28.8, 69.91 17.13, 84.38 0.48 M54.6 40.84 C64.58 29.36, 74.56 17.88, 84.78 6.12 M54.6 40.84 C64.85 29.05, 75.1 17.26, 84.78 6.12 M60.24 40.44 C66.21 33.58, 72.17 26.72, 84.52 12.52 M60.24 40.44 C69.21 30.13, 78.18 19.81, 84.52 12.52 M65.23 40.8 C70.86 34.33, 76.49 27.85, 84.26 18.92 M65.23 40.8 C71.86 33.18, 78.49 25.55, 84.26 18.92 M70.87 40.41 C73.72 37.13, 76.58 33.85, 84.65 24.56 M70.87 40.41 C75.83 34.71, 80.79 29, 84.65 24.56 M75.86 40.77 C78.39 37.86, 80.92 34.95, 84.39 30.96 M75.86 40.77 C78.95 37.21, 82.05 33.65, 84.39 30.96 M81.5 40.37 C82.7 39, 83.89 37.62, 84.78 36.6 M81.5 40.37 C82.33 39.43, 83.15 38.48, 84.78 36.6" stroke="#ffffff" stroke-width="0.5" fill="none"></path><path d="M0 0 C33.01 0, 66.03 0, 84 0 M0 0 C33.53 0, 67.06 0, 84 0 M84 0 C84 7.96, 84 15.92, 84 39 M84 0 C84 8.99, 84 17.97, 84 39 M84 39 C63.43 39, 42.87 39, 0 39 M84 39 C51.19 39, 18.39 39, 0 39 M0 39 C0 29.09, 0 19.18, 0 0 M0 39 C0 23.82, 0 8.64, 0 0" stroke="#1e1e1e" stroke-width="1" fill="none"></path></g><g transform="translate(98.29917525257531 27.32748544844935) rotate(0 30.899986267089844 12.5)"><text x="30.899986267089844" y="0" font-family="HanziPen SC, HanziPen Remote, Virgil, KaiTi, Segoe UI Emoji" font-size="20px" fill="#1e1e1e" text-anchor="middle" style="white-space: pre;" direction="ltr" dominant-baseline="text-before-edge">交换机</text></g><g stroke-linecap="round" transform="translate(111.76360272506588 124.05708288141216) rotate(0 54 20)"><path d="M0 0 C0 0, 0 0, 0 0 M0 0 C0 0, 0 0, 0 0 M-0.26 6.4 C1.3 4.61, 2.85 2.82, 4.99 0.36 M-0.26 6.4 C1.4 4.49, 3.05 2.59, 4.99 0.36 M0.13 12.04 C3.07 8.66, 6.01 5.28, 10.63 -0.03 M0.13 12.04 C4.04 7.55, 7.94 3.06, 10.63 -0.03 M-0.13 18.44 C4.9 12.65, 9.93 6.87, 15.62 0.33 M-0.13 18.44 C3.99 13.7, 8.1 8.97, 15.62 0.33 M0.27 24.08 C5.2 18.41, 10.13 12.74, 21.26 -0.07 M0.27 24.08 C7.68 15.55, 15.09 7.03, 21.26 -0.07 M0 30.48 C7.96 21.33, 15.92 12.17, 26.25 0.29 M0 30.48 C9.88 19.12, 19.75 7.76, 26.25 0.29 M-0.26 36.88 C7.75 27.66, 15.76 18.45, 31.89 -0.1 M-0.26 36.88 C11.94 22.84, 24.15 8.81, 31.89 -0.1 M1.45 41.01 C13.35 27.32, 25.25 13.63, 36.88 0.26 M1.45 41.01 C15.28 25.1, 29.12 9.18, 36.88 0.26 M6.44 41.37 C19.27 26.61, 32.1 11.85, 42.52 -0.14 M6.44 41.37 C19.96 25.82, 33.48 10.26, 42.52 -0.14 M12.08 40.98 C23.41 27.94, 34.74 14.91, 47.51 0.22 M12.08 40.98 C22.55 28.94, 33.01 16.9, 47.51 0.22 M17.07 41.34 C26.11 30.93, 35.15 20.53, 53.15 -0.17 M17.07 41.34 C26.91 30.01, 36.76 18.69, 53.15 -0.17 M22.71 40.94 C32.31 29.9, 41.9 18.86, 58.14 0.19 M22.71 40.94 C31.33 31.03, 39.95 21.11, 58.14 0.19 M27.7 41.3 C41.95 24.91, 56.2 8.51, 63.78 -0.21 M27.7 41.3 C39.21 28.06, 50.73 14.81, 63.78 -0.21 M33.34 40.91 C41.11 31.97, 48.89 23.02, 68.77 0.15 M33.34 40.91 C42.1 30.83, 50.87 20.75, 68.77 0.15 M38.33 41.27 C49.64 28.26, 60.95 15.25, 74.41 -0.24 M38.33 41.27 C51.67 25.92, 65.01 10.58, 74.41 -0.24 M43.97 40.87 C54.94 28.25, 65.91 15.64, 79.4 0.12 M43.97 40.87 C53.94 29.4, 63.92 17.92, 79.4 0.12 M48.96 41.23 C59.59 29, 70.22 16.77, 85.04 -0.28 M48.96 41.23 C63.09 24.98, 77.22 8.72, 85.04 -0.28 M54.6 40.84 C65.22 28.62, 75.85 16.4, 90.03 0.08 M54.6 40.84 C68.1 25.31, 81.59 9.79, 90.03 0.08 M59.59 41.2 C70.11 29.09, 80.64 16.98, 95.67 -0.31 M59.59 41.2 C72.68 26.14, 85.77 11.08, 95.67 -0.31 M65.23 40.8 C74.53 30.11, 83.83 19.41, 100.66 0.05 M65.23 40.8 C77.33 26.88, 89.44 12.96, 100.66 0.05 M70.22 41.16 C78.2 31.98, 86.19 22.79, 106.3 -0.34 M70.22 41.16 C83.66 25.71, 97.09 10.25, 106.3 -0.34 M75.2 41.52 C85.08 30.16, 94.95 18.8, 109.98 1.52 M75.2 41.52 C82.87 32.71, 90.53 23.89, 109.98 1.52 M80.85 41.13 C88.48 32.35, 96.12 23.56, 109.71 7.92 M80.85 41.13 C90.09 30.5, 99.33 19.87, 109.71 7.92 M85.83 41.49 C94.69 31.3, 103.55 21.11, 110.11 13.57 M85.83 41.49 C91.54 34.92, 97.25 28.36, 110.11 13.57 M91.48 41.1 C98.21 33.35, 104.94 25.61, 109.85 19.96 M91.48 41.1 C95.46 36.51, 99.45 31.93, 109.85 19.96 M96.46 41.46 C100.66 36.63, 104.85 31.8, 109.59 26.36 M96.46 41.46 C99.94 37.46, 103.41 33.47, 109.59 26.36 M102.11 41.06 C104.75 38.02, 107.4 34.98, 109.98 32 M102.11 41.06 C104.35 38.49, 106.58 35.91, 109.98 32" stroke="#ffffff" stroke-width="0.5" fill="none"></path><path d="M0 0 C33.26 0, 66.52 0, 108 0 M0 0 C35.88 0, 71.75 0, 108 0 M108 0 C108 10.1, 108 20.2, 108 40 M108 0 C108 12.6, 108 25.19, 108 40 M108 40 C71.39 40, 34.79 40, 0 40 M108 40 C74.78 40, 41.57 40, 0 40 M0 40 C0 29.56, 0 19.12, 0 0 M0 40 C0 25.21, 0 10.42, 0 0" stroke="#1e1e1e" stroke-width="1" fill="none"></path></g><g transform="translate(121.06363629440182 131.55708288141216) rotate(0 44.69996643066406 12.5)"><text x="44.69996643066406" y="0" font-family="HanziPen SC, HanziPen Remote, Virgil, KaiTi, Segoe UI Emoji" font-size="20px" fill="#1e1e1e" text-anchor="middle" style="white-space: pre;" direction="ltr" dominant-baseline="text-before-edge">Win Server</text></g></svg>