<svg version="1.1" xmlns="http://www.w3.org/2000/svg" viewBox="0 0 188.63787349250708 333.5180444547773" width="188.63787349250708" height="333.5180444547773">
  <!-- svg-source:excalidraw -->
  
  <defs>
    <style class="style-fonts">
      @font-face {
        font-family: "Virgil";
        src: url("/woff2/Virgil.woff2");
      }
      @font-face {
        font-family: "Cascadia";
        src: url("/woff2/Cascadia.woff2");
      }
    </style>
    
  </defs>
  <rect x="0" y="0" width="188.63787349250708" height="333.5180444547773" fill="#ffffff"></rect><g stroke-linecap="round" transform="translate(111.13280690834006 36.278417589819526) rotate(0 33.5 15)"><path d="M0 0 C24.86 0, 49.73 0, 67 0 M0 0 C19.93 0, 39.86 0, 67 0 M67 0 C67 6.06, 67 12.13, 67 30 M67 0 C67 11.75, 67 23.51, 67 30 M67 30 C45.08 30, 23.16 30, 0 30 M67 30 C43.57 30, 20.13 30, 0 30 M0 30 C0 19.62, 0 9.24, 0 0 M0 30 C0 18.83, 0 7.65, 0 0" stroke="#1e1e1e" stroke-width="1" fill="none"></path></g><g transform="translate(140.00881398841818 41.278417589819526) rotate(0 4.623992919921875 10)"><text x="4.623992919921875" y="0" font-family="HanziPen SC, HanziPen Remote, Virgil, KaiTi, Segoe UI Emoji" font-size="16px" fill="#1e1e1e" text-anchor="middle" style="white-space: pre;" direction="ltr" dominant-baseline="text-before-edge">0</text></g><g stroke-linecap="round" transform="translate(10 36.02631623139098) rotate(0 12 15)"><path d="M0 0 C6.88 0, 13.77 0, 24 0 M0 0 C9.05 0, 18.11 0, 24 0 M24 0 C24 7.05, 24 14.1, 24 30 M24 0 C24 7.55, 24 15.09, 24 30 M24 30 C18.92 30, 13.83 30, 0 30 M24 30 C14.77 30, 5.54 30, 0 30 M0 30 C0 18.52, 0 7.04, 0 0 M0 30 C0 19.14, 0 8.28, 0 0" stroke="#1e1e1e" stroke-width="1" fill="none"></path></g><g transform="translate(17.376007080078125 41.02631623139098) rotate(0 4.623992919921875 10)"><text x="4.623992919921875" y="0" font-family="HanziPen SC, HanziPen Remote, Virgil, KaiTi, Segoe UI Emoji" font-size="16px" fill="#1e1e1e" text-anchor="middle" style="white-space: pre;" direction="ltr" dominant-baseline="text-before-edge">0</text></g><g stroke-linecap="round" transform="translate(33.90646238682257 36.021055232470985) rotate(0 12 15)"><path d="M0 0 C6.22 0, 12.45 0, 24 0 M0 0 C5.12 0, 10.23 0, 24 0 M24 0 C24 8.92, 24 17.84, 24 30 M24 0 C24 6.69, 24 13.38, 24 30 M24 30 C14.59 30, 5.18 30, 0 30 M24 30 C16.96 30, 9.93 30, 0 30 M0 30 C0 21.76, 0 13.52, 0 0 M0 30 C0 18.19, 0 6.39, 0 0" stroke="#1e1e1e" stroke-width="1" fill="none"></path></g><g transform="translate(41.28246946690069 41.021055232470985) rotate(0 4.623992919921875 10)"><text x="4.623992919921875" y="0" font-family="HanziPen SC, HanziPen Remote, Virgil, KaiTi, Segoe UI Emoji" font-size="16px" fill="#1e1e1e" text-anchor="middle" style="white-space: pre;" direction="ltr" dominant-baseline="text-before-edge">0</text></g><g stroke-linecap="round" transform="translate(57.965887481467234 36.041341367811015) rotate(0 12 15)"><path d="M0 0 C5.22 0, 10.43 0, 24 0 M0 0 C8.29 0, 16.58 0, 24 0 M24 0 C24 8.4, 24 16.8, 24 30 M24 0 C24 8.52, 24 17.04, 24 30 M24 30 C16.28 30, 8.57 30, 0 30 M24 30 C17.02 30, 10.05 30, 0 30 M0 30 C0 22.85, 0 15.7, 0 0 M0 30 C0 20.41, 0 10.82, 0 0" stroke="#1e1e1e" stroke-width="1" fill="none"></path></g><g transform="translate(65.34189456154536 41.041341367811015) rotate(0 4.623992919921875 10)"><text x="4.623992919921875" y="0" font-family="HanziPen SC, HanziPen Remote, Virgil, KaiTi, Segoe UI Emoji" font-size="16px" fill="#1e1e1e" text-anchor="middle" style="white-space: pre;" direction="ltr" dominant-baseline="text-before-edge">0</text></g><g stroke-linecap="round" transform="translate(81.97243730851426 35.99348467782659) rotate(0 12 15)"><path d="M0 0 C6.34 0, 12.68 0, 24 0 M0 0 C8.14 0, 16.28 0, 24 0 M24 0 C24 7.47, 24 14.94, 24 30 M24 0 C24 7.12, 24 14.24, 24 30 M24 30 C18.52 30, 13.04 30, 0 30 M24 30 C18.78 30, 13.57 30, 0 30 M0 30 C0 22.07, 0 14.13, 0 0 M0 30 C0 23.46, 0 16.92, 0 0" stroke="#1e1e1e" stroke-width="1" fill="none"></path></g><g transform="translate(89.34844438859238 40.99348467782659) rotate(0 4.623992919921875 10)"><text x="4.623992919921875" y="0" font-family="HanziPen SC, HanziPen Remote, Virgil, KaiTi, Segoe UI Emoji" font-size="16px" fill="#1e1e1e" text-anchor="middle" style="white-space: pre;" direction="ltr" dominant-baseline="text-before-edge">0</text></g><g stroke-linecap="round" transform="translate(111.23070347124974 73.39792914523468) rotate(0 33.5 15)"><path d="M0 0 C18.66 0, 37.32 0, 67 0 M0 0 C25.78 0, 51.57 0, 67 0 M67 0 C67 7.36, 67 14.73, 67 30 M67 0 C67 9.31, 67 18.63, 67 30 M67 30 C45.8 30, 24.6 30, 0 30 M67 30 C44.33 30, 21.66 30, 0 30 M0 30 C0 20.43, 0 10.85, 0 0 M0 30 C0 18.26, 0 6.52, 0 0" stroke="#1e1e1e" stroke-width="1" fill="none"></path></g><g transform="translate(140.10671055132786 78.39792914523468) rotate(0 4.623992919921875 10)"><text x="4.623992919921875" y="0" font-family="HanziPen SC, HanziPen Remote, Virgil, KaiTi, Segoe UI Emoji" font-size="16px" fill="#1e1e1e" text-anchor="middle" style="white-space: pre;" direction="ltr" dominant-baseline="text-before-edge">1</text></g><g stroke-linecap="round" transform="translate(10.035584690334304 73.14582778680614) rotate(0 12 15)"><path d="M0 0 C7.53 0, 15.06 0, 24 0 M0 0 C7.14 0, 14.28 0, 24 0 M24 0 C24 8.56, 24 17.12, 24 30 M24 0 C24 10.69, 24 21.38, 24 30 M24 30 C15.26 30, 6.53 30, 0 30 M24 30 C15.74 30, 7.49 30, 0 30 M0 30 C0 19.7, 0 9.39, 0 0 M0 30 C0 18.97, 0 7.94, 0 0" stroke="#1e1e1e" stroke-width="1" fill="none"></path></g><g transform="translate(17.41159177041243 78.14582778680614) rotate(0 4.623992919921875 10)"><text x="4.623992919921875" y="0" font-family="HanziPen SC, HanziPen Remote, Virgil, KaiTi, Segoe UI Emoji" font-size="16px" fill="#1e1e1e" text-anchor="middle" style="white-space: pre;" direction="ltr" dominant-baseline="text-before-edge">0</text></g><g stroke-linecap="round" transform="translate(33.94204707715687 73.14056678788614) rotate(0 12 15)"><path d="M0 0 C9.56 0, 19.13 0, 24 0 M0 0 C7.62 0, 15.24 0, 24 0 M24 0 C24 10.79, 24 21.57, 24 30 M24 0 C24 7.58, 24 15.17, 24 30 M24 30 C16.2 30, 8.41 30, 0 30 M24 30 C15.61 30, 7.22 30, 0 30 M0 30 C0 22.4, 0 14.8, 0 0 M0 30 C0 21.02, 0 12.04, 0 0" stroke="#1e1e1e" stroke-width="1" fill="none"></path></g><g transform="translate(41.318054157235 78.14056678788614) rotate(0 4.623992919921875 10)"><text x="4.623992919921875" y="0" font-family="HanziPen SC, HanziPen Remote, Virgil, KaiTi, Segoe UI Emoji" font-size="16px" fill="#1e1e1e" text-anchor="middle" style="white-space: pre;" direction="ltr" dominant-baseline="text-before-edge">0</text></g><g stroke-linecap="round" transform="translate(58.00147217180154 73.16085292322612) rotate(0 12 15)"><path d="M0 0 C8.07 0, 16.13 0, 24 0 M0 0 C7.44 0, 14.88 0, 24 0 M24 0 C24 7.03, 24 14.05, 24 30 M24 0 C24 9.07, 24 18.14, 24 30 M24 30 C16.15 30, 8.29 30, 0 30 M24 30 C16.92 30, 9.83 30, 0 30 M0 30 C0 19.81, 0 9.61, 0 0 M0 30 C0 19.07, 0 8.14, 0 0" stroke="#1e1e1e" stroke-width="1" fill="none"></path></g><g transform="translate(65.37747925187966 78.16085292322612) rotate(0 4.623992919921875 10)"><text x="4.623992919921875" y="0" font-family="HanziPen SC, HanziPen Remote, Virgil, KaiTi, Segoe UI Emoji" font-size="16px" fill="#1e1e1e" text-anchor="middle" style="white-space: pre;" direction="ltr" dominant-baseline="text-before-edge">0</text></g><g stroke-linecap="round" transform="translate(82.00802199884845 73.1129962332418) rotate(0 12 15)"><path d="M0 0 C7.33 0, 14.65 0, 24 0 M0 0 C8.76 0, 17.53 0, 24 0 M24 0 C24 7.51, 24 15.02, 24 30 M24 0 C24 6.98, 24 13.97, 24 30 M24 30 C17.41 30, 10.81 30, 0 30 M24 30 C15.69 30, 7.39 30, 0 30 M0 30 C0 21.93, 0 13.87, 0 0 M0 30 C0 19.04, 0 8.08, 0 0" stroke="#1e1e1e" stroke-width="1" fill="none"></path></g><g transform="translate(89.38402907892657 78.1129962332418) rotate(0 4.623992919921875 10)"><text x="4.623992919921875" y="0" font-family="HanziPen SC, HanziPen Remote, Virgil, KaiTi, Segoe UI Emoji" font-size="16px" fill="#1e1e1e" text-anchor="middle" style="white-space: pre;" direction="ltr" dominant-baseline="text-before-edge">1</text></g><g stroke-linecap="round" transform="translate(111.19874789156302 108.96147462464796) rotate(0 33.5 15)"><path d="M0 0 C17.38 0, 34.77 0, 67 0 M0 0 C26.69 0, 53.38 0, 67 0 M67 0 C67 9.72, 67 19.44, 67 30 M67 0 C67 11.91, 67 23.82, 67 30 M67 30 C50.52 30, 34.04 30, 0 30 M67 30 C47.4 30, 27.79 30, 0 30 M0 30 C0 21.55, 0 13.1, 0 0 M0 30 C0 20.1, 0 10.19, 0 0" stroke="#1e1e1e" stroke-width="1" fill="none"></path></g><g transform="translate(140.07475497164114 113.96147462464796) rotate(0 4.623992919921875 10)"><text x="4.623992919921875" y="0" font-family="HanziPen SC, HanziPen Remote, Virgil, KaiTi, Segoe UI Emoji" font-size="16px" fill="#1e1e1e" text-anchor="middle" style="white-space: pre;" direction="ltr" dominant-baseline="text-before-edge">2</text></g><g stroke-linecap="round" transform="translate(10.065940983222958 108.70937326621942) rotate(0 12 15)"><path d="M0 0 C7.85 0, 15.7 0, 24 0 M0 0 C8.39 0, 16.79 0, 24 0 M24 0 C24 10.38, 24 20.76, 24 30 M24 0 C24 11.17, 24 22.35, 24 30 M24 30 C16.93 30, 9.87 30, 0 30 M24 30 C15.6 30, 7.2 30, 0 30 M0 30 C0 18.18, 0 6.36, 0 0 M0 30 C0 20.66, 0 11.32, 0 0" stroke="#1e1e1e" stroke-width="1" fill="none"></path></g><g transform="translate(17.441948063301083 113.70937326621942) rotate(0 4.623992919921875 10)"><text x="4.623992919921875" y="0" font-family="HanziPen SC, HanziPen Remote, Virgil, KaiTi, Segoe UI Emoji" font-size="16px" fill="#1e1e1e" text-anchor="middle" style="white-space: pre;" direction="ltr" dominant-baseline="text-before-edge">0</text></g><g stroke-linecap="round" transform="translate(33.97240337004553 108.70411226729942) rotate(0 12 15)"><path d="M0 0 C5.08 0, 10.17 0, 24 0 M0 0 C9.23 0, 18.46 0, 24 0 M24 0 C24 11.48, 24 22.96, 24 30 M24 0 C24 10.86, 24 21.72, 24 30 M24 30 C18.03 30, 12.07 30, 0 30 M24 30 C15.4 30, 6.8 30, 0 30 M0 30 C0 18.09, 0 6.18, 0 0 M0 30 C0 18.4, 0 6.8, 0 0" stroke="#1e1e1e" stroke-width="1" fill="none"></path></g><g transform="translate(41.34841045012365 113.70411226729942) rotate(0 4.623992919921875 10)"><text x="4.623992919921875" y="0" font-family="HanziPen SC, HanziPen Remote, Virgil, KaiTi, Segoe UI Emoji" font-size="16px" fill="#1e1e1e" text-anchor="middle" style="white-space: pre;" direction="ltr" dominant-baseline="text-before-edge">0</text></g><g stroke-linecap="round" transform="translate(58.03182846469019 108.7243984026394) rotate(0 12 15)"><path d="M0 0 C9.41 0, 18.82 0, 24 0 M0 0 C7.04 0, 14.07 0, 24 0 M24 0 C24 8.24, 24 16.48, 24 30 M24 0 C24 11.81, 24 23.61, 24 30 M24 30 C16.51 30, 9.03 30, 0 30 M24 30 C14.81 30, 5.62 30, 0 30 M0 30 C0 22.3, 0 14.59, 0 0 M0 30 C0 22.23, 0 14.46, 0 0" stroke="#1e1e1e" stroke-width="1" fill="none"></path></g><g transform="translate(65.40783554476832 113.7243984026394) rotate(0 4.623992919921875 10)"><text x="4.623992919921875" y="0" font-family="HanziPen SC, HanziPen Remote, Virgil, KaiTi, Segoe UI Emoji" font-size="16px" fill="#1e1e1e" text-anchor="middle" style="white-space: pre;" direction="ltr" dominant-baseline="text-before-edge">1</text></g><g stroke-linecap="round" transform="translate(82.03837829173722 108.67654171265508) rotate(0 12 15)"><path d="M0 0 C7.72 0, 15.43 0, 24 0 M0 0 C6.98 0, 13.95 0, 24 0 M24 0 C24 7.15, 24 14.3, 24 30 M24 0 C24 9.59, 24 19.18, 24 30 M24 30 C17.69 30, 11.37 30, 0 30 M24 30 C16.47 30, 8.93 30, 0 30 M0 30 C0 20.57, 0 11.15, 0 0 M0 30 C0 22.32, 0 14.64, 0 0" stroke="#1e1e1e" stroke-width="1" fill="none"></path></g><g transform="translate(89.41438537181534 113.67654171265508) rotate(0 4.623992919921875 10)"><text x="4.623992919921875" y="0" font-family="HanziPen SC, HanziPen Remote, Virgil, KaiTi, Segoe UI Emoji" font-size="16px" fill="#1e1e1e" text-anchor="middle" style="white-space: pre;" direction="ltr" dominant-baseline="text-before-edge">0</text></g><g stroke-linecap="round" transform="translate(111.56873497393542 146.08098618006312) rotate(0 33 15)"><path d="M0 0 C15.07 0, 30.15 0, 66 0 M0 0 C14.34 0, 28.69 0, 66 0 M66 0 C66 7.93, 66 15.87, 66 30 M66 0 C66 6.54, 66 13.08, 66 30 M66 30 C49.15 30, 32.29 30, 0 30 M66 30 C48.39 30, 30.79 30, 0 30 M0 30 C0 21.44, 0 12.88, 0 0 M0 30 C0 20.09, 0 10.18, 0 0" stroke="#1e1e1e" stroke-width="1" fill="none"></path></g><g transform="translate(139.94474205401355 151.08098618006312) rotate(0 4.623992919921875 10)"><text x="4.623992919921875" y="0" font-family="HanziPen SC, HanziPen Remote, Virgil, KaiTi, Segoe UI Emoji" font-size="16px" fill="#1e1e1e" text-anchor="middle" style="white-space: pre;" direction="ltr" dominant-baseline="text-before-edge">3</text></g><g stroke-linecap="round" transform="translate(10.373616193019984 145.82888482163457) rotate(0 12 15)"><path d="M0 0 C7.59 0, 15.19 0, 24 0 M0 0 C8.12 0, 16.24 0, 24 0 M24 0 C24 9.57, 24 19.15, 24 30 M24 0 C24 11.74, 24 23.48, 24 30 M24 30 C18.78 30, 13.56 30, 0 30 M24 30 C14.84 30, 5.68 30, 0 30 M0 30 C0 22.16, 0 14.33, 0 0 M0 30 C0 22.2, 0 14.41, 0 0" stroke="#1e1e1e" stroke-width="1" fill="none"></path></g><g transform="translate(17.74962327309811 150.82888482163457) rotate(0 4.623992919921875 10)"><text x="4.623992919921875" y="0" font-family="HanziPen SC, HanziPen Remote, Virgil, KaiTi, Segoe UI Emoji" font-size="16px" fill="#1e1e1e" text-anchor="middle" style="white-space: pre;" direction="ltr" dominant-baseline="text-before-edge">0</text></g><g stroke-linecap="round" transform="translate(34.28007857984255 145.82362382271458) rotate(0 12 15)"><path d="M0 0 C8.74 0, 17.47 0, 24 0 M0 0 C8.26 0, 16.51 0, 24 0 M24 0 C24 10.3, 24 20.61, 24 30 M24 0 C24 11.03, 24 22.06, 24 30 M24 30 C17.93 30, 11.86 30, 0 30 M24 30 C18.63 30, 13.27 30, 0 30 M0 30 C0 20.76, 0 11.53, 0 0 M0 30 C0 22.58, 0 15.17, 0 0" stroke="#1e1e1e" stroke-width="1" fill="none"></path></g><g transform="translate(41.65608565992068 150.82362382271458) rotate(0 4.623992919921875 10)"><text x="4.623992919921875" y="0" font-family="HanziPen SC, HanziPen Remote, Virgil, KaiTi, Segoe UI Emoji" font-size="16px" fill="#1e1e1e" text-anchor="middle" style="white-space: pre;" direction="ltr" dominant-baseline="text-before-edge">0</text></g><g stroke-linecap="round" transform="translate(58.33950367448722 145.8439099580546) rotate(0 12 15)"><path d="M0 0 C7.8 0, 15.59 0, 24 0 M0 0 C8.39 0, 16.78 0, 24 0 M24 0 C24 7.6, 24 15.2, 24 30 M24 0 C24 8.98, 24 17.96, 24 30 M24 30 C18.24 30, 12.47 30, 0 30 M24 30 C14.81 30, 5.62 30, 0 30 M0 30 C0 22.01, 0 14.03, 0 0 M0 30 C0 20.39, 0 10.79, 0 0" stroke="#1e1e1e" stroke-width="1" fill="none"></path></g><g transform="translate(65.71551075456534 150.8439099580546) rotate(0 4.623992919921875 10)"><text x="4.623992919921875" y="0" font-family="HanziPen SC, HanziPen Remote, Virgil, KaiTi, Segoe UI Emoji" font-size="16px" fill="#1e1e1e" text-anchor="middle" style="white-space: pre;" direction="ltr" dominant-baseline="text-before-edge">1</text></g><g stroke-linecap="round" transform="translate(82.34605350153436 145.79605326807018) rotate(0 12 15)"><path d="M0 0 C7.85 0, 15.71 0, 24 0 M0 0 C7.08 0, 14.17 0, 24 0 M24 0 C24 10.19, 24 20.39, 24 30 M24 0 C24 10.93, 24 21.86, 24 30 M24 30 C18.42 30, 12.83 30, 0 30 M24 30 C17.4 30, 10.79 30, 0 30 M0 30 C0 19.43, 0 8.86, 0 0 M0 30 C0 20.05, 0 10.11, 0 0" stroke="#1e1e1e" stroke-width="1" fill="none"></path></g><g transform="translate(89.72206058161248 150.79605326807018) rotate(0 4.623992919921875 10)"><text x="4.623992919921875" y="0" font-family="HanziPen SC, HanziPen Remote, Virgil, KaiTi, Segoe UI Emoji" font-size="16px" fill="#1e1e1e" text-anchor="middle" style="white-space: pre;" direction="ltr" dominant-baseline="text-before-edge">1</text></g><g stroke-linecap="round" transform="translate(111.53997692959763 183.7154758645337) rotate(0 33.5 15)"><path d="M0 0 C18.41 0, 36.82 0, 67 0 M0 0 C23.19 0, 46.38 0, 67 0 M67 0 C67 8.07, 67 16.13, 67 30 M67 0 C67 10.96, 67 21.92, 67 30 M67 30 C49.65 30, 32.3 30, 0 30 M67 30 C44.21 30, 21.42 30, 0 30 M0 30 C0 19.28, 0 8.56, 0 0 M0 30 C0 19.23, 0 8.47, 0 0" stroke="#1e1e1e" stroke-width="1" fill="none"></path></g><g transform="translate(140.41598400967575 188.7154758645337) rotate(0 4.623992919921875 10)"><text x="4.623992919921875" y="0" font-family="HanziPen SC, HanziPen Remote, Virgil, KaiTi, Segoe UI Emoji" font-size="16px" fill="#1e1e1e" text-anchor="middle" style="white-space: pre;" direction="ltr" dominant-baseline="text-before-edge">4</text></g><g stroke-linecap="round" transform="translate(10.407170021257457 183.46337450610508) rotate(0 12 15)"><path d="M0 0 C5.9 0, 11.81 0, 24 0 M0 0 C7.02 0, 14.04 0, 24 0 M24 0 C24 8.45, 24 16.9, 24 30 M24 0 C24 9.9, 24 19.81, 24 30 M24 30 C16.26 30, 8.51 30, 0 30 M24 30 C18.16 30, 12.32 30, 0 30 M0 30 C0 22.59, 0 15.17, 0 0 M0 30 C0 20.85, 0 11.69, 0 0" stroke="#1e1e1e" stroke-width="1" fill="none"></path></g><g transform="translate(17.783177101335582 188.46337450610508) rotate(0 4.623992919921875 10)"><text x="4.623992919921875" y="0" font-family="HanziPen SC, HanziPen Remote, Virgil, KaiTi, Segoe UI Emoji" font-size="16px" fill="#1e1e1e" text-anchor="middle" style="white-space: pre;" direction="ltr" dominant-baseline="text-before-edge">0</text></g><g stroke-linecap="round" transform="translate(34.313632408080025 183.4581135071851) rotate(0 12 15)"><path d="M0 0 C7.07 0, 14.13 0, 24 0 M0 0 C8.4 0, 16.8 0, 24 0 M24 0 C24 11.82, 24 23.64, 24 30 M24 0 C24 9.34, 24 18.68, 24 30 M24 30 C19.15 30, 14.29 30, 0 30 M24 30 C17.4 30, 10.81 30, 0 30 M0 30 C0 19.12, 0 8.24, 0 0 M0 30 C0 21.07, 0 12.13, 0 0" stroke="#1e1e1e" stroke-width="1" fill="none"></path></g><g transform="translate(41.68963948815815 188.4581135071851) rotate(0 4.623992919921875 10)"><text x="4.623992919921875" y="0" font-family="HanziPen SC, HanziPen Remote, Virgil, KaiTi, Segoe UI Emoji" font-size="16px" fill="#1e1e1e" text-anchor="middle" style="white-space: pre;" direction="ltr" dominant-baseline="text-before-edge">1</text></g><g stroke-linecap="round" transform="translate(58.37305750272469 183.47839964252512) rotate(0 12 15)"><path d="M0 0 C5.97 0, 11.93 0, 24 0 M0 0 C8.6 0, 17.2 0, 24 0 M24 0 C24 11.91, 24 23.82, 24 30 M24 0 C24 11.6, 24 23.2, 24 30 M24 30 C17.97 30, 11.94 30, 0 30 M24 30 C15.6 30, 7.2 30, 0 30 M0 30 C0 23.4, 0 16.79, 0 0 M0 30 C0 21.31, 0 12.61, 0 0" stroke="#1e1e1e" stroke-width="1" fill="none"></path></g><g transform="translate(65.74906458280282 188.47839964252512) rotate(0 4.623992919921875 10)"><text x="4.623992919921875" y="0" font-family="HanziPen SC, HanziPen Remote, Virgil, KaiTi, Segoe UI Emoji" font-size="16px" fill="#1e1e1e" text-anchor="middle" style="white-space: pre;" direction="ltr" dominant-baseline="text-before-edge">0</text></g><g stroke-linecap="round" transform="translate(82.37960732977172 183.4305429525408) rotate(0 12 15)"><path d="M0 0 C7.49 0, 14.97 0, 24 0 M0 0 C9.19 0, 18.38 0, 24 0 M24 0 C24 7.7, 24 15.41, 24 30 M24 0 C24 7.77, 24 15.54, 24 30 M24 30 C14.45 30, 4.9 30, 0 30 M24 30 C18.98 30, 13.97 30, 0 30 M0 30 C0 20.69, 0 11.37, 0 0 M0 30 C0 22.24, 0 14.47, 0 0" stroke="#1e1e1e" stroke-width="1" fill="none"></path></g><g transform="translate(89.75561440984984 188.4305429525408) rotate(0 4.623992919921875 10)"><text x="4.623992919921875" y="0" font-family="HanziPen SC, HanziPen Remote, Virgil, KaiTi, Segoe UI Emoji" font-size="16px" fill="#1e1e1e" text-anchor="middle" style="white-space: pre;" direction="ltr" dominant-baseline="text-before-edge">0</text></g><g stroke-linecap="round" transform="translate(111.63787349250708 220.8349874199489) rotate(0 33.5 15)"><path d="M0 0 C17.62 0, 35.25 0, 67 0 M0 0 C21.03 0, 42.07 0, 67 0 M67 0 C67 9.43, 67 18.85, 67 30 M67 0 C67 7.68, 67 15.36, 67 30 M67 30 C43.8 30, 20.6 30, 0 30 M67 30 C52.46 30, 37.91 30, 0 30 M0 30 C0 21.01, 0 12.02, 0 0 M0 30 C0 23.77, 0 17.54, 0 0" stroke="#1e1e1e" stroke-width="1" fill="none"></path></g><g transform="translate(140.5138805725852 225.8349874199489) rotate(0 4.623992919921875 10)"><text x="4.623992919921875" y="0" font-family="HanziPen SC, HanziPen Remote, Virgil, KaiTi, Segoe UI Emoji" font-size="16px" fill="#1e1e1e" text-anchor="middle" style="white-space: pre;" direction="ltr" dominant-baseline="text-before-edge">5</text></g><g stroke-linecap="round" transform="translate(10.442754711591647 220.5828860615203) rotate(0 12 15)"><path d="M0 0 C6.13 0, 12.26 0, 24 0 M0 0 C6.4 0, 12.8 0, 24 0 M24 0 C24 8.56, 24 17.12, 24 30 M24 0 C24 9.91, 24 19.82, 24 30 M24 30 C15.01 30, 6.03 30, 0 30 M24 30 C15.25 30, 6.51 30, 0 30 M0 30 C0 23.14, 0 16.28, 0 0 M0 30 C0 19.09, 0 8.17, 0 0" stroke="#1e1e1e" stroke-width="1" fill="none"></path></g><g transform="translate(17.818761791669772 225.5828860615203) rotate(0 4.623992919921875 10)"><text x="4.623992919921875" y="0" font-family="HanziPen SC, HanziPen Remote, Virgil, KaiTi, Segoe UI Emoji" font-size="16px" fill="#1e1e1e" text-anchor="middle" style="white-space: pre;" direction="ltr" dominant-baseline="text-before-edge">0</text></g><g stroke-linecap="round" transform="translate(34.349217098414215 220.5776250626003) rotate(0 12 15)"><path d="M0 0 C5.22 0, 10.44 0, 24 0 M0 0 C9.16 0, 18.32 0, 24 0 M24 0 C24 7.84, 24 15.67, 24 30 M24 0 C24 7.8, 24 15.59, 24 30 M24 30 C15.93 30, 7.87 30, 0 30 M24 30 C17.61 30, 11.21 30, 0 30 M0 30 C0 20.59, 0 11.19, 0 0 M0 30 C0 18.59, 0 7.18, 0 0" stroke="#1e1e1e" stroke-width="1" fill="none"></path></g><g transform="translate(41.72522417849234 225.5776250626003) rotate(0 4.623992919921875 10)"><text x="4.623992919921875" y="0" font-family="HanziPen SC, HanziPen Remote, Virgil, KaiTi, Segoe UI Emoji" font-size="16px" fill="#1e1e1e" text-anchor="middle" style="white-space: pre;" direction="ltr" dominant-baseline="text-before-edge">1</text></g><g stroke-linecap="round" transform="translate(58.40864219305888 220.59791119794033) rotate(0 12 15)"><path d="M0 0 C6.07 0, 12.14 0, 24 0 M0 0 C5.37 0, 10.73 0, 24 0 M24 0 C24 9.24, 24 18.47, 24 30 M24 0 C24 7.42, 24 14.83, 24 30 M24 30 C17.77 30, 11.54 30, 0 30 M24 30 C15.29 30, 6.57 30, 0 30 M0 30 C0 19.64, 0 9.27, 0 0 M0 30 C0 19.96, 0 9.92, 0 0" stroke="#1e1e1e" stroke-width="1" fill="none"></path></g><g transform="translate(65.784649273137 225.59791119794033) rotate(0 4.623992919921875 10)"><text x="4.623992919921875" y="0" font-family="HanziPen SC, HanziPen Remote, Virgil, KaiTi, Segoe UI Emoji" font-size="16px" fill="#1e1e1e" text-anchor="middle" style="white-space: pre;" direction="ltr" dominant-baseline="text-before-edge">0</text></g><g stroke-linecap="round" transform="translate(82.41519202010602 220.5500545079559) rotate(0 12 15)"><path d="M0 0 C5.76 0, 11.53 0, 24 0 M0 0 C9.19 0, 18.38 0, 24 0 M24 0 C24 7.99, 24 15.97, 24 30 M24 0 C24 9.61, 24 19.21, 24 30 M24 30 C15.63 30, 7.26 30, 0 30 M24 30 C16.32 30, 8.65 30, 0 30 M0 30 C0 21.29, 0 12.59, 0 0 M0 30 C0 20.11, 0 10.22, 0 0" stroke="#1e1e1e" stroke-width="1" fill="none"></path></g><g transform="translate(89.79119910018414 225.5500545079559) rotate(0 4.623992919921875 10)"><text x="4.623992919921875" y="0" font-family="HanziPen SC, HanziPen Remote, Virgil, KaiTi, Segoe UI Emoji" font-size="16px" fill="#1e1e1e" text-anchor="middle" style="white-space: pre;" direction="ltr" dominant-baseline="text-before-edge">1</text></g><g stroke-linecap="round" transform="translate(111.60591791282047 256.39853289936207) rotate(0 33.5 15)"><path d="M0 0 C15.59 0, 31.17 0, 67 0 M0 0 C18.43 0, 36.87 0, 67 0 M67 0 C67 10.57, 67 21.14, 67 30 M67 0 C67 9.95, 67 19.89, 67 30 M67 30 C41.43 30, 15.85 30, 0 30 M67 30 C51.81 30, 36.61 30, 0 30 M0 30 C0 21.33, 0 12.66, 0 0 M0 30 C0 21.2, 0 12.41, 0 0" stroke="#1e1e1e" stroke-width="1" fill="none"></path></g><g transform="translate(140.4819249928986 261.39853289936207) rotate(0 4.623992919921875 10)"><text x="4.623992919921875" y="0" font-family="HanziPen SC, HanziPen Remote, Virgil, KaiTi, Segoe UI Emoji" font-size="16px" fill="#1e1e1e" text-anchor="middle" style="white-space: pre;" direction="ltr" dominant-baseline="text-before-edge">6</text></g><g stroke-linecap="round" transform="translate(10.473111004480415 256.1464315409336) rotate(0 12 15)"><path d="M0 0 C6.22 0, 12.43 0, 24 0 M0 0 C8.16 0, 16.33 0, 24 0 M24 0 C24 10.72, 24 21.44, 24 30 M24 0 C24 10.77, 24 21.53, 24 30 M24 30 C16.51 30, 9.01 30, 0 30 M24 30 C14.42 30, 4.84 30, 0 30 M0 30 C0 22.27, 0 14.54, 0 0 M0 30 C0 18.67, 0 7.33, 0 0" stroke="#1e1e1e" stroke-width="1" fill="none"></path></g><g transform="translate(17.84911808455854 261.1464315409336) rotate(0 4.623992919921875 10)"><text x="4.623992919921875" y="0" font-family="HanziPen SC, HanziPen Remote, Virgil, KaiTi, Segoe UI Emoji" font-size="16px" fill="#1e1e1e" text-anchor="middle" style="white-space: pre;" direction="ltr" dominant-baseline="text-before-edge">0</text></g><g stroke-linecap="round" transform="translate(34.37957339130298 256.1411705420136) rotate(0 12 15)"><path d="M0 0 C7.74 0, 15.49 0, 24 0 M0 0 C5.84 0, 11.68 0, 24 0 M24 0 C24 7.41, 24 14.83, 24 30 M24 0 C24 9.15, 24 18.31, 24 30 M24 30 C17.55 30, 11.1 30, 0 30 M24 30 C14.94 30, 5.88 30, 0 30 M0 30 C0 21.38, 0 12.76, 0 0 M0 30 C0 19.16, 0 8.32, 0 0" stroke="#1e1e1e" stroke-width="1" fill="none"></path></g><g transform="translate(41.75558047138111 261.1411705420136) rotate(0 4.623992919921875 10)"><text x="4.623992919921875" y="0" font-family="HanziPen SC, HanziPen Remote, Virgil, KaiTi, Segoe UI Emoji" font-size="16px" fill="#1e1e1e" text-anchor="middle" style="white-space: pre;" direction="ltr" dominant-baseline="text-before-edge">1</text></g><g stroke-linecap="round" transform="translate(58.43899848594765 256.1614566773535) rotate(0 12 15)"><path d="M0 0 C4.85 0, 9.71 0, 24 0 M0 0 C6.6 0, 13.19 0, 24 0 M24 0 C24 10.88, 24 21.76, 24 30 M24 0 C24 8.93, 24 17.87, 24 30 M24 30 C15.48 30, 6.97 30, 0 30 M24 30 C16.16 30, 8.33 30, 0 30 M0 30 C0 22.68, 0 15.36, 0 0 M0 30 C0 22.61, 0 15.21, 0 0" stroke="#1e1e1e" stroke-width="1" fill="none"></path></g><g transform="translate(65.81500556602577 261.1614566773535) rotate(0 4.623992919921875 10)"><text x="4.623992919921875" y="0" font-family="HanziPen SC, HanziPen Remote, Virgil, KaiTi, Segoe UI Emoji" font-size="16px" fill="#1e1e1e" text-anchor="middle" style="white-space: pre;" direction="ltr" dominant-baseline="text-before-edge">1</text></g><g stroke-linecap="round" transform="translate(82.44554831299467 256.1135999873692) rotate(0 12 15)"><path d="M0 0 C6.03 0, 12.06 0, 24 0 M0 0 C8.4 0, 16.8 0, 24 0 M24 0 C24 6.6, 24 13.21, 24 30 M24 0 C24 8.69, 24 17.39, 24 30 M24 30 C18.02 30, 12.05 30, 0 30 M24 30 C18.31 30, 12.63 30, 0 30 M0 30 C0 18.94, 0 7.87, 0 0 M0 30 C0 22.17, 0 14.34, 0 0" stroke="#1e1e1e" stroke-width="1" fill="none"></path></g><g transform="translate(89.8215553930728 261.1135999873692) rotate(0 4.623992919921875 10)"><text x="4.623992919921875" y="0" font-family="HanziPen SC, HanziPen Remote, Virgil, KaiTi, Segoe UI Emoji" font-size="16px" fill="#1e1e1e" text-anchor="middle" style="white-space: pre;" direction="ltr" dominant-baseline="text-before-edge">0</text></g><g stroke-linecap="round" transform="translate(111.97590499519299 293.5180444547773) rotate(0 33 15)"><path d="M0 0 C26.27 0, 52.54 0, 66 0 M0 0 C13.79 0, 27.59 0, 66 0 M66 0 C66 9.31, 66 18.63, 66 30 M66 0 C66 7.76, 66 15.53, 66 30 M66 30 C52.49 30, 38.98 30, 0 30 M66 30 C44.64 30, 23.28 30, 0 30 M0 30 C0 21.68, 0 13.35, 0 0 M0 30 C0 22.27, 0 14.55, 0 0" stroke="#1e1e1e" stroke-width="1" fill="none"></path></g><g transform="translate(140.35191207527112 298.5180444547773) rotate(0 4.623992919921875 10)"><text x="4.623992919921875" y="0" font-family="HanziPen SC, HanziPen Remote, Virgil, KaiTi, Segoe UI Emoji" font-size="16px" fill="#1e1e1e" text-anchor="middle" style="white-space: pre;" direction="ltr" dominant-baseline="text-before-edge">7</text></g><g stroke-linecap="round" transform="translate(10.780786214277555 293.2659430963488) rotate(0 12 15)"><path d="M0 0 C8.31 0, 16.62 0, 24 0 M0 0 C5.21 0, 10.42 0, 24 0 M24 0 C24 8.99, 24 17.98, 24 30 M24 0 C24 6.23, 24 12.46, 24 30 M24 30 C17.99 30, 11.98 30, 0 30 M24 30 C18.55 30, 13.1 30, 0 30 M0 30 C0 19.16, 0 8.33, 0 0 M0 30 C0 20.58, 0 11.17, 0 0" stroke="#1e1e1e" stroke-width="1" fill="none"></path></g><g transform="translate(18.15679329435568 298.2659430963488) rotate(0 4.623992919921875 10)"><text x="4.623992919921875" y="0" font-family="HanziPen SC, HanziPen Remote, Virgil, KaiTi, Segoe UI Emoji" font-size="16px" fill="#1e1e1e" text-anchor="middle" style="white-space: pre;" direction="ltr" dominant-baseline="text-before-edge">0</text></g><g stroke-linecap="round" transform="translate(34.68724860110012 293.2606820974288) rotate(0 12 15)"><path d="M0 0 C8.99 0, 17.97 0, 24 0 M0 0 C8.75 0, 17.49 0, 24 0 M24 0 C24 6.86, 24 13.72, 24 30 M24 0 C24 10.91, 24 21.83, 24 30 M24 30 C14.64 30, 5.29 30, 0 30 M24 30 C18.9 30, 13.81 30, 0 30 M0 30 C0 18.42, 0 6.84, 0 0 M0 30 C0 20.01, 0 10.03, 0 0" stroke="#1e1e1e" stroke-width="1" fill="none"></path></g><g transform="translate(42.06325568117825 298.2606820974288) rotate(0 4.623992919921875 10)"><text x="4.623992919921875" y="0" font-family="HanziPen SC, HanziPen Remote, Virgil, KaiTi, Segoe UI Emoji" font-size="16px" fill="#1e1e1e" text-anchor="middle" style="white-space: pre;" direction="ltr" dominant-baseline="text-before-edge">1</text></g><g stroke-linecap="round" transform="translate(58.74667369574479 293.2809682327688) rotate(0 12 15)"><path d="M0 0 C8.07 0, 16.13 0, 24 0 M0 0 C6.39 0, 12.79 0, 24 0 M24 0 C24 9.41, 24 18.81, 24 30 M24 0 C24 11.41, 24 22.82, 24 30 M24 30 C19.17 30, 14.33 30, 0 30 M24 30 C15.13 30, 6.25 30, 0 30 M0 30 C0 21.21, 0 12.42, 0 0 M0 30 C0 22.74, 0 15.48, 0 0" stroke="#1e1e1e" stroke-width="1" fill="none"></path></g><g transform="translate(66.12268077582291 298.2809682327688) rotate(0 4.623992919921875 10)"><text x="4.623992919921875" y="0" font-family="HanziPen SC, HanziPen Remote, Virgil, KaiTi, Segoe UI Emoji" font-size="16px" fill="#1e1e1e" text-anchor="middle" style="white-space: pre;" direction="ltr" dominant-baseline="text-before-edge">1</text></g><g stroke-linecap="round" transform="translate(82.75322352279193 293.2331115427844) rotate(0 12 15)"><path d="M0 0 C6.23 0, 12.46 0, 24 0 M0 0 C8.71 0, 17.43 0, 24 0 M24 0 C24 10.36, 24 20.73, 24 30 M24 0 C24 10.04, 24 20.08, 24 30 M24 30 C18.28 30, 12.55 30, 0 30 M24 30 C18.85 30, 13.7 30, 0 30 M0 30 C0 18.06, 0 6.12, 0 0 M0 30 C0 18.17, 0 6.34, 0 0" stroke="#1e1e1e" stroke-width="1" fill="none"></path></g><g transform="translate(90.12923060287005 298.2331115427844) rotate(0 4.623992919921875 10)"><text x="4.623992919921875" y="0" font-family="HanziPen SC, HanziPen Remote, Virgil, KaiTi, Segoe UI Emoji" font-size="16px" fill="#1e1e1e" text-anchor="middle" style="white-space: pre;" direction="ltr" dominant-baseline="text-before-edge">1</text></g><g transform="translate(32.91279069438542 10) rotate(0 24.719993591308594 10)"><text x="0" y="0" font-family="HanziPen SC, HanziPen Remote, Virgil, KaiTi, Segoe UI Emoji" font-size="16px" fill="#1e1e1e" text-anchor="start" style="white-space: pre;" direction="ltr" dominant-baseline="text-before-edge">二进制</text></g><g transform="translate(120.37504155202419 10.256414460446791) rotate(0 24.719993591308594 10)"><text x="0" y="0" font-family="HanziPen SC, HanziPen Remote, Virgil, KaiTi, Segoe UI Emoji" font-size="16px" fill="#1e1e1e" text-anchor="start" style="white-space: pre;" direction="ltr" dominant-baseline="text-before-edge">十进制</text></g></svg>