<svg xmlns="http://www.w3.org/2000/svg" width="188.638" height="333.518" xmlns:v="https://vecta.io/nano"><style><![CDATA[.B{font-family:HanziPen SC, HanziPen Remote, Virgil, KaiTi, Segoe UI Emoji}.C{font-size:16px}.D{fill:#1e1e1e}.E{direction:ltr}.F{dominant-baseline:text-before-edge}.G{stroke:#1e1e1e}.H{fill:none}.I{stroke-linecap:round}.J{text-anchor:middle}]]></style><defs><style>@font-face{font-family:"Virgil";src:url("https://unpkg.com/revedraw@1.0.0-alpha.10/dist/excalidraw-assets/Virgil.woff2")} @font-face{font-family:"Cascadia";src:url("https://unpkg.com/revedraw@1.0.0-alpha.10/dist/excalidraw-assets/Cascadia.woff2")}</style><path id="A" d="M111.133 36.278h67m-67 0h67m0 0v30m0-30v30m0 0h-67m67 0h-67m0 0v-30m0 30v-30"/><path id="B" d="M33.906 36.021h24m-24 0h24m0 0v30m0-30v30m0 0h-24m24 0h-24m0 0v-30m0 30v-30"/><path id="C" d="M111.569 146.081h66m-66 0h66m0 0v30m0-30v30m0 0h-66m66 0h-66m0 0v-30m0 30v-30"/></defs><path fill="#fff" d="M0 0h188.638v333.518H0z"/><use href="#A" class="G H I"/><text x="144.633" style="white-space:pre" y="41.278" class="B C D E F J">0</text><path d="M10 36.026h24m-24 0h24m0 0v30m0-30v30m0 0H10m24 0H10m0 0v-30m0 30v-30" class="G H I"/><text x="22" style="white-space:pre" y="41.026" class="B C D E F J">0</text><use href="#B" class="G H I"/><text x="45.906" style="white-space:pre" y="41.021" class="B C D E F J">0</text><use href="#B" x="24.06" y="0.02" class="G H I"/><text x="69.966" style="white-space:pre" y="41.041" class="B C D E F J">0</text><use href="#B" x="48.066" y="-0.028" class="G H I"/><text x="93.972" style="white-space:pre" y="40.993" class="B C D E F J">0</text><use href="#A" x="0.098" y="37.12" class="G H I"/><text x="144.731" style="white-space:pre" y="78.398" class="B C D E F J">1</text><use href="#B" x="-23.87" y="37.125" class="G H I"/><text x="22.036" style="white-space:pre" y="78.146" class="B C D E F J">0</text><use href="#B" x="0.036" y="37.12" class="G H I"/><text x="45.942" style="white-space:pre" y="78.141" class="B C D E F J">0</text><use href="#B" x="24.095" y="37.14" class="G H I"/><text x="70.001" style="white-space:pre" y="78.161" class="B C D E F J">0</text><use href="#B" x="48.102" y="37.092" class="G H I"/><text x="94.008" style="white-space:pre" y="78.113" class="B C D E F J">1</text><use href="#A" x="0.066" y="72.683" class="G H I"/><text x="144.699" style="white-space:pre" y="113.961" class="B C D E F J">2</text><use href="#B" x="-23.84" y="72.688" class="G H I"/><text x="22.066" style="white-space:pre" y="113.709" class="B C D E F J">0</text><use href="#B" x="0.066" y="72.683" class="G H I"/><text x="45.972" style="white-space:pre" y="113.704" class="B C D E F J">0</text><use href="#B" x="24.126" y="72.703" class="G H I"/><text x="70.032" style="white-space:pre" y="113.724" class="B C D E F J">1</text><use href="#B" x="48.132" y="72.656" class="G H I"/><text x="94.038" style="white-space:pre" y="113.677" class="B C D E F J">0</text><use href="#C" class="G H I"/><text x="144.569" style="white-space:pre" y="151.081" class="B C D E F J">3</text><use href="#B" x="-23.532" y="109.808" class="G H I"/><text x="22.374" style="white-space:pre" y="150.829" class="B C D E F J">0</text><use href="#B" x="0.374" y="109.803" class="G H I"/><text x="46.28" style="white-space:pre" y="150.824" class="B C D E F J">0</text><use href="#B" x="24.434" y="109.823" class="G H I"/><text x="70.34" style="white-space:pre" y="150.844" class="B C D E F J">1</text><use href="#B" x="48.44" y="109.775" class="G H I"/><text x="94.346" style="white-space:pre" y="150.796" class="B C D E F J">1</text><use href="#A" x="0.407" y="147.437" class="G H I"/><text x="145.04" style="white-space:pre" y="188.715" class="B C D E F J">4</text><use href="#B" x="-23.499" y="147.442" class="G H I"/><text x="22.407" style="white-space:pre" y="188.463" class="B C D E F J">0</text><use href="#B" x="0.408" y="147.437" class="G H I"/><text x="46.314" style="white-space:pre" y="188.458" class="B C D E F J">1</text><use href="#B" x="24.467" y="147.457" class="G H I"/><text x="70.373" style="white-space:pre" y="188.478" class="B C D E F J">0</text><use href="#B" x="48.474" y="147.41" class="G H I"/><text x="94.38" style="white-space:pre" y="188.431" class="B C D E F J">0</text><use href="#A" x="0.505" y="184.557" class="G H I"/><text x="145.138" style="white-space:pre" y="225.835" class="B C D E F J">5</text><use href="#B" x="-23.463" y="184.562" class="G H I"/><text x="22.443" style="white-space:pre" y="225.583" class="B C D E F J">0</text><use href="#B" x="0.443" y="184.557" class="G H I"/><text x="46.349" style="white-space:pre" y="225.578" class="B C D E F J">1</text><use href="#B" x="24.503" y="184.577" class="G H I"/><text x="70.409" style="white-space:pre" y="225.598" class="B C D E F J">0</text><use href="#B" x="48.509" y="184.529" class="G H I"/><text x="94.415" style="white-space:pre" y="225.55" class="B C D E F J">1</text><use href="#A" x="0.473" y="220.121" class="G H I"/><text x="145.106" style="white-space:pre" y="261.399" class="B C D E F J">6</text><use href="#B" x="-23.433" y="220.125" class="G H I"/><text x="22.473" style="white-space:pre" y="261.146" class="B C D E F J">0</text><use href="#B" x="0.474" y="220.12" class="G H I"/><text x="46.38" style="white-space:pre" y="261.141" class="B C D E F J">1</text><use href="#B" x="24.533" y="220.14" class="G H I"/><text x="70.439" style="white-space:pre" y="261.161" class="B C D E F J">1</text><use href="#B" x="48.54" y="220.093" class="G H I"/><text x="94.446" style="white-space:pre" y="261.114" class="B C D E F J">0</text><use href="#C" x="0.407" y="147.437" class="G H I"/><text x="144.976" style="white-space:pre" y="298.518" class="B C D E F J">7</text><use href="#B" x="-23.125" y="257.245" class="G H I"/><text x="22.781" style="white-space:pre" y="298.266" class="B C D E F J">0</text><use href="#B" x="0.781" y="257.24" class="G H I"/><text x="46.687" style="white-space:pre" y="298.261" class="B C D E F J">1</text><use href="#B" x="24.841" y="257.26" class="G H I"/><text x="70.747" style="white-space:pre" y="298.281" class="B C D E F J">1</text><use href="#B" x="48.847" y="257.212" class="G H I"/><text x="94.753" style="white-space:pre" y="298.233" class="B C D E F J">1</text><text style="white-space:pre" x="32.913" y="10" class="B C D E F">二进制</text><text style="white-space:pre" x="120.375" y="10.256" class="B C D E F">十进制</text></svg>