<svg version="1.1" xmlns="http://www.w3.org/2000/svg" viewBox="0 0 188.63787349250708 333.5180444547773" width="188.63787349250708" height="333.5180444547773" filter="invert(93%) hue-rotate(180deg)">
  <!-- svg-source:excalidraw -->
  
  <defs>
    <style class="style-fonts">
      @font-face {
        font-family: "Virgil";
        src: url("/woff2/Virgil.woff2");
      }
      @font-face {
        font-family: "Cascadia";
        src: url("/woff2/Cascadia.woff2");
      }
    </style>
    
  </defs>
  <g stroke-linecap="round" transform="translate(111.13280690834006 36.278417589819526) rotate(0 33.5 15)"><path d="M0 0 C20.01 0, 40.02 0, 67 0 M0 0 C16.67 0, 33.35 0, 67 0 M67 0 C67 10.06, 67 20.11, 67 30 M67 0 C67 8.41, 67 16.82, 67 30 M67 30 C41.54 30, 16.09 30, 0 30 M67 30 C46.49 30, 25.97 30, 0 30 M0 30 C0 22.09, 0 14.18, 0 0 M0 30 C0 23.72, 0 17.43, 0 0" stroke="#1e1e1e" stroke-width="1" fill="none"></path></g><g transform="translate(140.00881398841818 41.278417589819526) rotate(0 4.623992919921875 10)"><text x="4.623992919921875" y="0" font-family="HanziPen SC, HanziPen Remote, Virgil, KaiTi, Segoe UI Emoji" font-size="16px" fill="#1e1e1e" text-anchor="middle" style="white-space: pre;" direction="ltr" dominant-baseline="text-before-edge">0</text></g><g stroke-linecap="round" transform="translate(10 36.02631623139098) rotate(0 12 15)"><path d="M0 0 C9.48 0, 18.97 0, 24 0 M0 0 C7.61 0, 15.23 0, 24 0 M24 0 C24 8.13, 24 16.26, 24 30 M24 0 C24 9.87, 24 19.74, 24 30 M24 30 C16.43 30, 8.85 30, 0 30 M24 30 C14.98 30, 5.96 30, 0 30 M0 30 C0 18.2, 0 6.41, 0 0 M0 30 C0 19.18, 0 8.36, 0 0" stroke="#1e1e1e" stroke-width="1" fill="none"></path></g><g transform="translate(17.376007080078125 41.02631623139098) rotate(0 4.623992919921875 10)"><text x="4.623992919921875" y="0" font-family="HanziPen SC, HanziPen Remote, Virgil, KaiTi, Segoe UI Emoji" font-size="16px" fill="#1e1e1e" text-anchor="middle" style="white-space: pre;" direction="ltr" dominant-baseline="text-before-edge">0</text></g><g stroke-linecap="round" transform="translate(33.90646238682257 36.021055232470985) rotate(0 12 15)"><path d="M0 0 C5.09 0, 10.17 0, 24 0 M0 0 C5.47 0, 10.94 0, 24 0 M24 0 C24 10.09, 24 20.18, 24 30 M24 0 C24 8.15, 24 16.3, 24 30 M24 30 C18.38 30, 12.77 30, 0 30 M24 30 C15.22 30, 6.45 30, 0 30 M0 30 C0 22.04, 0 14.08, 0 0 M0 30 C0 18.89, 0 7.79, 0 0" stroke="#1e1e1e" stroke-width="1" fill="none"></path></g><g transform="translate(41.28246946690069 41.021055232470985) rotate(0 4.623992919921875 10)"><text x="4.623992919921875" y="0" font-family="HanziPen SC, HanziPen Remote, Virgil, KaiTi, Segoe UI Emoji" font-size="16px" fill="#1e1e1e" text-anchor="middle" style="white-space: pre;" direction="ltr" dominant-baseline="text-before-edge">0</text></g><g stroke-linecap="round" transform="translate(57.965887481467234 36.041341367810986) rotate(0 12 15)"><path d="M0 0 C7.75 0, 15.51 0, 24 0 M0 0 C9.36 0, 18.73 0, 24 0 M24 0 C24 6.97, 24 13.94, 24 30 M24 0 C24 9.07, 24 18.15, 24 30 M24 30 C15.86 30, 7.73 30, 0 30 M24 30 C17.28 30, 10.56 30, 0 30 M0 30 C0 19.16, 0 8.32, 0 0 M0 30 C0 21.66, 0 13.33, 0 0" stroke="#1e1e1e" stroke-width="1" fill="none"></path></g><g transform="translate(65.34189456154536 41.041341367810986) rotate(0 4.623992919921875 10)"><text x="4.623992919921875" y="0" font-family="HanziPen SC, HanziPen Remote, Virgil, KaiTi, Segoe UI Emoji" font-size="16px" fill="#1e1e1e" text-anchor="middle" style="white-space: pre;" direction="ltr" dominant-baseline="text-before-edge">0</text></g><g stroke-linecap="round" transform="translate(81.97243730851426 35.993484677826615) rotate(0 12 15)"><path d="M0 0 C5.8 0, 11.6 0, 24 0 M0 0 C8.38 0, 16.75 0, 24 0 M24 0 C24 7.49, 24 14.99, 24 30 M24 0 C24 9.06, 24 18.11, 24 30 M24 30 C17.45 30, 10.89 30, 0 30 M24 30 C15.37 30, 6.74 30, 0 30 M0 30 C0 22.47, 0 14.94, 0 0 M0 30 C0 20.72, 0 11.44, 0 0" stroke="#1e1e1e" stroke-width="1" fill="none"></path></g><g transform="translate(89.34844438859238 40.993484677826615) rotate(0 4.623992919921875 10)"><text x="4.623992919921875" y="0" font-family="HanziPen SC, HanziPen Remote, Virgil, KaiTi, Segoe UI Emoji" font-size="16px" fill="#1e1e1e" text-anchor="middle" style="white-space: pre;" direction="ltr" dominant-baseline="text-before-edge">0</text></g><g stroke-linecap="round" transform="translate(111.23070347124974 73.39792914523468) rotate(0 33.5 15)"><path d="M0 0 C21.43 0, 42.86 0, 67 0 M0 0 C19.14 0, 38.28 0, 67 0 M67 0 C67 11.04, 67 22.07, 67 30 M67 0 C67 10.08, 67 20.17, 67 30 M67 30 C52.37 30, 37.75 30, 0 30 M67 30 C41.5 30, 16 30, 0 30 M0 30 C0 21.19, 0 12.37, 0 0 M0 30 C0 18.72, 0 7.44, 0 0" stroke="#1e1e1e" stroke-width="1" fill="none"></path></g><g transform="translate(140.10671055132786 78.39792914523468) rotate(0 4.623992919921875 10)"><text x="4.623992919921875" y="0" font-family="HanziPen SC, HanziPen Remote, Virgil, KaiTi, Segoe UI Emoji" font-size="16px" fill="#1e1e1e" text-anchor="middle" style="white-space: pre;" direction="ltr" dominant-baseline="text-before-edge">1</text></g><g stroke-linecap="round" transform="translate(10.035584690334304 73.14582778680614) rotate(0 12 15)"><path d="M0 0 C5.97 0, 11.94 0, 24 0 M0 0 C7.61 0, 15.22 0, 24 0 M24 0 C24 10.66, 24 21.32, 24 30 M24 0 C24 10.72, 24 21.44, 24 30 M24 30 C14.51 30, 5.02 30, 0 30 M24 30 C15.47 30, 6.94 30, 0 30 M0 30 C0 19.87, 0 9.73, 0 0 M0 30 C0 18.74, 0 7.48, 0 0" stroke="#1e1e1e" stroke-width="1" fill="none"></path></g><g transform="translate(17.41159177041243 78.14582778680614) rotate(0 4.623992919921875 10)"><text x="4.623992919921875" y="0" font-family="HanziPen SC, HanziPen Remote, Virgil, KaiTi, Segoe UI Emoji" font-size="16px" fill="#1e1e1e" text-anchor="middle" style="white-space: pre;" direction="ltr" dominant-baseline="text-before-edge">0</text></g><g stroke-linecap="round" transform="translate(33.94204707715687 73.14056678788614) rotate(0 12 15)"><path d="M0 0 C8.61 0, 17.21 0, 24 0 M0 0 C9.51 0, 19.01 0, 24 0 M24 0 C24 8.08, 24 16.17, 24 30 M24 0 C24 9.11, 24 18.21, 24 30 M24 30 C15.26 30, 6.51 30, 0 30 M24 30 C18.43 30, 12.85 30, 0 30 M0 30 C0 23.39, 0 16.79, 0 0 M0 30 C0 21.27, 0 12.55, 0 0" stroke="#1e1e1e" stroke-width="1" fill="none"></path></g><g transform="translate(41.318054157235 78.14056678788614) rotate(0 4.623992919921875 10)"><text x="4.623992919921875" y="0" font-family="HanziPen SC, HanziPen Remote, Virgil, KaiTi, Segoe UI Emoji" font-size="16px" fill="#1e1e1e" text-anchor="middle" style="white-space: pre;" direction="ltr" dominant-baseline="text-before-edge">0</text></g><g stroke-linecap="round" transform="translate(58.00147217180154 73.16085292322614) rotate(0 12 15)"><path d="M0 0 C7.65 0, 15.3 0, 24 0 M0 0 C5.08 0, 10.16 0, 24 0 M24 0 C24 10.71, 24 21.43, 24 30 M24 0 C24 11.97, 24 23.94, 24 30 M24 30 C16.22 30, 8.44 30, 0 30 M24 30 C14.51 30, 5.02 30, 0 30 M0 30 C0 21.98, 0 13.95, 0 0 M0 30 C0 21.24, 0 12.48, 0 0" stroke="#1e1e1e" stroke-width="1" fill="none"></path></g><g transform="translate(65.37747925187966 78.16085292322614) rotate(0 4.623992919921875 10)"><text x="4.623992919921875" y="0" font-family="HanziPen SC, HanziPen Remote, Virgil, KaiTi, Segoe UI Emoji" font-size="16px" fill="#1e1e1e" text-anchor="middle" style="white-space: pre;" direction="ltr" dominant-baseline="text-before-edge">0</text></g><g stroke-linecap="round" transform="translate(82.00802199884845 73.11299623324177) rotate(0 12 15)"><path d="M0 0 C5.7 0, 11.4 0, 24 0 M0 0 C6.93 0, 13.86 0, 24 0 M24 0 C24 10.62, 24 21.24, 24 30 M24 0 C24 7.6, 24 15.21, 24 30 M24 30 C18.89 30, 13.79 30, 0 30 M24 30 C15.24 30, 6.48 30, 0 30 M0 30 C0 18.15, 0 6.3, 0 0 M0 30 C0 22.98, 0 15.96, 0 0" stroke="#1e1e1e" stroke-width="1" fill="none"></path></g><g transform="translate(89.38402907892657 78.11299623324177) rotate(0 4.623992919921875 10)"><text x="4.623992919921875" y="0" font-family="HanziPen SC, HanziPen Remote, Virgil, KaiTi, Segoe UI Emoji" font-size="16px" fill="#1e1e1e" text-anchor="middle" style="white-space: pre;" direction="ltr" dominant-baseline="text-before-edge">1</text></g><g stroke-linecap="round" transform="translate(111.19874789156302 108.96147462464796) rotate(0 33.5 15)"><path d="M0 0 C24.28 0, 48.57 0, 67 0 M0 0 C19.3 0, 38.6 0, 67 0 M67 0 C67 11.55, 67 23.1, 67 30 M67 0 C67 10.89, 67 21.78, 67 30 M67 30 C53.1 30, 39.2 30, 0 30 M67 30 C47.1 30, 27.2 30, 0 30 M0 30 C0 23.78, 0 17.57, 0 0 M0 30 C0 19.26, 0 8.52, 0 0" stroke="#1e1e1e" stroke-width="1" fill="none"></path></g><g transform="translate(140.07475497164114 113.96147462464796) rotate(0 4.623992919921875 10)"><text x="4.623992919921875" y="0" font-family="HanziPen SC, HanziPen Remote, Virgil, KaiTi, Segoe UI Emoji" font-size="16px" fill="#1e1e1e" text-anchor="middle" style="white-space: pre;" direction="ltr" dominant-baseline="text-before-edge">2</text></g><g stroke-linecap="round" transform="translate(10.065940983222958 108.70937326621942) rotate(0 12 15)"><path d="M0 0 C9.12 0, 18.24 0, 24 0 M0 0 C7.35 0, 14.7 0, 24 0 M24 0 C24 7.91, 24 15.82, 24 30 M24 0 C24 6.28, 24 12.57, 24 30 M24 30 C18.62 30, 13.23 30, 0 30 M24 30 C17.19 30, 10.39 30, 0 30 M0 30 C0 21.07, 0 12.14, 0 0 M0 30 C0 18.26, 0 6.53, 0 0" stroke="#1e1e1e" stroke-width="1" fill="none"></path></g><g transform="translate(17.441948063301083 113.70937326621942) rotate(0 4.623992919921875 10)"><text x="4.623992919921875" y="0" font-family="HanziPen SC, HanziPen Remote, Virgil, KaiTi, Segoe UI Emoji" font-size="16px" fill="#1e1e1e" text-anchor="middle" style="white-space: pre;" direction="ltr" dominant-baseline="text-before-edge">0</text></g><g stroke-linecap="round" transform="translate(33.97240337004553 108.70411226729942) rotate(0 12 15)"><path d="M0 0 C7.57 0, 15.15 0, 24 0 M0 0 C9.02 0, 18.04 0, 24 0 M24 0 C24 11.8, 24 23.59, 24 30 M24 0 C24 10.82, 24 21.64, 24 30 M24 30 C18.75 30, 13.5 30, 0 30 M24 30 C17.94 30, 11.87 30, 0 30 M0 30 C0 19.53, 0 9.07, 0 0 M0 30 C0 22.6, 0 15.19, 0 0" stroke="#1e1e1e" stroke-width="1" fill="none"></path></g><g transform="translate(41.34841045012365 113.70411226729942) rotate(0 4.623992919921875 10)"><text x="4.623992919921875" y="0" font-family="HanziPen SC, HanziPen Remote, Virgil, KaiTi, Segoe UI Emoji" font-size="16px" fill="#1e1e1e" text-anchor="middle" style="white-space: pre;" direction="ltr" dominant-baseline="text-before-edge">0</text></g><g stroke-linecap="round" transform="translate(58.03182846469019 108.7243984026394) rotate(0 12 15)"><path d="M0 0 C5.62 0, 11.23 0, 24 0 M0 0 C8.78 0, 17.55 0, 24 0 M24 0 C24 7.96, 24 15.92, 24 30 M24 0 C24 11.11, 24 22.21, 24 30 M24 30 C17.16 30, 10.32 30, 0 30 M24 30 C17.57 30, 11.14 30, 0 30 M0 30 C0 23.02, 0 16.04, 0 0 M0 30 C0 20.29, 0 10.57, 0 0" stroke="#1e1e1e" stroke-width="1" fill="none"></path></g><g transform="translate(65.40783554476832 113.7243984026394) rotate(0 4.623992919921875 10)"><text x="4.623992919921875" y="0" font-family="HanziPen SC, HanziPen Remote, Virgil, KaiTi, Segoe UI Emoji" font-size="16px" fill="#1e1e1e" text-anchor="middle" style="white-space: pre;" direction="ltr" dominant-baseline="text-before-edge">1</text></g><g stroke-linecap="round" transform="translate(82.03837829173722 108.67654171265508) rotate(0 12 15)"><path d="M0 0 C8.14 0, 16.27 0, 24 0 M0 0 C6.72 0, 13.44 0, 24 0 M24 0 C24 10.84, 24 21.68, 24 30 M24 0 C24 8.34, 24 16.67, 24 30 M24 30 C15.45 30, 6.9 30, 0 30 M24 30 C18.49 30, 12.98 30, 0 30 M0 30 C0 20.71, 0 11.43, 0 0 M0 30 C0 23.79, 0 17.57, 0 0" stroke="#1e1e1e" stroke-width="1" fill="none"></path></g><g transform="translate(89.41438537181534 113.67654171265508) rotate(0 4.623992919921875 10)"><text x="4.623992919921875" y="0" font-family="HanziPen SC, HanziPen Remote, Virgil, KaiTi, Segoe UI Emoji" font-size="16px" fill="#1e1e1e" text-anchor="middle" style="white-space: pre;" direction="ltr" dominant-baseline="text-before-edge">0</text></g><g stroke-linecap="round" transform="translate(111.56873497393542 146.08098618006312) rotate(0 33 15)"><path d="M0 0 C18.03 0, 36.05 0, 66 0 M0 0 C23.73 0, 47.47 0, 66 0 M66 0 C66 7.53, 66 15.06, 66 30 M66 0 C66 9.28, 66 18.56, 66 30 M66 30 C45.86 30, 25.73 30, 0 30 M66 30 C41.37 30, 16.75 30, 0 30 M0 30 C0 20.12, 0 10.23, 0 0 M0 30 C0 18.97, 0 7.93, 0 0" stroke="#1e1e1e" stroke-width="1" fill="none"></path></g><g transform="translate(139.94474205401355 151.08098618006312) rotate(0 4.623992919921875 10)"><text x="4.623992919921875" y="0" font-family="HanziPen SC, HanziPen Remote, Virgil, KaiTi, Segoe UI Emoji" font-size="16px" fill="#1e1e1e" text-anchor="middle" style="white-space: pre;" direction="ltr" dominant-baseline="text-before-edge">3</text></g><g stroke-linecap="round" transform="translate(10.373616193019984 145.82888482163457) rotate(0 12 15)"><path d="M0 0 C5.24 0, 10.48 0, 24 0 M0 0 C9.13 0, 18.27 0, 24 0 M24 0 C24 8.81, 24 17.63, 24 30 M24 0 C24 11.28, 24 22.56, 24 30 M24 30 C18.17 30, 12.33 30, 0 30 M24 30 C15.11 30, 6.22 30, 0 30 M0 30 C0 20.06, 0 10.13, 0 0 M0 30 C0 22.12, 0 14.24, 0 0" stroke="#1e1e1e" stroke-width="1" fill="none"></path></g><g transform="translate(17.74962327309811 150.82888482163457) rotate(0 4.623992919921875 10)"><text x="4.623992919921875" y="0" font-family="HanziPen SC, HanziPen Remote, Virgil, KaiTi, Segoe UI Emoji" font-size="16px" fill="#1e1e1e" text-anchor="middle" style="white-space: pre;" direction="ltr" dominant-baseline="text-before-edge">0</text></g><g stroke-linecap="round" transform="translate(34.28007857984255 145.82362382271458) rotate(0 12 15)"><path d="M0 0 C9.49 0, 18.98 0, 24 0 M0 0 C8.53 0, 17.06 0, 24 0 M24 0 C24 10.13, 24 20.27, 24 30 M24 0 C24 11.26, 24 22.52, 24 30 M24 30 C18.7 30, 13.41 30, 0 30 M24 30 C18.51 30, 13.02 30, 0 30 M0 30 C0 19.72, 0 9.44, 0 0 M0 30 C0 22.97, 0 15.93, 0 0" stroke="#1e1e1e" stroke-width="1" fill="none"></path></g><g transform="translate(41.65608565992068 150.82362382271458) rotate(0 4.623992919921875 10)"><text x="4.623992919921875" y="0" font-family="HanziPen SC, HanziPen Remote, Virgil, KaiTi, Segoe UI Emoji" font-size="16px" fill="#1e1e1e" text-anchor="middle" style="white-space: pre;" direction="ltr" dominant-baseline="text-before-edge">0</text></g><g stroke-linecap="round" transform="translate(58.33950367448722 145.8439099580546) rotate(0 12 15)"><path d="M0 0 C8.74 0, 17.49 0, 24 0 M0 0 C5.57 0, 11.15 0, 24 0 M24 0 C24 6.61, 24 13.21, 24 30 M24 0 C24 8.73, 24 17.45, 24 30 M24 30 C16.14 30, 8.28 30, 0 30 M24 30 C14.59 30, 5.17 30, 0 30 M0 30 C0 21.57, 0 13.15, 0 0 M0 30 C0 23.64, 0 17.29, 0 0" stroke="#1e1e1e" stroke-width="1" fill="none"></path></g><g transform="translate(65.71551075456534 150.8439099580546) rotate(0 4.623992919921875 10)"><text x="4.623992919921875" y="0" font-family="HanziPen SC, HanziPen Remote, Virgil, KaiTi, Segoe UI Emoji" font-size="16px" fill="#1e1e1e" text-anchor="middle" style="white-space: pre;" direction="ltr" dominant-baseline="text-before-edge">1</text></g><g stroke-linecap="round" transform="translate(82.34605350153436 145.79605326807018) rotate(0 12 15)"><path d="M0 0 C7.78 0, 15.56 0, 24 0 M0 0 C9.49 0, 18.98 0, 24 0 M24 0 C24 8.02, 24 16.05, 24 30 M24 0 C24 8.76, 24 17.52, 24 30 M24 30 C14.58 30, 5.16 30, 0 30 M24 30 C18.24 30, 12.48 30, 0 30 M0 30 C0 22.45, 0 14.9, 0 0 M0 30 C0 23.71, 0 17.41, 0 0" stroke="#1e1e1e" stroke-width="1" fill="none"></path></g><g transform="translate(89.72206058161248 150.79605326807018) rotate(0 4.623992919921875 10)"><text x="4.623992919921875" y="0" font-family="HanziPen SC, HanziPen Remote, Virgil, KaiTi, Segoe UI Emoji" font-size="16px" fill="#1e1e1e" text-anchor="middle" style="white-space: pre;" direction="ltr" dominant-baseline="text-before-edge">1</text></g><g stroke-linecap="round" transform="translate(111.53997692959763 183.7154758645337) rotate(0 33.5 15)"><path d="M0 0 C14.25 0, 28.51 0, 67 0 M0 0 C24.45 0, 48.9 0, 67 0 M67 0 C67 11.85, 67 23.7, 67 30 M67 0 C67 7.02, 67 14.04, 67 30 M67 30 C48.04 30, 29.08 30, 0 30 M67 30 C41.03 30, 15.06 30, 0 30 M0 30 C0 22.49, 0 14.97, 0 0 M0 30 C0 23.14, 0 16.28, 0 0" stroke="#1e1e1e" stroke-width="1" fill="none"></path></g><g transform="translate(140.41598400967575 188.7154758645337) rotate(0 4.623992919921875 10)"><text x="4.623992919921875" y="0" font-family="HanziPen SC, HanziPen Remote, Virgil, KaiTi, Segoe UI Emoji" font-size="16px" fill="#1e1e1e" text-anchor="middle" style="white-space: pre;" direction="ltr" dominant-baseline="text-before-edge">4</text></g><g stroke-linecap="round" transform="translate(10.407170021257457 183.46337450610508) rotate(0 12 15)"><path d="M0 0 C4.98 0, 9.96 0, 24 0 M0 0 C7.13 0, 14.26 0, 24 0 M24 0 C24 6.22, 24 12.43, 24 30 M24 0 C24 10.74, 24 21.48, 24 30 M24 30 C19.06 30, 14.11 30, 0 30 M24 30 C14.73 30, 5.45 30, 0 30 M0 30 C0 22.17, 0 14.33, 0 0 M0 30 C0 19.35, 0 8.7, 0 0" stroke="#1e1e1e" stroke-width="1" fill="none"></path></g><g transform="translate(17.783177101335582 188.46337450610508) rotate(0 4.623992919921875 10)"><text x="4.623992919921875" y="0" font-family="HanziPen SC, HanziPen Remote, Virgil, KaiTi, Segoe UI Emoji" font-size="16px" fill="#1e1e1e" text-anchor="middle" style="white-space: pre;" direction="ltr" dominant-baseline="text-before-edge">0</text></g><g stroke-linecap="round" transform="translate(34.313632408080025 183.4581135071851) rotate(0 12 15)"><path d="M0 0 C5.38 0, 10.77 0, 24 0 M0 0 C6.81 0, 13.61 0, 24 0 M24 0 C24 8.93, 24 17.86, 24 30 M24 0 C24 11.74, 24 23.47, 24 30 M24 30 C19.02 30, 14.04 30, 0 30 M24 30 C18.63 30, 13.25 30, 0 30 M0 30 C0 19.29, 0 8.58, 0 0 M0 30 C0 22.16, 0 14.32, 0 0" stroke="#1e1e1e" stroke-width="1" fill="none"></path></g><g transform="translate(41.68963948815815 188.4581135071851) rotate(0 4.623992919921875 10)"><text x="4.623992919921875" y="0" font-family="HanziPen SC, HanziPen Remote, Virgil, KaiTi, Segoe UI Emoji" font-size="16px" fill="#1e1e1e" text-anchor="middle" style="white-space: pre;" direction="ltr" dominant-baseline="text-before-edge">1</text></g><g stroke-linecap="round" transform="translate(58.37305750272469 183.47839964252512) rotate(0 12 15)"><path d="M0 0 C5.25 0, 10.5 0, 24 0 M0 0 C6.06 0, 12.13 0, 24 0 M24 0 C24 10.47, 24 20.93, 24 30 M24 0 C24 7.4, 24 14.81, 24 30 M24 30 C17.47 30, 10.93 30, 0 30 M24 30 C18.64 30, 13.29 30, 0 30 M0 30 C0 23.99, 0 17.98, 0 0 M0 30 C0 20.81, 0 11.63, 0 0" stroke="#1e1e1e" stroke-width="1" fill="none"></path></g><g transform="translate(65.74906458280282 188.47839964252512) rotate(0 4.623992919921875 10)"><text x="4.623992919921875" y="0" font-family="HanziPen SC, HanziPen Remote, Virgil, KaiTi, Segoe UI Emoji" font-size="16px" fill="#1e1e1e" text-anchor="middle" style="white-space: pre;" direction="ltr" dominant-baseline="text-before-edge">0</text></g><g stroke-linecap="round" transform="translate(82.37960732977172 183.4305429525408) rotate(0 12 15)"><path d="M0 0 C6.84 0, 13.68 0, 24 0 M0 0 C6.43 0, 12.86 0, 24 0 M24 0 C24 6.98, 24 13.96, 24 30 M24 0 C24 9.71, 24 19.43, 24 30 M24 30 C18.62 30, 13.23 30, 0 30 M24 30 C15.76 30, 7.51 30, 0 30 M0 30 C0 19.73, 0 9.45, 0 0 M0 30 C0 22.99, 0 15.97, 0 0" stroke="#1e1e1e" stroke-width="1" fill="none"></path></g><g transform="translate(89.75561440984984 188.4305429525408) rotate(0 4.623992919921875 10)"><text x="4.623992919921875" y="0" font-family="HanziPen SC, HanziPen Remote, Virgil, KaiTi, Segoe UI Emoji" font-size="16px" fill="#1e1e1e" text-anchor="middle" style="white-space: pre;" direction="ltr" dominant-baseline="text-before-edge">0</text></g><g stroke-linecap="round" transform="translate(111.63787349250708 220.8349874199489) rotate(0 33.5 15)"><path d="M0 0 C23.87 0, 47.73 0, 67 0 M0 0 C15.38 0, 30.76 0, 67 0 M67 0 C67 9.29, 67 18.57, 67 30 M67 0 C67 6.21, 67 12.43, 67 30 M67 30 C51.8 30, 36.6 30, 0 30 M67 30 C48.24 30, 29.48 30, 0 30 M0 30 C0 20.28, 0 10.57, 0 0 M0 30 C0 21.76, 0 13.53, 0 0" stroke="#1e1e1e" stroke-width="1" fill="none"></path></g><g transform="translate(140.5138805725852 225.8349874199489) rotate(0 4.623992919921875 10)"><text x="4.623992919921875" y="0" font-family="HanziPen SC, HanziPen Remote, Virgil, KaiTi, Segoe UI Emoji" font-size="16px" fill="#1e1e1e" text-anchor="middle" style="white-space: pre;" direction="ltr" dominant-baseline="text-before-edge">5</text></g><g stroke-linecap="round" transform="translate(10.442754711591647 220.5828860615203) rotate(0 12 15)"><path d="M0 0 C7.32 0, 14.64 0, 24 0 M0 0 C8.96 0, 17.91 0, 24 0 M24 0 C24 9.88, 24 19.77, 24 30 M24 0 C24 11.03, 24 22.07, 24 30 M24 30 C17.23 30, 10.47 30, 0 30 M24 30 C15.27 30, 6.54 30, 0 30 M0 30 C0 18.78, 0 7.57, 0 0 M0 30 C0 22.66, 0 15.33, 0 0" stroke="#1e1e1e" stroke-width="1" fill="none"></path></g><g transform="translate(17.818761791669772 225.5828860615203) rotate(0 4.623992919921875 10)"><text x="4.623992919921875" y="0" font-family="HanziPen SC, HanziPen Remote, Virgil, KaiTi, Segoe UI Emoji" font-size="16px" fill="#1e1e1e" text-anchor="middle" style="white-space: pre;" direction="ltr" dominant-baseline="text-before-edge">0</text></g><g stroke-linecap="round" transform="translate(34.349217098414215 220.5776250626003) rotate(0 12 15)"><path d="M0 0 C5.83 0, 11.67 0, 24 0 M0 0 C8.89 0, 17.78 0, 24 0 M24 0 C24 9.94, 24 19.87, 24 30 M24 0 C24 7.88, 24 15.76, 24 30 M24 30 C16.07 30, 8.13 30, 0 30 M24 30 C17.72 30, 11.44 30, 0 30 M0 30 C0 20.66, 0 11.33, 0 0 M0 30 C0 22.62, 0 15.23, 0 0" stroke="#1e1e1e" stroke-width="1" fill="none"></path></g><g transform="translate(41.72522417849234 225.5776250626003) rotate(0 4.623992919921875 10)"><text x="4.623992919921875" y="0" font-family="HanziPen SC, HanziPen Remote, Virgil, KaiTi, Segoe UI Emoji" font-size="16px" fill="#1e1e1e" text-anchor="middle" style="white-space: pre;" direction="ltr" dominant-baseline="text-before-edge">1</text></g><g stroke-linecap="round" transform="translate(58.40864219305888 220.59791119794033) rotate(0 12 15)"><path d="M0 0 C5.3 0, 10.59 0, 24 0 M0 0 C5.49 0, 10.98 0, 24 0 M24 0 C24 10.28, 24 20.56, 24 30 M24 0 C24 7.03, 24 14.07, 24 30 M24 30 C15.52 30, 7.04 30, 0 30 M24 30 C17.35 30, 10.7 30, 0 30 M0 30 C0 22.7, 0 15.41, 0 0 M0 30 C0 18.98, 0 7.97, 0 0" stroke="#1e1e1e" stroke-width="1" fill="none"></path></g><g transform="translate(65.784649273137 225.59791119794033) rotate(0 4.623992919921875 10)"><text x="4.623992919921875" y="0" font-family="HanziPen SC, HanziPen Remote, Virgil, KaiTi, Segoe UI Emoji" font-size="16px" fill="#1e1e1e" text-anchor="middle" style="white-space: pre;" direction="ltr" dominant-baseline="text-before-edge">0</text></g><g stroke-linecap="round" transform="translate(82.41519202010602 220.5500545079559) rotate(0 12 15)"><path d="M0 0 C7.86 0, 15.72 0, 24 0 M0 0 C9.41 0, 18.83 0, 24 0 M24 0 C24 8.43, 24 16.85, 24 30 M24 0 C24 6.36, 24 12.71, 24 30 M24 30 C17.54 30, 11.08 30, 0 30 M24 30 C18.04 30, 12.08 30, 0 30 M0 30 C0 22, 0 13.99, 0 0 M0 30 C0 18.54, 0 7.08, 0 0" stroke="#1e1e1e" stroke-width="1" fill="none"></path></g><g transform="translate(89.79119910018414 225.5500545079559) rotate(0 4.623992919921875 10)"><text x="4.623992919921875" y="0" font-family="HanziPen SC, HanziPen Remote, Virgil, KaiTi, Segoe UI Emoji" font-size="16px" fill="#1e1e1e" text-anchor="middle" style="white-space: pre;" direction="ltr" dominant-baseline="text-before-edge">1</text></g><g stroke-linecap="round" transform="translate(111.60591791282047 256.39853289936207) rotate(0 33.5 15)"><path d="M0 0 C26.29 0, 52.58 0, 67 0 M0 0 C16.08 0, 32.16 0, 67 0 M67 0 C67 7.55, 67 15.1, 67 30 M67 0 C67 6.29, 67 12.59, 67 30 M67 30 C51.14 30, 35.28 30, 0 30 M67 30 C50.2 30, 33.4 30, 0 30 M0 30 C0 18.97, 0 7.95, 0 0 M0 30 C0 22.48, 0 14.97, 0 0" stroke="#1e1e1e" stroke-width="1" fill="none"></path></g><g transform="translate(140.4819249928986 261.39853289936207) rotate(0 4.623992919921875 10)"><text x="4.623992919921875" y="0" font-family="HanziPen SC, HanziPen Remote, Virgil, KaiTi, Segoe UI Emoji" font-size="16px" fill="#1e1e1e" text-anchor="middle" style="white-space: pre;" direction="ltr" dominant-baseline="text-before-edge">6</text></g><g stroke-linecap="round" transform="translate(10.473111004480415 256.1464315409336) rotate(0 12 15)"><path d="M0 0 C6.79 0, 13.58 0, 24 0 M0 0 C9.3 0, 18.6 0, 24 0 M24 0 C24 7.51, 24 15.03, 24 30 M24 0 C24 6.86, 24 13.72, 24 30 M24 30 C15.52 30, 7.04 30, 0 30 M24 30 C16.92 30, 9.85 30, 0 30 M0 30 C0 20.39, 0 10.79, 0 0 M0 30 C0 23.44, 0 16.89, 0 0" stroke="#1e1e1e" stroke-width="1" fill="none"></path></g><g transform="translate(17.84911808455854 261.1464315409336) rotate(0 4.623992919921875 10)"><text x="4.623992919921875" y="0" font-family="HanziPen SC, HanziPen Remote, Virgil, KaiTi, Segoe UI Emoji" font-size="16px" fill="#1e1e1e" text-anchor="middle" style="white-space: pre;" direction="ltr" dominant-baseline="text-before-edge">0</text></g><g stroke-linecap="round" transform="translate(34.37957339130298 256.1411705420136) rotate(0 12 15)"><path d="M0 0 C4.94 0, 9.89 0, 24 0 M0 0 C9.27 0, 18.55 0, 24 0 M24 0 C24 7.83, 24 15.67, 24 30 M24 0 C24 10.65, 24 21.3, 24 30 M24 30 C15.47 30, 6.94 30, 0 30 M24 30 C18.54 30, 13.09 30, 0 30 M0 30 C0 18.34, 0 6.68, 0 0 M0 30 C0 20.46, 0 10.92, 0 0" stroke="#1e1e1e" stroke-width="1" fill="none"></path></g><g transform="translate(41.75558047138111 261.1411705420136) rotate(0 4.623992919921875 10)"><text x="4.623992919921875" y="0" font-family="HanziPen SC, HanziPen Remote, Virgil, KaiTi, Segoe UI Emoji" font-size="16px" fill="#1e1e1e" text-anchor="middle" style="white-space: pre;" direction="ltr" dominant-baseline="text-before-edge">1</text></g><g stroke-linecap="round" transform="translate(58.43899848594765 256.1614566773535) rotate(0 12 15)"><path d="M0 0 C4.98 0, 9.96 0, 24 0 M0 0 C5.37 0, 10.75 0, 24 0 M24 0 C24 10.71, 24 21.42, 24 30 M24 0 C24 7.84, 24 15.68, 24 30 M24 30 C16.35 30, 8.7 30, 0 30 M24 30 C18.46 30, 12.92 30, 0 30 M0 30 C0 23.22, 0 16.45, 0 0 M0 30 C0 22, 0 14, 0 0" stroke="#1e1e1e" stroke-width="1" fill="none"></path></g><g transform="translate(65.81500556602577 261.1614566773535) rotate(0 4.623992919921875 10)"><text x="4.623992919921875" y="0" font-family="HanziPen SC, HanziPen Remote, Virgil, KaiTi, Segoe UI Emoji" font-size="16px" fill="#1e1e1e" text-anchor="middle" style="white-space: pre;" direction="ltr" dominant-baseline="text-before-edge">1</text></g><g stroke-linecap="round" transform="translate(82.44554831299467 256.1135999873692) rotate(0 12 15)"><path d="M0 0 C6.53 0, 13.07 0, 24 0 M0 0 C5.36 0, 10.71 0, 24 0 M24 0 C24 6.01, 24 12.02, 24 30 M24 0 C24 9.19, 24 18.37, 24 30 M24 30 C15.41 30, 6.82 30, 0 30 M24 30 C16.22 30, 8.44 30, 0 30 M0 30 C0 18.79, 0 7.57, 0 0 M0 30 C0 18.95, 0 7.9, 0 0" stroke="#1e1e1e" stroke-width="1" fill="none"></path></g><g transform="translate(89.8215553930728 261.1135999873692) rotate(0 4.623992919921875 10)"><text x="4.623992919921875" y="0" font-family="HanziPen SC, HanziPen Remote, Virgil, KaiTi, Segoe UI Emoji" font-size="16px" fill="#1e1e1e" text-anchor="middle" style="white-space: pre;" direction="ltr" dominant-baseline="text-before-edge">0</text></g><g stroke-linecap="round" transform="translate(111.97590499519299 293.5180444547773) rotate(0 33 15)"><path d="M0 0 C14.81 0, 29.62 0, 66 0 M0 0 C22.67 0, 45.34 0, 66 0 M66 0 C66 10.27, 66 20.55, 66 30 M66 0 C66 7.01, 66 14.03, 66 30 M66 30 C44.46 30, 22.91 30, 0 30 M66 30 C48.74 30, 31.49 30, 0 30 M0 30 C0 19.1, 0 8.2, 0 0 M0 30 C0 23.62, 0 17.24, 0 0" stroke="#1e1e1e" stroke-width="1" fill="none"></path></g><g transform="translate(140.35191207527112 298.5180444547773) rotate(0 4.623992919921875 10)"><text x="4.623992919921875" y="0" font-family="HanziPen SC, HanziPen Remote, Virgil, KaiTi, Segoe UI Emoji" font-size="16px" fill="#1e1e1e" text-anchor="middle" style="white-space: pre;" direction="ltr" dominant-baseline="text-before-edge">7</text></g><g stroke-linecap="round" transform="translate(10.780786214277555 293.2659430963488) rotate(0 12 15)"><path d="M0 0 C5.44 0, 10.89 0, 24 0 M0 0 C6.72 0, 13.44 0, 24 0 M24 0 C24 9.72, 24 19.43, 24 30 M24 0 C24 8.24, 24 16.47, 24 30 M24 30 C16.39 30, 8.78 30, 0 30 M24 30 C18.4 30, 12.79 30, 0 30 M0 30 C0 23.56, 0 17.11, 0 0 M0 30 C0 18.74, 0 7.49, 0 0" stroke="#1e1e1e" stroke-width="1" fill="none"></path></g><g transform="translate(18.15679329435568 298.2659430963488) rotate(0 4.623992919921875 10)"><text x="4.623992919921875" y="0" font-family="HanziPen SC, HanziPen Remote, Virgil, KaiTi, Segoe UI Emoji" font-size="16px" fill="#1e1e1e" text-anchor="middle" style="white-space: pre;" direction="ltr" dominant-baseline="text-before-edge">0</text></g><g stroke-linecap="round" transform="translate(34.68724860110012 293.2606820974288) rotate(0 12 15)"><path d="M0 0 C6.77 0, 13.53 0, 24 0 M0 0 C8.73 0, 17.46 0, 24 0 M24 0 C24 11.22, 24 22.43, 24 30 M24 0 C24 7.34, 24 14.67, 24 30 M24 30 C15.32 30, 6.63 30, 0 30 M24 30 C15.21 30, 6.41 30, 0 30 M0 30 C0 19.89, 0 9.77, 0 0 M0 30 C0 20.47, 0 10.95, 0 0" stroke="#1e1e1e" stroke-width="1" fill="none"></path></g><g transform="translate(42.06325568117825 298.2606820974288) rotate(0 4.623992919921875 10)"><text x="4.623992919921875" y="0" font-family="HanziPen SC, HanziPen Remote, Virgil, KaiTi, Segoe UI Emoji" font-size="16px" fill="#1e1e1e" text-anchor="middle" style="white-space: pre;" direction="ltr" dominant-baseline="text-before-edge">1</text></g><g stroke-linecap="round" transform="translate(58.74667369574479 293.2809682327688) rotate(0 12 15)"><path d="M0 0 C7.93 0, 15.87 0, 24 0 M0 0 C6.28 0, 12.56 0, 24 0 M24 0 C24 9.34, 24 18.67, 24 30 M24 0 C24 7.38, 24 14.77, 24 30 M24 30 C16.05 30, 8.09 30, 0 30 M24 30 C18.65 30, 13.31 30, 0 30 M0 30 C0 23.14, 0 16.28, 0 0 M0 30 C0 21.39, 0 12.77, 0 0" stroke="#1e1e1e" stroke-width="1" fill="none"></path></g><g transform="translate(66.12268077582291 298.2809682327688) rotate(0 4.623992919921875 10)"><text x="4.623992919921875" y="0" font-family="HanziPen SC, HanziPen Remote, Virgil, KaiTi, Segoe UI Emoji" font-size="16px" fill="#1e1e1e" text-anchor="middle" style="white-space: pre;" direction="ltr" dominant-baseline="text-before-edge">1</text></g><g stroke-linecap="round" transform="translate(82.75322352279193 293.2331115427844) rotate(0 12 15)"><path d="M0 0 C8.48 0, 16.96 0, 24 0 M0 0 C6.65 0, 13.3 0, 24 0 M24 0 C24 7.3, 24 14.59, 24 30 M24 0 C24 11.02, 24 22.03, 24 30 M24 30 C18.34 30, 12.68 30, 0 30 M24 30 C16.78 30, 9.57 30, 0 30 M0 30 C0 18.7, 0 7.4, 0 0 M0 30 C0 23.48, 0 16.95, 0 0" stroke="#1e1e1e" stroke-width="1" fill="none"></path></g><g transform="translate(90.12923060287005 298.2331115427844) rotate(0 4.623992919921875 10)"><text x="4.623992919921875" y="0" font-family="HanziPen SC, HanziPen Remote, Virgil, KaiTi, Segoe UI Emoji" font-size="16px" fill="#1e1e1e" text-anchor="middle" style="white-space: pre;" direction="ltr" dominant-baseline="text-before-edge">1</text></g><g transform="translate(32.91279069438542 10) rotate(0 24.719993591308594 10)"><text x="0" y="0" font-family="HanziPen SC, HanziPen Remote, Virgil, KaiTi, Segoe UI Emoji" font-size="16px" fill="#1e1e1e" text-anchor="start" style="white-space: pre;" direction="ltr" dominant-baseline="text-before-edge">二进制</text></g><g transform="translate(120.37504155202419 10.256414460446791) rotate(0 24.719993591308594 10)"><text x="0" y="0" font-family="HanziPen SC, HanziPen Remote, Virgil, KaiTi, Segoe UI Emoji" font-size="16px" fill="#1e1e1e" text-anchor="start" style="white-space: pre;" direction="ltr" dominant-baseline="text-before-edge">十进制</text></g></svg>