<svg version="1.1" xmlns="http://www.w3.org/2000/svg" viewBox="0 0 188.23070347124985 218.83087100627705" width="188.23070347124985" height="218.83087100627705">
  <!-- svg-source:excalidraw -->
  
  <defs>
    <style class="style-fonts">
      @font-face {
        font-family: "Virgil";
        src: url("https://unpkg.com/revedraw@1.0.0-alpha.10/dist/excalidraw-assets/Virgil.woff2");
      }
      @font-face {
        font-family: "Cascadia";
        src: url("https://unpkg.com/revedraw@1.0.0-alpha.10/dist/excalidraw-assets/Cascadia.woff2");
      }
    </style>
    
  </defs>
  <rect x="0" y="0" width="188.23070347124985" height="218.83087100627705" fill="#ffffff"></rect><g stroke-linecap="round" transform="translate(111.13280690834017 10.28493291199294) rotate(0 33.5 15)"><path d="M0 0 C19.95 0, 39.91 0, 67 0 M0 0 C23.49 0, 46.97 0, 67 0 M67 0 C67 6.08, 67 12.17, 67 30 M67 0 C67 11.76, 67 23.52, 67 30 M67 30 C42.15 30, 17.29 30, 0 30 M67 30 C47.61 30, 28.22 30, 0 30 M0 30 C0 22.73, 0 15.46, 0 0 M0 30 C0 20.56, 0 11.13, 0 0" stroke="#1e1e1e" stroke-width="1" fill="none"></path></g><g transform="translate(140.0088139884183 15.28493291199294) rotate(0 4.623992919921875 10)"><text x="4.623992919921875" y="0" font-family="HanziPen SC, HanziPen Remote, Virgil, KaiTi, Segoe UI Emoji" font-size="16px" fill="#1e1e1e" text-anchor="middle" style="white-space: pre;" direction="ltr" dominant-baseline="text-before-edge">1</text></g><g stroke-linecap="round" transform="translate(10 10.032831553564336) rotate(0 12 15)"><path d="M0 0 C8.11 0, 16.23 0, 24 0 M0 0 C9.52 0, 19.05 0, 24 0 M24 0 C24 10.77, 24 21.53, 24 30 M24 0 C24 11.98, 24 23.97, 24 30 M24 30 C16.26 30, 8.52 30, 0 30 M24 30 C16.23 30, 8.45 30, 0 30 M0 30 C0 19.41, 0 8.81, 0 0 M0 30 C0 23.78, 0 17.56, 0 0" stroke="#1e1e1e" stroke-width="1" fill="none"></path></g><g transform="translate(17.376007080078125 15.032831553564336) rotate(0 4.623992919921875 10)"><text x="4.623992919921875" y="0" font-family="HanziPen SC, HanziPen Remote, Virgil, KaiTi, Segoe UI Emoji" font-size="16px" fill="#1e1e1e" text-anchor="middle" style="white-space: pre;" direction="ltr" dominant-baseline="text-before-edge">0</text></g><g stroke-linecap="round" transform="translate(33.90646238682257 10.027570554644342) rotate(0 12 15)"><path d="M0 0 C5.61 0, 11.23 0, 24 0 M0 0 C7.08 0, 14.16 0, 24 0 M24 0 C24 9.97, 24 19.94, 24 30 M24 0 C24 6.56, 24 13.13, 24 30 M24 30 C17.77 30, 11.55 30, 0 30 M24 30 C18.63 30, 13.25 30, 0 30 M0 30 C0 23.28, 0 16.57, 0 0 M0 30 C0 20.61, 0 11.21, 0 0" stroke="#1e1e1e" stroke-width="1" fill="none"></path></g><g transform="translate(41.28246946690069 15.027570554644342) rotate(0 4.623992919921875 10)"><text x="4.623992919921875" y="0" font-family="HanziPen SC, HanziPen Remote, Virgil, KaiTi, Segoe UI Emoji" font-size="16px" fill="#1e1e1e" text-anchor="middle" style="white-space: pre;" direction="ltr" dominant-baseline="text-before-edge">0</text></g><g stroke-linecap="round" transform="translate(57.965887481467234 10.047856689984371) rotate(0 12 15)"><path d="M0 0 C8.71 0, 17.42 0, 24 0 M0 0 C7.16 0, 14.33 0, 24 0 M24 0 C24 10.16, 24 20.31, 24 30 M24 0 C24 7.98, 24 15.95, 24 30 M24 30 C18.36 30, 12.73 30, 0 30 M24 30 C15.17 30, 6.34 30, 0 30 M0 30 C0 19.65, 0 9.3, 0 0 M0 30 C0 18.82, 0 7.63, 0 0" stroke="#1e1e1e" stroke-width="1" fill="none"></path></g><g transform="translate(65.34189456154536 15.047856689984371) rotate(0 4.623992919921875 10)"><text x="4.623992919921875" y="0" font-family="HanziPen SC, HanziPen Remote, Virgil, KaiTi, Segoe UI Emoji" font-size="16px" fill="#1e1e1e" text-anchor="middle" style="white-space: pre;" direction="ltr" dominant-baseline="text-before-edge">0</text></g><g stroke-linecap="round" transform="translate(81.97243730851415 10) rotate(0 12 15)"><path d="M0 0 C7.87 0, 15.75 0, 24 0 M0 0 C5.66 0, 11.32 0, 24 0 M24 0 C24 6.53, 24 13.06, 24 30 M24 0 C24 9.95, 24 19.91, 24 30 M24 30 C16.17 30, 8.34 30, 0 30 M24 30 C16.58 30, 9.15 30, 0 30 M0 30 C0 23.06, 0 16.11, 0 0 M0 30 C0 20.93, 0 11.85, 0 0" stroke="#1e1e1e" stroke-width="1" fill="none"></path></g><g transform="translate(89.34844438859227 15) rotate(0 4.623992919921875 10)"><text x="4.623992919921875" y="0" font-family="HanziPen SC, HanziPen Remote, Virgil, KaiTi, Segoe UI Emoji" font-size="16px" fill="#1e1e1e" text-anchor="middle" style="white-space: pre;" direction="ltr" dominant-baseline="text-before-edge">0</text></g><g stroke-linecap="round" transform="translate(111.23070347124985 47.40444446740804) rotate(0 33.5 15)"><path d="M0 0 C23.91 0, 47.82 0, 67 0 M0 0 C20.8 0, 41.59 0, 67 0 M67 0 C67 7.05, 67 14.09, 67 30 M67 0 C67 11.48, 67 22.95, 67 30 M67 30 C51.15 30, 35.31 30, 0 30 M67 30 C41.75 30, 16.51 30, 0 30 M0 30 C0 23.29, 0 16.58, 0 0 M0 30 C0 18.21, 0 6.42, 0 0" stroke="#1e1e1e" stroke-width="1" fill="none"></path></g><g transform="translate(140.10671055132798 52.40444446740804) rotate(0 4.623992919921875 10)"><text x="4.623992919921875" y="0" font-family="HanziPen SC, HanziPen Remote, Virgil, KaiTi, Segoe UI Emoji" font-size="16px" fill="#1e1e1e" text-anchor="middle" style="white-space: pre;" direction="ltr" dominant-baseline="text-before-edge">2</text></g><g stroke-linecap="round" transform="translate(10.035584690334417 47.152343108979494) rotate(0 12 15)"><path d="M0 0 C7.25 0, 14.5 0, 24 0 M0 0 C7.22 0, 14.44 0, 24 0 M24 0 C24 8.41, 24 16.83, 24 30 M24 0 C24 10.77, 24 21.54, 24 30 M24 30 C16.96 30, 9.92 30, 0 30 M24 30 C17.43 30, 10.86 30, 0 30 M0 30 C0 21.39, 0 12.79, 0 0 M0 30 C0 20.68, 0 11.36, 0 0" stroke="#1e1e1e" stroke-width="1" fill="none"></path></g><g transform="translate(17.411591770412542 52.152343108979494) rotate(0 4.623992919921875 10)"><text x="4.623992919921875" y="0" font-family="HanziPen SC, HanziPen Remote, Virgil, KaiTi, Segoe UI Emoji" font-size="16px" fill="#1e1e1e" text-anchor="middle" style="white-space: pre;" direction="ltr" dominant-baseline="text-before-edge">0</text></g><g stroke-linecap="round" transform="translate(33.942047077156985 47.1470821100595) rotate(0 12 15)"><path d="M0 0 C5.8 0, 11.59 0, 24 0 M0 0 C8.66 0, 17.32 0, 24 0 M24 0 C24 8.09, 24 16.18, 24 30 M24 0 C24 11.32, 24 22.64, 24 30 M24 30 C18.02 30, 12.03 30, 0 30 M24 30 C17.31 30, 10.61 30, 0 30 M0 30 C0 23.66, 0 17.32, 0 0 M0 30 C0 21.11, 0 12.22, 0 0" stroke="#1e1e1e" stroke-width="1" fill="none"></path></g><g transform="translate(41.31805415723511 52.1470821100595) rotate(0 4.623992919921875 10)"><text x="4.623992919921875" y="0" font-family="HanziPen SC, HanziPen Remote, Virgil, KaiTi, Segoe UI Emoji" font-size="16px" fill="#1e1e1e" text-anchor="middle" style="white-space: pre;" direction="ltr" dominant-baseline="text-before-edge">0</text></g><g stroke-linecap="round" transform="translate(58.00147217180165 47.16736824539953) rotate(0 12 15)"><path d="M0 0 C6.67 0, 13.34 0, 24 0 M0 0 C5.25 0, 10.49 0, 24 0 M24 0 C24 10.28, 24 20.57, 24 30 M24 0 C24 9.86, 24 19.72, 24 30 M24 30 C17.22 30, 10.44 30, 0 30 M24 30 C18.11 30, 12.21 30, 0 30 M0 30 C0 23.64, 0 17.28, 0 0 M0 30 C0 19.02, 0 8.04, 0 0" stroke="#1e1e1e" stroke-width="1" fill="none"></path></g><g transform="translate(65.37747925187978 52.16736824539953) rotate(0 4.623992919921875 10)"><text x="4.623992919921875" y="0" font-family="HanziPen SC, HanziPen Remote, Virgil, KaiTi, Segoe UI Emoji" font-size="16px" fill="#1e1e1e" text-anchor="middle" style="white-space: pre;" direction="ltr" dominant-baseline="text-before-edge">0</text></g><g stroke-linecap="round" transform="translate(82.00802199884856 47.11951155541516) rotate(0 12 15)"><path d="M0 0 C8.13 0, 16.27 0, 24 0 M0 0 C9.07 0, 18.13 0, 24 0 M24 0 C24 7.95, 24 15.89, 24 30 M24 0 C24 8.36, 24 16.72, 24 30 M24 30 C14.51 30, 5.03 30, 0 30 M24 30 C19.15 30, 14.29 30, 0 30 M0 30 C0 20.11, 0 10.23, 0 0 M0 30 C0 20.68, 0 11.36, 0 0" stroke="#1e1e1e" stroke-width="1" fill="none"></path></g><g transform="translate(89.38402907892669 52.11951155541516) rotate(0 4.623992919921875 10)"><text x="4.623992919921875" y="0" font-family="HanziPen SC, HanziPen Remote, Virgil, KaiTi, Segoe UI Emoji" font-size="16px" fill="#1e1e1e" text-anchor="middle" style="white-space: pre;" direction="ltr" dominant-baseline="text-before-edge">1</text></g><g stroke-linecap="round" transform="translate(111.19874789156302 82.96798994682138) rotate(0 33.5 15)"><path d="M0 0 C25.29 0, 50.57 0, 67 0 M0 0 C21.23 0, 42.46 0, 67 0 M67 0 C67 6.79, 67 13.58, 67 30 M67 0 C67 8.06, 67 16.12, 67 30 M67 30 C52.56 30, 38.12 30, 0 30 M67 30 C43.38 30, 19.75 30, 0 30 M0 30 C0 23.13, 0 16.27, 0 0 M0 30 C0 21.11, 0 12.21, 0 0" stroke="#1e1e1e" stroke-width="1" fill="none"></path></g><g transform="translate(140.07475497164114 87.96798994682138) rotate(0 4.623992919921875 10)"><text x="4.623992919921875" y="0" font-family="HanziPen SC, HanziPen Remote, Virgil, KaiTi, Segoe UI Emoji" font-size="16px" fill="#1e1e1e" text-anchor="middle" style="white-space: pre;" direction="ltr" dominant-baseline="text-before-edge">4</text></g><g stroke-linecap="round" transform="translate(10.065940983222845 82.71588858839283) rotate(0 12 15)"><path d="M0 0 C8.9 0, 17.81 0, 24 0 M0 0 C6.95 0, 13.89 0, 24 0 M24 0 C24 7.27, 24 14.54, 24 30 M24 0 C24 9.44, 24 18.87, 24 30 M24 30 C14.49 30, 4.99 30, 0 30 M24 30 C17.4 30, 10.8 30, 0 30 M0 30 C0 23.99, 0 17.98, 0 0 M0 30 C0 22.07, 0 14.14, 0 0" stroke="#1e1e1e" stroke-width="1" fill="none"></path></g><g transform="translate(17.44194806330097 87.71588858839283) rotate(0 4.623992919921875 10)"><text x="4.623992919921875" y="0" font-family="HanziPen SC, HanziPen Remote, Virgil, KaiTi, Segoe UI Emoji" font-size="16px" fill="#1e1e1e" text-anchor="middle" style="white-space: pre;" direction="ltr" dominant-baseline="text-before-edge">0</text></g><g stroke-linecap="round" transform="translate(33.97240337004541 82.71062758947284) rotate(0 12 15)"><path d="M0 0 C7.74 0, 15.48 0, 24 0 M0 0 C7.77 0, 15.55 0, 24 0 M24 0 C24 10.59, 24 21.19, 24 30 M24 0 C24 6.22, 24 12.44, 24 30 M24 30 C18.85 30, 13.7 30, 0 30 M24 30 C16.25 30, 8.49 30, 0 30 M0 30 C0 19.22, 0 8.45, 0 0 M0 30 C0 20.09, 0 10.19, 0 0" stroke="#1e1e1e" stroke-width="1" fill="none"></path></g><g transform="translate(41.34841045012354 87.71062758947284) rotate(0 4.623992919921875 10)"><text x="4.623992919921875" y="0" font-family="HanziPen SC, HanziPen Remote, Virgil, KaiTi, Segoe UI Emoji" font-size="16px" fill="#1e1e1e" text-anchor="middle" style="white-space: pre;" direction="ltr" dominant-baseline="text-before-edge">0</text></g><g stroke-linecap="round" transform="translate(58.03182846469008 82.73091372481281) rotate(0 12 15)"><path d="M0 0 C6.23 0, 12.45 0, 24 0 M0 0 C5.37 0, 10.75 0, 24 0 M24 0 C24 6.72, 24 13.43, 24 30 M24 0 C24 9.39, 24 18.79, 24 30 M24 30 C15.03 30, 6.07 30, 0 30 M24 30 C18.59 30, 13.19 30, 0 30 M0 30 C0 22.63, 0 15.26, 0 0 M0 30 C0 18.44, 0 6.89, 0 0" stroke="#1e1e1e" stroke-width="1" fill="none"></path></g><g transform="translate(65.4078355447682 87.73091372481281) rotate(0 4.623992919921875 10)"><text x="4.623992919921875" y="0" font-family="HanziPen SC, HanziPen Remote, Virgil, KaiTi, Segoe UI Emoji" font-size="16px" fill="#1e1e1e" text-anchor="middle" style="white-space: pre;" direction="ltr" dominant-baseline="text-before-edge">1</text></g><g stroke-linecap="round" transform="translate(82.03837829173699 82.6830570348285) rotate(0 12 15)"><path d="M0 0 C5.64 0, 11.27 0, 24 0 M0 0 C8.83 0, 17.66 0, 24 0 M24 0 C24 10.35, 24 20.7, 24 30 M24 0 C24 11.18, 24 22.37, 24 30 M24 30 C19.17 30, 14.34 30, 0 30 M24 30 C17.16 30, 10.31 30, 0 30 M0 30 C0 23.25, 0 16.51, 0 0 M0 30 C0 21.14, 0 12.28, 0 0" stroke="#1e1e1e" stroke-width="1" fill="none"></path></g><g transform="translate(89.41438537181511 87.6830570348285) rotate(0 4.623992919921875 10)"><text x="4.623992919921875" y="0" font-family="HanziPen SC, HanziPen Remote, Virgil, KaiTi, Segoe UI Emoji" font-size="16px" fill="#1e1e1e" text-anchor="middle" style="white-space: pre;" direction="ltr" dominant-baseline="text-before-edge">0</text></g><g stroke-linecap="round" transform="translate(111.56873497393553 120.08750150223653) rotate(0 33 15)"><path d="M0 0 C21.53 0, 43.07 0, 66 0 M0 0 C20.42 0, 40.83 0, 66 0 M66 0 C66 6.94, 66 13.89, 66 30 M66 0 C66 9.07, 66 18.15, 66 30 M66 30 C49.51 30, 33.02 30, 0 30 M66 30 C40.84 30, 15.68 30, 0 30 M0 30 C0 21.38, 0 12.77, 0 0 M0 30 C0 20.95, 0 11.9, 0 0" stroke="#1e1e1e" stroke-width="1" fill="none"></path></g><g transform="translate(139.94474205401366 125.08750150223653) rotate(0 4.623992919921875 10)"><text x="4.623992919921875" y="0" font-family="HanziPen SC, HanziPen Remote, Virgil, KaiTi, Segoe UI Emoji" font-size="16px" fill="#1e1e1e" text-anchor="middle" style="white-space: pre;" direction="ltr" dominant-baseline="text-before-edge">8</text></g><g stroke-linecap="round" transform="translate(10.373616193020098 119.83540014380804) rotate(0 12 15)"><path d="M0 0 C5.68 0, 11.35 0, 24 0 M0 0 C9.04 0, 18.09 0, 24 0 M24 0 C24 6.71, 24 13.42, 24 30 M24 0 C24 11.79, 24 23.58, 24 30 M24 30 C16.86 30, 9.72 30, 0 30 M24 30 C15.19 30, 6.39 30, 0 30 M0 30 C0 22.56, 0 15.13, 0 0 M0 30 C0 23.4, 0 16.79, 0 0" stroke="#1e1e1e" stroke-width="1" fill="none"></path></g><g transform="translate(17.749623273098223 124.83540014380804) rotate(0 4.623992919921875 10)"><text x="4.623992919921875" y="0" font-family="HanziPen SC, HanziPen Remote, Virgil, KaiTi, Segoe UI Emoji" font-size="16px" fill="#1e1e1e" text-anchor="middle" style="white-space: pre;" direction="ltr" dominant-baseline="text-before-edge">0</text></g><g stroke-linecap="round" transform="translate(34.280078579842666 119.83013914488805) rotate(0 12 15)"><path d="M0 0 C7.04 0, 14.08 0, 24 0 M0 0 C6.57 0, 13.14 0, 24 0 M24 0 C24 8.61, 24 17.21, 24 30 M24 0 C24 9.32, 24 18.64, 24 30 M24 30 C15.68 30, 7.36 30, 0 30 M24 30 C17.5 30, 11 30, 0 30 M0 30 C0 19.59, 0 9.18, 0 0 M0 30 C0 22.75, 0 15.5, 0 0" stroke="#1e1e1e" stroke-width="1" fill="none"></path></g><g transform="translate(41.65608565992079 124.83013914488805) rotate(0 4.623992919921875 10)"><text x="4.623992919921875" y="0" font-family="HanziPen SC, HanziPen Remote, Virgil, KaiTi, Segoe UI Emoji" font-size="16px" fill="#1e1e1e" text-anchor="middle" style="white-space: pre;" direction="ltr" dominant-baseline="text-before-edge">0</text></g><g stroke-linecap="round" transform="translate(58.33950367448733 119.85042528022808) rotate(0 12 15)"><path d="M0 0 C5.98 0, 11.97 0, 24 0 M0 0 C6.69 0, 13.39 0, 24 0 M24 0 C24 6.34, 24 12.68, 24 30 M24 0 C24 8.89, 24 17.78, 24 30 M24 30 C18.6 30, 13.19 30, 0 30 M24 30 C16.88 30, 9.77 30, 0 30 M0 30 C0 22.5, 0 15, 0 0 M0 30 C0 20.02, 0 10.05, 0 0" stroke="#1e1e1e" stroke-width="1" fill="none"></path></g><g transform="translate(65.71551075456546 124.85042528022808) rotate(0 4.623992919921875 10)"><text x="4.623992919921875" y="0" font-family="HanziPen SC, HanziPen Remote, Virgil, KaiTi, Segoe UI Emoji" font-size="16px" fill="#1e1e1e" text-anchor="middle" style="white-space: pre;" direction="ltr" dominant-baseline="text-before-edge">1</text></g><g stroke-linecap="round" transform="translate(82.34605350153424 119.80256859024365) rotate(0 12 15)"><path d="M0 0 C6.78 0, 13.56 0, 24 0 M0 0 C5.89 0, 11.79 0, 24 0 M24 0 C24 6.36, 24 12.72, 24 30 M24 0 C24 10.98, 24 21.96, 24 30 M24 30 C14.74 30, 5.48 30, 0 30 M24 30 C18.66 30, 13.32 30, 0 30 M0 30 C0 22.59, 0 15.19, 0 0 M0 30 C0 23, 0 15.99, 0 0" stroke="#1e1e1e" stroke-width="1" fill="none"></path></g><g transform="translate(89.72206058161237 124.80256859024365) rotate(0 4.623992919921875 10)"><text x="4.623992919921875" y="0" font-family="HanziPen SC, HanziPen Remote, Virgil, KaiTi, Segoe UI Emoji" font-size="16px" fill="#1e1e1e" text-anchor="middle" style="white-space: pre;" direction="ltr" dominant-baseline="text-before-edge">1</text></g><g transform="translate(45.4978732408772 153.19668155365179) rotate(0 13.103988647460938 10)"><text x="0" y="0" font-family="HanziPen SC, HanziPen Remote, Virgil, KaiTi, Segoe UI Emoji" font-size="16px" fill="#1e1e1e" text-anchor="start" style="white-space: pre;" direction="ltr" dominant-baseline="text-before-edge">......</text></g><g transform="translate(131.10884753627442 153.37079717397927) rotate(0 13.103988647460938 10)"><text x="0" y="0" font-family="HanziPen SC, HanziPen Remote, Virgil, KaiTi, Segoe UI Emoji" font-size="16px" fill="#1e1e1e" text-anchor="start" style="white-space: pre;" direction="ltr" dominant-baseline="text-before-edge">......</text></g><g stroke-linecap="round" transform="translate(111.29362166976762 178.83087100627705) rotate(0 33 15)"><path d="M0 0 C14.23 0, 28.45 0, 66 0 M0 0 C23.27 0, 46.54 0, 66 0 M66 0 C66 6.87, 66 13.73, 66 30 M66 0 C66 8.89, 66 17.79, 66 30 M66 30 C46.91 30, 27.82 30, 0 30 M66 30 C41.97 30, 17.95 30, 0 30 M0 30 C0 23.74, 0 17.48, 0 0 M0 30 C0 20.85, 0 11.69, 0 0" stroke="#1e1e1e" stroke-width="1" fill="none"></path></g><g transform="translate(121.17365707015824 183.83087100627705) rotate(0 23.119964599609375 10)"><text x="23.119964599609375" y="0" font-family="HanziPen SC, HanziPen Remote, Virgil, KaiTi, Segoe UI Emoji" font-size="16px" fill="#1e1e1e" text-anchor="middle" style="white-space: pre;" direction="ltr" dominant-baseline="text-before-edge">32768</text></g><g stroke-linecap="round" transform="translate(10.098502888852181 178.57876964784856) rotate(0 12 15)"><path d="M0 0 C9.51 0, 19.01 0, 24 0 M0 0 C6.6 0, 13.2 0, 24 0 M24 0 C24 6.01, 24 12.02, 24 30 M24 0 C24 7.93, 24 15.86, 24 30 M24 30 C17.7 30, 11.4 30, 0 30 M24 30 C18.92 30, 13.84 30, 0 30 M0 30 C0 21.63, 0 13.26, 0 0 M0 30 C0 23.02, 0 16.03, 0 0" stroke="#1e1e1e" stroke-width="1" fill="none"></path></g><g transform="translate(17.474509968930306 183.57876964784856) rotate(0 4.623992919921875 10)"><text x="4.623992919921875" y="0" font-family="HanziPen SC, HanziPen Remote, Virgil, KaiTi, Segoe UI Emoji" font-size="16px" fill="#1e1e1e" text-anchor="middle" style="white-space: pre;" direction="ltr" dominant-baseline="text-before-edge">1</text></g><g stroke-linecap="round" transform="translate(34.00496527567475 178.57350864892857) rotate(0 12 15)"><path d="M0 0 C5.15 0, 10.3 0, 24 0 M0 0 C7.75 0, 15.51 0, 24 0 M24 0 C24 10.78, 24 21.55, 24 30 M24 0 C24 9.91, 24 19.81, 24 30 M24 30 C14.91 30, 5.81 30, 0 30 M24 30 C18.63 30, 13.26 30, 0 30 M0 30 C0 22.37, 0 14.75, 0 0 M0 30 C0 21.46, 0 12.91, 0 0" stroke="#1e1e1e" stroke-width="1" fill="none"></path></g><g transform="translate(41.380972355752874 183.57350864892857) rotate(0 4.623992919921875 10)"><text x="4.623992919921875" y="0" font-family="HanziPen SC, HanziPen Remote, Virgil, KaiTi, Segoe UI Emoji" font-size="16px" fill="#1e1e1e" text-anchor="middle" style="white-space: pre;" direction="ltr" dominant-baseline="text-before-edge">1</text></g><g stroke-linecap="round" transform="translate(58.064390370319416 178.5937947842686) rotate(0 12 15)"><path d="M0 0 C8.97 0, 17.93 0, 24 0 M0 0 C5.41 0, 10.81 0, 24 0 M24 0 C24 7.37, 24 14.74, 24 30 M24 0 C24 11.56, 24 23.11, 24 30 M24 30 C18.82 30, 13.63 30, 0 30 M24 30 C17.91 30, 11.83 30, 0 30 M0 30 C0 19.51, 0 9.02, 0 0 M0 30 C0 21.69, 0 13.38, 0 0" stroke="#1e1e1e" stroke-width="1" fill="none"></path></g><g transform="translate(65.44039745039754 183.5937947842686) rotate(0 4.623992919921875 10)"><text x="4.623992919921875" y="0" font-family="HanziPen SC, HanziPen Remote, Virgil, KaiTi, Segoe UI Emoji" font-size="16px" fill="#1e1e1e" text-anchor="middle" style="white-space: pre;" direction="ltr" dominant-baseline="text-before-edge">1</text></g><g stroke-linecap="round" transform="translate(82.07094019736633 178.54593809428417) rotate(0 12 15)"><path d="M0 0 C4.83 0, 9.66 0, 24 0 M0 0 C6.84 0, 13.69 0, 24 0 M24 0 C24 6.75, 24 13.49, 24 30 M24 0 C24 8.86, 24 17.72, 24 30 M24 30 C14.96 30, 5.93 30, 0 30 M24 30 C16.09 30, 8.17 30, 0 30 M0 30 C0 23.84, 0 17.67, 0 0 M0 30 C0 23.99, 0 17.97, 0 0" stroke="#1e1e1e" stroke-width="1" fill="none"></path></g><g transform="translate(89.44694727744445 183.54593809428417) rotate(0 4.623992919921875 10)"><text x="4.623992919921875" y="0" font-family="HanziPen SC, HanziPen Remote, Virgil, KaiTi, Segoe UI Emoji" font-size="16px" fill="#1e1e1e" text-anchor="middle" style="white-space: pre;" direction="ltr" dominant-baseline="text-before-edge">1</text></g></svg>