<svg version="1.1" xmlns="http://www.w3.org/2000/svg" viewBox="0 0 291.24845092788246 160.54486872654059" width="291.24845092788246" height="160.54486872654059">
  <!-- svg-source:excalidraw -->
  
  <defs>
    <style class="style-fonts">
      @font-face {
        font-family: "Virgil";
        src: url("https://unpkg.com/revedraw@1.0.0-alpha.10/dist/excalidraw-assets/Virgil.woff2");
      }
      @font-face {
        font-family: "Cascadia";
        src: url("https://unpkg.com/revedraw@1.0.0-alpha.10/dist/excalidraw-assets/Cascadia.woff2");
      }
    </style>
    
  </defs>
  <rect x="0" y="0" width="291.24845092788246" height="160.54486872654059" fill="#ffffff"></rect><g stroke-linecap="round" transform="translate(191.86125843720674 10) rotate(0 44.5 15)"><path d="M0 0 C26.64 0, 53.29 0, 89 0 M0 0 C24.76 0, 49.52 0, 89 0 M89 0 C89 10.48, 89 20.95, 89 30 M89 0 C89 10.56, 89 21.12, 89 30 M89 30 C56.81 30, 24.62 30, 0 30 M89 30 C60.37 30, 31.73 30, 0 30 M0 30 C0 18.83, 0 7.66, 0 0 M0 30 C0 21.67, 0 13.35, 0 0" stroke="#1e1e1e" stroke-width="1" fill="none"></path></g><g transform="translate(216.63328449921846 15) rotate(0 19.72797393798828 10)"><text x="19.72797393798828" y="0" font-family="HanziPen SC, HanziPen Remote, Virgil, KaiTi, Segoe UI Emoji" font-size="16px" fill="#1e1e1e" text-anchor="middle" style="white-space: pre;" direction="ltr" dominant-baseline="text-before-edge">1x1.0</text></g><g stroke-linecap="round" transform="translate(10.07843433411199 10.735528250593688) rotate(0 12 15)"><path d="M0 0 C8.4 0, 16.8 0, 24 0 M0 0 C6.34 0, 12.68 0, 24 0 M24 0 C24 7.92, 24 15.84, 24 30 M24 0 C24 9.02, 24 18.03, 24 30 M24 30 C18.22 30, 12.44 30, 0 30 M24 30 C18.9 30, 13.8 30, 0 30 M0 30 C0 18.55, 0 7.1, 0 0 M0 30 C0 18.76, 0 7.53, 0 0" stroke="#1e1e1e" stroke-width="1" fill="none"></path></g><g transform="translate(17.454441414190114 15.735528250593688) rotate(0 4.623992919921875 10)"><text x="4.623992919921875" y="0" font-family="HanziPen SC, HanziPen Remote, Virgil, KaiTi, Segoe UI Emoji" font-size="16px" fill="#1e1e1e" text-anchor="middle" style="white-space: pre;" direction="ltr" dominant-baseline="text-before-edge">0</text></g><g stroke-linecap="round" transform="translate(33.98489672093456 10.730267251673695) rotate(0 12 15)"><path d="M0 0 C7.32 0, 14.63 0, 24 0 M0 0 C6.88 0, 13.76 0, 24 0 M24 0 C24 10.48, 24 20.96, 24 30 M24 0 C24 7.43, 24 14.87, 24 30 M24 30 C17.99 30, 11.98 30, 0 30 M24 30 C17.52 30, 11.03 30, 0 30 M0 30 C0 18.75, 0 7.5, 0 0 M0 30 C0 23.62, 0 17.23, 0 0" stroke="#1e1e1e" stroke-width="1" fill="none"></path></g><g transform="translate(41.36090380101268 15.730267251673695) rotate(0 4.623992919921875 10)"><text x="4.623992919921875" y="0" font-family="HanziPen SC, HanziPen Remote, Virgil, KaiTi, Segoe UI Emoji" font-size="16px" fill="#1e1e1e" text-anchor="middle" style="white-space: pre;" direction="ltr" dominant-baseline="text-before-edge">0</text></g><g stroke-linecap="round" transform="translate(58.044321815579224 10.750553387013724) rotate(0 12 15)"><path d="M0 0 C6.12 0, 12.24 0, 24 0 M0 0 C7.77 0, 15.55 0, 24 0 M24 0 C24 7.76, 24 15.53, 24 30 M24 0 C24 6.27, 24 12.54, 24 30 M24 30 C19.04 30, 14.08 30, 0 30 M24 30 C15.66 30, 7.32 30, 0 30 M0 30 C0 20.06, 0 10.13, 0 0 M0 30 C0 21.52, 0 13.05, 0 0" stroke="#1e1e1e" stroke-width="1" fill="none"></path></g><g transform="translate(65.42032889565735 15.750553387013724) rotate(0 4.623992919921875 10)"><text x="4.623992919921875" y="0" font-family="HanziPen SC, HanziPen Remote, Virgil, KaiTi, Segoe UI Emoji" font-size="16px" fill="#1e1e1e" text-anchor="middle" style="white-space: pre;" direction="ltr" dominant-baseline="text-before-edge">0</text></g><g stroke-linecap="round" transform="translate(82.05087164262659 10.702696697029296) rotate(0 12 15)"><path d="M0 0 C6.4 0, 12.8 0, 24 0 M0 0 C9.08 0, 18.16 0, 24 0 M24 0 C24 6.62, 24 13.25, 24 30 M24 0 C24 6.73, 24 13.45, 24 30 M24 30 C16.79 30, 9.58 30, 0 30 M24 30 C16.27 30, 8.55 30, 0 30 M0 30 C0 23.89, 0 17.78, 0 0 M0 30 C0 21.03, 0 12.06, 0 0" stroke="#1e1e1e" stroke-width="1" fill="none"></path></g><g transform="translate(89.42687872270471 15.702696697029296) rotate(0 4.623992919921875 10)"><text x="4.623992919921875" y="0" font-family="HanziPen SC, HanziPen Remote, Virgil, KaiTi, Segoe UI Emoji" font-size="16px" fill="#1e1e1e" text-anchor="middle" style="white-space: pre;" direction="ltr" dominant-baseline="text-before-edge">0</text></g><g stroke-linecap="round" transform="translate(191.19021138123207 47.37336012962169) rotate(0 45 15)"><path d="M0 0 C34.26 0, 68.52 0, 90 0 M0 0 C25 0, 49.99 0, 90 0 M90 0 C90 7.17, 90 14.33, 90 30 M90 0 C90 10.77, 90 21.54, 90 30 M90 30 C63.21 30, 36.42 30, 0 30 M90 30 C63.31 30, 36.62 30, 0 30 M0 30 C0 20.37, 0 10.75, 0 0 M0 30 C0 23.92, 0 17.85, 0 0" stroke="#1e1e1e" stroke-width="1" fill="none"></path></g><g transform="translate(211.83824452332192 52.37336012962169) rotate(0 24.351966857910156 10)"><text x="24.351966857910156" y="0" font-family="HanziPen SC, HanziPen Remote, Virgil, KaiTi, Segoe UI Emoji" font-size="16px" fill="#1e1e1e" text-anchor="middle" style="white-space: pre;" direction="ltr" dominant-baseline="text-before-edge">2x1.25</text></g><g stroke-linecap="round" transform="translate(10 47.73208190287755) rotate(0 12 15)"><path d="M0 0 C6.34 0, 12.67 0, 24 0 M0 0 C7.21 0, 14.43 0, 24 0 M24 0 C24 7.22, 24 14.45, 24 30 M24 0 C24 6.38, 24 12.75, 24 30 M24 30 C14.84 30, 5.68 30, 0 30 M24 30 C15.01 30, 6.02 30, 0 30 M0 30 C0 21.79, 0 13.58, 0 0 M0 30 C0 24, 0 18, 0 0" stroke="#1e1e1e" stroke-width="1" fill="none"></path></g><g transform="translate(17.376007080078125 52.73208190287755) rotate(0 4.623992919921875 10)"><text x="4.623992919921875" y="0" font-family="HanziPen SC, HanziPen Remote, Virgil, KaiTi, Segoe UI Emoji" font-size="16px" fill="#1e1e1e" text-anchor="middle" style="white-space: pre;" direction="ltr" dominant-baseline="text-before-edge">0</text></g><g stroke-linecap="round" transform="translate(33.90646238682257 47.72682090395756) rotate(0 12 15)"><path d="M0 0 C8.39 0, 16.77 0, 24 0 M0 0 C5.95 0, 11.89 0, 24 0 M24 0 C24 7.51, 24 15.03, 24 30 M24 0 C24 8.11, 24 16.21, 24 30 M24 30 C15 30, 6 30, 0 30 M24 30 C18.89 30, 13.79 30, 0 30 M0 30 C0 21.72, 0 13.44, 0 0 M0 30 C0 21.79, 0 13.59, 0 0" stroke="#1e1e1e" stroke-width="1" fill="none"></path></g><g transform="translate(41.28246946690069 52.72682090395756) rotate(0 4.623992919921875 10)"><text x="4.623992919921875" y="0" font-family="HanziPen SC, HanziPen Remote, Virgil, KaiTi, Segoe UI Emoji" font-size="16px" fill="#1e1e1e" text-anchor="middle" style="white-space: pre;" direction="ltr" dominant-baseline="text-before-edge">0</text></g><g stroke-linecap="round" transform="translate(57.965887481467234 47.747107039297475) rotate(0 12 15)"><path d="M0 0 C6.21 0, 12.42 0, 24 0 M0 0 C5.01 0, 10.03 0, 24 0 M24 0 C24 6.2, 24 12.4, 24 30 M24 0 C24 10.42, 24 20.84, 24 30 M24 30 C16.05 30, 8.1 30, 0 30 M24 30 C17.22 30, 10.44 30, 0 30 M0 30 C0 19.47, 0 8.94, 0 0 M0 30 C0 18.1, 0 6.2, 0 0" stroke="#1e1e1e" stroke-width="1" fill="none"></path></g><g transform="translate(65.34189456154536 52.747107039297475) rotate(0 4.623992919921875 10)"><text x="4.623992919921875" y="0" font-family="HanziPen SC, HanziPen Remote, Virgil, KaiTi, Segoe UI Emoji" font-size="16px" fill="#1e1e1e" text-anchor="middle" style="white-space: pre;" direction="ltr" dominant-baseline="text-before-edge">0</text></g><g stroke-linecap="round" transform="translate(81.97243730851415 47.69925034931316) rotate(0 12 15)"><path d="M0 0 C5.3 0, 10.6 0, 24 0 M0 0 C5.38 0, 10.76 0, 24 0 M24 0 C24 9.01, 24 18.02, 24 30 M24 0 C24 9.66, 24 19.32, 24 30 M24 30 C19.11 30, 14.23 30, 0 30 M24 30 C16.82 30, 9.64 30, 0 30 M0 30 C0 23.56, 0 17.12, 0 0 M0 30 C0 20.33, 0 10.67, 0 0" stroke="#1e1e1e" stroke-width="1" fill="none"></path></g><g transform="translate(89.34844438859227 52.69925034931316) rotate(0 4.623992919921875 10)"><text x="4.623992919921875" y="0" font-family="HanziPen SC, HanziPen Remote, Virgil, KaiTi, Segoe UI Emoji" font-size="16px" fill="#1e1e1e" text-anchor="middle" style="white-space: pre;" direction="ltr" dominant-baseline="text-before-edge">1</text></g><g stroke-linecap="round" transform="translate(191.24845092788246 83.28086285549546) rotate(0 45 15)"><path d="M0 0 C21.5 0, 43 0, 90 0 M0 0 C32.31 0, 64.61 0, 90 0 M90 0 C90 8.93, 90 17.86, 90 30 M90 0 C90 8.9, 90 17.79, 90 30 M90 30 C61.12 30, 32.25 30, 0 30 M90 30 C71.77 30, 53.54 30, 0 30 M0 30 C0 19.26, 0 8.51, 0 0 M0 30 C0 23.16, 0 16.33, 0 0" stroke="#1e1e1e" stroke-width="1" fill="none"></path></g><g transform="translate(207.27249115005043 88.28086285549546) rotate(0 28.97595977783203 10)"><text x="28.97595977783203" y="0" font-family="HanziPen SC, HanziPen Remote, Virgil, KaiTi, Segoe UI Emoji" font-size="16px" fill="#1e1e1e" text-anchor="middle" style="white-space: pre;" direction="ltr" dominant-baseline="text-before-edge">4x1.125</text></g><g stroke-linecap="round" transform="translate(10.030356292888428 83.29562738229083) rotate(0 12 15)"><path d="M0 0 C7 0, 14 0, 24 0 M0 0 C7.28 0, 14.56 0, 24 0 M24 0 C24 10.19, 24 20.37, 24 30 M24 0 C24 11.97, 24 23.94, 24 30 M24 30 C14.73 30, 5.46 30, 0 30 M24 30 C15.4 30, 6.81 30, 0 30 M0 30 C0 22.58, 0 15.16, 0 0 M0 30 C0 20.51, 0 11.01, 0 0" stroke="#1e1e1e" stroke-width="1" fill="none"></path></g><g transform="translate(17.406363372966553 88.29562738229083) rotate(0 4.623992919921875 10)"><text x="4.623992919921875" y="0" font-family="HanziPen SC, HanziPen Remote, Virgil, KaiTi, Segoe UI Emoji" font-size="16px" fill="#1e1e1e" text-anchor="middle" style="white-space: pre;" direction="ltr" dominant-baseline="text-before-edge">0</text></g><g stroke-linecap="round" transform="translate(33.936818679710996 83.29036638337084) rotate(0 12 15)"><path d="M0 0 C7.98 0, 15.96 0, 24 0 M0 0 C8.94 0, 17.88 0, 24 0 M24 0 C24 10.26, 24 20.52, 24 30 M24 0 C24 11.46, 24 22.91, 24 30 M24 30 C17.31 30, 10.63 30, 0 30 M24 30 C15.45 30, 6.9 30, 0 30 M0 30 C0 20.3, 0 10.6, 0 0 M0 30 C0 23.53, 0 17.06, 0 0" stroke="#1e1e1e" stroke-width="1" fill="none"></path></g><g transform="translate(41.31282575978912 88.29036638337084) rotate(0 4.623992919921875 10)"><text x="4.623992919921875" y="0" font-family="HanziPen SC, HanziPen Remote, Virgil, KaiTi, Segoe UI Emoji" font-size="16px" fill="#1e1e1e" text-anchor="middle" style="white-space: pre;" direction="ltr" dominant-baseline="text-before-edge">0</text></g><g stroke-linecap="round" transform="translate(57.99624377435566 83.31065251871075) rotate(0 12 15)"><path d="M0 0 C6.96 0, 13.92 0, 24 0 M0 0 C7.36 0, 14.72 0, 24 0 M24 0 C24 11.88, 24 23.76, 24 30 M24 0 C24 6.69, 24 13.38, 24 30 M24 30 C17.97 30, 11.94 30, 0 30 M24 30 C18.91 30, 13.82 30, 0 30 M0 30 C0 23.94, 0 17.88, 0 0 M0 30 C0 18.66, 0 7.32, 0 0" stroke="#1e1e1e" stroke-width="1" fill="none"></path></g><g transform="translate(65.37225085443379 88.31065251871075) rotate(0 4.623992919921875 10)"><text x="4.623992919921875" y="0" font-family="HanziPen SC, HanziPen Remote, Virgil, KaiTi, Segoe UI Emoji" font-size="16px" fill="#1e1e1e" text-anchor="middle" style="white-space: pre;" direction="ltr" dominant-baseline="text-before-edge">1</text></g><g stroke-linecap="round" transform="translate(82.00279360140257 83.26279582872655) rotate(0 12 15)"><path d="M0 0 C6.42 0, 12.84 0, 24 0 M0 0 C6.51 0, 13.03 0, 24 0 M24 0 C24 11.03, 24 22.06, 24 30 M24 0 C24 9.76, 24 19.51, 24 30 M24 30 C16.02 30, 8.03 30, 0 30 M24 30 C15.22 30, 6.44 30, 0 30 M0 30 C0 21.76, 0 13.53, 0 0 M0 30 C0 21.55, 0 13.1, 0 0" stroke="#1e1e1e" stroke-width="1" fill="none"></path></g><g transform="translate(89.3788006814807 88.26279582872655) rotate(0 4.623992919921875 10)"><text x="4.623992919921875" y="0" font-family="HanziPen SC, HanziPen Remote, Virgil, KaiTi, Segoe UI Emoji" font-size="16px" fill="#1e1e1e" text-anchor="middle" style="white-space: pre;" direction="ltr" dominant-baseline="text-before-edge">0</text></g><g stroke-linecap="round" transform="translate(190.85528148339154 119.5280565485848) rotate(0 45 15)"><path d="M0 0 C30.95 0, 61.9 0, 90 0 M0 0 C23.09 0, 46.18 0, 90 0 M90 0 C90 8.94, 90 17.88, 90 30 M90 0 C90 9.48, 90 18.97, 90 30 M90 30 C60.62 30, 31.25 30, 0 30 M90 30 C64.56 30, 39.12 30, 0 30 M0 30 C0 20.79, 0 11.58, 0 0 M0 30 C0 23.13, 0 16.26, 0 0" stroke="#1e1e1e" stroke-width="1" fill="none"></path></g><g transform="translate(216.12730754540326 124.5280565485848) rotate(0 19.72797393798828 10)"><text x="19.72797393798828" y="0" font-family="HanziPen SC, HanziPen Remote, Virgil, KaiTi, Segoe UI Emoji" font-size="16px" fill="#1e1e1e" text-anchor="middle" style="white-space: pre;" direction="ltr" dominant-baseline="text-before-edge">4x1.0</text></g><g stroke-linecap="round" transform="translate(10.33803150268568 120.41513893770605) rotate(0 12 15)"><path d="M0 0 C8.94 0, 17.87 0, 24 0 M0 0 C6.66 0, 13.32 0, 24 0 M24 0 C24 6.09, 24 12.18, 24 30 M24 0 C24 7.45, 24 14.91, 24 30 M24 30 C18.93 30, 13.87 30, 0 30 M24 30 C17.93 30, 11.86 30, 0 30 M0 30 C0 22.8, 0 15.59, 0 0 M0 30 C0 19.56, 0 9.13, 0 0" stroke="#1e1e1e" stroke-width="1" fill="none"></path></g><g transform="translate(17.714038582763806 125.41513893770605) rotate(0 4.623992919921875 10)"><text x="4.623992919921875" y="0" font-family="HanziPen SC, HanziPen Remote, Virgil, KaiTi, Segoe UI Emoji" font-size="16px" fill="#1e1e1e" text-anchor="middle" style="white-space: pre;" direction="ltr" dominant-baseline="text-before-edge">0</text></g><g stroke-linecap="round" transform="translate(34.24449388950825 120.40987793878605) rotate(0 12 15)"><path d="M0 0 C9.16 0, 18.32 0, 24 0 M0 0 C8.99 0, 17.98 0, 24 0 M24 0 C24 8.21, 24 16.42, 24 30 M24 0 C24 6, 24 12, 24 30 M24 30 C15.84 30, 7.68 30, 0 30 M24 30 C14.6 30, 5.2 30, 0 30 M0 30 C0 18.3, 0 6.59, 0 0 M0 30 C0 18.27, 0 6.54, 0 0" stroke="#1e1e1e" stroke-width="1" fill="none"></path></g><g transform="translate(41.620500969586374 125.40987793878605) rotate(0 4.623992919921875 10)"><text x="4.623992919921875" y="0" font-family="HanziPen SC, HanziPen Remote, Virgil, KaiTi, Segoe UI Emoji" font-size="16px" fill="#1e1e1e" text-anchor="middle" style="white-space: pre;" direction="ltr" dominant-baseline="text-before-edge">0</text></g><g stroke-linecap="round" transform="translate(58.303918984152915 120.43016407412608) rotate(0 12 15)"><path d="M0 0 C9 0, 18 0, 24 0 M0 0 C5.11 0, 10.21 0, 24 0 M24 0 C24 8.28, 24 16.56, 24 30 M24 0 C24 8.21, 24 16.41, 24 30 M24 30 C18.19 30, 12.38 30, 0 30 M24 30 C18.26 30, 12.51 30, 0 30 M0 30 C0 22.56, 0 15.12, 0 0 M0 30 C0 19.91, 0 9.82, 0 0" stroke="#1e1e1e" stroke-width="1" fill="none"></path></g><g transform="translate(65.67992606423104 125.43016407412608) rotate(0 4.623992919921875 10)"><text x="4.623992919921875" y="0" font-family="HanziPen SC, HanziPen Remote, Virgil, KaiTi, Segoe UI Emoji" font-size="16px" fill="#1e1e1e" text-anchor="middle" style="white-space: pre;" direction="ltr" dominant-baseline="text-before-edge">1</text></g><g stroke-linecap="round" transform="translate(82.31046881119983 120.38230738414165) rotate(0 12 15)"><path d="M0 0 C7.95 0, 15.9 0, 24 0 M0 0 C6.78 0, 13.56 0, 24 0 M24 0 C24 10.53, 24 21.06, 24 30 M24 0 C24 11.9, 24 23.8, 24 30 M24 30 C18.71 30, 13.43 30, 0 30 M24 30 C15.33 30, 6.67 30, 0 30 M0 30 C0 21.61, 0 13.22, 0 0 M0 30 C0 18.41, 0 6.83, 0 0" stroke="#1e1e1e" stroke-width="1" fill="none"></path></g><g transform="translate(89.68647589127795 125.38230738414165) rotate(0 4.623992919921875 10)"><text x="4.623992919921875" y="0" font-family="HanziPen SC, HanziPen Remote, Virgil, KaiTi, Segoe UI Emoji" font-size="16px" fill="#1e1e1e" text-anchor="middle" style="white-space: pre;" direction="ltr" dominant-baseline="text-before-edge">0</text></g><g stroke-linecap="round" transform="translate(105.74674809812859 10.742148512412768) rotate(0 12 15)"><path d="M0 0 C4.89 0, 9.77 0, 24 0 M0 0 C7.18 0, 14.36 0, 24 0 M24 0 C24 6.44, 24 12.88, 24 30 M24 0 C24 9.67, 24 19.33, 24 30 M24 30 C15.51 30, 7.03 30, 0 30 M24 30 C15.67 30, 7.34 30, 0 30 M0 30 C0 20.21, 0 10.42, 0 0 M0 30 C0 18.94, 0 7.89, 0 0" stroke="#1e1e1e" stroke-width="1" fill="none"></path></g><g transform="translate(113.12275517820672 15.742148512412768) rotate(0 4.623992919921875 10)"><text x="4.623992919921875" y="0" font-family="HanziPen SC, HanziPen Remote, Virgil, KaiTi, Segoe UI Emoji" font-size="16px" fill="#2f9e44" text-anchor="middle" style="white-space: pre;" direction="ltr" dominant-baseline="text-before-edge">0</text></g><g stroke-linecap="round" transform="translate(129.65321048495116 10.736887513492775) rotate(0 12 15)"><path d="M0 0 C7.7 0, 15.4 0, 24 0 M0 0 C4.86 0, 9.72 0, 24 0 M24 0 C24 10.74, 24 21.49, 24 30 M24 0 C24 6.84, 24 13.67, 24 30 M24 30 C16.91 30, 9.83 30, 0 30 M24 30 C18.89 30, 13.79 30, 0 30 M0 30 C0 23.89, 0 17.77, 0 0 M0 30 C0 19.91, 0 9.83, 0 0" stroke="#1e1e1e" stroke-width="1" fill="none"></path></g><g transform="translate(137.02921756502928 15.736887513492775) rotate(0 4.623992919921875 10)"><text x="4.623992919921875" y="0" font-family="HanziPen SC, HanziPen Remote, Virgil, KaiTi, Segoe UI Emoji" font-size="16px" fill="#2f9e44" text-anchor="middle" style="white-space: pre;" direction="ltr" dominant-baseline="text-before-edge">0</text></g><g stroke-linecap="round" transform="translate(153.71263557959537 10.757173648832804) rotate(0 12 15)"><path d="M0 0 C9.27 0, 18.54 0, 24 0 M0 0 C8.6 0, 17.19 0, 24 0 M24 0 C24 7.42, 24 14.84, 24 30 M24 0 C24 9.49, 24 18.99, 24 30 M24 30 C17.43 30, 10.85 30, 0 30 M24 30 C14.45 30, 4.89 30, 0 30 M0 30 C0 20.9, 0 11.8, 0 0 M0 30 C0 19, 0 7.99, 0 0" stroke="#1e1e1e" stroke-width="1" fill="none"></path></g><g transform="translate(161.0886426596735 15.757173648832804) rotate(0 4.623992919921875 10)"><text x="4.623992919921875" y="0" font-family="HanziPen SC, HanziPen Remote, Virgil, KaiTi, Segoe UI Emoji" font-size="16px" fill="#2f9e44" text-anchor="middle" style="white-space: pre;" direction="ltr" dominant-baseline="text-before-edge">0</text></g><g stroke-linecap="round" transform="translate(105.54947223538147 47.59756632969493) rotate(0 12 15)"><path d="M0 0 C6.69 0, 13.37 0, 24 0 M0 0 C8.55 0, 17.1 0, 24 0 M24 0 C24 9.7, 24 19.4, 24 30 M24 0 C24 6.47, 24 12.94, 24 30 M24 30 C16.97 30, 9.94 30, 0 30 M24 30 C15.16 30, 6.31 30, 0 30 M0 30 C0 18.28, 0 6.56, 0 0 M0 30 C0 19.11, 0 8.22, 0 0" stroke="#1e1e1e" stroke-width="1" fill="none"></path></g><g transform="translate(112.9254793154596 52.59756632969493) rotate(0 4.623992919921875 10)"><text x="4.623992919921875" y="0" font-family="HanziPen SC, HanziPen Remote, Virgil, KaiTi, Segoe UI Emoji" font-size="16px" fill="#2f9e44" text-anchor="middle" style="white-space: pre;" direction="ltr" dominant-baseline="text-before-edge">0</text></g><g stroke-linecap="round" transform="translate(129.45593462220404 47.592305330774934) rotate(0 12 15)"><path d="M0 0 C6.03 0, 12.06 0, 24 0 M0 0 C5.09 0, 10.18 0, 24 0 M24 0 C24 6.06, 24 12.12, 24 30 M24 0 C24 11.34, 24 22.68, 24 30 M24 30 C16.05 30, 8.11 30, 0 30 M24 30 C18.86 30, 13.72 30, 0 30 M0 30 C0 23.79, 0 17.58, 0 0 M0 30 C0 22.42, 0 14.84, 0 0" stroke="#1e1e1e" stroke-width="1" fill="none"></path></g><g transform="translate(136.83194170228217 52.592305330774934) rotate(0 4.623992919921875 10)"><text x="4.623992919921875" y="0" font-family="HanziPen SC, HanziPen Remote, Virgil, KaiTi, Segoe UI Emoji" font-size="16px" fill="#2f9e44" text-anchor="middle" style="white-space: pre;" direction="ltr" dominant-baseline="text-before-edge">1</text></g><g stroke-linecap="round" transform="translate(153.5153597168487 47.612591466114964) rotate(0 12 15)"><path d="M0 0 C7.98 0, 15.97 0, 24 0 M0 0 C8.78 0, 17.56 0, 24 0 M24 0 C24 8.24, 24 16.47, 24 30 M24 0 C24 8.45, 24 16.9, 24 30 M24 30 C15.8 30, 7.6 30, 0 30 M24 30 C17.99 30, 11.99 30, 0 30 M0 30 C0 21.95, 0 13.91, 0 0 M0 30 C0 18.35, 0 6.69, 0 0" stroke="#1e1e1e" stroke-width="1" fill="none"></path></g><g transform="translate(160.89136679692683 52.612591466114964) rotate(0 4.623992919921875 10)"><text x="4.623992919921875" y="0" font-family="HanziPen SC, HanziPen Remote, Virgil, KaiTi, Segoe UI Emoji" font-size="16px" fill="#2f9e44" text-anchor="middle" style="white-space: pre;" direction="ltr" dominant-baseline="text-before-edge">0</text></g><g stroke-linecap="round" transform="translate(105.66313634801872 83.2403398654252) rotate(0 12 15)"><path d="M0 0 C7.83 0, 15.67 0, 24 0 M0 0 C6.78 0, 13.57 0, 24 0 M24 0 C24 9.21, 24 18.42, 24 30 M24 0 C24 6.87, 24 13.74, 24 30 M24 30 C17.92 30, 11.84 30, 0 30 M24 30 C18.79 30, 13.58 30, 0 30 M0 30 C0 22.03, 0 14.07, 0 0 M0 30 C0 19.56, 0 9.11, 0 0" stroke="#1e1e1e" stroke-width="1" fill="none"></path></g><g transform="translate(113.03914342809685 88.2403398654252) rotate(0 4.623992919921875 10)"><text x="4.623992919921875" y="0" font-family="HanziPen SC, HanziPen Remote, Virgil, KaiTi, Segoe UI Emoji" font-size="16px" fill="#2f9e44" text-anchor="middle" style="white-space: pre;" direction="ltr" dominant-baseline="text-before-edge">0</text></g><g stroke-linecap="round" transform="translate(129.5695987348413 83.2350788665052) rotate(0 12 15)"><path d="M0 0 C5.07 0, 10.13 0, 24 0 M0 0 C6.07 0, 12.14 0, 24 0 M24 0 C24 7.2, 24 14.41, 24 30 M24 0 C24 10.44, 24 20.87, 24 30 M24 30 C15.13 30, 6.26 30, 0 30 M24 30 C17.28 30, 10.56 30, 0 30 M0 30 C0 22.06, 0 14.11, 0 0 M0 30 C0 19.97, 0 9.93, 0 0" stroke="#1e1e1e" stroke-width="1" fill="none"></path></g><g transform="translate(136.94560581491942 88.2350788665052) rotate(0 4.623992919921875 10)"><text x="4.623992919921875" y="0" font-family="HanziPen SC, HanziPen Remote, Virgil, KaiTi, Segoe UI Emoji" font-size="16px" fill="#2f9e44" text-anchor="middle" style="white-space: pre;" direction="ltr" dominant-baseline="text-before-edge">0</text></g><g stroke-linecap="round" transform="translate(153.62902382948596 83.25536500184523) rotate(0 12 15)"><path d="M0 0 C8.16 0, 16.32 0, 24 0 M0 0 C9.4 0, 18.8 0, 24 0 M24 0 C24 11.7, 24 23.41, 24 30 M24 0 C24 11.73, 24 23.46, 24 30 M24 30 C15.15 30, 6.3 30, 0 30 M24 30 C18.51 30, 13.01 30, 0 30 M0 30 C0 20.79, 0 11.58, 0 0 M0 30 C0 18.75, 0 7.5, 0 0" stroke="#1e1e1e" stroke-width="1" fill="none"></path></g><g transform="translate(161.00503090956408 88.25536500184523) rotate(0 4.623992919921875 10)"><text x="4.623992919921875" y="0" font-family="HanziPen SC, HanziPen Remote, Virgil, KaiTi, Segoe UI Emoji" font-size="16px" fill="#2f9e44" text-anchor="middle" style="white-space: pre;" direction="ltr" dominant-baseline="text-before-edge">1</text></g><g stroke-linecap="round" transform="translate(106.22355470698858 120.52984359012055) rotate(0 12 15)"><path d="M0 0 C5.81 0, 11.62 0, 24 0 M0 0 C5.74 0, 11.49 0, 24 0 M24 0 C24 7.44, 24 14.88, 24 30 M24 0 C24 10.09, 24 20.18, 24 30 M24 30 C16.69 30, 9.38 30, 0 30 M24 30 C17.3 30, 10.59 30, 0 30 M0 30 C0 23.75, 0 17.5, 0 0 M0 30 C0 20.32, 0 10.63, 0 0" stroke="#1e1e1e" stroke-width="1" fill="none"></path></g><g transform="translate(113.5995617870667 125.52984359012055) rotate(0 4.623992919921875 10)"><text x="4.623992919921875" y="0" font-family="HanziPen SC, HanziPen Remote, Virgil, KaiTi, Segoe UI Emoji" font-size="16px" fill="#2f9e44" text-anchor="middle" style="white-space: pre;" direction="ltr" dominant-baseline="text-before-edge">0</text></g><g stroke-linecap="round" transform="translate(130.13001709381115 120.52458259120056) rotate(0 12 15)"><path d="M0 0 C5.29 0, 10.57 0, 24 0 M0 0 C8.67 0, 17.33 0, 24 0 M24 0 C24 8.39, 24 16.78, 24 30 M24 0 C24 11.59, 24 23.17, 24 30 M24 30 C19.07 30, 14.14 30, 0 30 M24 30 C17.49 30, 10.97 30, 0 30 M0 30 C0 19.21, 0 8.42, 0 0 M0 30 C0 22.34, 0 14.68, 0 0" stroke="#1e1e1e" stroke-width="1" fill="none"></path></g><g transform="translate(137.50602417388927 125.52458259120056) rotate(0 4.623992919921875 10)"><text x="4.623992919921875" y="0" font-family="HanziPen SC, HanziPen Remote, Virgil, KaiTi, Segoe UI Emoji" font-size="16px" fill="#2f9e44" text-anchor="middle" style="white-space: pre;" direction="ltr" dominant-baseline="text-before-edge">0</text></g><g stroke-linecap="round" transform="translate(154.1894421884558 120.54486872654059) rotate(0 12 15)"><path d="M0 0 C8.49 0, 16.97 0, 24 0 M0 0 C8.33 0, 16.66 0, 24 0 M24 0 C24 9.79, 24 19.58, 24 30 M24 0 C24 11.06, 24 22.11, 24 30 M24 30 C17.4 30, 10.81 30, 0 30 M24 30 C17.51 30, 11.02 30, 0 30 M0 30 C0 20.19, 0 10.37, 0 0 M0 30 C0 21.74, 0 13.47, 0 0" stroke="#1e1e1e" stroke-width="1" fill="none"></path></g><g transform="translate(161.56544926853394 125.54486872654059) rotate(0 4.623992919921875 10)"><text x="4.623992919921875" y="0" font-family="HanziPen SC, HanziPen Remote, Virgil, KaiTi, Segoe UI Emoji" font-size="16px" fill="#2f9e44" text-anchor="middle" style="white-space: pre;" direction="ltr" dominant-baseline="text-before-edge">0</text></g></svg>