<svg version="1.1" xmlns="http://www.w3.org/2000/svg" viewBox="0 0 188.2307034712503 218.830871006277" width="188.2307034712503" height="218.830871006277" filter="invert(93%) hue-rotate(180deg)">
  <!-- svg-source:excalidraw -->
  
  <defs>
    <style class="style-fonts">
      @font-face {
        font-family: "Virgil";
        src: url("https://unpkg.com/revedraw@1.0.0-alpha.10/dist/excalidraw-assets/Virgil.woff2");
      }
      @font-face {
        font-family: "Cascadia";
        src: url("https://unpkg.com/revedraw@1.0.0-alpha.10/dist/excalidraw-assets/Cascadia.woff2");
      }
    </style>
    
  </defs>
  <g stroke-linecap="round" transform="translate(111.13280690834017 10.284932911992883) rotate(0 33.5 15)"><path d="M0 0 C19.62 0, 39.23 0, 67 0 M0 0 C15.63 0, 31.26 0, 67 0 M67 0 C67 11.41, 67 22.82, 67 30 M67 0 C67 9.12, 67 18.24, 67 30 M67 30 C52.98 30, 38.95 30, 0 30 M67 30 C44.06 30, 21.12 30, 0 30 M0 30 C0 19.43, 0 8.85, 0 0 M0 30 C0 22.13, 0 14.26, 0 0" stroke="#1e1e1e" stroke-width="1" fill="none"></path></g><g transform="translate(140.0088139884183 15.284932911992883) rotate(0 4.623992919921875 10)"><text x="4.623992919921875" y="0" font-family="HanziPen SC, HanziPen Remote, Virgil, KaiTi, Segoe UI Emoji" font-size="16px" fill="#1e1e1e" text-anchor="middle" style="white-space: pre;" direction="ltr" dominant-baseline="text-before-edge">2</text></g><g stroke-linecap="round" transform="translate(10 10.032831553564336) rotate(0 12 15)"><path d="M0 0 C7.59 0, 15.18 0, 24 0 M0 0 C4.98 0, 9.97 0, 24 0 M24 0 C24 6.65, 24 13.29, 24 30 M24 0 C24 7.55, 24 15.1, 24 30 M24 30 C14.53 30, 5.06 30, 0 30 M24 30 C16.02 30, 8.04 30, 0 30 M0 30 C0 18.22, 0 6.44, 0 0 M0 30 C0 23.13, 0 16.25, 0 0" stroke="#1e1e1e" stroke-width="1" fill="none"></path></g><g transform="translate(17.376007080078125 15.032831553564336) rotate(0 4.623992919921875 10)"><text x="4.623992919921875" y="0" font-family="HanziPen SC, HanziPen Remote, Virgil, KaiTi, Segoe UI Emoji" font-size="16px" fill="#1e1e1e" text-anchor="middle" style="white-space: pre;" direction="ltr" dominant-baseline="text-before-edge">0</text></g><g stroke-linecap="round" transform="translate(33.90646238682257 10.027570554644342) rotate(0 12 15)"><path d="M0 0 C6.08 0, 12.16 0, 24 0 M0 0 C7.44 0, 14.88 0, 24 0 M24 0 C24 9.58, 24 19.16, 24 30 M24 0 C24 6.19, 24 12.38, 24 30 M24 30 C14.74 30, 5.48 30, 0 30 M24 30 C16.76 30, 9.52 30, 0 30 M0 30 C0 18.16, 0 6.32, 0 0 M0 30 C0 22.76, 0 15.51, 0 0" stroke="#1e1e1e" stroke-width="1" fill="none"></path></g><g transform="translate(41.28246946690069 15.027570554644342) rotate(0 4.623992919921875 10)"><text x="4.623992919921875" y="0" font-family="HanziPen SC, HanziPen Remote, Virgil, KaiTi, Segoe UI Emoji" font-size="16px" fill="#1e1e1e" text-anchor="middle" style="white-space: pre;" direction="ltr" dominant-baseline="text-before-edge">0</text></g><g stroke-linecap="round" transform="translate(57.96588748146769 10.047856689984314) rotate(0 12 15)"><path d="M0 0 C8.86 0, 17.72 0, 24 0 M0 0 C7.36 0, 14.72 0, 24 0 M24 0 C24 11.3, 24 22.6, 24 30 M24 0 C24 8.89, 24 17.78, 24 30 M24 30 C16.23 30, 8.47 30, 0 30 M24 30 C15.81 30, 7.61 30, 0 30 M0 30 C0 19.92, 0 9.84, 0 0 M0 30 C0 19.42, 0 8.83, 0 0" stroke="#1e1e1e" stroke-width="1" fill="none"></path></g><g transform="translate(65.34189456154581 15.047856689984314) rotate(0 4.623992919921875 10)"><text x="4.623992919921875" y="0" font-family="HanziPen SC, HanziPen Remote, Virgil, KaiTi, Segoe UI Emoji" font-size="16px" fill="#1e1e1e" text-anchor="middle" style="white-space: pre;" direction="ltr" dominant-baseline="text-before-edge">0</text></g><g stroke-linecap="round" transform="translate(81.9724373085146 10) rotate(0 12 15)"><path d="M0 0 C8.5 0, 16.99 0, 24 0 M0 0 C8.13 0, 16.25 0, 24 0 M24 0 C24 9.63, 24 19.27, 24 30 M24 0 C24 6.76, 24 13.51, 24 30 M24 30 C15.05 30, 6.1 30, 0 30 M24 30 C16.38 30, 8.76 30, 0 30 M0 30 C0 23.41, 0 16.81, 0 0 M0 30 C0 18.25, 0 6.49, 0 0" stroke="#1e1e1e" stroke-width="1" fill="none"></path></g><g transform="translate(89.34844438859272 15) rotate(0 4.623992919921875 10)"><text x="4.623992919921875" y="0" font-family="HanziPen SC, HanziPen Remote, Virgil, KaiTi, Segoe UI Emoji" font-size="16px" fill="#1e1e1e" text-anchor="middle" style="white-space: pre;" direction="ltr" dominant-baseline="text-before-edge">0</text></g><g stroke-linecap="round" transform="translate(111.23070347125031 47.404444467407984) rotate(0 33.5 15)"><path d="M0 0 C21.64 0, 43.28 0, 67 0 M0 0 C21.55 0, 43.1 0, 67 0 M67 0 C67 9.16, 67 18.33, 67 30 M67 0 C67 8.15, 67 16.29, 67 30 M67 30 C45.29 30, 23.58 30, 0 30 M67 30 C48.84 30, 30.69 30, 0 30 M0 30 C0 21.8, 0 13.59, 0 0 M0 30 C0 19.15, 0 8.29, 0 0" stroke="#1e1e1e" stroke-width="1" fill="none"></path></g><g transform="translate(140.10671055132843 52.404444467407984) rotate(0 4.623992919921875 10)"><text x="4.623992919921875" y="0" font-family="HanziPen SC, HanziPen Remote, Virgil, KaiTi, Segoe UI Emoji" font-size="16px" fill="#1e1e1e" text-anchor="middle" style="white-space: pre;" direction="ltr" dominant-baseline="text-before-edge">2</text></g><g stroke-linecap="round" transform="translate(10.035584690334872 47.152343108979494) rotate(0 12 15)"><path d="M0 0 C5.2 0, 10.39 0, 24 0 M0 0 C8.33 0, 16.65 0, 24 0 M24 0 C24 9.22, 24 18.44, 24 30 M24 0 C24 8.67, 24 17.33, 24 30 M24 30 C14.59 30, 5.18 30, 0 30 M24 30 C18.77 30, 13.54 30, 0 30 M0 30 C0 19.5, 0 9.01, 0 0 M0 30 C0 22.76, 0 15.51, 0 0" stroke="#1e1e1e" stroke-width="1" fill="none"></path></g><g transform="translate(17.411591770412997 52.152343108979494) rotate(0 4.623992919921875 10)"><text x="4.623992919921875" y="0" font-family="HanziPen SC, HanziPen Remote, Virgil, KaiTi, Segoe UI Emoji" font-size="16px" fill="#1e1e1e" text-anchor="middle" style="white-space: pre;" direction="ltr" dominant-baseline="text-before-edge">0</text></g><g stroke-linecap="round" transform="translate(33.94204707715744 47.1470821100595) rotate(0 12 15)"><path d="M0 0 C9.59 0, 19.19 0, 24 0 M0 0 C6.73 0, 13.46 0, 24 0 M24 0 C24 9.89, 24 19.78, 24 30 M24 0 C24 9.17, 24 18.33, 24 30 M24 30 C18.78 30, 13.56 30, 0 30 M24 30 C15.62 30, 7.24 30, 0 30 M0 30 C0 20.2, 0 10.4, 0 0 M0 30 C0 18.47, 0 6.94, 0 0" stroke="#1e1e1e" stroke-width="1" fill="none"></path></g><g transform="translate(41.318054157235565 52.1470821100595) rotate(0 4.623992919921875 10)"><text x="4.623992919921875" y="0" font-family="HanziPen SC, HanziPen Remote, Virgil, KaiTi, Segoe UI Emoji" font-size="16px" fill="#1e1e1e" text-anchor="middle" style="white-space: pre;" direction="ltr" dominant-baseline="text-before-edge">0</text></g><g stroke-linecap="round" transform="translate(58.00147217180165 47.16736824539953) rotate(0 12 15)"><path d="M0 0 C6.31 0, 12.62 0, 24 0 M0 0 C8.72 0, 17.44 0, 24 0 M24 0 C24 6.01, 24 12.01, 24 30 M24 0 C24 9.76, 24 19.52, 24 30 M24 30 C17.63 30, 11.26 30, 0 30 M24 30 C18.46 30, 12.92 30, 0 30 M0 30 C0 20.8, 0 11.6, 0 0 M0 30 C0 20.44, 0 10.88, 0 0" stroke="#1e1e1e" stroke-width="1" fill="none"></path></g><g transform="translate(65.37747925187978 52.16736824539953) rotate(0 4.623992919921875 10)"><text x="4.623992919921875" y="0" font-family="HanziPen SC, HanziPen Remote, Virgil, KaiTi, Segoe UI Emoji" font-size="16px" fill="#1e1e1e" text-anchor="middle" style="white-space: pre;" direction="ltr" dominant-baseline="text-before-edge">0</text></g><g stroke-linecap="round" transform="translate(82.00802199884856 47.1195115554151) rotate(0 12 15)"><path d="M0 0 C5.31 0, 10.62 0, 24 0 M0 0 C5.07 0, 10.15 0, 24 0 M24 0 C24 11.14, 24 22.29, 24 30 M24 0 C24 9.79, 24 19.59, 24 30 M24 30 C18.57 30, 13.14 30, 0 30 M24 30 C19.1 30, 14.21 30, 0 30 M0 30 C0 23.47, 0 16.94, 0 0 M0 30 C0 19.55, 0 9.1, 0 0" stroke="#1e1e1e" stroke-width="1" fill="none"></path></g><g transform="translate(89.38402907892669 52.1195115554151) rotate(0 4.623992919921875 10)"><text x="4.623992919921875" y="0" font-family="HanziPen SC, HanziPen Remote, Virgil, KaiTi, Segoe UI Emoji" font-size="16px" fill="#1e1e1e" text-anchor="middle" style="white-space: pre;" direction="ltr" dominant-baseline="text-before-edge">1</text></g><g stroke-linecap="round" transform="translate(111.19874789156347 82.96798994682138) rotate(0 33.5 15)"><path d="M0 0 C21.1 0, 42.2 0, 67 0 M0 0 C14.45 0, 28.91 0, 67 0 M67 0 C67 9.64, 67 19.28, 67 30 M67 0 C67 7.88, 67 15.76, 67 30 M67 30 C52.6 30, 38.21 30, 0 30 M67 30 C41.23 30, 15.46 30, 0 30 M0 30 C0 23.63, 0 17.26, 0 0 M0 30 C0 19.45, 0 8.91, 0 0" stroke="#1e1e1e" stroke-width="1" fill="none"></path></g><g transform="translate(140.0747549716416 87.96798994682138) rotate(0 4.623992919921875 10)"><text x="4.623992919921875" y="0" font-family="HanziPen SC, HanziPen Remote, Virgil, KaiTi, Segoe UI Emoji" font-size="16px" fill="#1e1e1e" text-anchor="middle" style="white-space: pre;" direction="ltr" dominant-baseline="text-before-edge">2</text></g><g stroke-linecap="round" transform="translate(10.0659409832233 82.71588858839277) rotate(0 12 15)"><path d="M0 0 C5.02 0, 10.05 0, 24 0 M0 0 C8.22 0, 16.44 0, 24 0 M24 0 C24 10.57, 24 21.15, 24 30 M24 0 C24 7.87, 24 15.74, 24 30 M24 30 C15.08 30, 6.16 30, 0 30 M24 30 C17.67 30, 11.34 30, 0 30 M0 30 C0 21.95, 0 13.9, 0 0 M0 30 C0 18.54, 0 7.08, 0 0" stroke="#1e1e1e" stroke-width="1" fill="none"></path></g><g transform="translate(17.441948063301425 87.71588858839277) rotate(0 4.623992919921875 10)"><text x="4.623992919921875" y="0" font-family="HanziPen SC, HanziPen Remote, Virgil, KaiTi, Segoe UI Emoji" font-size="16px" fill="#1e1e1e" text-anchor="middle" style="white-space: pre;" direction="ltr" dominant-baseline="text-before-edge">0</text></g><g stroke-linecap="round" transform="translate(33.97240337004587 82.71062758947278) rotate(0 12 15)"><path d="M0 0 C9.47 0, 18.94 0, 24 0 M0 0 C7.98 0, 15.96 0, 24 0 M24 0 C24 11.78, 24 23.56, 24 30 M24 0 C24 6.87, 24 13.75, 24 30 M24 30 C17.71 30, 11.42 30, 0 30 M24 30 C16.62 30, 9.25 30, 0 30 M0 30 C0 18.35, 0 6.7, 0 0 M0 30 C0 21.95, 0 13.91, 0 0" stroke="#1e1e1e" stroke-width="1" fill="none"></path></g><g transform="translate(41.34841045012399 87.71062758947278) rotate(0 4.623992919921875 10)"><text x="4.623992919921875" y="0" font-family="HanziPen SC, HanziPen Remote, Virgil, KaiTi, Segoe UI Emoji" font-size="16px" fill="#1e1e1e" text-anchor="middle" style="white-space: pre;" direction="ltr" dominant-baseline="text-before-edge">0</text></g><g stroke-linecap="round" transform="translate(58.03182846469008 82.73091372481281) rotate(0 12 15)"><path d="M0 0 C9.26 0, 18.52 0, 24 0 M0 0 C7.24 0, 14.48 0, 24 0 M24 0 C24 11.84, 24 23.68, 24 30 M24 0 C24 7.24, 24 14.49, 24 30 M24 30 C17.37 30, 10.75 30, 0 30 M24 30 C15.45 30, 6.89 30, 0 30 M0 30 C0 23.99, 0 17.98, 0 0 M0 30 C0 23.59, 0 17.19, 0 0" stroke="#1e1e1e" stroke-width="1" fill="none"></path></g><g transform="translate(65.4078355447682 87.73091372481281) rotate(0 4.623992919921875 10)"><text x="4.623992919921875" y="0" font-family="HanziPen SC, HanziPen Remote, Virgil, KaiTi, Segoe UI Emoji" font-size="16px" fill="#1e1e1e" text-anchor="middle" style="white-space: pre;" direction="ltr" dominant-baseline="text-before-edge">1</text></g><g stroke-linecap="round" transform="translate(82.03837829173699 82.6830570348285) rotate(0 12 15)"><path d="M0 0 C7.77 0, 15.53 0, 24 0 M0 0 C8.19 0, 16.39 0, 24 0 M24 0 C24 10.08, 24 20.16, 24 30 M24 0 C24 10.58, 24 21.17, 24 30 M24 30 C18.5 30, 13 30, 0 30 M24 30 C18.55 30, 13.1 30, 0 30 M0 30 C0 19.3, 0 8.59, 0 0 M0 30 C0 18.1, 0 6.2, 0 0" stroke="#1e1e1e" stroke-width="1" fill="none"></path></g><g transform="translate(89.41438537181511 87.6830570348285) rotate(0 4.623992919921875 10)"><text x="4.623992919921875" y="0" font-family="HanziPen SC, HanziPen Remote, Virgil, KaiTi, Segoe UI Emoji" font-size="16px" fill="#1e1e1e" text-anchor="middle" style="white-space: pre;" direction="ltr" dominant-baseline="text-before-edge">0</text></g><g stroke-linecap="round" transform="translate(111.56873497393553 120.08750150223648) rotate(0 33 15)"><path d="M0 0 C24.61 0, 49.22 0, 66 0 M0 0 C20.96 0, 41.91 0, 66 0 M66 0 C66 6.59, 66 13.19, 66 30 M66 0 C66 11.75, 66 23.51, 66 30 M66 30 C42.16 30, 18.32 30, 0 30 M66 30 C45.53 30, 25.05 30, 0 30 M0 30 C0 19.93, 0 9.86, 0 0 M0 30 C0 18.87, 0 7.73, 0 0" stroke="#1e1e1e" stroke-width="1" fill="none"></path></g><g transform="translate(139.94474205401366 125.08750150223648) rotate(0 4.623992919921875 10)"><text x="4.623992919921875" y="0" font-family="HanziPen SC, HanziPen Remote, Virgil, KaiTi, Segoe UI Emoji" font-size="16px" fill="#1e1e1e" text-anchor="middle" style="white-space: pre;" direction="ltr" dominant-baseline="text-before-edge">2</text></g><g stroke-linecap="round" transform="translate(10.373616193020098 119.83540014380799) rotate(0 12 15)"><path d="M0 0 C7.78 0, 15.55 0, 24 0 M0 0 C6.5 0, 13.01 0, 24 0 M24 0 C24 8.2, 24 16.41, 24 30 M24 0 C24 10.85, 24 21.71, 24 30 M24 30 C15.9 30, 7.79 30, 0 30 M24 30 C15.07 30, 6.15 30, 0 30 M0 30 C0 22.81, 0 15.63, 0 0 M0 30 C0 22.04, 0 14.09, 0 0" stroke="#1e1e1e" stroke-width="1" fill="none"></path></g><g transform="translate(17.749623273098223 124.83540014380799) rotate(0 4.623992919921875 10)"><text x="4.623992919921875" y="0" font-family="HanziPen SC, HanziPen Remote, Virgil, KaiTi, Segoe UI Emoji" font-size="16px" fill="#1e1e1e" text-anchor="middle" style="white-space: pre;" direction="ltr" dominant-baseline="text-before-edge">0</text></g><g stroke-linecap="round" transform="translate(34.280078579842666 119.830139144888) rotate(0 12 15)"><path d="M0 0 C9.41 0, 18.82 0, 24 0 M0 0 C5.23 0, 10.46 0, 24 0 M24 0 C24 10.5, 24 20.99, 24 30 M24 0 C24 7.24, 24 14.49, 24 30 M24 30 C18.03 30, 12.06 30, 0 30 M24 30 C15.52 30, 7.04 30, 0 30 M0 30 C0 18.11, 0 6.22, 0 0 M0 30 C0 18.52, 0 7.04, 0 0" stroke="#1e1e1e" stroke-width="1" fill="none"></path></g><g transform="translate(41.65608565992079 124.830139144888) rotate(0 4.623992919921875 10)"><text x="4.623992919921875" y="0" font-family="HanziPen SC, HanziPen Remote, Virgil, KaiTi, Segoe UI Emoji" font-size="16px" fill="#1e1e1e" text-anchor="middle" style="white-space: pre;" direction="ltr" dominant-baseline="text-before-edge">0</text></g><g stroke-linecap="round" transform="translate(58.33950367448779 119.85042528022802) rotate(0 12 15)"><path d="M0 0 C5.22 0, 10.44 0, 24 0 M0 0 C8.38 0, 16.76 0, 24 0 M24 0 C24 9.8, 24 19.6, 24 30 M24 0 C24 11.53, 24 23.06, 24 30 M24 30 C18.96 30, 13.93 30, 0 30 M24 30 C15.12 30, 6.23 30, 0 30 M0 30 C0 19.25, 0 8.49, 0 0 M0 30 C0 23.94, 0 17.89, 0 0" stroke="#1e1e1e" stroke-width="1" fill="none"></path></g><g transform="translate(65.71551075456591 124.85042528022802) rotate(0 4.623992919921875 10)"><text x="4.623992919921875" y="0" font-family="HanziPen SC, HanziPen Remote, Virgil, KaiTi, Segoe UI Emoji" font-size="16px" fill="#1e1e1e" text-anchor="middle" style="white-space: pre;" direction="ltr" dominant-baseline="text-before-edge">1</text></g><g stroke-linecap="round" transform="translate(82.3460535015347 119.8025685902436) rotate(0 12 15)"><path d="M0 0 C6.37 0, 12.74 0, 24 0 M0 0 C5.54 0, 11.08 0, 24 0 M24 0 C24 9.2, 24 18.4, 24 30 M24 0 C24 9.56, 24 19.12, 24 30 M24 30 C15.34 30, 6.68 30, 0 30 M24 30 C16.47 30, 8.94 30, 0 30 M0 30 C0 20.88, 0 11.76, 0 0 M0 30 C0 18.71, 0 7.41, 0 0" stroke="#1e1e1e" stroke-width="1" fill="none"></path></g><g transform="translate(89.72206058161282 124.8025685902436) rotate(0 4.623992919921875 10)"><text x="4.623992919921875" y="0" font-family="HanziPen SC, HanziPen Remote, Virgil, KaiTi, Segoe UI Emoji" font-size="16px" fill="#1e1e1e" text-anchor="middle" style="white-space: pre;" direction="ltr" dominant-baseline="text-before-edge">1</text></g><g transform="translate(45.4978732408772 153.19668155365184) rotate(0 13.103988647460938 10)"><text x="0" y="0" font-family="HanziPen SC, HanziPen Remote, Virgil, KaiTi, Segoe UI Emoji" font-size="16px" fill="#1e1e1e" text-anchor="start" style="white-space: pre;" direction="ltr" dominant-baseline="text-before-edge">......</text></g><g transform="translate(131.10884753627442 153.3707971739792) rotate(0 13.103988647460938 10)"><text x="0" y="0" font-family="HanziPen SC, HanziPen Remote, Virgil, KaiTi, Segoe UI Emoji" font-size="16px" fill="#1e1e1e" text-anchor="start" style="white-space: pre;" direction="ltr" dominant-baseline="text-before-edge">......</text></g><g stroke-linecap="round" transform="translate(111.29362166976807 178.830871006277) rotate(0 33 15)"><path d="M0 0 C14.18 0, 28.36 0, 66 0 M0 0 C25.38 0, 50.77 0, 66 0 M66 0 C66 6.37, 66 12.74, 66 30 M66 0 C66 10.55, 66 21.09, 66 30 M66 30 C44.93 30, 23.86 30, 0 30 M66 30 C51.51 30, 37.02 30, 0 30 M0 30 C0 18.58, 0 7.16, 0 0 M0 30 C0 21.58, 0 13.17, 0 0" stroke="#1e1e1e" stroke-width="1" fill="none"></path></g><g transform="translate(139.6696287498462 183.830871006277) rotate(0 4.623992919921875 10)"><text x="4.623992919921875" y="0" font-family="HanziPen SC, HanziPen Remote, Virgil, KaiTi, Segoe UI Emoji" font-size="16px" fill="#1e1e1e" text-anchor="middle" style="white-space: pre;" direction="ltr" dominant-baseline="text-before-edge">2</text></g><g stroke-linecap="round" transform="translate(10.098502888852636 178.5787696478485) rotate(0 12 15)"><path d="M0 0 C8.92 0, 17.84 0, 24 0 M0 0 C6.33 0, 12.66 0, 24 0 M24 0 C24 8.05, 24 16.1, 24 30 M24 0 C24 11.46, 24 22.92, 24 30 M24 30 C16.03 30, 8.06 30, 0 30 M24 30 C18.26 30, 12.53 30, 0 30 M0 30 C0 18.23, 0 6.46, 0 0 M0 30 C0 18.23, 0 6.47, 0 0" stroke="#1e1e1e" stroke-width="1" fill="none"></path></g><g transform="translate(17.47450996893076 183.5787696478485) rotate(0 4.623992919921875 10)"><text x="4.623992919921875" y="0" font-family="HanziPen SC, HanziPen Remote, Virgil, KaiTi, Segoe UI Emoji" font-size="16px" fill="#1e1e1e" text-anchor="middle" style="white-space: pre;" direction="ltr" dominant-baseline="text-before-edge">1</text></g><g stroke-linecap="round" transform="translate(34.004965275675204 178.5735086489285) rotate(0 12 15)"><path d="M0 0 C6.29 0, 12.58 0, 24 0 M0 0 C7.38 0, 14.75 0, 24 0 M24 0 C24 11.65, 24 23.3, 24 30 M24 0 C24 8.05, 24 16.09, 24 30 M24 30 C15.7 30, 7.4 30, 0 30 M24 30 C16.82 30, 9.64 30, 0 30 M0 30 C0 19.56, 0 9.11, 0 0 M0 30 C0 23.31, 0 16.61, 0 0" stroke="#1e1e1e" stroke-width="1" fill="none"></path></g><g transform="translate(41.38097235575333 183.5735086489285) rotate(0 4.623992919921875 10)"><text x="4.623992919921875" y="0" font-family="HanziPen SC, HanziPen Remote, Virgil, KaiTi, Segoe UI Emoji" font-size="16px" fill="#1e1e1e" text-anchor="middle" style="white-space: pre;" direction="ltr" dominant-baseline="text-before-edge">1</text></g><g stroke-linecap="round" transform="translate(58.064390370319416 178.59379478426854) rotate(0 12 15)"><path d="M0 0 C6.63 0, 13.25 0, 24 0 M0 0 C8.55 0, 17.11 0, 24 0 M24 0 C24 6.01, 24 12.02, 24 30 M24 0 C24 6.41, 24 12.81, 24 30 M24 30 C18.58 30, 13.16 30, 0 30 M24 30 C15.22 30, 6.44 30, 0 30 M0 30 C0 19.47, 0 8.95, 0 0 M0 30 C0 20.94, 0 11.88, 0 0" stroke="#1e1e1e" stroke-width="1" fill="none"></path></g><g transform="translate(65.44039745039754 183.59379478426854) rotate(0 4.623992919921875 10)"><text x="4.623992919921875" y="0" font-family="HanziPen SC, HanziPen Remote, Virgil, KaiTi, Segoe UI Emoji" font-size="16px" fill="#1e1e1e" text-anchor="middle" style="white-space: pre;" direction="ltr" dominant-baseline="text-before-edge">1</text></g><g stroke-linecap="round" transform="translate(82.07094019736633 178.5459380942841) rotate(0 12 15)"><path d="M0 0 C5.5 0, 11 0, 24 0 M0 0 C5.45 0, 10.9 0, 24 0 M24 0 C24 10.7, 24 21.41, 24 30 M24 0 C24 11.9, 24 23.8, 24 30 M24 30 C17.7 30, 11.4 30, 0 30 M24 30 C14.87 30, 5.75 30, 0 30 M0 30 C0 20.15, 0 10.3, 0 0 M0 30 C0 20.03, 0 10.06, 0 0" stroke="#1e1e1e" stroke-width="1" fill="none"></path></g><g transform="translate(89.44694727744445 183.5459380942841) rotate(0 4.623992919921875 10)"><text x="4.623992919921875" y="0" font-family="HanziPen SC, HanziPen Remote, Virgil, KaiTi, Segoe UI Emoji" font-size="16px" fill="#1e1e1e" text-anchor="middle" style="white-space: pre;" direction="ltr" dominant-baseline="text-before-edge">1</text></g><g transform="translate(149.98024505208423 13.995381585742052) rotate(0 4.842769640738368 5.952283405390659)"><text x="0" y="0" font-family="HanziPen SC, HanziPen Remote, Virgil, KaiTi, Segoe UI Emoji" font-size="9.52365344862506px" fill="#1e1e1e" text-anchor="start" style="white-space: pre;" direction="ltr" dominant-baseline="text-before-edge">-7</text></g><g transform="translate(149.42608205526994 51.31548534304068) rotate(0 4.840911865234375 5.952283405390659)"><text x="0" y="0" font-family="HanziPen SC, HanziPen Remote, Virgil, KaiTi, Segoe UI Emoji" font-size="9.52365344862506px" fill="#1e1e1e" text-anchor="start" style="white-space: pre;" direction="ltr" dominant-baseline="text-before-edge">-6</text></g><g transform="translate(149.95196951407934 84.94995202920165) rotate(0 4.840911865234375 5.952283405390659)"><text x="0" y="0" font-family="HanziPen SC, HanziPen Remote, Virgil, KaiTi, Segoe UI Emoji" font-size="9.52365344862506px" fill="#1e1e1e" text-anchor="start" style="white-space: pre;" direction="ltr" dominant-baseline="text-before-edge">-5</text></g><g transform="translate(148.9828181037892 123.52954728238592) rotate(0 4.840911865234375 5.952283405390663)"><text x="0" y="0" font-family="HanziPen SC, HanziPen Remote, Virgil, KaiTi, Segoe UI Emoji" font-size="9.52365344862506px" fill="#1e1e1e" text-anchor="start" style="white-space: pre;" direction="ltr" dominant-baseline="text-before-edge">-4</text></g><g transform="translate(148.95229639669287 181.48435500419822) rotate(0 2.7512741088867188 5.952283405390663)"><text x="0" y="0" font-family="HanziPen SC, HanziPen Remote, Virgil, KaiTi, Segoe UI Emoji" font-size="9.52365344862506px" fill="#1e1e1e" text-anchor="start" style="white-space: pre;" direction="ltr" dominant-baseline="text-before-edge">8</text></g></svg>