<svg version="1.1" xmlns="http://www.w3.org/2000/svg" viewBox="0 0 212.08782786823213 103.60942677763524" width="212.08782786823213" height="103.60942677763524">
  <!-- svg-source:excalidraw -->
  
  <defs>
    <style class="style-fonts">
      @font-face {
        font-family: "Virgil";
        src: url("https://unpkg.com/revedraw@1.0.0-alpha.10/dist/excalidraw-assets/Virgil.woff2");
      }
      @font-face {
        font-family: "Cascadia";
        src: url("https://unpkg.com/revedraw@1.0.0-alpha.10/dist/excalidraw-assets/Cascadia.woff2");
      }
    </style>
    
  </defs>
  <rect x="0" y="0" width="212.08782786823213" height="103.60942677763524" fill="#ffffff"></rect><g stroke-linecap="round" transform="translate(10.162725372069417 33.21013327271419) rotate(0 12 15)"><path d="M0 0 C0 0, 0 0, 0 0 M0 0 C0 0, 0 0, 0 0 M-0.26 6.4 C1.47 4.41, 3.19 2.42, 4.99 0.36 M-0.26 6.4 C0.99 4.96, 2.23 3.53, 4.99 0.36 M0.13 12.04 C4.27 7.28, 8.4 2.53, 10.63 -0.03 M0.13 12.04 C3.13 8.6, 6.12 5.15, 10.63 -0.03 M-0.13 18.44 C4.54 13.07, 9.2 7.71, 15.62 0.33 M-0.13 18.44 C5.35 12.13, 10.83 5.83, 15.62 0.33 M0.27 24.08 C6.53 16.88, 12.79 9.67, 21.26 -0.07 M0.27 24.08 C6.8 16.56, 13.34 9.04, 21.26 -0.07 M0 30.48 C7.54 21.81, 15.09 13.13, 25.59 1.05 M0 30.48 C7.33 22.05, 14.66 13.62, 25.59 1.05 M5.65 30.08 C10.98 23.95, 16.31 17.82, 25.33 7.44 M5.65 30.08 C9.6 25.54, 13.55 20.99, 25.33 7.44 M10.63 30.45 C14.61 25.87, 18.59 21.3, 25.72 13.09 M10.63 30.45 C15 25.43, 19.36 20.41, 25.72 13.09 M16.28 30.05 C18.29 27.74, 20.3 25.43, 25.46 19.48 M16.28 30.05 C18.89 27.05, 21.5 24.05, 25.46 19.48 M21.27 30.41 C22.65 28.81, 24.04 27.22, 25.2 25.88 M21.27 30.41 C22.47 29.02, 23.68 27.63, 25.2 25.88" stroke="#b2f2bb" stroke-width="0.5" fill="none"></path><path d="M0 0 C8.04 0, 16.09 0, 24 0 M0 0 C5.67 0, 11.34 0, 24 0 M24 0 C24 11.64, 24 23.28, 24 30 M24 0 C24 9.74, 24 19.49, 24 30 M24 30 C15.19 30, 6.39 30, 0 30 M24 30 C16.36 30, 8.71 30, 0 30 M0 30 C0 19.04, 0 8.08, 0 0 M0 30 C0 20.02, 0 10.04, 0 0" stroke="#1e1e1e" stroke-width="1" fill="none"></path></g><g transform="translate(17.538732452147542 38.21013327271419) rotate(0 4.623992919921875 10)"><text x="4.623992919921875" y="0" font-family="HanziPen SC, HanziPen Remote, Virgil, KaiTi, Segoe UI Emoji" font-size="16px" fill="#1e1e1e" text-anchor="middle" style="white-space: pre;" direction="ltr" dominant-baseline="text-before-edge">0</text></g><g stroke-linecap="round" transform="translate(34.069187758891985 33.204872273794194) rotate(0 12 15)"><path d="M0 0 C0 0, 0 0, 0 0 M0 0 C0 0, 0 0, 0 0 M-0.26 6.4 C1.19 4.72, 2.65 3.05, 4.99 0.36 M-0.26 6.4 C1.06 4.88, 2.38 3.36, 4.99 0.36 M0.13 12.04 C3.98 7.61, 7.84 3.18, 10.63 -0.03 M0.13 12.04 C3.26 8.45, 6.38 4.85, 10.63 -0.03 M-0.13 18.44 C3.52 14.24, 7.17 10.05, 15.62 0.33 M-0.13 18.44 C4.05 13.64, 8.22 8.83, 15.62 0.33 M0.27 24.08 C8.35 14.78, 16.43 5.48, 21.26 -0.07 M0.27 24.08 C8.35 14.78, 16.44 5.47, 21.26 -0.07 M0 30.48 C5.86 23.75, 11.71 17.02, 25.59 1.05 M0 30.48 C9.18 19.92, 18.36 9.36, 25.59 1.05 M5.65 30.08 C11.78 23.03, 17.92 15.97, 25.33 7.44 M5.65 30.08 C12.47 22.23, 19.3 14.38, 25.33 7.44 M10.63 30.45 C15.01 25.41, 19.39 20.37, 25.72 13.09 M10.63 30.45 C14.58 25.91, 18.52 21.38, 25.72 13.09 M16.28 30.05 C19.83 25.97, 23.38 21.88, 25.46 19.48 M16.28 30.05 C19.54 26.29, 22.81 22.54, 25.46 19.48 M21.27 30.41 C22.64 28.83, 24.01 27.25, 25.2 25.88 M21.27 30.41 C22.51 28.98, 23.75 27.56, 25.2 25.88" stroke="#a5d8ff" stroke-width="0.5" fill="none"></path><path d="M0 0 C9.13 0, 18.26 0, 24 0 M0 0 C5 0, 10.01 0, 24 0 M24 0 C24 10.94, 24 21.88, 24 30 M24 0 C24 6.64, 24 13.28, 24 30 M24 30 C19.15 30, 14.31 30, 0 30 M24 30 C15.06 30, 6.12 30, 0 30 M0 30 C0 19.35, 0 8.7, 0 0 M0 30 C0 20.88, 0 11.76, 0 0" stroke="#1e1e1e" stroke-width="1" fill="none"></path></g><g transform="translate(41.44519483897011 38.204872273794194) rotate(0 4.623992919921875 10)"><text x="4.623992919921875" y="0" font-family="HanziPen SC, HanziPen Remote, Virgil, KaiTi, Segoe UI Emoji" font-size="16px" fill="#1e1e1e" text-anchor="middle" style="white-space: pre;" direction="ltr" dominant-baseline="text-before-edge">1</text></g><g stroke-linecap="round" transform="translate(58.1286128535362 33.225158409134224) rotate(0 12 15)"><path d="M0 0 C0 0, 0 0, 0 0 M0 0 C0 0, 0 0, 0 0 M-0.26 6.4 C1.15 4.77, 2.56 3.15, 4.99 0.36 M-0.26 6.4 C1.11 4.82, 2.48 3.25, 4.99 0.36 M0.13 12.04 C2.74 9.04, 5.35 6.04, 10.63 -0.03 M0.13 12.04 C3.29 8.4, 6.46 4.77, 10.63 -0.03 M-0.13 18.44 C4.65 12.95, 9.42 7.46, 15.62 0.33 M-0.13 18.44 C4.41 13.22, 8.95 8, 15.62 0.33 M0.27 24.08 C7.3 16, 14.32 7.91, 21.26 -0.07 M0.27 24.08 C5.76 17.76, 11.25 11.45, 21.26 -0.07 M0 30.48 C9.98 19.01, 19.95 7.53, 25.59 1.05 M0 30.48 C9.58 19.46, 19.16 8.44, 25.59 1.05 M5.65 30.08 C11.91 22.88, 18.18 15.67, 25.33 7.44 M5.65 30.08 C11.23 23.67, 16.81 17.25, 25.33 7.44 M10.63 30.45 C15.67 24.66, 20.7 18.87, 25.72 13.09 M10.63 30.45 C14.26 26.27, 17.89 22.09, 25.72 13.09 M16.28 30.05 C18.77 27.18, 21.26 24.31, 25.46 19.48 M16.28 30.05 C18.87 27.07, 21.46 24.09, 25.46 19.48 M21.27 30.41 C22.64 28.83, 24.02 27.24, 25.2 25.88 M21.27 30.41 C22.53 28.95, 23.8 27.5, 25.2 25.88" stroke="#a5d8ff" stroke-width="0.5" fill="none"></path><path d="M0 0 C8.68 0, 17.36 0, 24 0 M0 0 C9.51 0, 19.01 0, 24 0 M24 0 C24 11.85, 24 23.69, 24 30 M24 0 C24 8.13, 24 16.26, 24 30 M24 30 C17.23 30, 10.46 30, 0 30 M24 30 C16.23 30, 8.47 30, 0 30 M0 30 C0 18.18, 0 6.37, 0 0 M0 30 C0 18.41, 0 6.83, 0 0" stroke="#1e1e1e" stroke-width="1" fill="none"></path></g><g transform="translate(65.50461993361432 38.225158409134224) rotate(0 4.623992919921875 10)"><text x="4.623992919921875" y="0" font-family="HanziPen SC, HanziPen Remote, Virgil, KaiTi, Segoe UI Emoji" font-size="16px" fill="#1e1e1e" text-anchor="middle" style="white-space: pre;" direction="ltr" dominant-baseline="text-before-edge">0</text></g><g stroke-linecap="round" transform="translate(82.1351626805822 33.177301719149796) rotate(0 12 15)"><path d="M0 0 C0 0, 0 0, 0 0 M0 0 C0 0, 0 0, 0 0 M-0.26 6.4 C1.75 4.09, 3.76 1.78, 4.99 0.36 M-0.26 6.4 C0.97 4.98, 2.2 3.56, 4.99 0.36 M0.13 12.04 C2.52 9.29, 4.91 6.54, 10.63 -0.03 M0.13 12.04 C2.68 9.12, 5.22 6.19, 10.63 -0.03 M-0.13 18.44 C3.57 14.19, 7.26 9.94, 15.62 0.33 M-0.13 18.44 C4.85 12.71, 9.83 6.99, 15.62 0.33 M0.27 24.08 C5.13 18.48, 10 12.89, 21.26 -0.07 M0.27 24.08 C7.97 15.22, 15.67 6.36, 21.26 -0.07 M0 30.48 C6.33 23.2, 12.66 15.92, 25.59 1.05 M0 30.48 C6.71 22.77, 13.42 15.05, 25.59 1.05 M5.65 30.08 C12.93 21.7, 20.22 13.32, 25.33 7.44 M5.65 30.08 C9.92 25.17, 14.19 20.25, 25.33 7.44 M10.63 30.45 C15.29 25.1, 19.94 19.75, 25.72 13.09 M10.63 30.45 C14.94 25.49, 19.25 20.53, 25.72 13.09 M16.28 30.05 C18.56 27.43, 20.84 24.8, 25.46 19.48 M16.28 30.05 C19.5 26.35, 22.71 22.65, 25.46 19.48 M21.27 30.41 C22.11 29.44, 22.96 28.46, 25.2 25.88 M21.27 30.41 C22.11 29.44, 22.95 28.47, 25.2 25.88" stroke="#a5d8ff" stroke-width="0.5" fill="none"></path><path d="M0 0 C9.17 0, 18.34 0, 24 0 M0 0 C7.36 0, 14.72 0, 24 0 M24 0 C24 10.99, 24 21.99, 24 30 M24 0 C24 8.51, 24 17.01, 24 30 M24 30 C16.66 30, 9.32 30, 0 30 M24 30 C17.77 30, 11.55 30, 0 30 M0 30 C0 23.54, 0 17.09, 0 0 M0 30 C0 20.44, 0 10.88, 0 0" stroke="#1e1e1e" stroke-width="1" fill="none"></path></g><g transform="translate(89.51116976066032 38.177301719149796) rotate(0 4.623992919921875 10)"><text x="4.623992919921875" y="0" font-family="HanziPen SC, HanziPen Remote, Virgil, KaiTi, Segoe UI Emoji" font-size="16px" fill="#1e1e1e" text-anchor="middle" style="white-space: pre;" direction="ltr" dominant-baseline="text-before-edge">0</text></g><g stroke-linecap="round" transform="translate(106.11539055971843 33.12747619625384) rotate(0 12 15)"><path d="M0 0 C0 0, 0 0, 0 0 M0 0 C0 0, 0 0, 0 0 M-0.26 6.4 C1.75 4.08, 3.76 1.77, 4.99 0.36 M-0.26 6.4 C1.74 4.1, 3.74 1.8, 4.99 0.36 M0.13 12.04 C3.59 8.07, 7.04 4.09, 10.63 -0.03 M0.13 12.04 C3.87 7.74, 7.62 3.43, 10.63 -0.03 M-0.13 18.44 C5.17 12.35, 10.46 6.25, 15.62 0.33 M-0.13 18.44 C5.96 11.43, 12.06 4.42, 15.62 0.33 M0.27 24.08 C6.48 16.93, 12.7 9.78, 21.26 -0.07 M0.27 24.08 C6.91 16.44, 13.55 8.8, 21.26 -0.07 M0 30.48 C9.13 19.98, 18.26 9.48, 25.59 1.05 M0 30.48 C9.97 19.01, 19.94 7.55, 25.59 1.05 M5.65 30.08 C13.18 21.42, 20.72 12.75, 25.33 7.44 M5.65 30.08 C10.42 24.59, 15.19 19.1, 25.33 7.44 M10.63 30.45 C15.38 24.98, 20.13 19.52, 25.72 13.09 M10.63 30.45 C16.58 23.61, 22.52 16.77, 25.72 13.09 M16.28 30.05 C18.37 27.64, 20.46 25.24, 25.46 19.48 M16.28 30.05 C18.43 27.57, 20.59 25.1, 25.46 19.48 M21.27 30.41 C22.41 29.09, 23.56 27.77, 25.2 25.88 M21.27 30.41 C22.52 28.97, 23.78 27.52, 25.2 25.88" stroke="#a5d8ff" stroke-width="0.5" fill="none"></path><path d="M0 0 C6.73 0, 13.46 0, 24 0 M0 0 C5.68 0, 11.37 0, 24 0 M24 0 C24 7.61, 24 15.21, 24 30 M24 0 C24 9.24, 24 18.48, 24 30 M24 30 C19.03 30, 14.06 30, 0 30 M24 30 C15.45 30, 6.9 30, 0 30 M0 30 C0 19.84, 0 9.69, 0 0 M0 30 C0 18.59, 0 7.18, 0 0" stroke="#1e1e1e" stroke-width="1" fill="none"></path></g><g transform="translate(113.49139763979656 38.12747619625384) rotate(0 4.623992919921875 10)"><text x="4.623992919921875" y="0" font-family="HanziPen SC, HanziPen Remote, Virgil, KaiTi, Segoe UI Emoji" font-size="16px" fill="#1e1e1e" text-anchor="middle" style="white-space: pre;" direction="ltr" dominant-baseline="text-before-edge">1</text></g><g stroke-linecap="round" transform="translate(130.0218529465419 33.122215197333844) rotate(0 12 15)"><path d="M0 0 C0 0, 0 0, 0 0 M0 0 C0 0, 0 0, 0 0 M-0.26 6.4 C0.9 5.06, 2.06 3.73, 4.99 0.36 M-0.26 6.4 C1.04 4.9, 2.34 3.41, 4.99 0.36 M0.13 12.04 C3.43 8.25, 6.72 4.46, 10.63 -0.03 M0.13 12.04 C2.95 8.8, 5.78 5.55, 10.63 -0.03 M-0.13 18.44 C3.08 14.75, 6.29 11.05, 15.62 0.33 M-0.13 18.44 C5.82 11.59, 11.77 4.75, 15.62 0.33 M0.27 24.08 C8.32 14.81, 16.38 5.54, 21.26 -0.07 M0.27 24.08 C4.77 18.9, 9.28 13.71, 21.26 -0.07 M0 30.48 C6.63 22.85, 13.26 15.23, 25.59 1.05 M0 30.48 C6.75 22.72, 13.49 14.97, 25.59 1.05 M5.65 30.08 C9.74 25.38, 13.82 20.68, 25.33 7.44 M5.65 30.08 C10.45 24.56, 15.25 19.04, 25.33 7.44 M10.63 30.45 C15.76 24.55, 20.89 18.65, 25.72 13.09 M10.63 30.45 C13.68 26.95, 16.72 23.45, 25.72 13.09 M16.28 30.05 C19.55 26.28, 22.83 22.52, 25.46 19.48 M16.28 30.05 C19.02 26.9, 21.76 23.74, 25.46 19.48 M21.27 30.41 C22.48 29.01, 23.7 27.6, 25.2 25.88 M21.27 30.41 C22.46 29.04, 23.66 27.66, 25.2 25.88" stroke="#ffec99" stroke-width="0.5" fill="none"></path><path d="M0 0 C7.96 0, 15.92 0, 24 0 M0 0 C8.93 0, 17.87 0, 24 0 M24 0 C24 6.49, 24 12.97, 24 30 M24 0 C24 9.97, 24 19.95, 24 30 M24 30 C17.85 30, 11.69 30, 0 30 M24 30 C14.9 30, 5.79 30, 0 30 M0 30 C0 18.93, 0 7.85, 0 0 M0 30 C0 21.34, 0 12.68, 0 0" stroke="#1e1e1e" stroke-width="1" fill="none"></path></g><g transform="translate(137.39786002662004 38.122215197333844) rotate(0 4.623992919921875 10)"><text x="4.623992919921875" y="0" font-family="HanziPen SC, HanziPen Remote, Virgil, KaiTi, Segoe UI Emoji" font-size="16px" fill="#1e1e1e" text-anchor="middle" style="white-space: pre;" direction="ltr" dominant-baseline="text-before-edge">0</text></g><g stroke-linecap="round" transform="translate(154.08127804118521 33.14250133267387) rotate(0 12 15)"><path d="M0 0 C0 0, 0 0, 0 0 M0 0 C0 0, 0 0, 0 0 M-0.26 6.4 C1.49 4.39, 3.24 2.38, 4.99 0.36 M-0.26 6.4 C0.9 5.07, 2.05 3.73, 4.99 0.36 M0.13 12.04 C4.1 7.47, 8.08 2.9, 10.63 -0.03 M0.13 12.04 C3.21 8.5, 6.28 4.97, 10.63 -0.03 M-0.13 18.44 C3.33 14.47, 6.78 10.49, 15.62 0.33 M-0.13 18.44 C4.68 12.91, 9.48 7.38, 15.62 0.33 M0.27 24.08 C6.29 17.15, 12.32 10.22, 21.26 -0.07 M0.27 24.08 C7.73 15.5, 15.19 6.92, 21.26 -0.07 M0 30.48 C9.77 19.25, 19.53 8.02, 25.59 1.05 M0 30.48 C5.89 23.71, 11.77 16.94, 25.59 1.05 M5.65 30.08 C12.18 22.57, 18.72 15.05, 25.33 7.44 M5.65 30.08 C13.42 21.15, 21.19 12.21, 25.33 7.44 M10.63 30.45 C16 24.27, 21.37 18.1, 25.72 13.09 M10.63 30.45 C14.93 25.5, 19.22 20.56, 25.72 13.09 M16.28 30.05 C19.19 26.7, 22.11 23.35, 25.46 19.48 M16.28 30.05 C18.99 26.93, 21.7 23.81, 25.46 19.48 M21.27 30.41 C22.4 29.1, 23.54 27.8, 25.2 25.88 M21.27 30.41 C22.34 29.18, 23.41 27.94, 25.2 25.88" stroke="#ffec99" stroke-width="0.5" fill="none"></path><path d="M0 0 C8.32 0, 16.63 0, 24 0 M0 0 C6.91 0, 13.81 0, 24 0 M24 0 C24 9.01, 24 18.02, 24 30 M24 0 C24 11.52, 24 23.04, 24 30 M24 30 C15.37 30, 6.75 30, 0 30 M24 30 C14.8 30, 5.61 30, 0 30 M0 30 C0 21.06, 0 12.11, 0 0 M0 30 C0 20.98, 0 11.96, 0 0" stroke="#1e1e1e" stroke-width="1" fill="none"></path></g><g transform="translate(161.45728512126334 38.14250133267387) rotate(0 4.623992919921875 10)"><text x="4.623992919921875" y="0" font-family="HanziPen SC, HanziPen Remote, Virgil, KaiTi, Segoe UI Emoji" font-size="16px" fill="#1e1e1e" text-anchor="middle" style="white-space: pre;" direction="ltr" dominant-baseline="text-before-edge">1</text></g><g stroke-linecap="round" transform="translate(178.08782786823213 33.094644642689445) rotate(0 12 15)"><path d="M0 0 C0 0, 0 0, 0 0 M0 0 C0 0, 0 0, 0 0 M-0.26 6.4 C1.53 4.34, 3.32 2.28, 4.99 0.36 M-0.26 6.4 C0.92 5.03, 2.11 3.67, 4.99 0.36 M0.13 12.04 C2.81 8.96, 5.49 5.88, 10.63 -0.03 M0.13 12.04 C3.62 8.03, 7.1 4.02, 10.63 -0.03 M-0.13 18.44 C3.81 13.9, 7.76 9.37, 15.62 0.33 M-0.13 18.44 C3.4 14.38, 6.92 10.33, 15.62 0.33 M0.27 24.08 C5.17 18.44, 10.08 12.8, 21.26 -0.07 M0.27 24.08 C7 16.33, 13.74 8.58, 21.26 -0.07 M0 30.48 C8.64 20.55, 17.27 10.62, 25.59 1.05 M0 30.48 C9.57 19.48, 19.14 8.47, 25.59 1.05 M5.65 30.08 C13.11 21.5, 20.58 12.91, 25.33 7.44 M5.65 30.08 C10.71 24.27, 15.76 18.45, 25.33 7.44 M10.63 30.45 C13.97 26.61, 17.31 22.77, 25.72 13.09 M10.63 30.45 C14.52 25.98, 18.41 21.51, 25.72 13.09 M16.28 30.05 C18.38 27.63, 20.48 25.22, 25.46 19.48 M16.28 30.05 C18.73 27.23, 21.18 24.41, 25.46 19.48 M21.27 30.41 C22.17 29.36, 23.08 28.32, 25.2 25.88 M21.27 30.41 C22.33 29.19, 23.4 27.96, 25.2 25.88" stroke="#ffec99" stroke-width="0.5" fill="none"></path><path d="M0 0 C8.92 0, 17.84 0, 24 0 M0 0 C5.93 0, 11.87 0, 24 0 M24 0 C24 10.13, 24 20.26, 24 30 M24 0 C24 6.87, 24 13.74, 24 30 M24 30 C15.4 30, 6.79 30, 0 30 M24 30 C18.93 30, 13.86 30, 0 30 M0 30 C0 23.92, 0 17.83, 0 0 M0 30 C0 20.64, 0 11.27, 0 0" stroke="#1e1e1e" stroke-width="1" fill="none"></path></g><g transform="translate(185.46383494831025 38.094644642689445) rotate(0 4.623992919921875 10)"><text x="4.623992919921875" y="0" font-family="HanziPen SC, HanziPen Remote, Virgil, KaiTi, Segoe UI Emoji" font-size="16px" fill="#1e1e1e" text-anchor="middle" style="white-space: pre;" direction="ltr" dominant-baseline="text-before-edge">1</text></g><g transform="translate(10 10) rotate(0 11.879989624023438 10)"><text x="0" y="0" font-family="HanziPen SC, HanziPen Remote, Virgil, KaiTi, Segoe UI Emoji" font-size="16px" fill="#2f9e44" text-anchor="start" style="white-space: pre;" direction="ltr" dominant-baseline="text-before-edge">sign</text></g><g transform="translate(51.94182747089508 10.101705922816905) rotate(0 27.975967407226562 10)"><text x="0" y="0" font-family="HanziPen SC, HanziPen Remote, Virgil, KaiTi, Segoe UI Emoji" font-size="16px" fill="#1971c2" text-anchor="start" style="white-space: pre;" direction="ltr" dominant-baseline="text-before-edge">exponent</text></g><g transform="translate(137.07053241782342 10.81110473446347) rotate(0 27.38396453857422 10)"><text x="0" y="0" font-family="HanziPen SC, HanziPen Remote, Virgil, KaiTi, Segoe UI Emoji" font-size="16px" fill="#f08c00" text-anchor="start" style="white-space: pre;" direction="ltr" dominant-baseline="text-before-edge">mantissa</text></g><g stroke-linecap="round" transform="translate(187.42598235372316 66.72817354972847) rotate(0 2.4172107656104345 2.4172107656104345)"><path d="M4.83 2.42 C4.83 2.56, 4.82 2.7, 4.8 2.84 C4.77 2.97, 4.74 3.11, 4.69 3.24 C4.64 3.38, 4.58 3.5, 4.51 3.63 C4.44 3.75, 4.36 3.86, 4.27 3.97 C4.18 4.08, 4.08 4.18, 3.97 4.27 C3.86 4.36, 3.75 4.44, 3.63 4.51 C3.5 4.58, 3.38 4.64, 3.24 4.69 C3.11 4.74, 2.97 4.77, 2.84 4.8 C2.7 4.82, 2.56 4.83, 2.42 4.83 C2.28 4.83, 2.14 4.82, 2 4.8 C1.86 4.77, 1.72 4.74, 1.59 4.69 C1.46 4.64, 1.33 4.58, 1.21 4.51 C1.09 4.44, 0.97 4.36, 0.86 4.27 C0.76 4.18, 0.66 4.08, 0.57 3.97 C0.48 3.86, 0.39 3.75, 0.32 3.63 C0.25 3.5, 0.19 3.38, 0.15 3.24 C0.1 3.11, 0.06 2.97, 0.04 2.84 C0.01 2.7, 0 2.56, 0 2.42 C0 2.28, 0.01 2.14, 0.04 2 C0.06 1.86, 0.1 1.72, 0.15 1.59 C0.19 1.46, 0.25 1.33, 0.32 1.21 C0.39 1.09, 0.48 0.97, 0.57 0.86 C0.66 0.76, 0.76 0.66, 0.86 0.57 C0.97 0.48, 1.09 0.39, 1.21 0.32 C1.33 0.25, 1.46 0.19, 1.59 0.15 C1.72 0.1, 1.86 0.06, 2 0.04 C2.14 0.01, 2.28 0, 2.42 0 C2.56 0, 2.7 0.01, 2.84 0.04 C2.97 0.06, 3.11 0.1, 3.24 0.15 C3.38 0.19, 3.5 0.25, 3.63 0.32 C3.75 0.39, 3.86 0.48, 3.97 0.57 C4.08 0.66, 4.18 0.76, 4.27 0.86 C4.36 0.97, 4.44 1.09, 4.51 1.21 C4.58 1.33, 4.64 1.46, 4.69 1.59 C4.74 1.72, 4.77 1.86, 4.8 2 C4.82 2.14, 4.83 2.35, 4.83 2.42 C4.84 2.49, 4.84 2.35, 4.83 2.42" stroke="none" stroke-width="0" fill="#ffec99"></path><path d="M4.83 2.42 C4.83 2.56, 4.82 2.7, 4.8 2.84 C4.77 2.97, 4.74 3.11, 4.69 3.24 C4.64 3.38, 4.58 3.5, 4.51 3.63 C4.44 3.75, 4.36 3.86, 4.27 3.97 C4.18 4.08, 4.08 4.18, 3.97 4.27 C3.86 4.36, 3.75 4.44, 3.63 4.51 C3.5 4.58, 3.38 4.64, 3.24 4.69 C3.11 4.74, 2.97 4.77, 2.84 4.8 C2.7 4.82, 2.56 4.83, 2.42 4.83 C2.28 4.83, 2.14 4.82, 2 4.8 C1.86 4.77, 1.72 4.74, 1.59 4.69 C1.46 4.64, 1.33 4.58, 1.21 4.51 C1.09 4.44, 0.97 4.36, 0.86 4.27 C0.76 4.18, 0.66 4.08, 0.57 3.97 C0.48 3.86, 0.39 3.75, 0.32 3.63 C0.25 3.5, 0.19 3.38, 0.15 3.24 C0.1 3.11, 0.06 2.97, 0.04 2.84 C0.01 2.7, 0 2.56, 0 2.42 C0 2.28, 0.01 2.14, 0.04 2 C0.06 1.86, 0.1 1.72, 0.15 1.59 C0.19 1.46, 0.25 1.33, 0.32 1.21 C0.39 1.09, 0.48 0.97, 0.57 0.86 C0.66 0.76, 0.76 0.66, 0.86 0.57 C0.97 0.48, 1.09 0.39, 1.21 0.32 C1.33 0.25, 1.46 0.19, 1.59 0.15 C1.72 0.1, 1.86 0.06, 2 0.04 C2.14 0.01, 2.28 0, 2.42 0 C2.56 0, 2.7 0.01, 2.84 0.04 C2.97 0.06, 3.11 0.1, 3.24 0.15 C3.38 0.19, 3.5 0.25, 3.63 0.32 C3.75 0.39, 3.86 0.48, 3.97 0.57 C4.08 0.66, 4.18 0.76, 4.27 0.86 C4.36 0.97, 4.44 1.09, 4.51 1.21 C4.58 1.33, 4.64 1.46, 4.69 1.59 C4.74 1.72, 4.77 1.86, 4.8 2 C4.82 2.14, 4.83 2.35, 4.83 2.42 C4.84 2.49, 4.84 2.35, 4.83 2.42" stroke="#f08c00" stroke-width="1" fill="none"></path></g><g transform="translate(185.3164320046335 73.60942677763524) rotate(0 4.623992919921875 10)"><text x="0" y="0" font-family="HanziPen SC, HanziPen Remote, Virgil, KaiTi, Segoe UI Emoji" font-size="16px" fill="#1e1e1e" text-anchor="start" style="white-space: pre;" direction="ltr" dominant-baseline="text-before-edge">0</text></g><g stroke-linecap="round" transform="translate(164.5245875542837 66.38811734392289) rotate(0 2.4172107656104345 2.4172107656104345)"><path d="M4.83 2.42 C4.83 2.56, 4.82 2.7, 4.8 2.84 C4.77 2.97, 4.74 3.11, 4.69 3.24 C4.64 3.38, 4.58 3.5, 4.51 3.63 C4.44 3.75, 4.36 3.86, 4.27 3.97 C4.18 4.08, 4.08 4.18, 3.97 4.27 C3.86 4.36, 3.75 4.44, 3.63 4.51 C3.5 4.58, 3.38 4.64, 3.24 4.69 C3.11 4.74, 2.97 4.77, 2.84 4.8 C2.7 4.82, 2.56 4.83, 2.42 4.83 C2.28 4.83, 2.14 4.82, 2 4.8 C1.86 4.77, 1.72 4.74, 1.59 4.69 C1.46 4.64, 1.33 4.58, 1.21 4.51 C1.09 4.44, 0.97 4.36, 0.86 4.27 C0.76 4.18, 0.66 4.08, 0.57 3.97 C0.48 3.86, 0.39 3.75, 0.32 3.63 C0.25 3.5, 0.19 3.38, 0.15 3.24 C0.1 3.11, 0.06 2.97, 0.04 2.84 C0.01 2.7, 0 2.56, 0 2.42 C0 2.28, 0.01 2.14, 0.04 2 C0.06 1.86, 0.1 1.72, 0.15 1.59 C0.19 1.46, 0.25 1.33, 0.32 1.21 C0.39 1.09, 0.48 0.97, 0.57 0.86 C0.66 0.76, 0.76 0.66, 0.86 0.57 C0.97 0.48, 1.09 0.39, 1.21 0.32 C1.33 0.25, 1.46 0.19, 1.59 0.15 C1.72 0.1, 1.86 0.06, 2 0.04 C2.14 0.01, 2.28 0, 2.42 0 C2.56 0, 2.7 0.01, 2.84 0.04 C2.97 0.06, 3.11 0.1, 3.24 0.15 C3.38 0.19, 3.5 0.25, 3.63 0.32 C3.75 0.39, 3.86 0.48, 3.97 0.57 C4.08 0.66, 4.18 0.76, 4.27 0.86 C4.36 0.97, 4.44 1.09, 4.51 1.21 C4.58 1.33, 4.64 1.46, 4.69 1.59 C4.74 1.72, 4.77 1.86, 4.8 2 C4.82 2.14, 4.83 2.35, 4.83 2.42 C4.84 2.49, 4.84 2.35, 4.83 2.42" stroke="none" stroke-width="0" fill="#ffec99"></path><path d="M4.83 2.42 C4.83 2.56, 4.82 2.7, 4.8 2.84 C4.77 2.97, 4.74 3.11, 4.69 3.24 C4.64 3.38, 4.58 3.5, 4.51 3.63 C4.44 3.75, 4.36 3.86, 4.27 3.97 C4.18 4.08, 4.08 4.18, 3.97 4.27 C3.86 4.36, 3.75 4.44, 3.63 4.51 C3.5 4.58, 3.38 4.64, 3.24 4.69 C3.11 4.74, 2.97 4.77, 2.84 4.8 C2.7 4.82, 2.56 4.83, 2.42 4.83 C2.28 4.83, 2.14 4.82, 2 4.8 C1.86 4.77, 1.72 4.74, 1.59 4.69 C1.46 4.64, 1.33 4.58, 1.21 4.51 C1.09 4.44, 0.97 4.36, 0.86 4.27 C0.76 4.18, 0.66 4.08, 0.57 3.97 C0.48 3.86, 0.39 3.75, 0.32 3.63 C0.25 3.5, 0.19 3.38, 0.15 3.24 C0.1 3.11, 0.06 2.97, 0.04 2.84 C0.01 2.7, 0 2.56, 0 2.42 C0 2.28, 0.01 2.14, 0.04 2 C0.06 1.86, 0.1 1.72, 0.15 1.59 C0.19 1.46, 0.25 1.33, 0.32 1.21 C0.39 1.09, 0.48 0.97, 0.57 0.86 C0.66 0.76, 0.76 0.66, 0.86 0.57 C0.97 0.48, 1.09 0.39, 1.21 0.32 C1.33 0.25, 1.46 0.19, 1.59 0.15 C1.72 0.1, 1.86 0.06, 2 0.04 C2.14 0.01, 2.28 0, 2.42 0 C2.56 0, 2.7 0.01, 2.84 0.04 C2.97 0.06, 3.11 0.1, 3.24 0.15 C3.38 0.19, 3.5 0.25, 3.63 0.32 C3.75 0.39, 3.86 0.48, 3.97 0.57 C4.08 0.66, 4.18 0.76, 4.27 0.86 C4.36 0.97, 4.44 1.09, 4.51 1.21 C4.58 1.33, 4.64 1.46, 4.69 1.59 C4.74 1.72, 4.77 1.86, 4.8 2 C4.82 2.14, 4.83 2.35, 4.83 2.42 C4.84 2.49, 4.84 2.35, 4.83 2.42" stroke="#f08c00" stroke-width="1" fill="none"></path></g><g transform="translate(162.41503720519313 73.26937057182977) rotate(0 4.623992919921875 10)"><text x="0" y="0" font-family="HanziPen SC, HanziPen Remote, Virgil, KaiTi, Segoe UI Emoji" font-size="16px" fill="#1e1e1e" text-anchor="start" style="white-space: pre;" direction="ltr" dominant-baseline="text-before-edge">1</text></g><g stroke-linecap="round" transform="translate(140.03464888937833 65.97366570844497) rotate(0 2.4172107656104345 2.4172107656104345)"><path d="M4.83 2.42 C4.83 2.56, 4.82 2.7, 4.8 2.84 C4.77 2.97, 4.74 3.11, 4.69 3.24 C4.64 3.38, 4.58 3.5, 4.51 3.63 C4.44 3.75, 4.36 3.86, 4.27 3.97 C4.18 4.08, 4.08 4.18, 3.97 4.27 C3.86 4.36, 3.75 4.44, 3.63 4.51 C3.5 4.58, 3.38 4.64, 3.24 4.69 C3.11 4.74, 2.97 4.77, 2.84 4.8 C2.7 4.82, 2.56 4.83, 2.42 4.83 C2.28 4.83, 2.14 4.82, 2 4.8 C1.86 4.77, 1.72 4.74, 1.59 4.69 C1.46 4.64, 1.33 4.58, 1.21 4.51 C1.09 4.44, 0.97 4.36, 0.86 4.27 C0.76 4.18, 0.66 4.08, 0.57 3.97 C0.48 3.86, 0.39 3.75, 0.32 3.63 C0.25 3.5, 0.19 3.38, 0.15 3.24 C0.1 3.11, 0.06 2.97, 0.04 2.84 C0.01 2.7, 0 2.56, 0 2.42 C0 2.28, 0.01 2.14, 0.04 2 C0.06 1.86, 0.1 1.72, 0.15 1.59 C0.19 1.46, 0.25 1.33, 0.32 1.21 C0.39 1.09, 0.48 0.97, 0.57 0.86 C0.66 0.76, 0.76 0.66, 0.86 0.57 C0.97 0.48, 1.09 0.39, 1.21 0.32 C1.33 0.25, 1.46 0.19, 1.59 0.15 C1.72 0.1, 1.86 0.06, 2 0.04 C2.14 0.01, 2.28 0, 2.42 0 C2.56 0, 2.7 0.01, 2.84 0.04 C2.97 0.06, 3.11 0.1, 3.24 0.15 C3.38 0.19, 3.5 0.25, 3.63 0.32 C3.75 0.39, 3.86 0.48, 3.97 0.57 C4.08 0.66, 4.18 0.76, 4.27 0.86 C4.36 0.97, 4.44 1.09, 4.51 1.21 C4.58 1.33, 4.64 1.46, 4.69 1.59 C4.74 1.72, 4.77 1.86, 4.8 2 C4.82 2.14, 4.83 2.35, 4.83 2.42 C4.84 2.49, 4.84 2.35, 4.83 2.42" stroke="none" stroke-width="0" fill="#ffec99"></path><path d="M4.83 2.42 C4.83 2.56, 4.82 2.7, 4.8 2.84 C4.77 2.97, 4.74 3.11, 4.69 3.24 C4.64 3.38, 4.58 3.5, 4.51 3.63 C4.44 3.75, 4.36 3.86, 4.27 3.97 C4.18 4.08, 4.08 4.18, 3.97 4.27 C3.86 4.36, 3.75 4.44, 3.63 4.51 C3.5 4.58, 3.38 4.64, 3.24 4.69 C3.11 4.74, 2.97 4.77, 2.84 4.8 C2.7 4.82, 2.56 4.83, 2.42 4.83 C2.28 4.83, 2.14 4.82, 2 4.8 C1.86 4.77, 1.72 4.74, 1.59 4.69 C1.46 4.64, 1.33 4.58, 1.21 4.51 C1.09 4.44, 0.97 4.36, 0.86 4.27 C0.76 4.18, 0.66 4.08, 0.57 3.97 C0.48 3.86, 0.39 3.75, 0.32 3.63 C0.25 3.5, 0.19 3.38, 0.15 3.24 C0.1 3.11, 0.06 2.97, 0.04 2.84 C0.01 2.7, 0 2.56, 0 2.42 C0 2.28, 0.01 2.14, 0.04 2 C0.06 1.86, 0.1 1.72, 0.15 1.59 C0.19 1.46, 0.25 1.33, 0.32 1.21 C0.39 1.09, 0.48 0.97, 0.57 0.86 C0.66 0.76, 0.76 0.66, 0.86 0.57 C0.97 0.48, 1.09 0.39, 1.21 0.32 C1.33 0.25, 1.46 0.19, 1.59 0.15 C1.72 0.1, 1.86 0.06, 2 0.04 C2.14 0.01, 2.28 0, 2.42 0 C2.56 0, 2.7 0.01, 2.84 0.04 C2.97 0.06, 3.11 0.1, 3.24 0.15 C3.38 0.19, 3.5 0.25, 3.63 0.32 C3.75 0.39, 3.86 0.48, 3.97 0.57 C4.08 0.66, 4.18 0.76, 4.27 0.86 C4.36 0.97, 4.44 1.09, 4.51 1.21 C4.58 1.33, 4.64 1.46, 4.69 1.59 C4.74 1.72, 4.77 1.86, 4.8 2 C4.82 2.14, 4.83 2.35, 4.83 2.42 C4.84 2.49, 4.84 2.35, 4.83 2.42" stroke="#f08c00" stroke-width="1" fill="none"></path></g><g transform="translate(137.92509854028867 72.85491893635185) rotate(0 4.623992919921875 10)"><text x="0" y="0" font-family="HanziPen SC, HanziPen Remote, Virgil, KaiTi, Segoe UI Emoji" font-size="16px" fill="#1e1e1e" text-anchor="start" style="white-space: pre;" direction="ltr" dominant-baseline="text-before-edge">2</text></g><g stroke-linecap="round" transform="translate(115.02928203013653 66.65434229882453) rotate(0 2.4172107656104345 2.4172107656104345)"><path d="M4.83 2.42 C4.83 2.56, 4.82 2.7, 4.8 2.84 C4.77 2.97, 4.74 3.11, 4.69 3.24 C4.64 3.38, 4.58 3.5, 4.51 3.63 C4.44 3.75, 4.36 3.86, 4.27 3.97 C4.18 4.08, 4.08 4.18, 3.97 4.27 C3.86 4.36, 3.75 4.44, 3.63 4.51 C3.5 4.58, 3.38 4.64, 3.24 4.69 C3.11 4.74, 2.97 4.77, 2.84 4.8 C2.7 4.82, 2.56 4.83, 2.42 4.83 C2.28 4.83, 2.14 4.82, 2 4.8 C1.86 4.77, 1.72 4.74, 1.59 4.69 C1.46 4.64, 1.33 4.58, 1.21 4.51 C1.09 4.44, 0.97 4.36, 0.86 4.27 C0.76 4.18, 0.66 4.08, 0.57 3.97 C0.48 3.86, 0.39 3.75, 0.32 3.63 C0.25 3.5, 0.19 3.38, 0.15 3.24 C0.1 3.11, 0.06 2.97, 0.04 2.84 C0.01 2.7, 0 2.56, 0 2.42 C0 2.28, 0.01 2.14, 0.04 2 C0.06 1.86, 0.1 1.72, 0.15 1.59 C0.19 1.46, 0.25 1.33, 0.32 1.21 C0.39 1.09, 0.48 0.97, 0.57 0.86 C0.66 0.76, 0.76 0.66, 0.86 0.57 C0.97 0.48, 1.09 0.39, 1.21 0.32 C1.33 0.25, 1.46 0.19, 1.59 0.15 C1.72 0.1, 1.86 0.06, 2 0.04 C2.14 0.01, 2.28 0, 2.42 0 C2.56 0, 2.7 0.01, 2.84 0.04 C2.97 0.06, 3.11 0.1, 3.24 0.15 C3.38 0.19, 3.5 0.25, 3.63 0.32 C3.75 0.39, 3.86 0.48, 3.97 0.57 C4.08 0.66, 4.18 0.76, 4.27 0.86 C4.36 0.97, 4.44 1.09, 4.51 1.21 C4.58 1.33, 4.64 1.46, 4.69 1.59 C4.74 1.72, 4.77 1.86, 4.8 2 C4.82 2.14, 4.83 2.35, 4.83 2.42 C4.84 2.49, 4.84 2.35, 4.83 2.42" stroke="none" stroke-width="0" fill="#a5d8ff"></path><path d="M4.83 2.42 C4.83 2.56, 4.82 2.7, 4.8 2.84 C4.77 2.97, 4.74 3.11, 4.69 3.24 C4.64 3.38, 4.58 3.5, 4.51 3.63 C4.44 3.75, 4.36 3.86, 4.27 3.97 C4.18 4.08, 4.08 4.18, 3.97 4.27 C3.86 4.36, 3.75 4.44, 3.63 4.51 C3.5 4.58, 3.38 4.64, 3.24 4.69 C3.11 4.74, 2.97 4.77, 2.84 4.8 C2.7 4.82, 2.56 4.83, 2.42 4.83 C2.28 4.83, 2.14 4.82, 2 4.8 C1.86 4.77, 1.72 4.74, 1.59 4.69 C1.46 4.64, 1.33 4.58, 1.21 4.51 C1.09 4.44, 0.97 4.36, 0.86 4.27 C0.76 4.18, 0.66 4.08, 0.57 3.97 C0.48 3.86, 0.39 3.75, 0.32 3.63 C0.25 3.5, 0.19 3.38, 0.15 3.24 C0.1 3.11, 0.06 2.97, 0.04 2.84 C0.01 2.7, 0 2.56, 0 2.42 C0 2.28, 0.01 2.14, 0.04 2 C0.06 1.86, 0.1 1.72, 0.15 1.59 C0.19 1.46, 0.25 1.33, 0.32 1.21 C0.39 1.09, 0.48 0.97, 0.57 0.86 C0.66 0.76, 0.76 0.66, 0.86 0.57 C0.97 0.48, 1.09 0.39, 1.21 0.32 C1.33 0.25, 1.46 0.19, 1.59 0.15 C1.72 0.1, 1.86 0.06, 2 0.04 C2.14 0.01, 2.28 0, 2.42 0 C2.56 0, 2.7 0.01, 2.84 0.04 C2.97 0.06, 3.11 0.1, 3.24 0.15 C3.38 0.19, 3.5 0.25, 3.63 0.32 C3.75 0.39, 3.86 0.48, 3.97 0.57 C4.08 0.66, 4.18 0.76, 4.27 0.86 C4.36 0.97, 4.44 1.09, 4.51 1.21 C4.58 1.33, 4.64 1.46, 4.69 1.59 C4.74 1.72, 4.77 1.86, 4.8 2 C4.82 2.14, 4.83 2.35, 4.83 2.42 C4.84 2.49, 4.84 2.35, 4.83 2.42" stroke="#1971c2" stroke-width="1" fill="none"></path></g><g transform="translate(112.91973168104687 73.53559552673119) rotate(0 4.623992919921875 10)"><text x="0" y="0" font-family="HanziPen SC, HanziPen Remote, Virgil, KaiTi, Segoe UI Emoji" font-size="16px" fill="#1e1e1e" text-anchor="start" style="white-space: pre;" direction="ltr" dominant-baseline="text-before-edge">3</text></g><g stroke-linecap="round" transform="translate(92.12788723069752 66.31428609301906) rotate(0 2.4172107656104345 2.4172107656104345)"><path d="M4.83 2.42 C4.83 2.56, 4.82 2.7, 4.8 2.84 C4.77 2.97, 4.74 3.11, 4.69 3.24 C4.64 3.38, 4.58 3.5, 4.51 3.63 C4.44 3.75, 4.36 3.86, 4.27 3.97 C4.18 4.08, 4.08 4.18, 3.97 4.27 C3.86 4.36, 3.75 4.44, 3.63 4.51 C3.5 4.58, 3.38 4.64, 3.24 4.69 C3.11 4.74, 2.97 4.77, 2.84 4.8 C2.7 4.82, 2.56 4.83, 2.42 4.83 C2.28 4.83, 2.14 4.82, 2 4.8 C1.86 4.77, 1.72 4.74, 1.59 4.69 C1.46 4.64, 1.33 4.58, 1.21 4.51 C1.09 4.44, 0.97 4.36, 0.86 4.27 C0.76 4.18, 0.66 4.08, 0.57 3.97 C0.48 3.86, 0.39 3.75, 0.32 3.63 C0.25 3.5, 0.19 3.38, 0.15 3.24 C0.1 3.11, 0.06 2.97, 0.04 2.84 C0.01 2.7, 0 2.56, 0 2.42 C0 2.28, 0.01 2.14, 0.04 2 C0.06 1.86, 0.1 1.72, 0.15 1.59 C0.19 1.46, 0.25 1.33, 0.32 1.21 C0.39 1.09, 0.48 0.97, 0.57 0.86 C0.66 0.76, 0.76 0.66, 0.86 0.57 C0.97 0.48, 1.09 0.39, 1.21 0.32 C1.33 0.25, 1.46 0.19, 1.59 0.15 C1.72 0.1, 1.86 0.06, 2 0.04 C2.14 0.01, 2.28 0, 2.42 0 C2.56 0, 2.7 0.01, 2.84 0.04 C2.97 0.06, 3.11 0.1, 3.24 0.15 C3.38 0.19, 3.5 0.25, 3.63 0.32 C3.75 0.39, 3.86 0.48, 3.97 0.57 C4.08 0.66, 4.18 0.76, 4.27 0.86 C4.36 0.97, 4.44 1.09, 4.51 1.21 C4.58 1.33, 4.64 1.46, 4.69 1.59 C4.74 1.72, 4.77 1.86, 4.8 2 C4.82 2.14, 4.83 2.35, 4.83 2.42 C4.84 2.49, 4.84 2.35, 4.83 2.42" stroke="none" stroke-width="0" fill="#a5d8ff"></path><path d="M4.83 2.42 C4.83 2.56, 4.82 2.7, 4.8 2.84 C4.77 2.97, 4.74 3.11, 4.69 3.24 C4.64 3.38, 4.58 3.5, 4.51 3.63 C4.44 3.75, 4.36 3.86, 4.27 3.97 C4.18 4.08, 4.08 4.18, 3.97 4.27 C3.86 4.36, 3.75 4.44, 3.63 4.51 C3.5 4.58, 3.38 4.64, 3.24 4.69 C3.11 4.74, 2.97 4.77, 2.84 4.8 C2.7 4.82, 2.56 4.83, 2.42 4.83 C2.28 4.83, 2.14 4.82, 2 4.8 C1.86 4.77, 1.72 4.74, 1.59 4.69 C1.46 4.64, 1.33 4.58, 1.21 4.51 C1.09 4.44, 0.97 4.36, 0.86 4.27 C0.76 4.18, 0.66 4.08, 0.57 3.97 C0.48 3.86, 0.39 3.75, 0.32 3.63 C0.25 3.5, 0.19 3.38, 0.15 3.24 C0.1 3.11, 0.06 2.97, 0.04 2.84 C0.01 2.7, 0 2.56, 0 2.42 C0 2.28, 0.01 2.14, 0.04 2 C0.06 1.86, 0.1 1.72, 0.15 1.59 C0.19 1.46, 0.25 1.33, 0.32 1.21 C0.39 1.09, 0.48 0.97, 0.57 0.86 C0.66 0.76, 0.76 0.66, 0.86 0.57 C0.97 0.48, 1.09 0.39, 1.21 0.32 C1.33 0.25, 1.46 0.19, 1.59 0.15 C1.72 0.1, 1.86 0.06, 2 0.04 C2.14 0.01, 2.28 0, 2.42 0 C2.56 0, 2.7 0.01, 2.84 0.04 C2.97 0.06, 3.11 0.1, 3.24 0.15 C3.38 0.19, 3.5 0.25, 3.63 0.32 C3.75 0.39, 3.86 0.48, 3.97 0.57 C4.08 0.66, 4.18 0.76, 4.27 0.86 C4.36 0.97, 4.44 1.09, 4.51 1.21 C4.58 1.33, 4.64 1.46, 4.69 1.59 C4.74 1.72, 4.77 1.86, 4.8 2 C4.82 2.14, 4.83 2.35, 4.83 2.42 C4.84 2.49, 4.84 2.35, 4.83 2.42" stroke="#1971c2" stroke-width="1" fill="none"></path></g><g transform="translate(90.01833688160696 73.19553932092572) rotate(0 4.623992919921875 10)"><text x="0" y="0" font-family="HanziPen SC, HanziPen Remote, Virgil, KaiTi, Segoe UI Emoji" font-size="16px" fill="#1e1e1e" text-anchor="start" style="white-space: pre;" direction="ltr" dominant-baseline="text-before-edge">4</text></g><g stroke-linecap="round" transform="translate(67.6379485657917 65.89983445754092) rotate(0 2.4172107656104345 2.4172107656104345)"><path d="M4.83 2.42 C4.83 2.56, 4.82 2.7, 4.8 2.84 C4.77 2.97, 4.74 3.11, 4.69 3.24 C4.64 3.38, 4.58 3.5, 4.51 3.63 C4.44 3.75, 4.36 3.86, 4.27 3.97 C4.18 4.08, 4.08 4.18, 3.97 4.27 C3.86 4.36, 3.75 4.44, 3.63 4.51 C3.5 4.58, 3.38 4.64, 3.24 4.69 C3.11 4.74, 2.97 4.77, 2.84 4.8 C2.7 4.82, 2.56 4.83, 2.42 4.83 C2.28 4.83, 2.14 4.82, 2 4.8 C1.86 4.77, 1.72 4.74, 1.59 4.69 C1.46 4.64, 1.33 4.58, 1.21 4.51 C1.09 4.44, 0.97 4.36, 0.86 4.27 C0.76 4.18, 0.66 4.08, 0.57 3.97 C0.48 3.86, 0.39 3.75, 0.32 3.63 C0.25 3.5, 0.19 3.38, 0.15 3.24 C0.1 3.11, 0.06 2.97, 0.04 2.84 C0.01 2.7, 0 2.56, 0 2.42 C0 2.28, 0.01 2.14, 0.04 2 C0.06 1.86, 0.1 1.72, 0.15 1.59 C0.19 1.46, 0.25 1.33, 0.32 1.21 C0.39 1.09, 0.48 0.97, 0.57 0.86 C0.66 0.76, 0.76 0.66, 0.86 0.57 C0.97 0.48, 1.09 0.39, 1.21 0.32 C1.33 0.25, 1.46 0.19, 1.59 0.15 C1.72 0.1, 1.86 0.06, 2 0.04 C2.14 0.01, 2.28 0, 2.42 0 C2.56 0, 2.7 0.01, 2.84 0.04 C2.97 0.06, 3.11 0.1, 3.24 0.15 C3.38 0.19, 3.5 0.25, 3.63 0.32 C3.75 0.39, 3.86 0.48, 3.97 0.57 C4.08 0.66, 4.18 0.76, 4.27 0.86 C4.36 0.97, 4.44 1.09, 4.51 1.21 C4.58 1.33, 4.64 1.46, 4.69 1.59 C4.74 1.72, 4.77 1.86, 4.8 2 C4.82 2.14, 4.83 2.35, 4.83 2.42 C4.84 2.49, 4.84 2.35, 4.83 2.42" stroke="none" stroke-width="0" fill="#a5d8ff"></path><path d="M4.83 2.42 C4.83 2.56, 4.82 2.7, 4.8 2.84 C4.77 2.97, 4.74 3.11, 4.69 3.24 C4.64 3.38, 4.58 3.5, 4.51 3.63 C4.44 3.75, 4.36 3.86, 4.27 3.97 C4.18 4.08, 4.08 4.18, 3.97 4.27 C3.86 4.36, 3.75 4.44, 3.63 4.51 C3.5 4.58, 3.38 4.64, 3.24 4.69 C3.11 4.74, 2.97 4.77, 2.84 4.8 C2.7 4.82, 2.56 4.83, 2.42 4.83 C2.28 4.83, 2.14 4.82, 2 4.8 C1.86 4.77, 1.72 4.74, 1.59 4.69 C1.46 4.64, 1.33 4.58, 1.21 4.51 C1.09 4.44, 0.97 4.36, 0.86 4.27 C0.76 4.18, 0.66 4.08, 0.57 3.97 C0.48 3.86, 0.39 3.75, 0.32 3.63 C0.25 3.5, 0.19 3.38, 0.15 3.24 C0.1 3.11, 0.06 2.97, 0.04 2.84 C0.01 2.7, 0 2.56, 0 2.42 C0 2.28, 0.01 2.14, 0.04 2 C0.06 1.86, 0.1 1.72, 0.15 1.59 C0.19 1.46, 0.25 1.33, 0.32 1.21 C0.39 1.09, 0.48 0.97, 0.57 0.86 C0.66 0.76, 0.76 0.66, 0.86 0.57 C0.97 0.48, 1.09 0.39, 1.21 0.32 C1.33 0.25, 1.46 0.19, 1.59 0.15 C1.72 0.1, 1.86 0.06, 2 0.04 C2.14 0.01, 2.28 0, 2.42 0 C2.56 0, 2.7 0.01, 2.84 0.04 C2.97 0.06, 3.11 0.1, 3.24 0.15 C3.38 0.19, 3.5 0.25, 3.63 0.32 C3.75 0.39, 3.86 0.48, 3.97 0.57 C4.08 0.66, 4.18 0.76, 4.27 0.86 C4.36 0.97, 4.44 1.09, 4.51 1.21 C4.58 1.33, 4.64 1.46, 4.69 1.59 C4.74 1.72, 4.77 1.86, 4.8 2 C4.82 2.14, 4.83 2.35, 4.83 2.42 C4.84 2.49, 4.84 2.35, 4.83 2.42" stroke="#1971c2" stroke-width="1" fill="none"></path></g><g transform="translate(65.52839821670204 72.78108768544803) rotate(0 4.623992919921875 10)"><text x="0" y="0" font-family="HanziPen SC, HanziPen Remote, Virgil, KaiTi, Segoe UI Emoji" font-size="16px" fill="#1e1e1e" text-anchor="start" style="white-space: pre;" direction="ltr" dominant-baseline="text-before-edge">5</text></g><g stroke-linecap="round" transform="translate(43.50035406250663 66.39329709692856) rotate(0 2.4172107656104345 2.4172107656104345)"><path d="M4.83 2.42 C4.83 2.56, 4.82 2.7, 4.8 2.84 C4.77 2.97, 4.74 3.11, 4.69 3.24 C4.64 3.38, 4.58 3.5, 4.51 3.63 C4.44 3.75, 4.36 3.86, 4.27 3.97 C4.18 4.08, 4.08 4.18, 3.97 4.27 C3.86 4.36, 3.75 4.44, 3.63 4.51 C3.5 4.58, 3.38 4.64, 3.24 4.69 C3.11 4.74, 2.97 4.77, 2.84 4.8 C2.7 4.82, 2.56 4.83, 2.42 4.83 C2.28 4.83, 2.14 4.82, 2 4.8 C1.86 4.77, 1.72 4.74, 1.59 4.69 C1.46 4.64, 1.33 4.58, 1.21 4.51 C1.09 4.44, 0.97 4.36, 0.86 4.27 C0.76 4.18, 0.66 4.08, 0.57 3.97 C0.48 3.86, 0.39 3.75, 0.32 3.63 C0.25 3.5, 0.19 3.38, 0.15 3.24 C0.1 3.11, 0.06 2.97, 0.04 2.84 C0.01 2.7, 0 2.56, 0 2.42 C0 2.28, 0.01 2.14, 0.04 2 C0.06 1.86, 0.1 1.72, 0.15 1.59 C0.19 1.46, 0.25 1.33, 0.32 1.21 C0.39 1.09, 0.48 0.97, 0.57 0.86 C0.66 0.76, 0.76 0.66, 0.86 0.57 C0.97 0.48, 1.09 0.39, 1.21 0.32 C1.33 0.25, 1.46 0.19, 1.59 0.15 C1.72 0.1, 1.86 0.06, 2 0.04 C2.14 0.01, 2.28 0, 2.42 0 C2.56 0, 2.7 0.01, 2.84 0.04 C2.97 0.06, 3.11 0.1, 3.24 0.15 C3.38 0.19, 3.5 0.25, 3.63 0.32 C3.75 0.39, 3.86 0.48, 3.97 0.57 C4.08 0.66, 4.18 0.76, 4.27 0.86 C4.36 0.97, 4.44 1.09, 4.51 1.21 C4.58 1.33, 4.64 1.46, 4.69 1.59 C4.74 1.72, 4.77 1.86, 4.8 2 C4.82 2.14, 4.83 2.35, 4.83 2.42 C4.84 2.49, 4.84 2.35, 4.83 2.42" stroke="none" stroke-width="0" fill="#a5d8ff"></path><path d="M4.83 2.42 C4.83 2.56, 4.82 2.7, 4.8 2.84 C4.77 2.97, 4.74 3.11, 4.69 3.24 C4.64 3.38, 4.58 3.5, 4.51 3.63 C4.44 3.75, 4.36 3.86, 4.27 3.97 C4.18 4.08, 4.08 4.18, 3.97 4.27 C3.86 4.36, 3.75 4.44, 3.63 4.51 C3.5 4.58, 3.38 4.64, 3.24 4.69 C3.11 4.74, 2.97 4.77, 2.84 4.8 C2.7 4.82, 2.56 4.83, 2.42 4.83 C2.28 4.83, 2.14 4.82, 2 4.8 C1.86 4.77, 1.72 4.74, 1.59 4.69 C1.46 4.64, 1.33 4.58, 1.21 4.51 C1.09 4.44, 0.97 4.36, 0.86 4.27 C0.76 4.18, 0.66 4.08, 0.57 3.97 C0.48 3.86, 0.39 3.75, 0.32 3.63 C0.25 3.5, 0.19 3.38, 0.15 3.24 C0.1 3.11, 0.06 2.97, 0.04 2.84 C0.01 2.7, 0 2.56, 0 2.42 C0 2.28, 0.01 2.14, 0.04 2 C0.06 1.86, 0.1 1.72, 0.15 1.59 C0.19 1.46, 0.25 1.33, 0.32 1.21 C0.39 1.09, 0.48 0.97, 0.57 0.86 C0.66 0.76, 0.76 0.66, 0.86 0.57 C0.97 0.48, 1.09 0.39, 1.21 0.32 C1.33 0.25, 1.46 0.19, 1.59 0.15 C1.72 0.1, 1.86 0.06, 2 0.04 C2.14 0.01, 2.28 0, 2.42 0 C2.56 0, 2.7 0.01, 2.84 0.04 C2.97 0.06, 3.11 0.1, 3.24 0.15 C3.38 0.19, 3.5 0.25, 3.63 0.32 C3.75 0.39, 3.86 0.48, 3.97 0.57 C4.08 0.66, 4.18 0.76, 4.27 0.86 C4.36 0.97, 4.44 1.09, 4.51 1.21 C4.58 1.33, 4.64 1.46, 4.69 1.59 C4.74 1.72, 4.77 1.86, 4.8 2 C4.82 2.14, 4.83 2.35, 4.83 2.42 C4.84 2.49, 4.84 2.35, 4.83 2.42" stroke="#1971c2" stroke-width="1" fill="none"></path></g><g transform="translate(41.39080371341697 73.27455032483522) rotate(0 4.623992919921875 10)"><text x="0" y="0" font-family="HanziPen SC, HanziPen Remote, Virgil, KaiTi, Segoe UI Emoji" font-size="16px" fill="#1e1e1e" text-anchor="start" style="white-space: pre;" direction="ltr" dominant-baseline="text-before-edge">6</text></g><g stroke-linecap="round" transform="translate(20.598959263067627 66.0532408911231) rotate(0 2.4172107656104345 2.4172107656104345)"><path d="M4.83 2.42 C4.83 2.56, 4.82 2.7, 4.8 2.84 C4.77 2.97, 4.74 3.11, 4.69 3.24 C4.64 3.38, 4.58 3.5, 4.51 3.63 C4.44 3.75, 4.36 3.86, 4.27 3.97 C4.18 4.08, 4.08 4.18, 3.97 4.27 C3.86 4.36, 3.75 4.44, 3.63 4.51 C3.5 4.58, 3.38 4.64, 3.24 4.69 C3.11 4.74, 2.97 4.77, 2.84 4.8 C2.7 4.82, 2.56 4.83, 2.42 4.83 C2.28 4.83, 2.14 4.82, 2 4.8 C1.86 4.77, 1.72 4.74, 1.59 4.69 C1.46 4.64, 1.33 4.58, 1.21 4.51 C1.09 4.44, 0.97 4.36, 0.86 4.27 C0.76 4.18, 0.66 4.08, 0.57 3.97 C0.48 3.86, 0.39 3.75, 0.32 3.63 C0.25 3.5, 0.19 3.38, 0.15 3.24 C0.1 3.11, 0.06 2.97, 0.04 2.84 C0.01 2.7, 0 2.56, 0 2.42 C0 2.28, 0.01 2.14, 0.04 2 C0.06 1.86, 0.1 1.72, 0.15 1.59 C0.19 1.46, 0.25 1.33, 0.32 1.21 C0.39 1.09, 0.48 0.97, 0.57 0.86 C0.66 0.76, 0.76 0.66, 0.86 0.57 C0.97 0.48, 1.09 0.39, 1.21 0.32 C1.33 0.25, 1.46 0.19, 1.59 0.15 C1.72 0.1, 1.86 0.06, 2 0.04 C2.14 0.01, 2.28 0, 2.42 0 C2.56 0, 2.7 0.01, 2.84 0.04 C2.97 0.06, 3.11 0.1, 3.24 0.15 C3.38 0.19, 3.5 0.25, 3.63 0.32 C3.75 0.39, 3.86 0.48, 3.97 0.57 C4.08 0.66, 4.18 0.76, 4.27 0.86 C4.36 0.97, 4.44 1.09, 4.51 1.21 C4.58 1.33, 4.64 1.46, 4.69 1.59 C4.74 1.72, 4.77 1.86, 4.8 2 C4.82 2.14, 4.83 2.35, 4.83 2.42 C4.84 2.49, 4.84 2.35, 4.83 2.42" stroke="none" stroke-width="0" fill="#b2f2bb"></path><path d="M4.83 2.42 C4.83 2.56, 4.82 2.7, 4.8 2.84 C4.77 2.97, 4.74 3.11, 4.69 3.24 C4.64 3.38, 4.58 3.5, 4.51 3.63 C4.44 3.75, 4.36 3.86, 4.27 3.97 C4.18 4.08, 4.08 4.18, 3.97 4.27 C3.86 4.36, 3.75 4.44, 3.63 4.51 C3.5 4.58, 3.38 4.64, 3.24 4.69 C3.11 4.74, 2.97 4.77, 2.84 4.8 C2.7 4.82, 2.56 4.83, 2.42 4.83 C2.28 4.83, 2.14 4.82, 2 4.8 C1.86 4.77, 1.72 4.74, 1.59 4.69 C1.46 4.64, 1.33 4.58, 1.21 4.51 C1.09 4.44, 0.97 4.36, 0.86 4.27 C0.76 4.18, 0.66 4.08, 0.57 3.97 C0.48 3.86, 0.39 3.75, 0.32 3.63 C0.25 3.5, 0.19 3.38, 0.15 3.24 C0.1 3.11, 0.06 2.97, 0.04 2.84 C0.01 2.7, 0 2.56, 0 2.42 C0 2.28, 0.01 2.14, 0.04 2 C0.06 1.86, 0.1 1.72, 0.15 1.59 C0.19 1.46, 0.25 1.33, 0.32 1.21 C0.39 1.09, 0.48 0.97, 0.57 0.86 C0.66 0.76, 0.76 0.66, 0.86 0.57 C0.97 0.48, 1.09 0.39, 1.21 0.32 C1.33 0.25, 1.46 0.19, 1.59 0.15 C1.72 0.1, 1.86 0.06, 2 0.04 C2.14 0.01, 2.28 0, 2.42 0 C2.56 0, 2.7 0.01, 2.84 0.04 C2.97 0.06, 3.11 0.1, 3.24 0.15 C3.38 0.19, 3.5 0.25, 3.63 0.32 C3.75 0.39, 3.86 0.48, 3.97 0.57 C4.08 0.66, 4.18 0.76, 4.27 0.86 C4.36 0.97, 4.44 1.09, 4.51 1.21 C4.58 1.33, 4.64 1.46, 4.69 1.59 C4.74 1.72, 4.77 1.86, 4.8 2 C4.82 2.14, 4.83 2.35, 4.83 2.42 C4.84 2.49, 4.84 2.35, 4.83 2.42" stroke="#2f9e44" stroke-width="1" fill="none"></path></g><g transform="translate(18.48940891397706 72.93449411902975) rotate(0 4.623992919921875 10)"><text x="0" y="0" font-family="HanziPen SC, HanziPen Remote, Virgil, KaiTi, Segoe UI Emoji" font-size="16px" fill="#1e1e1e" text-anchor="start" style="white-space: pre;" direction="ltr" dominant-baseline="text-before-edge">7</text></g></svg>