<svg version="1.1" xmlns="http://www.w3.org/2000/svg" viewBox="0 0 212.08782786823213 73.22515840913422" width="212.08782786823213" height="73.22515840913422" filter="invert(93%) hue-rotate(180deg)">
  <!-- svg-source:excalidraw -->
  
  <defs>
    <style class="style-fonts">
      @font-face {
        font-family: "Virgil";
        src: url("https://unpkg.com/revedraw@1.0.0-alpha.10/dist/excalidraw-assets/Virgil.woff2");
      }
      @font-face {
        font-family: "Cascadia";
        src: url("https://unpkg.com/revedraw@1.0.0-alpha.10/dist/excalidraw-assets/Cascadia.woff2");
      }
    </style>
    
  </defs>
  <g stroke-linecap="round" transform="translate(10.162725372069417 33.21013327271419) rotate(0 12 15)"><path d="M0 0 C0 0, 0 0, 0 0 M0 0 C0 0, 0 0, 0 0 M-0.26 6.4 C0.9 5.07, 2.05 3.74, 4.99 0.36 M-0.26 6.4 C1.39 4.5, 3.04 2.6, 4.99 0.36 M0.13 12.04 C2.99 8.75, 5.85 5.46, 10.63 -0.03 M0.13 12.04 C3.08 8.65, 6.03 5.26, 10.63 -0.03 M-0.13 18.44 C4.17 13.49, 8.47 8.55, 15.62 0.33 M-0.13 18.44 C3.71 14.03, 7.54 9.62, 15.62 0.33 M0.27 24.08 C4.68 19, 9.1 13.92, 21.26 -0.07 M0.27 24.08 C6.34 17.09, 12.42 10.1, 21.26 -0.07 M0 30.48 C9.21 19.89, 18.41 9.31, 25.59 1.05 M0 30.48 C8.83 20.33, 17.65 10.18, 25.59 1.05 M5.65 30.08 C10.2 24.85, 14.75 19.61, 25.33 7.44 M5.65 30.08 C10.06 25.01, 14.48 19.93, 25.33 7.44 M10.63 30.45 C15.5 24.85, 20.36 19.26, 25.72 13.09 M10.63 30.45 C14.89 25.54, 19.15 20.64, 25.72 13.09 M16.28 30.05 C18.71 27.25, 21.14 24.46, 25.46 19.48 M16.28 30.05 C18.68 27.28, 21.09 24.51, 25.46 19.48 M21.27 30.41 C22.75 28.7, 24.24 26.99, 25.2 25.88 M21.27 30.41 C22.63 28.85, 23.99 27.28, 25.2 25.88" stroke="#b2f2bb" stroke-width="0.5" fill="none"></path><path d="M0 0 C6.95 0, 13.9 0, 24 0 M0 0 C5.18 0, 10.36 0, 24 0 M24 0 C24 9.76, 24 19.51, 24 30 M24 0 C24 7.15, 24 14.3, 24 30 M24 30 C19.11 30, 14.21 30, 0 30 M24 30 C17.8 30, 11.6 30, 0 30 M0 30 C0 19.95, 0 9.9, 0 0 M0 30 C0 20.48, 0 10.96, 0 0" stroke="#1e1e1e" stroke-width="1" fill="none"></path></g><g transform="translate(17.538732452147542 38.21013327271419) rotate(0 4.623992919921875 10)"><text x="4.623992919921875" y="0" font-family="HanziPen SC, HanziPen Remote, Virgil, KaiTi, Segoe UI Emoji" font-size="16px" fill="#1e1e1e" text-anchor="middle" style="white-space: pre;" direction="ltr" dominant-baseline="text-before-edge">0</text></g><g stroke-linecap="round" transform="translate(34.069187758891985 33.204872273794194) rotate(0 12 15)"><path d="M0 0 C0 0, 0 0, 0 0 M0 0 C0 0, 0 0, 0 0 M-0.26 6.4 C1.39 4.5, 3.04 2.6, 4.99 0.36 M-0.26 6.4 C0.86 5.11, 1.98 3.82, 4.99 0.36 M0.13 12.04 C3.26 8.45, 6.38 4.85, 10.63 -0.03 M0.13 12.04 C3.71 7.92, 7.29 3.81, 10.63 -0.03 M-0.13 18.44 C5.35 12.13, 10.84 5.83, 15.62 0.33 M-0.13 18.44 C5 12.54, 10.13 6.63, 15.62 0.33 M0.27 24.08 C6.99 16.35, 13.71 8.62, 21.26 -0.07 M0.27 24.08 C7.39 15.89, 14.51 7.7, 21.26 -0.07 M0 30.48 C6.51 23, 13.01 15.52, 25.59 1.05 M0 30.48 C7.46 21.9, 14.91 13.33, 25.59 1.05 M5.65 30.08 C12.07 22.7, 18.49 15.32, 25.33 7.44 M5.65 30.08 C11.19 23.7, 16.74 17.32, 25.33 7.44 M10.63 30.45 C16.65 23.52, 22.67 16.6, 25.72 13.09 M10.63 30.45 C14.39 26.12, 18.15 21.8, 25.72 13.09 M16.28 30.05 C19.68 26.14, 23.07 22.23, 25.46 19.48 M16.28 30.05 C18.3 27.72, 20.33 25.39, 25.46 19.48 M21.27 30.41 C22.54 28.94, 23.82 27.48, 25.2 25.88 M21.27 30.41 C22.7 28.77, 24.13 27.12, 25.2 25.88" stroke="#a5d8ff" stroke-width="0.5" fill="none"></path><path d="M0 0 C5.12 0, 10.23 0, 24 0 M0 0 C6.43 0, 12.85 0, 24 0 M24 0 C24 8.1, 24 16.21, 24 30 M24 0 C24 9.39, 24 18.78, 24 30 M24 30 C17.74 30, 11.47 30, 0 30 M24 30 C16.93 30, 9.85 30, 0 30 M0 30 C0 19.19, 0 8.37, 0 0 M0 30 C0 22.84, 0 15.68, 0 0" stroke="#1e1e1e" stroke-width="1" fill="none"></path></g><g transform="translate(41.44519483897011 38.204872273794194) rotate(0 4.623992919921875 10)"><text x="4.623992919921875" y="0" font-family="HanziPen SC, HanziPen Remote, Virgil, KaiTi, Segoe UI Emoji" font-size="16px" fill="#1e1e1e" text-anchor="middle" style="white-space: pre;" direction="ltr" dominant-baseline="text-before-edge">1</text></g><g stroke-linecap="round" transform="translate(58.1286128535362 33.225158409134224) rotate(0 12 15)"><path d="M0 0 C0 0, 0 0, 0 0 M0 0 C0 0, 0 0, 0 0 M-0.26 6.4 C1.49 4.39, 3.24 2.37, 4.99 0.36 M-0.26 6.4 C0.9 5.06, 2.07 3.72, 4.99 0.36 M0.13 12.04 C2.51 9.31, 4.89 6.57, 10.63 -0.03 M0.13 12.04 C3.92 7.69, 7.7 3.34, 10.63 -0.03 M-0.13 18.44 C6.16 11.2, 12.45 3.96, 15.62 0.33 M-0.13 18.44 C3.38 14.4, 6.9 10.36, 15.62 0.33 M0.27 24.08 C8.08 15.09, 15.9 6.1, 21.26 -0.07 M0.27 24.08 C5.84 17.67, 11.42 11.25, 21.26 -0.07 M0 30.48 C8.98 20.15, 17.96 9.83, 25.59 1.05 M0 30.48 C9.8 19.21, 19.6 7.94, 25.59 1.05 M5.65 30.08 C13.07 21.55, 20.49 13.01, 25.33 7.44 M5.65 30.08 C12.71 21.96, 19.77 13.84, 25.33 7.44 M10.63 30.45 C14.84 25.61, 19.05 20.77, 25.72 13.09 M10.63 30.45 C15.4 24.96, 20.17 19.48, 25.72 13.09 M16.28 30.05 C18.3 27.73, 20.32 25.4, 25.46 19.48 M16.28 30.05 C19.64 26.18, 23.01 22.31, 25.46 19.48 M21.27 30.41 C22.25 29.28, 23.23 28.14, 25.2 25.88 M21.27 30.41 C22.29 29.23, 23.32 28.04, 25.2 25.88" stroke="#a5d8ff" stroke-width="0.5" fill="none"></path><path d="M0 0 C8.99 0, 17.97 0, 24 0 M0 0 C6.63 0, 13.26 0, 24 0 M24 0 C24 10.88, 24 21.76, 24 30 M24 0 C24 10.87, 24 21.74, 24 30 M24 30 C17.54 30, 11.07 30, 0 30 M24 30 C16.08 30, 8.15 30, 0 30 M0 30 C0 22.96, 0 15.91, 0 0 M0 30 C0 18.31, 0 6.61, 0 0" stroke="#1e1e1e" stroke-width="1" fill="none"></path></g><g transform="translate(65.50461993361432 38.225158409134224) rotate(0 4.623992919921875 10)"><text x="4.623992919921875" y="0" font-family="HanziPen SC, HanziPen Remote, Virgil, KaiTi, Segoe UI Emoji" font-size="16px" fill="#1e1e1e" text-anchor="middle" style="white-space: pre;" direction="ltr" dominant-baseline="text-before-edge">0</text></g><g stroke-linecap="round" transform="translate(82.1351626805822 33.177301719149796) rotate(0 12 15)"><path d="M0 0 C0 0, 0 0, 0 0 M0 0 C0 0, 0 0, 0 0 M-0.26 6.4 C1.01 4.93, 2.29 3.46, 4.99 0.36 M-0.26 6.4 C1.01 4.93, 2.29 3.46, 4.99 0.36 M0.13 12.04 C4.2 7.36, 8.27 2.68, 10.63 -0.03 M0.13 12.04 C3.06 8.67, 6 5.3, 10.63 -0.03 M-0.13 18.44 C4.88 12.67, 9.89 6.91, 15.62 0.33 M-0.13 18.44 C4.8 12.77, 9.73 7.1, 15.62 0.33 M0.27 24.08 C4.9 18.76, 9.52 13.43, 21.26 -0.07 M0.27 24.08 C6.23 17.22, 12.2 10.35, 21.26 -0.07 M0 30.48 C6.81 22.65, 13.62 14.82, 25.59 1.05 M0 30.48 C6.97 22.47, 13.94 14.45, 25.59 1.05 M5.65 30.08 C12.78 21.88, 19.92 13.67, 25.33 7.44 M5.65 30.08 C12.44 22.27, 19.24 14.45, 25.33 7.44 M10.63 30.45 C15.21 25.18, 19.79 19.91, 25.72 13.09 M10.63 30.45 C13.81 26.79, 16.98 23.14, 25.72 13.09 M16.28 30.05 C19.2 26.69, 22.12 23.33, 25.46 19.48 M16.28 30.05 C18.7 27.26, 21.13 24.47, 25.46 19.48 M21.27 30.41 C22.14 29.4, 23.01 28.4, 25.2 25.88 M21.27 30.41 C22.22 29.31, 23.17 28.22, 25.2 25.88" stroke="#a5d8ff" stroke-width="0.5" fill="none"></path><path d="M0 0 C7.85 0, 15.69 0, 24 0 M0 0 C8.55 0, 17.11 0, 24 0 M24 0 C24 9.57, 24 19.14, 24 30 M24 0 C24 10.17, 24 20.35, 24 30 M24 30 C16.62 30, 9.23 30, 0 30 M24 30 C15.48 30, 6.97 30, 0 30 M0 30 C0 18.03, 0 6.06, 0 0 M0 30 C0 18.05, 0 6.1, 0 0" stroke="#1e1e1e" stroke-width="1" fill="none"></path></g><g transform="translate(89.51116976066032 38.177301719149796) rotate(0 4.623992919921875 10)"><text x="4.623992919921875" y="0" font-family="HanziPen SC, HanziPen Remote, Virgil, KaiTi, Segoe UI Emoji" font-size="16px" fill="#1e1e1e" text-anchor="middle" style="white-space: pre;" direction="ltr" dominant-baseline="text-before-edge">0</text></g><g stroke-linecap="round" transform="translate(106.11539055971843 33.12747619625384) rotate(0 12 15)"><path d="M0 0 C0 0, 0 0, 0 0 M0 0 C0 0, 0 0, 0 0 M-0.26 6.4 C1.76 4.07, 3.78 1.75, 4.99 0.36 M-0.26 6.4 C0.81 5.16, 1.89 3.93, 4.99 0.36 M0.13 12.04 C3.12 8.6, 6.11 5.17, 10.63 -0.03 M0.13 12.04 C2.89 8.87, 5.65 5.69, 10.63 -0.03 M-0.13 18.44 C5.7 11.73, 11.53 5.03, 15.62 0.33 M-0.13 18.44 C6.14 11.23, 12.41 4.01, 15.62 0.33 M0.27 24.08 C6.42 17, 12.57 9.93, 21.26 -0.07 M0.27 24.08 C5.2 18.41, 10.13 12.73, 21.26 -0.07 M0 30.48 C10 18.98, 20 7.48, 25.59 1.05 M0 30.48 C6.07 23.5, 12.13 16.53, 25.59 1.05 M5.65 30.08 C10.3 24.74, 14.95 19.39, 25.33 7.44 M5.65 30.08 C12.67 22.01, 19.68 13.94, 25.33 7.44 M10.63 30.45 C16.5 23.7, 22.37 16.95, 25.72 13.09 M10.63 30.45 C14.94 25.49, 19.25 20.53, 25.72 13.09 M16.28 30.05 C19.43 26.42, 22.58 22.8, 25.46 19.48 M16.28 30.05 C19.07 26.83, 21.87 23.62, 25.46 19.48 M21.27 30.41 C22.37 29.14, 23.48 27.87, 25.2 25.88 M21.27 30.41 C22.58 28.9, 23.89 27.39, 25.2 25.88" stroke="#a5d8ff" stroke-width="0.5" fill="none"></path><path d="M0 0 C9.58 0, 19.16 0, 24 0 M0 0 C5.96 0, 11.93 0, 24 0 M24 0 C24 6.9, 24 13.8, 24 30 M24 0 C24 6.63, 24 13.26, 24 30 M24 30 C18.49 30, 12.99 30, 0 30 M24 30 C14.78 30, 5.56 30, 0 30 M0 30 C0 21.93, 0 13.86, 0 0 M0 30 C0 20.49, 0 10.97, 0 0" stroke="#1e1e1e" stroke-width="1" fill="none"></path></g><g transform="translate(113.49139763979656 38.12747619625384) rotate(0 4.623992919921875 10)"><text x="4.623992919921875" y="0" font-family="HanziPen SC, HanziPen Remote, Virgil, KaiTi, Segoe UI Emoji" font-size="16px" fill="#1e1e1e" text-anchor="middle" style="white-space: pre;" direction="ltr" dominant-baseline="text-before-edge">1</text></g><g stroke-linecap="round" transform="translate(130.0218529465419 33.122215197333844) rotate(0 12 15)"><path d="M0 0 C0 0, 0 0, 0 0 M0 0 C0 0, 0 0, 0 0 M-0.26 6.4 C1.18 4.74, 2.63 3.07, 4.99 0.36 M-0.26 6.4 C1.1 4.83, 2.46 3.27, 4.99 0.36 M0.13 12.04 C4.29 7.26, 8.44 2.48, 10.63 -0.03 M0.13 12.04 C3.3 8.4, 6.46 4.76, 10.63 -0.03 M-0.13 18.44 C6.11 11.26, 12.35 4.08, 15.62 0.33 M-0.13 18.44 C4.7 12.89, 9.52 7.33, 15.62 0.33 M0.27 24.08 C8.53 14.57, 16.79 5.07, 21.26 -0.07 M0.27 24.08 C8.31 14.82, 16.36 5.56, 21.26 -0.07 M0 30.48 C7.44 21.92, 14.89 13.36, 25.59 1.05 M0 30.48 C9.72 19.3, 19.44 8.12, 25.59 1.05 M5.65 30.08 C12.07 22.69, 18.5 15.3, 25.33 7.44 M5.65 30.08 C12.2 22.54, 18.76 15, 25.33 7.44 M10.63 30.45 C14.04 26.53, 17.44 22.61, 25.72 13.09 M10.63 30.45 C15.45 24.91, 20.26 19.37, 25.72 13.09 M16.28 30.05 C19.48 26.37, 22.68 22.68, 25.46 19.48 M16.28 30.05 C19.06 26.85, 21.83 23.66, 25.46 19.48 M21.27 30.41 C22.22 29.31, 23.17 28.21, 25.2 25.88 M21.27 30.41 C22.79 28.65, 24.32 26.9, 25.2 25.88" stroke="#ffec99" stroke-width="0.5" fill="none"></path><path d="M0 0 C7.07 0, 14.15 0, 24 0 M0 0 C7.63 0, 15.26 0, 24 0 M24 0 C24 10.85, 24 21.71, 24 30 M24 0 C24 6.32, 24 12.64, 24 30 M24 30 C17.68 30, 11.37 30, 0 30 M24 30 C17.8 30, 11.61 30, 0 30 M0 30 C0 22.92, 0 15.83, 0 0 M0 30 C0 23.28, 0 16.57, 0 0" stroke="#1e1e1e" stroke-width="1" fill="none"></path></g><g transform="translate(137.39786002662004 38.122215197333844) rotate(0 4.623992919921875 10)"><text x="4.623992919921875" y="0" font-family="HanziPen SC, HanziPen Remote, Virgil, KaiTi, Segoe UI Emoji" font-size="16px" fill="#1e1e1e" text-anchor="middle" style="white-space: pre;" direction="ltr" dominant-baseline="text-before-edge">0</text></g><g stroke-linecap="round" transform="translate(154.08127804118521 33.14250133267387) rotate(0 12 15)"><path d="M0 0 C0 0, 0 0, 0 0 M0 0 C0 0, 0 0, 0 0 M-0.26 6.4 C0.81 5.16, 1.89 3.93, 4.99 0.36 M-0.26 6.4 C1.76 4.08, 3.78 1.75, 4.99 0.36 M0.13 12.04 C4.07 7.51, 8 2.99, 10.63 -0.03 M0.13 12.04 C2.34 9.5, 4.55 6.97, 10.63 -0.03 M-0.13 18.44 C3.22 14.59, 6.57 10.73, 15.62 0.33 M-0.13 18.44 C4.45 13.17, 9.03 7.91, 15.62 0.33 M0.27 24.08 C6.58 16.82, 12.89 9.56, 21.26 -0.07 M0.27 24.08 C4.87 18.78, 9.48 13.48, 21.26 -0.07 M0 30.48 C7.87 21.43, 15.73 12.39, 25.59 1.05 M0 30.48 C5.86 23.75, 11.71 17.02, 25.59 1.05 M5.65 30.08 C12.28 22.46, 18.91 14.83, 25.33 7.44 M5.65 30.08 C10.37 24.65, 15.09 19.22, 25.33 7.44 M10.63 30.45 C14.86 25.58, 19.09 20.72, 25.72 13.09 M10.63 30.45 C15.36 25.01, 20.09 19.57, 25.72 13.09 M16.28 30.05 C19.61 26.22, 22.95 22.38, 25.46 19.48 M16.28 30.05 C19.02 26.9, 21.76 23.75, 25.46 19.48 M21.27 30.41 C22.44 29.06, 23.61 27.71, 25.2 25.88 M21.27 30.41 C22.38 29.13, 23.5 27.84, 25.2 25.88" stroke="#ffec99" stroke-width="0.5" fill="none"></path><path d="M0 0 C7.01 0, 14.02 0, 24 0 M0 0 C8.51 0, 17.02 0, 24 0 M24 0 C24 10.66, 24 21.32, 24 30 M24 0 C24 10.08, 24 20.16, 24 30 M24 30 C18.9 30, 13.81 30, 0 30 M24 30 C18.19 30, 12.37 30, 0 30 M0 30 C0 22.02, 0 14.04, 0 0 M0 30 C0 23.36, 0 16.72, 0 0" stroke="#1e1e1e" stroke-width="1" fill="none"></path></g><g transform="translate(161.45728512126334 38.14250133267387) rotate(0 4.623992919921875 10)"><text x="4.623992919921875" y="0" font-family="HanziPen SC, HanziPen Remote, Virgil, KaiTi, Segoe UI Emoji" font-size="16px" fill="#1e1e1e" text-anchor="middle" style="white-space: pre;" direction="ltr" dominant-baseline="text-before-edge">1</text></g><g stroke-linecap="round" transform="translate(178.08782786823213 33.094644642689445) rotate(0 12 15)"><path d="M0 0 C0 0, 0 0, 0 0 M0 0 C0 0, 0 0, 0 0 M-0.26 6.4 C0.99 4.96, 2.25 3.51, 4.99 0.36 M-0.26 6.4 C1.75 4.08, 3.76 1.77, 4.99 0.36 M0.13 12.04 C2.76 9.02, 5.39 6, 10.63 -0.03 M0.13 12.04 C2.54 9.27, 4.95 6.5, 10.63 -0.03 M-0.13 18.44 C3.19 14.63, 6.5 10.81, 15.62 0.33 M-0.13 18.44 C3.47 14.3, 7.06 10.16, 15.62 0.33 M0.27 24.08 C7.99 15.2, 15.71 6.32, 21.26 -0.07 M0.27 24.08 C5.69 17.84, 11.12 11.6, 21.26 -0.07 M0 30.48 C9.12 19.99, 18.24 9.51, 25.59 1.05 M0 30.48 C8.61 20.58, 17.21 10.69, 25.59 1.05 M5.65 30.08 C12.46 22.25, 19.27 14.41, 25.33 7.44 M5.65 30.08 C10.91 24.03, 16.17 17.98, 25.33 7.44 M10.63 30.45 C16.57 23.62, 22.5 16.79, 25.72 13.09 M10.63 30.45 C15.11 25.3, 19.58 20.16, 25.72 13.09 M16.28 30.05 C19.86 25.93, 23.43 21.82, 25.46 19.48 M16.28 30.05 C19.56 26.27, 22.84 22.5, 25.46 19.48 M21.27 30.41 C22.1 29.45, 22.94 28.48, 25.2 25.88 M21.27 30.41 C22.54 28.95, 23.81 27.48, 25.2 25.88" stroke="#ffec99" stroke-width="0.5" fill="none"></path><path d="M0 0 C5.87 0, 11.75 0, 24 0 M0 0 C8.98 0, 17.96 0, 24 0 M24 0 C24 6.8, 24 13.6, 24 30 M24 0 C24 7.49, 24 14.98, 24 30 M24 30 C17.87 30, 11.73 30, 0 30 M24 30 C18.56 30, 13.13 30, 0 30 M0 30 C0 21, 0 12, 0 0 M0 30 C0 22.89, 0 15.77, 0 0" stroke="#1e1e1e" stroke-width="1" fill="none"></path></g><g transform="translate(185.46383494831025 38.094644642689445) rotate(0 4.623992919921875 10)"><text x="4.623992919921875" y="0" font-family="HanziPen SC, HanziPen Remote, Virgil, KaiTi, Segoe UI Emoji" font-size="16px" fill="#1e1e1e" text-anchor="middle" style="white-space: pre;" direction="ltr" dominant-baseline="text-before-edge">1</text></g><g transform="translate(10 10) rotate(0 11.879989624023438 10)"><text x="0" y="0" font-family="HanziPen SC, HanziPen Remote, Virgil, KaiTi, Segoe UI Emoji" font-size="16px" fill="#2f9e44" text-anchor="start" style="white-space: pre;" direction="ltr" dominant-baseline="text-before-edge">sign</text></g><g transform="translate(51.94182747089508 10.101705922816905) rotate(0 27.975967407226562 10)"><text x="0" y="0" font-family="HanziPen SC, HanziPen Remote, Virgil, KaiTi, Segoe UI Emoji" font-size="16px" fill="#1971c2" text-anchor="start" style="white-space: pre;" direction="ltr" dominant-baseline="text-before-edge">exponent</text></g><g transform="translate(137.07053241782342 10.81110473446347) rotate(0 27.38396453857422 10)"><text x="0" y="0" font-family="HanziPen SC, HanziPen Remote, Virgil, KaiTi, Segoe UI Emoji" font-size="16px" fill="#f08c00" text-anchor="start" style="white-space: pre;" direction="ltr" dominant-baseline="text-before-edge">mantissa</text></g></svg>