<svg version="1.1" xmlns="http://www.w3.org/2000/svg" viewBox="0 0 291.2484509278829 257.12347842592237" width="291.2484509278829" height="257.12347842592237">
  <!-- svg-source:excalidraw -->
  
  <defs>
    <style class="style-fonts">
      @font-face {
        font-family: "Virgil,monaco,Consolas,Lucida Console,monospace";
        src: url("https://unpkg.com/revedraw@1.0.0-alpha.10/dist/excalidraw-assets/Virgil.woff2");
      }
      @font-face {
        font-family: "Cascadia";
        src: url("https://unpkg.com/revedraw@1.0.0-alpha.10/dist/excalidraw-assets/Cascadia.woff2");
      }
    </style>
    
  </defs>
  <rect x="0" y="0" width="291.2484509278829" height="257.12347842592237" fill="#ffffff"></rect><g stroke-linecap="round" transform="translate(213.8612584372072 38.3066402972313) rotate(0 33.5 15)"><path d="M0 0 C21.49 0, 42.97 0, 67 0 M0 0 C23.4 0, 46.81 0, 67 0 M67 0 C67 12, 67 24, 67 30 M67 0 C67 11.99, 67 23.97, 67 30 M67 30 C52.84 30, 38.68 30, 0 30 M67 30 C45.98 30, 24.97 30, 0 30 M0 30 C0 20.53, 0 11.07, 0 0 M0 30 C0 22.29, 0 14.59, 0 0" stroke="#1e1e1e" stroke-width="1" fill="none"></path></g><g transform="translate(235.9292744894533 43.3066402972313) rotate(0 11.431983947753906 10)"><text x="11.431983947753906" y="0" font-family="HanziPen SC, HanziPen Remote, Virgil, KaiTi, Segoe UI Emoji" font-size="16px" fill="#1e1e1e" text-anchor="middle" style="white-space: pre;" direction="ltr" dominant-baseline="text-before-edge">0.0</text></g><g stroke-linecap="round" transform="translate(10.078434334112444 39.04216854782493) rotate(0 12 15)"><path d="M0 0 C6.41 0, 12.83 0, 24 0 M0 0 C5.08 0, 10.17 0, 24 0 M24 0 C24 10.59, 24 21.18, 24 30 M24 0 C24 9.23, 24 18.45, 24 30 M24 30 C18.7 30, 13.4 30, 0 30 M24 30 C16.88 30, 9.76 30, 0 30 M0 30 C0 21.08, 0 12.16, 0 0 M0 30 C0 23.13, 0 16.27, 0 0" stroke="#1e1e1e" stroke-width="1" fill="none"></path></g><g transform="translate(17.45444141419057 44.04216854782493) rotate(0 4.623992919921875 10)"><text x="4.623992919921875" y="0" font-family="HanziPen SC, HanziPen Remote, Virgil, KaiTi, Segoe UI Emoji" font-size="16px" fill="#1e1e1e" text-anchor="middle" style="white-space: pre;" direction="ltr" dominant-baseline="text-before-edge">0</text></g><g stroke-linecap="round" transform="translate(33.98489672093501 39.036907548904935) rotate(0 12 15)"><path d="M0 0 C7.71 0, 15.42 0, 24 0 M0 0 C6.19 0, 12.38 0, 24 0 M24 0 C24 11.39, 24 22.78, 24 30 M24 0 C24 7.83, 24 15.66, 24 30 M24 30 C15.26 30, 6.52 30, 0 30 M24 30 C14.56 30, 5.11 30, 0 30 M0 30 C0 19, 0 8.01, 0 0 M0 30 C0 18.33, 0 6.65, 0 0" stroke="#1e1e1e" stroke-width="1" fill="none"></path></g><g transform="translate(41.36090380101314 44.036907548904935) rotate(0 4.623992919921875 10)"><text x="4.623992919921875" y="0" font-family="HanziPen SC, HanziPen Remote, Virgil, KaiTi, Segoe UI Emoji" font-size="16px" fill="#1e1e1e" text-anchor="middle" style="white-space: pre;" direction="ltr" dominant-baseline="text-before-edge">0</text></g><g stroke-linecap="round" transform="translate(58.04432181557968 39.057193684244965) rotate(0 12 15)"><path d="M0 0 C8.97 0, 17.95 0, 24 0 M0 0 C6.37 0, 12.74 0, 24 0 M24 0 C24 10.01, 24 20.02, 24 30 M24 0 C24 8.26, 24 16.52, 24 30 M24 30 C17.83 30, 11.66 30, 0 30 M24 30 C17.84 30, 11.68 30, 0 30 M0 30 C0 20.95, 0 11.91, 0 0 M0 30 C0 23.17, 0 16.34, 0 0" stroke="#1e1e1e" stroke-width="1" fill="none"></path></g><g transform="translate(65.4203288956578 44.057193684244965) rotate(0 4.623992919921875 10)"><text x="4.623992919921875" y="0" font-family="HanziPen SC, HanziPen Remote, Virgil, KaiTi, Segoe UI Emoji" font-size="16px" fill="#1e1e1e" text-anchor="middle" style="white-space: pre;" direction="ltr" dominant-baseline="text-before-edge">0</text></g><g stroke-linecap="round" transform="translate(82.05087164262659 39.009336994260536) rotate(0 12 15)"><path d="M0 0 C6.98 0, 13.96 0, 24 0 M0 0 C5.69 0, 11.38 0, 24 0 M24 0 C24 7.3, 24 14.59, 24 30 M24 0 C24 11.72, 24 23.44, 24 30 M24 30 C17.03 30, 10.06 30, 0 30 M24 30 C15.26 30, 6.52 30, 0 30 M0 30 C0 22.32, 0 14.64, 0 0 M0 30 C0 22.2, 0 14.41, 0 0" stroke="#1e1e1e" stroke-width="1" fill="none"></path></g><g transform="translate(89.42687872270471 44.009336994260536) rotate(0 4.623992919921875 10)"><text x="4.623992919921875" y="0" font-family="HanziPen SC, HanziPen Remote, Virgil, KaiTi, Segoe UI Emoji" font-size="16px" fill="#1e1e1e" text-anchor="middle" style="white-space: pre;" direction="ltr" dominant-baseline="text-before-edge">0</text></g><g stroke-linecap="round" transform="translate(214.19021138123207 75.68000042685298) rotate(0 33.5 15)"><path d="M0 0 C21 0, 42 0, 67 0 M0 0 C13.44 0, 26.89 0, 67 0 M67 0 C67 9.36, 67 18.72, 67 30 M67 0 C67 8.17, 67 16.34, 67 30 M67 30 C51.54 30, 36.09 30, 0 30 M67 30 C52.36 30, 37.73 30, 0 30 M0 30 C0 19.25, 0 8.5, 0 0 M0 30 C0 23.22, 0 16.45, 0 0" stroke="#1e1e1e" stroke-width="1" fill="none"></path></g><g transform="translate(227.01024159363442 80.68000042685298) rotate(0 20.679969787597656 10)"><text x="20.679969787597656" y="0" font-family="HanziPen SC, HanziPen Remote, Virgil, KaiTi, Segoe UI Emoji" font-size="16px" fill="#1e1e1e" text-anchor="middle" style="white-space: pre;" direction="ltr" dominant-baseline="text-before-edge">1.125</text></g><g stroke-linecap="round" transform="translate(10 76.03872220010885) rotate(0 12 15)"><path d="M0 0 C6.18 0, 12.36 0, 24 0 M0 0 C5.01 0, 10.02 0, 24 0 M24 0 C24 9.56, 24 19.12, 24 30 M24 0 C24 6.31, 24 12.63, 24 30 M24 30 C18.75 30, 13.51 30, 0 30 M24 30 C15.66 30, 7.32 30, 0 30 M0 30 C0 20.64, 0 11.28, 0 0 M0 30 C0 21.27, 0 12.54, 0 0" stroke="#1e1e1e" stroke-width="1" fill="none"></path></g><g transform="translate(17.376007080078125 81.03872220010885) rotate(0 4.623992919921875 10)"><text x="4.623992919921875" y="0" font-family="HanziPen SC, HanziPen Remote, Virgil, KaiTi, Segoe UI Emoji" font-size="16px" fill="#1e1e1e" text-anchor="middle" style="white-space: pre;" direction="ltr" dominant-baseline="text-before-edge">0</text></g><g stroke-linecap="round" transform="translate(33.90646238682257 76.03346120118886) rotate(0 12 15)"><path d="M0 0 C7.54 0, 15.08 0, 24 0 M0 0 C8.14 0, 16.28 0, 24 0 M24 0 C24 6.49, 24 12.99, 24 30 M24 0 C24 9.61, 24 19.22, 24 30 M24 30 C15.11 30, 6.23 30, 0 30 M24 30 C16.71 30, 9.41 30, 0 30 M0 30 C0 18.13, 0 6.26, 0 0 M0 30 C0 22.64, 0 15.28, 0 0" stroke="#1e1e1e" stroke-width="1" fill="none"></path></g><g transform="translate(41.28246946690069 81.03346120118886) rotate(0 4.623992919921875 10)"><text x="4.623992919921875" y="0" font-family="HanziPen SC, HanziPen Remote, Virgil, KaiTi, Segoe UI Emoji" font-size="16px" fill="#1e1e1e" text-anchor="middle" style="white-space: pre;" direction="ltr" dominant-baseline="text-before-edge">0</text></g><g stroke-linecap="round" transform="translate(57.965887481467234 76.05374733652877) rotate(0 12 15)"><path d="M0 0 C5.98 0, 11.97 0, 24 0 M0 0 C7.07 0, 14.14 0, 24 0 M24 0 C24 10.02, 24 20.04, 24 30 M24 0 C24 10.27, 24 20.53, 24 30 M24 30 C14.96 30, 5.92 30, 0 30 M24 30 C17.63 30, 11.26 30, 0 30 M0 30 C0 22.12, 0 14.24, 0 0 M0 30 C0 20.87, 0 11.74, 0 0" stroke="#1e1e1e" stroke-width="1" fill="none"></path></g><g transform="translate(65.34189456154536 81.05374733652877) rotate(0 4.623992919921875 10)"><text x="4.623992919921875" y="0" font-family="HanziPen SC, HanziPen Remote, Virgil, KaiTi, Segoe UI Emoji" font-size="16px" fill="#1e1e1e" text-anchor="middle" style="white-space: pre;" direction="ltr" dominant-baseline="text-before-edge">0</text></g><g stroke-linecap="round" transform="translate(81.97243730851415 76.00589064654446) rotate(0 12 15)"><path d="M0 0 C4.9 0, 9.8 0, 24 0 M0 0 C4.87 0, 9.74 0, 24 0 M24 0 C24 11.25, 24 22.49, 24 30 M24 0 C24 7.24, 24 14.47, 24 30 M24 30 C16.71 30, 9.42 30, 0 30 M24 30 C18.36 30, 12.73 30, 0 30 M0 30 C0 19.75, 0 9.49, 0 0 M0 30 C0 20.76, 0 11.51, 0 0" stroke="#1e1e1e" stroke-width="1" fill="none"></path></g><g transform="translate(89.34844438859227 81.00589064654446) rotate(0 4.623992919921875 10)"><text x="4.623992919921875" y="0" font-family="HanziPen SC, HanziPen Remote, Virgil, KaiTi, Segoe UI Emoji" font-size="16px" fill="#1e1e1e" text-anchor="middle" style="white-space: pre;" direction="ltr" dominant-baseline="text-before-edge">1</text></g><g stroke-linecap="round" transform="translate(214.2484509278829 111.58750315272664) rotate(0 33.5 15)"><path d="M0 0 C19.73 0, 39.45 0, 67 0 M0 0 C14.52 0, 29.03 0, 67 0 M67 0 C67 6.53, 67 13.05, 67 30 M67 0 C67 6.23, 67 12.46, 67 30 M67 30 C40.7 30, 14.4 30, 0 30 M67 30 C50.93 30, 34.86 30, 0 30 M0 30 C0 22.91, 0 15.82, 0 0 M0 30 C0 20.34, 0 10.69, 0 0" stroke="#1e1e1e" stroke-width="1" fill="none"></path></g><g transform="translate(231.69247406020713 116.58750315272664) rotate(0 16.05597686767578 10)"><text x="16.05597686767578" y="0" font-family="HanziPen SC, HanziPen Remote, Virgil, KaiTi, Segoe UI Emoji" font-size="16px" fill="#1e1e1e" text-anchor="middle" style="white-space: pre;" direction="ltr" dominant-baseline="text-before-edge">2.25</text></g><g stroke-linecap="round" transform="translate(10.030356292888882 111.60226767952213) rotate(0 12 15)"><path d="M0 0 C5.07 0, 10.15 0, 24 0 M0 0 C7.53 0, 15.06 0, 24 0 M24 0 C24 9.47, 24 18.93, 24 30 M24 0 C24 7.71, 24 15.41, 24 30 M24 30 C17.78 30, 11.56 30, 0 30 M24 30 C16 30, 8.01 30, 0 30 M0 30 C0 20.26, 0 10.51, 0 0 M0 30 C0 22.92, 0 15.85, 0 0" stroke="#1e1e1e" stroke-width="1" fill="none"></path></g><g transform="translate(17.406363372967007 116.60226767952213) rotate(0 4.623992919921875 10)"><text x="4.623992919921875" y="0" font-family="HanziPen SC, HanziPen Remote, Virgil, KaiTi, Segoe UI Emoji" font-size="16px" fill="#1e1e1e" text-anchor="middle" style="white-space: pre;" direction="ltr" dominant-baseline="text-before-edge">0</text></g><g stroke-linecap="round" transform="translate(33.93681867971145 111.59700668060214) rotate(0 12 15)"><path d="M0 0 C5.3 0, 10.6 0, 24 0 M0 0 C7.12 0, 14.24 0, 24 0 M24 0 C24 8.92, 24 17.84, 24 30 M24 0 C24 6.87, 24 13.73, 24 30 M24 30 C16.93 30, 9.86 30, 0 30 M24 30 C14.58 30, 5.16 30, 0 30 M0 30 C0 19.18, 0 8.35, 0 0 M0 30 C0 19.04, 0 8.08, 0 0" stroke="#1e1e1e" stroke-width="1" fill="none"></path></g><g transform="translate(41.312825759789575 116.59700668060214) rotate(0 4.623992919921875 10)"><text x="4.623992919921875" y="0" font-family="HanziPen SC, HanziPen Remote, Virgil, KaiTi, Segoe UI Emoji" font-size="16px" fill="#1e1e1e" text-anchor="middle" style="white-space: pre;" direction="ltr" dominant-baseline="text-before-edge">0</text></g><g stroke-linecap="round" transform="translate(57.99624377435612 111.61729281594205) rotate(0 12 15)"><path d="M0 0 C8.74 0, 17.48 0, 24 0 M0 0 C9.44 0, 18.89 0, 24 0 M24 0 C24 11, 24 21.99, 24 30 M24 0 C24 11.67, 24 23.35, 24 30 M24 30 C17.64 30, 11.29 30, 0 30 M24 30 C16.3 30, 8.6 30, 0 30 M0 30 C0 21.82, 0 13.63, 0 0 M0 30 C0 22.48, 0 14.97, 0 0" stroke="#1e1e1e" stroke-width="1" fill="none"></path></g><g transform="translate(65.37225085443424 116.61729281594205) rotate(0 4.623992919921875 10)"><text x="4.623992919921875" y="0" font-family="HanziPen SC, HanziPen Remote, Virgil, KaiTi, Segoe UI Emoji" font-size="16px" fill="#1e1e1e" text-anchor="middle" style="white-space: pre;" direction="ltr" dominant-baseline="text-before-edge">1</text></g><g stroke-linecap="round" transform="translate(82.00279360140303 111.56943612595774) rotate(0 12 15)"><path d="M0 0 C6.17 0, 12.34 0, 24 0 M0 0 C6.16 0, 12.32 0, 24 0 M24 0 C24 9.05, 24 18.09, 24 30 M24 0 C24 6.83, 24 13.66, 24 30 M24 30 C16.54 30, 9.08 30, 0 30 M24 30 C18.11 30, 12.21 30, 0 30 M0 30 C0 19.07, 0 8.14, 0 0 M0 30 C0 22.3, 0 14.6, 0 0" stroke="#1e1e1e" stroke-width="1" fill="none"></path></g><g transform="translate(89.37880068148115 116.56943612595774) rotate(0 4.623992919921875 10)"><text x="4.623992919921875" y="0" font-family="HanziPen SC, HanziPen Remote, Virgil, KaiTi, Segoe UI Emoji" font-size="16px" fill="#1e1e1e" text-anchor="middle" style="white-space: pre;" direction="ltr" dominant-baseline="text-before-edge">0</text></g><g stroke-linecap="round" transform="translate(214.85528148339154 147.8346968458161) rotate(0 33 15)"><path d="M0 0 C19.17 0, 38.35 0, 66 0 M0 0 C24.03 0, 48.06 0, 66 0 M66 0 C66 7.68, 66 15.36, 66 30 M66 0 C66 7.8, 66 15.59, 66 30 M66 30 C42.98 30, 19.96 30, 0 30 M66 30 C44.91 30, 23.81 30, 0 30 M0 30 C0 20.58, 0 11.16, 0 0 M0 30 C0 18.78, 0 7.56, 0 0" stroke="#1e1e1e" stroke-width="1" fill="none"></path></g><g transform="translate(236.42329753563763 152.8346968458161) rotate(0 11.431983947753906 10)"><text x="11.431983947753906" y="0" font-family="HanziPen SC, HanziPen Remote, Virgil, KaiTi, Segoe UI Emoji" font-size="16px" fill="#1e1e1e" text-anchor="middle" style="white-space: pre;" direction="ltr" dominant-baseline="text-before-edge">2.5</text></g><g stroke-linecap="round" transform="translate(10.33803150268568 148.72177923493723) rotate(0 12 15)"><path d="M0 0 C5.54 0, 11.07 0, 24 0 M0 0 C5.24 0, 10.49 0, 24 0 M24 0 C24 10.75, 24 21.5, 24 30 M24 0 C24 6.78, 24 13.55, 24 30 M24 30 C17.53 30, 11.06 30, 0 30 M24 30 C16.3 30, 8.61 30, 0 30 M0 30 C0 18.75, 0 7.49, 0 0 M0 30 C0 23.46, 0 16.93, 0 0" stroke="#1e1e1e" stroke-width="1" fill="none"></path></g><g transform="translate(17.714038582763806 153.72177923493723) rotate(0 4.623992919921875 10)"><text x="4.623992919921875" y="0" font-family="HanziPen SC, HanziPen Remote, Virgil, KaiTi, Segoe UI Emoji" font-size="16px" fill="#1e1e1e" text-anchor="middle" style="white-space: pre;" direction="ltr" dominant-baseline="text-before-edge">0</text></g><g stroke-linecap="round" transform="translate(34.24449388950825 148.71651823601724) rotate(0 12 15)"><path d="M0 0 C5.25 0, 10.49 0, 24 0 M0 0 C8.34 0, 16.68 0, 24 0 M24 0 C24 9.36, 24 18.72, 24 30 M24 0 C24 8.73, 24 17.46, 24 30 M24 30 C15.86 30, 7.72 30, 0 30 M24 30 C17.97 30, 11.93 30, 0 30 M0 30 C0 18.71, 0 7.42, 0 0 M0 30 C0 23.15, 0 16.3, 0 0" stroke="#1e1e1e" stroke-width="1" fill="none"></path></g><g transform="translate(41.620500969586374 153.71651823601724) rotate(0 4.623992919921875 10)"><text x="4.623992919921875" y="0" font-family="HanziPen SC, HanziPen Remote, Virgil, KaiTi, Segoe UI Emoji" font-size="16px" fill="#1e1e1e" text-anchor="middle" style="white-space: pre;" direction="ltr" dominant-baseline="text-before-edge">0</text></g><g stroke-linecap="round" transform="translate(58.303918984152915 148.73680437135727) rotate(0 12 15)"><path d="M0 0 C8.89 0, 17.77 0, 24 0 M0 0 C7.29 0, 14.59 0, 24 0 M24 0 C24 11.87, 24 23.74, 24 30 M24 0 C24 7.36, 24 14.72, 24 30 M24 30 C14.43 30, 4.86 30, 0 30 M24 30 C15.85 30, 7.7 30, 0 30 M0 30 C0 20.36, 0 10.73, 0 0 M0 30 C0 21.88, 0 13.76, 0 0" stroke="#1e1e1e" stroke-width="1" fill="none"></path></g><g transform="translate(65.67992606423104 153.73680437135727) rotate(0 4.623992919921875 10)"><text x="4.623992919921875" y="0" font-family="HanziPen SC, HanziPen Remote, Virgil, KaiTi, Segoe UI Emoji" font-size="16px" fill="#1e1e1e" text-anchor="middle" style="white-space: pre;" direction="ltr" dominant-baseline="text-before-edge">1</text></g><g stroke-linecap="round" transform="translate(82.31046881120028 148.68894768137284) rotate(0 12 15)"><path d="M0 0 C9.04 0, 18.08 0, 24 0 M0 0 C6.37 0, 12.74 0, 24 0 M24 0 C24 7.88, 24 15.76, 24 30 M24 0 C24 9.13, 24 18.26, 24 30 M24 30 C17.66 30, 11.32 30, 0 30 M24 30 C18.28 30, 12.57 30, 0 30 M0 30 C0 18.35, 0 6.71, 0 0 M0 30 C0 22.95, 0 15.9, 0 0" stroke="#1e1e1e" stroke-width="1" fill="none"></path></g><g transform="translate(89.6864758912784 153.68894768137284) rotate(0 4.623992919921875 10)"><text x="4.623992919921875" y="0" font-family="HanziPen SC, HanziPen Remote, Virgil, KaiTi, Segoe UI Emoji" font-size="16px" fill="#1e1e1e" text-anchor="middle" style="white-space: pre;" direction="ltr" dominant-baseline="text-before-edge">0</text></g><g transform="translate(67.48286357741563 11.075311392231015) rotate(0 24.719993591308594 10)"><text x="0" y="0" font-family="HanziPen SC, HanziPen Remote, Virgil, KaiTi, Segoe UI Emoji" font-size="16px" fill="#1e1e1e" text-anchor="start" style="white-space: pre;" direction="ltr" dominant-baseline="text-before-edge">二进制</text></g><g transform="translate(222.97399652887157 10) rotate(0 24.719993591308594 10)"><text x="0" y="0" font-family="HanziPen SC, HanziPen Remote, Virgil, KaiTi, Segoe UI Emoji" font-size="16px" fill="#1e1e1e" text-anchor="start" style="white-space: pre;" direction="ltr" dominant-baseline="text-before-edge">十进制</text></g><g stroke-linecap="round" transform="translate(105.69346834128692 39.044634360975465) rotate(0 12 15)"><path d="M0 0 C9.42 0, 18.84 0, 24 0 M0 0 C5.76 0, 11.51 0, 24 0 M24 0 C24 7.09, 24 14.18, 24 30 M24 0 C24 9.66, 24 19.31, 24 30 M24 30 C15.56 30, 7.12 30, 0 30 M24 30 C19.16 30, 14.32 30, 0 30 M0 30 C0 21.67, 0 13.35, 0 0 M0 30 C0 23.51, 0 17.02, 0 0" stroke="#1e1e1e" stroke-width="1" fill="none"></path></g><g transform="translate(113.06947542136504 44.044634360975465) rotate(0 4.623992919921875 10)"><text x="4.623992919921875" y="0" font-family="HanziPen SC, HanziPen Remote, Virgil, KaiTi, Segoe UI Emoji" font-size="16px" fill="#1e1e1e" text-anchor="middle" style="white-space: pre;" direction="ltr" dominant-baseline="text-before-edge">0</text></g><g stroke-linecap="round" transform="translate(129.59993072810948 39.03937336205547) rotate(0 12 15)"><path d="M0 0 C6.22 0, 12.44 0, 24 0 M0 0 C8 0, 15.99 0, 24 0 M24 0 C24 9.74, 24 19.49, 24 30 M24 0 C24 7.08, 24 14.15, 24 30 M24 30 C17.26 30, 10.52 30, 0 30 M24 30 C16.87 30, 9.74 30, 0 30 M0 30 C0 20.04, 0 10.08, 0 0 M0 30 C0 19.85, 0 9.69, 0 0" stroke="#1e1e1e" stroke-width="1" fill="none"></path></g><g transform="translate(136.9759378081876 44.03937336205547) rotate(0 4.623992919921875 10)"><text x="4.623992919921875" y="0" font-family="HanziPen SC, HanziPen Remote, Virgil, KaiTi, Segoe UI Emoji" font-size="16px" fill="#1e1e1e" text-anchor="middle" style="white-space: pre;" direction="ltr" dominant-baseline="text-before-edge">0</text></g><g stroke-linecap="round" transform="translate(153.65935582275415 39.0596594973955) rotate(0 12 15)"><path d="M0 0 C7.07 0, 14.14 0, 24 0 M0 0 C9.42 0, 18.84 0, 24 0 M24 0 C24 10.82, 24 21.65, 24 30 M24 0 C24 10.96, 24 21.92, 24 30 M24 30 C18.48 30, 12.96 30, 0 30 M24 30 C17.67 30, 11.34 30, 0 30 M0 30 C0 18.82, 0 7.65, 0 0 M0 30 C0 18.19, 0 6.37, 0 0" stroke="#1e1e1e" stroke-width="1" fill="none"></path></g><g transform="translate(161.03536290283228 44.0596594973955) rotate(0 4.623992919921875 10)"><text x="4.623992919921875" y="0" font-family="HanziPen SC, HanziPen Remote, Virgil, KaiTi, Segoe UI Emoji" font-size="16px" fill="#1e1e1e" text-anchor="middle" style="white-space: pre;" direction="ltr" dominant-baseline="text-before-edge">0</text></g><g stroke-linecap="round" transform="translate(102.92161281014842 62.468977259862754) rotate(0 2.64913313201248 2.6014324419246577)"><path d="M5.3 2.6 C5.3 2.75, 5.28 2.9, 5.26 3.05 C5.23 3.2, 5.19 3.35, 5.14 3.49 C5.09 3.63, 5.02 3.77, 4.94 3.9 C4.87 4.03, 4.78 4.16, 4.68 4.27 C4.58 4.39, 4.47 4.5, 4.35 4.59 C4.23 4.69, 4.11 4.78, 3.97 4.85 C3.84 4.93, 3.7 4.99, 3.56 5.05 C3.41 5.1, 3.26 5.14, 3.11 5.16 C2.96 5.19, 2.8 5.2, 2.65 5.2 C2.5 5.2, 2.34 5.19, 2.19 5.16 C2.04 5.14, 1.89 5.1, 1.74 5.05 C1.6 4.99, 1.46 4.93, 1.32 4.85 C1.19 4.78, 1.06 4.69, 0.95 4.59 C0.83 4.5, 0.72 4.39, 0.62 4.27 C0.52 4.16, 0.43 4.03, 0.35 3.9 C0.28 3.77, 0.21 3.63, 0.16 3.49 C0.11 3.35, 0.07 3.2, 0.04 3.05 C0.01 2.9, 0 2.75, 0 2.6 C0 2.45, 0.01 2.3, 0.04 2.15 C0.07 2, 0.11 1.85, 0.16 1.71 C0.21 1.57, 0.28 1.43, 0.35 1.3 C0.43 1.17, 0.52 1.04, 0.62 0.93 C0.72 0.81, 0.83 0.71, 0.95 0.61 C1.06 0.51, 1.19 0.42, 1.32 0.35 C1.46 0.27, 1.6 0.21, 1.74 0.16 C1.89 0.11, 2.04 0.07, 2.19 0.04 C2.34 0.01, 2.5 0, 2.65 0 C2.8 0, 2.96 0.01, 3.11 0.04 C3.26 0.07, 3.41 0.11, 3.56 0.16 C3.7 0.21, 3.84 0.27, 3.97 0.35 C4.11 0.42, 4.23 0.51, 4.35 0.61 C4.47 0.71, 4.58 0.81, 4.68 0.93 C4.78 1.04, 4.87 1.17, 4.94 1.3 C5.02 1.43, 5.09 1.57, 5.14 1.71 C5.19 1.85, 5.23 2, 5.26 2.15 C5.28 2.3, 5.29 2.53, 5.3 2.6 C5.3 2.68, 5.3 2.53, 5.3 2.6" stroke="none" stroke-width="0" fill="#ffc9c9"></path><path d="M5.3 2.6 C5.3 2.75, 5.28 2.9, 5.26 3.05 C5.23 3.2, 5.19 3.35, 5.14 3.49 C5.09 3.63, 5.02 3.77, 4.94 3.9 C4.87 4.03, 4.78 4.16, 4.68 4.27 C4.58 4.39, 4.47 4.5, 4.35 4.59 C4.23 4.69, 4.11 4.78, 3.97 4.85 C3.84 4.93, 3.7 4.99, 3.56 5.05 C3.41 5.1, 3.26 5.14, 3.11 5.16 C2.96 5.19, 2.8 5.2, 2.65 5.2 C2.5 5.2, 2.34 5.19, 2.19 5.16 C2.04 5.14, 1.89 5.1, 1.74 5.05 C1.6 4.99, 1.46 4.93, 1.32 4.85 C1.19 4.78, 1.06 4.69, 0.95 4.59 C0.83 4.5, 0.72 4.39, 0.62 4.27 C0.52 4.16, 0.43 4.03, 0.35 3.9 C0.28 3.77, 0.21 3.63, 0.16 3.49 C0.11 3.35, 0.07 3.2, 0.04 3.05 C0.01 2.9, 0 2.75, 0 2.6 C0 2.45, 0.01 2.3, 0.04 2.15 C0.07 2, 0.11 1.85, 0.16 1.71 C0.21 1.57, 0.28 1.43, 0.35 1.3 C0.43 1.17, 0.52 1.04, 0.62 0.93 C0.72 0.81, 0.83 0.71, 0.95 0.61 C1.06 0.51, 1.19 0.42, 1.32 0.35 C1.46 0.27, 1.6 0.21, 1.74 0.16 C1.89 0.11, 2.04 0.07, 2.19 0.04 C2.34 0.01, 2.5 0, 2.65 0 C2.8 0, 2.96 0.01, 3.11 0.04 C3.26 0.07, 3.41 0.11, 3.56 0.16 C3.7 0.21, 3.84 0.27, 3.97 0.35 C4.11 0.42, 4.23 0.51, 4.35 0.61 C4.47 0.71, 4.58 0.81, 4.68 0.93 C4.78 1.04, 4.87 1.17, 4.94 1.3 C5.02 1.43, 5.09 1.57, 5.14 1.71 C5.19 1.85, 5.23 2, 5.26 2.15 C5.28 2.3, 5.29 2.53, 5.3 2.6 C5.3 2.68, 5.3 2.53, 5.3 2.6" stroke="#e03131" stroke-width="1" fill="none"></path></g><g stroke-linecap="round" transform="translate(105.62705761159964 75.90005217825762) rotate(0 12 15)"><path d="M0 0 C6.31 0, 12.61 0, 24 0 M0 0 C7.3 0, 14.61 0, 24 0 M24 0 C24 7.92, 24 15.84, 24 30 M24 0 C24 7.14, 24 14.29, 24 30 M24 30 C14.68 30, 5.37 30, 0 30 M24 30 C18.36 30, 12.72 30, 0 30 M0 30 C0 20.14, 0 10.28, 0 0 M0 30 C0 20.93, 0 11.86, 0 0" stroke="#1e1e1e" stroke-width="1" fill="none"></path></g><g transform="translate(113.00306469167776 80.90005217825762) rotate(0 4.623992919921875 10)"><text x="4.623992919921875" y="0" font-family="HanziPen SC, HanziPen Remote, Virgil, KaiTi, Segoe UI Emoji" font-size="16px" fill="#1e1e1e" text-anchor="middle" style="white-space: pre;" direction="ltr" dominant-baseline="text-before-edge">0</text></g><g stroke-linecap="round" transform="translate(129.5335199984222 75.89479117933763) rotate(0 12 15)"><path d="M0 0 C8.2 0, 16.4 0, 24 0 M0 0 C7.39 0, 14.79 0, 24 0 M24 0 C24 9.79, 24 19.58, 24 30 M24 0 C24 6.74, 24 13.47, 24 30 M24 30 C16.06 30, 8.12 30, 0 30 M24 30 C18.32 30, 12.63 30, 0 30 M0 30 C0 23.58, 0 17.16, 0 0 M0 30 C0 19.9, 0 9.8, 0 0" stroke="#1e1e1e" stroke-width="1" fill="none"></path></g><g transform="translate(136.90952707850033 80.89479117933763) rotate(0 4.623992919921875 10)"><text x="4.623992919921875" y="0" font-family="HanziPen SC, HanziPen Remote, Virgil, KaiTi, Segoe UI Emoji" font-size="16px" fill="#1e1e1e" text-anchor="middle" style="white-space: pre;" direction="ltr" dominant-baseline="text-before-edge">0</text></g><g stroke-linecap="round" transform="translate(153.59294509306687 75.91507731467766) rotate(0 12 15)"><path d="M0 0 C5.67 0, 11.34 0, 24 0 M0 0 C7.72 0, 15.45 0, 24 0 M24 0 C24 10.55, 24 21.1, 24 30 M24 0 C24 6.05, 24 12.1, 24 30 M24 30 C17.34 30, 10.68 30, 0 30 M24 30 C18.81 30, 13.62 30, 0 30 M0 30 C0 22.84, 0 15.68, 0 0 M0 30 C0 19.75, 0 9.5, 0 0" stroke="#1e1e1e" stroke-width="1" fill="none"></path></g><g transform="translate(160.968952173145 80.91507731467766) rotate(0 4.623992919921875 10)"><text x="4.623992919921875" y="0" font-family="HanziPen SC, HanziPen Remote, Virgil, KaiTi, Segoe UI Emoji" font-size="16px" fill="#1e1e1e" text-anchor="middle" style="white-space: pre;" direction="ltr" dominant-baseline="text-before-edge">1</text></g><g stroke-linecap="round" transform="translate(102.85520208046114 99.3243950771448) rotate(0 2.64913313201248 2.6014324419246577)"><path d="M5.3 2.6 C5.3 2.75, 5.28 2.9, 5.26 3.05 C5.23 3.2, 5.19 3.35, 5.14 3.49 C5.09 3.63, 5.02 3.77, 4.94 3.9 C4.87 4.03, 4.78 4.16, 4.68 4.27 C4.58 4.39, 4.47 4.5, 4.35 4.59 C4.23 4.69, 4.11 4.78, 3.97 4.85 C3.84 4.93, 3.7 4.99, 3.56 5.05 C3.41 5.1, 3.26 5.14, 3.11 5.16 C2.96 5.19, 2.8 5.2, 2.65 5.2 C2.5 5.2, 2.34 5.19, 2.19 5.16 C2.04 5.14, 1.89 5.1, 1.74 5.05 C1.6 4.99, 1.46 4.93, 1.32 4.85 C1.19 4.78, 1.06 4.69, 0.95 4.59 C0.83 4.5, 0.72 4.39, 0.62 4.27 C0.52 4.16, 0.43 4.03, 0.35 3.9 C0.28 3.77, 0.21 3.63, 0.16 3.49 C0.11 3.35, 0.07 3.2, 0.04 3.05 C0.01 2.9, 0 2.75, 0 2.6 C0 2.45, 0.01 2.3, 0.04 2.15 C0.07 2, 0.11 1.85, 0.16 1.71 C0.21 1.57, 0.28 1.43, 0.35 1.3 C0.43 1.17, 0.52 1.04, 0.62 0.93 C0.72 0.81, 0.83 0.71, 0.95 0.61 C1.06 0.51, 1.19 0.42, 1.32 0.35 C1.46 0.27, 1.6 0.21, 1.74 0.16 C1.89 0.11, 2.04 0.07, 2.19 0.04 C2.34 0.01, 2.5 0, 2.65 0 C2.8 0, 2.96 0.01, 3.11 0.04 C3.26 0.07, 3.41 0.11, 3.56 0.16 C3.7 0.21, 3.84 0.27, 3.97 0.35 C4.11 0.42, 4.23 0.51, 4.35 0.61 C4.47 0.71, 4.58 0.81, 4.68 0.93 C4.78 1.04, 4.87 1.17, 4.94 1.3 C5.02 1.43, 5.09 1.57, 5.14 1.71 C5.19 1.85, 5.23 2, 5.26 2.15 C5.28 2.3, 5.29 2.53, 5.3 2.6 C5.3 2.68, 5.3 2.53, 5.3 2.6" stroke="none" stroke-width="0" fill="#ffc9c9"></path><path d="M5.3 2.6 C5.3 2.75, 5.28 2.9, 5.26 3.05 C5.23 3.2, 5.19 3.35, 5.14 3.49 C5.09 3.63, 5.02 3.77, 4.94 3.9 C4.87 4.03, 4.78 4.16, 4.68 4.27 C4.58 4.39, 4.47 4.5, 4.35 4.59 C4.23 4.69, 4.11 4.78, 3.97 4.85 C3.84 4.93, 3.7 4.99, 3.56 5.05 C3.41 5.1, 3.26 5.14, 3.11 5.16 C2.96 5.19, 2.8 5.2, 2.65 5.2 C2.5 5.2, 2.34 5.19, 2.19 5.16 C2.04 5.14, 1.89 5.1, 1.74 5.05 C1.6 4.99, 1.46 4.93, 1.32 4.85 C1.19 4.78, 1.06 4.69, 0.95 4.59 C0.83 4.5, 0.72 4.39, 0.62 4.27 C0.52 4.16, 0.43 4.03, 0.35 3.9 C0.28 3.77, 0.21 3.63, 0.16 3.49 C0.11 3.35, 0.07 3.2, 0.04 3.05 C0.01 2.9, 0 2.75, 0 2.6 C0 2.45, 0.01 2.3, 0.04 2.15 C0.07 2, 0.11 1.85, 0.16 1.71 C0.21 1.57, 0.28 1.43, 0.35 1.3 C0.43 1.17, 0.52 1.04, 0.62 0.93 C0.72 0.81, 0.83 0.71, 0.95 0.61 C1.06 0.51, 1.19 0.42, 1.32 0.35 C1.46 0.27, 1.6 0.21, 1.74 0.16 C1.89 0.11, 2.04 0.07, 2.19 0.04 C2.34 0.01, 2.5 0, 2.65 0 C2.8 0, 2.96 0.01, 3.11 0.04 C3.26 0.07, 3.41 0.11, 3.56 0.16 C3.7 0.21, 3.84 0.27, 3.97 0.35 C4.11 0.42, 4.23 0.51, 4.35 0.61 C4.47 0.71, 4.58 0.81, 4.68 0.93 C4.78 1.04, 4.87 1.17, 4.94 1.3 C5.02 1.43, 5.09 1.57, 5.14 1.71 C5.19 1.85, 5.23 2, 5.26 2.15 C5.28 2.3, 5.29 2.53, 5.3 2.6 C5.3 2.68, 5.3 2.53, 5.3 2.6" stroke="#e03131" stroke-width="1" fill="none"></path></g><g stroke-linecap="round" transform="translate(105.74072172423689 111.5428257139879) rotate(0 12 15)"><path d="M0 0 C8.14 0, 16.28 0, 24 0 M0 0 C6.03 0, 12.07 0, 24 0 M24 0 C24 11.29, 24 22.58, 24 30 M24 0 C24 6.85, 24 13.7, 24 30 M24 30 C14.74 30, 5.47 30, 0 30 M24 30 C17.76 30, 11.52 30, 0 30 M0 30 C0 19.02, 0 8.04, 0 0 M0 30 C0 21.77, 0 13.54, 0 0" stroke="#1e1e1e" stroke-width="1" fill="none"></path></g><g transform="translate(113.11672880431502 116.5428257139879) rotate(0 4.623992919921875 10)"><text x="4.623992919921875" y="0" font-family="HanziPen SC, HanziPen Remote, Virgil, KaiTi, Segoe UI Emoji" font-size="16px" fill="#1e1e1e" text-anchor="middle" style="white-space: pre;" direction="ltr" dominant-baseline="text-before-edge">0</text></g><g stroke-linecap="round" transform="translate(129.64718411105946 111.5375647150679) rotate(0 12 15)"><path d="M0 0 C9.57 0, 19.14 0, 24 0 M0 0 C8.15 0, 16.3 0, 24 0 M24 0 C24 9.64, 24 19.27, 24 30 M24 0 C24 8.12, 24 16.24, 24 30 M24 30 C17.01 30, 10.02 30, 0 30 M24 30 C17.73 30, 11.47 30, 0 30 M0 30 C0 18.82, 0 7.65, 0 0 M0 30 C0 20.31, 0 10.62, 0 0" stroke="#1e1e1e" stroke-width="1" fill="none"></path></g><g transform="translate(137.02319119113758 116.5375647150679) rotate(0 4.623992919921875 10)"><text x="4.623992919921875" y="0" font-family="HanziPen SC, HanziPen Remote, Virgil, KaiTi, Segoe UI Emoji" font-size="16px" fill="#1e1e1e" text-anchor="middle" style="white-space: pre;" direction="ltr" dominant-baseline="text-before-edge">1</text></g><g stroke-linecap="round" transform="translate(153.70660920570413 111.55785085040793) rotate(0 12 15)"><path d="M0 0 C6.34 0, 12.68 0, 24 0 M0 0 C5.72 0, 11.43 0, 24 0 M24 0 C24 11.65, 24 23.29, 24 30 M24 0 C24 7.05, 24 14.1, 24 30 M24 30 C16.11 30, 8.23 30, 0 30 M24 30 C16.74 30, 9.49 30, 0 30 M0 30 C0 23.56, 0 17.11, 0 0 M0 30 C0 19.91, 0 9.82, 0 0" stroke="#1e1e1e" stroke-width="1" fill="none"></path></g><g transform="translate(161.08261628578225 116.55785085040793) rotate(0 4.623992919921875 10)"><text x="4.623992919921875" y="0" font-family="HanziPen SC, HanziPen Remote, Virgil, KaiTi, Segoe UI Emoji" font-size="16px" fill="#1e1e1e" text-anchor="middle" style="white-space: pre;" direction="ltr" dominant-baseline="text-before-edge">0</text></g><g stroke-linecap="round" transform="translate(102.96886619309839 134.96716861287518) rotate(0 2.64913313201248 2.6014324419246577)"><path d="M5.3 2.6 C5.3 2.75, 5.28 2.9, 5.26 3.05 C5.23 3.2, 5.19 3.35, 5.14 3.49 C5.09 3.63, 5.02 3.77, 4.94 3.9 C4.87 4.03, 4.78 4.16, 4.68 4.27 C4.58 4.39, 4.47 4.5, 4.35 4.59 C4.23 4.69, 4.11 4.78, 3.97 4.85 C3.84 4.93, 3.7 4.99, 3.56 5.05 C3.41 5.1, 3.26 5.14, 3.11 5.16 C2.96 5.19, 2.8 5.2, 2.65 5.2 C2.5 5.2, 2.34 5.19, 2.19 5.16 C2.04 5.14, 1.89 5.1, 1.74 5.05 C1.6 4.99, 1.46 4.93, 1.32 4.85 C1.19 4.78, 1.06 4.69, 0.95 4.59 C0.83 4.5, 0.72 4.39, 0.62 4.27 C0.52 4.16, 0.43 4.03, 0.35 3.9 C0.28 3.77, 0.21 3.63, 0.16 3.49 C0.11 3.35, 0.07 3.2, 0.04 3.05 C0.01 2.9, 0 2.75, 0 2.6 C0 2.45, 0.01 2.3, 0.04 2.15 C0.07 2, 0.11 1.85, 0.16 1.71 C0.21 1.57, 0.28 1.43, 0.35 1.3 C0.43 1.17, 0.52 1.04, 0.62 0.93 C0.72 0.81, 0.83 0.71, 0.95 0.61 C1.06 0.51, 1.19 0.42, 1.32 0.35 C1.46 0.27, 1.6 0.21, 1.74 0.16 C1.89 0.11, 2.04 0.07, 2.19 0.04 C2.34 0.01, 2.5 0, 2.65 0 C2.8 0, 2.96 0.01, 3.11 0.04 C3.26 0.07, 3.41 0.11, 3.56 0.16 C3.7 0.21, 3.84 0.27, 3.97 0.35 C4.11 0.42, 4.23 0.51, 4.35 0.61 C4.47 0.71, 4.58 0.81, 4.68 0.93 C4.78 1.04, 4.87 1.17, 4.94 1.3 C5.02 1.43, 5.09 1.57, 5.14 1.71 C5.19 1.85, 5.23 2, 5.26 2.15 C5.28 2.3, 5.29 2.53, 5.3 2.6 C5.3 2.68, 5.3 2.53, 5.3 2.6" stroke="none" stroke-width="0" fill="#ffc9c9"></path><path d="M5.3 2.6 C5.3 2.75, 5.28 2.9, 5.26 3.05 C5.23 3.2, 5.19 3.35, 5.14 3.49 C5.09 3.63, 5.02 3.77, 4.94 3.9 C4.87 4.03, 4.78 4.16, 4.68 4.27 C4.58 4.39, 4.47 4.5, 4.35 4.59 C4.23 4.69, 4.11 4.78, 3.97 4.85 C3.84 4.93, 3.7 4.99, 3.56 5.05 C3.41 5.1, 3.26 5.14, 3.11 5.16 C2.96 5.19, 2.8 5.2, 2.65 5.2 C2.5 5.2, 2.34 5.19, 2.19 5.16 C2.04 5.14, 1.89 5.1, 1.74 5.05 C1.6 4.99, 1.46 4.93, 1.32 4.85 C1.19 4.78, 1.06 4.69, 0.95 4.59 C0.83 4.5, 0.72 4.39, 0.62 4.27 C0.52 4.16, 0.43 4.03, 0.35 3.9 C0.28 3.77, 0.21 3.63, 0.16 3.49 C0.11 3.35, 0.07 3.2, 0.04 3.05 C0.01 2.9, 0 2.75, 0 2.6 C0 2.45, 0.01 2.3, 0.04 2.15 C0.07 2, 0.11 1.85, 0.16 1.71 C0.21 1.57, 0.28 1.43, 0.35 1.3 C0.43 1.17, 0.52 1.04, 0.62 0.93 C0.72 0.81, 0.83 0.71, 0.95 0.61 C1.06 0.51, 1.19 0.42, 1.32 0.35 C1.46 0.27, 1.6 0.21, 1.74 0.16 C1.89 0.11, 2.04 0.07, 2.19 0.04 C2.34 0.01, 2.5 0, 2.65 0 C2.8 0, 2.96 0.01, 3.11 0.04 C3.26 0.07, 3.41 0.11, 3.56 0.16 C3.7 0.21, 3.84 0.27, 3.97 0.35 C4.11 0.42, 4.23 0.51, 4.35 0.61 C4.47 0.71, 4.58 0.81, 4.68 0.93 C4.78 1.04, 4.87 1.17, 4.94 1.3 C5.02 1.43, 5.09 1.57, 5.14 1.71 C5.19 1.85, 5.23 2, 5.26 2.15 C5.28 2.3, 5.29 2.53, 5.3 2.6 C5.3 2.68, 5.3 2.53, 5.3 2.6" stroke="#e03131" stroke-width="1" fill="none"></path></g><g stroke-linecap="round" transform="translate(106.30114008320675 148.83232943868325) rotate(0 12 15)"><path d="M0 0 C7.54 0, 15.07 0, 24 0 M0 0 C8.98 0, 17.96 0, 24 0 M24 0 C24 11.48, 24 22.95, 24 30 M24 0 C24 8.79, 24 17.58, 24 30 M24 30 C18.69 30, 13.37 30, 0 30 M24 30 C18.35 30, 12.7 30, 0 30 M0 30 C0 21.49, 0 12.99, 0 0 M0 30 C0 21.03, 0 12.06, 0 0" stroke="#1e1e1e" stroke-width="1" fill="none"></path></g><g transform="translate(113.67714716328487 153.83232943868325) rotate(0 4.623992919921875 10)"><text x="4.623992919921875" y="0" font-family="HanziPen SC, HanziPen Remote, Virgil, KaiTi, Segoe UI Emoji" font-size="16px" fill="#1e1e1e" text-anchor="middle" style="white-space: pre;" direction="ltr" dominant-baseline="text-before-edge">1</text></g><g stroke-linecap="round" transform="translate(130.20760247002931 148.82706843976325) rotate(0 12 15)"><path d="M0 0 C9 0, 18.01 0, 24 0 M0 0 C5.23 0, 10.46 0, 24 0 M24 0 C24 8.15, 24 16.3, 24 30 M24 0 C24 11.15, 24 22.3, 24 30 M24 30 C16.99 30, 9.99 30, 0 30 M24 30 C18.59 30, 13.19 30, 0 30 M0 30 C0 22.38, 0 14.75, 0 0 M0 30 C0 22.17, 0 14.34, 0 0" stroke="#1e1e1e" stroke-width="1" fill="none"></path></g><g transform="translate(137.58360955010744 153.82706843976325) rotate(0 4.623992919921875 10)"><text x="4.623992919921875" y="0" font-family="HanziPen SC, HanziPen Remote, Virgil, KaiTi, Segoe UI Emoji" font-size="16px" fill="#1e1e1e" text-anchor="middle" style="white-space: pre;" direction="ltr" dominant-baseline="text-before-edge">0</text></g><g stroke-linecap="round" transform="translate(154.26702756467398 148.84735457510328) rotate(0 12 15)"><path d="M0 0 C9.03 0, 18.07 0, 24 0 M0 0 C5.48 0, 10.96 0, 24 0 M24 0 C24 11.58, 24 23.16, 24 30 M24 0 C24 7.8, 24 15.6, 24 30 M24 30 C15.21 30, 6.43 30, 0 30 M24 30 C17.41 30, 10.83 30, 0 30 M0 30 C0 20.98, 0 11.95, 0 0 M0 30 C0 19.86, 0 9.73, 0 0" stroke="#1e1e1e" stroke-width="1" fill="none"></path></g><g transform="translate(161.6430346447521 153.84735457510328) rotate(0 4.623992919921875 10)"><text x="4.623992919921875" y="0" font-family="HanziPen SC, HanziPen Remote, Virgil, KaiTi, Segoe UI Emoji" font-size="16px" fill="#1e1e1e" text-anchor="middle" style="white-space: pre;" direction="ltr" dominant-baseline="text-before-edge">0</text></g><g stroke-linecap="round" transform="translate(103.52928455206825 172.25667233757054) rotate(0 2.64913313201248 2.6014324419246577)"><path d="M5.3 2.6 C5.3 2.75, 5.28 2.9, 5.26 3.05 C5.23 3.2, 5.19 3.35, 5.14 3.49 C5.09 3.63, 5.02 3.77, 4.94 3.9 C4.87 4.03, 4.78 4.16, 4.68 4.27 C4.58 4.39, 4.47 4.5, 4.35 4.59 C4.23 4.69, 4.11 4.78, 3.97 4.85 C3.84 4.93, 3.7 4.99, 3.56 5.05 C3.41 5.1, 3.26 5.14, 3.11 5.16 C2.96 5.19, 2.8 5.2, 2.65 5.2 C2.5 5.2, 2.34 5.19, 2.19 5.16 C2.04 5.14, 1.89 5.1, 1.74 5.05 C1.6 4.99, 1.46 4.93, 1.32 4.85 C1.19 4.78, 1.06 4.69, 0.95 4.59 C0.83 4.5, 0.72 4.39, 0.62 4.27 C0.52 4.16, 0.43 4.03, 0.35 3.9 C0.28 3.77, 0.21 3.63, 0.16 3.49 C0.11 3.35, 0.07 3.2, 0.04 3.05 C0.01 2.9, 0 2.75, 0 2.6 C0 2.45, 0.01 2.3, 0.04 2.15 C0.07 2, 0.11 1.85, 0.16 1.71 C0.21 1.57, 0.28 1.43, 0.35 1.3 C0.43 1.17, 0.52 1.04, 0.62 0.93 C0.72 0.81, 0.83 0.71, 0.95 0.61 C1.06 0.51, 1.19 0.42, 1.32 0.35 C1.46 0.27, 1.6 0.21, 1.74 0.16 C1.89 0.11, 2.04 0.07, 2.19 0.04 C2.34 0.01, 2.5 0, 2.65 0 C2.8 0, 2.96 0.01, 3.11 0.04 C3.26 0.07, 3.41 0.11, 3.56 0.16 C3.7 0.21, 3.84 0.27, 3.97 0.35 C4.11 0.42, 4.23 0.51, 4.35 0.61 C4.47 0.71, 4.58 0.81, 4.68 0.93 C4.78 1.04, 4.87 1.17, 4.94 1.3 C5.02 1.43, 5.09 1.57, 5.14 1.71 C5.19 1.85, 5.23 2, 5.26 2.15 C5.28 2.3, 5.29 2.53, 5.3 2.6 C5.3 2.68, 5.3 2.53, 5.3 2.6" stroke="none" stroke-width="0" fill="#ffc9c9"></path><path d="M5.3 2.6 C5.3 2.75, 5.28 2.9, 5.26 3.05 C5.23 3.2, 5.19 3.35, 5.14 3.49 C5.09 3.63, 5.02 3.77, 4.94 3.9 C4.87 4.03, 4.78 4.16, 4.68 4.27 C4.58 4.39, 4.47 4.5, 4.35 4.59 C4.23 4.69, 4.11 4.78, 3.97 4.85 C3.84 4.93, 3.7 4.99, 3.56 5.05 C3.41 5.1, 3.26 5.14, 3.11 5.16 C2.96 5.19, 2.8 5.2, 2.65 5.2 C2.5 5.2, 2.34 5.19, 2.19 5.16 C2.04 5.14, 1.89 5.1, 1.74 5.05 C1.6 4.99, 1.46 4.93, 1.32 4.85 C1.19 4.78, 1.06 4.69, 0.95 4.59 C0.83 4.5, 0.72 4.39, 0.62 4.27 C0.52 4.16, 0.43 4.03, 0.35 3.9 C0.28 3.77, 0.21 3.63, 0.16 3.49 C0.11 3.35, 0.07 3.2, 0.04 3.05 C0.01 2.9, 0 2.75, 0 2.6 C0 2.45, 0.01 2.3, 0.04 2.15 C0.07 2, 0.11 1.85, 0.16 1.71 C0.21 1.57, 0.28 1.43, 0.35 1.3 C0.43 1.17, 0.52 1.04, 0.62 0.93 C0.72 0.81, 0.83 0.71, 0.95 0.61 C1.06 0.51, 1.19 0.42, 1.32 0.35 C1.46 0.27, 1.6 0.21, 1.74 0.16 C1.89 0.11, 2.04 0.07, 2.19 0.04 C2.34 0.01, 2.5 0, 2.65 0 C2.8 0, 2.96 0.01, 3.11 0.04 C3.26 0.07, 3.41 0.11, 3.56 0.16 C3.7 0.21, 3.84 0.27, 3.97 0.35 C4.11 0.42, 4.23 0.51, 4.35 0.61 C4.47 0.71, 4.58 0.81, 4.68 0.93 C4.78 1.04, 4.87 1.17, 4.94 1.3 C5.02 1.43, 5.09 1.57, 5.14 1.71 C5.19 1.85, 5.23 2, 5.26 2.15 C5.28 2.3, 5.29 2.53, 5.3 2.6 C5.3 2.68, 5.3 2.53, 5.3 2.6" stroke="#e03131" stroke-width="1" fill="none"></path></g><g transform="translate(81.00357088276655 183.19579470563053) rotate(0 13.103988647460938 10)"><text x="0" y="0" font-family="HanziPen SC, HanziPen Remote, Virgil, KaiTi, Segoe UI Emoji" font-size="16px" fill="#1e1e1e" text-anchor="start" style="white-space: pre;" direction="ltr" dominant-baseline="text-before-edge">......</text></g><g transform="translate(232.64076998004202 183.75287724103532) rotate(0 13.103988647460938 10)"><text x="0" y="0" font-family="HanziPen SC, HanziPen Remote, Virgil, KaiTi, Segoe UI Emoji" font-size="16px" fill="#1e1e1e" text-anchor="start" style="white-space: pre;" direction="ltr" dominant-baseline="text-before-edge">......</text></g><g stroke-linecap="round" transform="translate(215.0386293530346 216.06007606890512) rotate(0 33 15)"><path d="M0 0 C21.61 0, 43.21 0, 66 0 M0 0 C22.87 0, 45.74 0, 66 0 M66 0 C66 6.04, 66 12.07, 66 30 M66 0 C66 11.68, 66 23.37, 66 30 M66 30 C47.97 30, 29.93 30, 0 30 M66 30 C46.26 30, 26.52 30, 0 30 M0 30 C0 22, 0 14.01, 0 0 M0 30 C0 21.66, 0 13.32, 0 0" stroke="#1e1e1e" stroke-width="1" fill="none"></path></g><g transform="translate(222.73466664551506 221.06007606890512) rotate(0 25.30396270751953 10)"><text x="25.30396270751953" y="0" font-family="HanziPen SC, HanziPen Remote, Virgil, KaiTi, Segoe UI Emoji" font-size="16px" fill="#1e1e1e" text-anchor="middle" style="white-space: pre;" direction="ltr" dominant-baseline="text-before-edge">15.875</text></g><g stroke-linecap="round" transform="translate(10.521379372328738 216.94715845802625) rotate(0 12 15)"><path d="M0 0 C9.18 0, 18.36 0, 24 0 M0 0 C7.03 0, 14.07 0, 24 0 M24 0 C24 6.64, 24 13.29, 24 30 M24 0 C24 7.06, 24 14.12, 24 30 M24 30 C17.19 30, 10.39 30, 0 30 M24 30 C16.83 30, 9.65 30, 0 30 M0 30 C0 19.27, 0 8.54, 0 0 M0 30 C0 18.88, 0 7.76, 0 0" stroke="#1e1e1e" stroke-width="1" fill="none"></path></g><g transform="translate(17.897386452406863 221.94715845802625) rotate(0 4.623992919921875 10)"><text x="4.623992919921875" y="0" font-family="HanziPen SC, HanziPen Remote, Virgil, KaiTi, Segoe UI Emoji" font-size="16px" fill="#1e1e1e" text-anchor="middle" style="white-space: pre;" direction="ltr" dominant-baseline="text-before-edge">1</text></g><g stroke-linecap="round" transform="translate(34.427841759151306 216.94189745910626) rotate(0 12 15)"><path d="M0 0 C6.52 0, 13.04 0, 24 0 M0 0 C8.92 0, 17.84 0, 24 0 M24 0 C24 8.76, 24 17.51, 24 30 M24 0 C24 6.76, 24 13.52, 24 30 M24 30 C17.9 30, 11.8 30, 0 30 M24 30 C17.74 30, 11.47 30, 0 30 M0 30 C0 23.62, 0 17.23, 0 0 M0 30 C0 22.5, 0 15, 0 0" stroke="#1e1e1e" stroke-width="1" fill="none"></path></g><g transform="translate(41.80384883922943 221.94189745910626) rotate(0 4.623992919921875 10)"><text x="4.623992919921875" y="0" font-family="HanziPen SC, HanziPen Remote, Virgil, KaiTi, Segoe UI Emoji" font-size="16px" fill="#1e1e1e" text-anchor="middle" style="white-space: pre;" direction="ltr" dominant-baseline="text-before-edge">1</text></g><g stroke-linecap="round" transform="translate(58.48726685379597 216.9621835944463) rotate(0 12 15)"><path d="M0 0 C9.26 0, 18.53 0, 24 0 M0 0 C6.24 0, 12.48 0, 24 0 M24 0 C24 10.98, 24 21.96, 24 30 M24 0 C24 8.23, 24 16.46, 24 30 M24 30 C16.78 30, 9.56 30, 0 30 M24 30 C15.89 30, 7.78 30, 0 30 M0 30 C0 20.69, 0 11.38, 0 0 M0 30 C0 20.81, 0 11.63, 0 0" stroke="#1e1e1e" stroke-width="1" fill="none"></path></g><g transform="translate(65.8632739338741 221.9621835944463) rotate(0 4.623992919921875 10)"><text x="4.623992919921875" y="0" font-family="HanziPen SC, HanziPen Remote, Virgil, KaiTi, Segoe UI Emoji" font-size="16px" fill="#1e1e1e" text-anchor="middle" style="white-space: pre;" direction="ltr" dominant-baseline="text-before-edge">1</text></g><g stroke-linecap="round" transform="translate(82.49381668084334 216.91432690446186) rotate(0 12 15)"><path d="M0 0 C6.99 0, 13.98 0, 24 0 M0 0 C6.27 0, 12.53 0, 24 0 M24 0 C24 11.18, 24 22.35, 24 30 M24 0 C24 9.69, 24 19.38, 24 30 M24 30 C16.45 30, 8.89 30, 0 30 M24 30 C16.62 30, 9.24 30, 0 30 M0 30 C0 20.89, 0 11.77, 0 0 M0 30 C0 19.37, 0 8.73, 0 0" stroke="#1e1e1e" stroke-width="1" fill="none"></path></g><g transform="translate(89.86982376092146 221.91432690446186) rotate(0 4.623992919921875 10)"><text x="4.623992919921875" y="0" font-family="HanziPen SC, HanziPen Remote, Virgil, KaiTi, Segoe UI Emoji" font-size="16px" fill="#1e1e1e" text-anchor="middle" style="white-space: pre;" direction="ltr" dominant-baseline="text-before-edge">1</text></g><g stroke-linecap="round" transform="translate(106.85257389964477 217.10845328950234) rotate(0 12 15)"><path d="M0 0 C7.89 0, 15.77 0, 24 0 M0 0 C7.26 0, 14.51 0, 24 0 M24 0 C24 6.44, 24 12.89, 24 30 M24 0 C24 10.09, 24 20.18, 24 30 M24 30 C15.31 30, 6.62 30, 0 30 M24 30 C15.06 30, 6.13 30, 0 30 M0 30 C0 23.35, 0 16.7, 0 0 M0 30 C0 22.95, 0 15.9, 0 0" stroke="#1e1e1e" stroke-width="1" fill="none"></path></g><g transform="translate(114.22858097972289 222.10845328950234) rotate(0 4.623992919921875 10)"><text x="4.623992919921875" y="0" font-family="HanziPen SC, HanziPen Remote, Virgil, KaiTi, Segoe UI Emoji" font-size="16px" fill="#1e1e1e" text-anchor="middle" style="white-space: pre;" direction="ltr" dominant-baseline="text-before-edge">1</text></g><g stroke-linecap="round" transform="translate(130.75903628646734 217.10319229058234) rotate(0 12 15)"><path d="M0 0 C5.14 0, 10.28 0, 24 0 M0 0 C8.08 0, 16.16 0, 24 0 M24 0 C24 11.14, 24 22.28, 24 30 M24 0 C24 9.14, 24 18.27, 24 30 M24 30 C17.2 30, 10.39 30, 0 30 M24 30 C15.35 30, 6.7 30, 0 30 M0 30 C0 21.97, 0 13.95, 0 0 M0 30 C0 23.61, 0 17.22, 0 0" stroke="#1e1e1e" stroke-width="1" fill="none"></path></g><g transform="translate(138.13504336654546 222.10319229058234) rotate(0 4.623992919921875 10)"><text x="4.623992919921875" y="0" font-family="HanziPen SC, HanziPen Remote, Virgil, KaiTi, Segoe UI Emoji" font-size="16px" fill="#1e1e1e" text-anchor="middle" style="white-space: pre;" direction="ltr" dominant-baseline="text-before-edge">1</text></g><g stroke-linecap="round" transform="translate(154.818461381112 217.12347842592237) rotate(0 12 15)"><path d="M0 0 C5.73 0, 11.45 0, 24 0 M0 0 C8.2 0, 16.4 0, 24 0 M24 0 C24 8.87, 24 17.74, 24 30 M24 0 C24 7.29, 24 14.57, 24 30 M24 30 C16.91 30, 9.83 30, 0 30 M24 30 C16.22 30, 8.44 30, 0 30 M0 30 C0 23.4, 0 16.81, 0 0 M0 30 C0 18.64, 0 7.28, 0 0" stroke="#1e1e1e" stroke-width="1" fill="none"></path></g><g transform="translate(162.19446846119013 222.12347842592237) rotate(0 4.623992919921875 10)"><text x="4.623992919921875" y="0" font-family="HanziPen SC, HanziPen Remote, Virgil, KaiTi, Segoe UI Emoji" font-size="16px" fill="#1e1e1e" text-anchor="middle" style="white-space: pre;" direction="ltr" dominant-baseline="text-before-edge">1</text></g><g stroke-linecap="round" transform="translate(104.08071836850627 240.53279618838963) rotate(0 2.64913313201248 2.6014324419246577)"><path d="M5.3 2.6 C5.3 2.75, 5.28 2.9, 5.26 3.05 C5.23 3.2, 5.19 3.35, 5.14 3.49 C5.09 3.63, 5.02 3.77, 4.94 3.9 C4.87 4.03, 4.78 4.16, 4.68 4.27 C4.58 4.39, 4.47 4.5, 4.35 4.59 C4.23 4.69, 4.11 4.78, 3.97 4.85 C3.84 4.93, 3.7 4.99, 3.56 5.05 C3.41 5.1, 3.26 5.14, 3.11 5.16 C2.96 5.19, 2.8 5.2, 2.65 5.2 C2.5 5.2, 2.34 5.19, 2.19 5.16 C2.04 5.14, 1.89 5.1, 1.74 5.05 C1.6 4.99, 1.46 4.93, 1.32 4.85 C1.19 4.78, 1.06 4.69, 0.95 4.59 C0.83 4.5, 0.72 4.39, 0.62 4.27 C0.52 4.16, 0.43 4.03, 0.35 3.9 C0.28 3.77, 0.21 3.63, 0.16 3.49 C0.11 3.35, 0.07 3.2, 0.04 3.05 C0.01 2.9, 0 2.75, 0 2.6 C0 2.45, 0.01 2.3, 0.04 2.15 C0.07 2, 0.11 1.85, 0.16 1.71 C0.21 1.57, 0.28 1.43, 0.35 1.3 C0.43 1.17, 0.52 1.04, 0.62 0.93 C0.72 0.81, 0.83 0.71, 0.95 0.61 C1.06 0.51, 1.19 0.42, 1.32 0.35 C1.46 0.27, 1.6 0.21, 1.74 0.16 C1.89 0.11, 2.04 0.07, 2.19 0.04 C2.34 0.01, 2.5 0, 2.65 0 C2.8 0, 2.96 0.01, 3.11 0.04 C3.26 0.07, 3.41 0.11, 3.56 0.16 C3.7 0.21, 3.84 0.27, 3.97 0.35 C4.11 0.42, 4.23 0.51, 4.35 0.61 C4.47 0.71, 4.58 0.81, 4.68 0.93 C4.78 1.04, 4.87 1.17, 4.94 1.3 C5.02 1.43, 5.09 1.57, 5.14 1.71 C5.19 1.85, 5.23 2, 5.26 2.15 C5.28 2.3, 5.29 2.53, 5.3 2.6 C5.3 2.68, 5.3 2.53, 5.3 2.6" stroke="none" stroke-width="0" fill="#ffc9c9"></path><path d="M5.3 2.6 C5.3 2.75, 5.28 2.9, 5.26 3.05 C5.23 3.2, 5.19 3.35, 5.14 3.49 C5.09 3.63, 5.02 3.77, 4.94 3.9 C4.87 4.03, 4.78 4.16, 4.68 4.27 C4.58 4.39, 4.47 4.5, 4.35 4.59 C4.23 4.69, 4.11 4.78, 3.97 4.85 C3.84 4.93, 3.7 4.99, 3.56 5.05 C3.41 5.1, 3.26 5.14, 3.11 5.16 C2.96 5.19, 2.8 5.2, 2.65 5.2 C2.5 5.2, 2.34 5.19, 2.19 5.16 C2.04 5.14, 1.89 5.1, 1.74 5.05 C1.6 4.99, 1.46 4.93, 1.32 4.85 C1.19 4.78, 1.06 4.69, 0.95 4.59 C0.83 4.5, 0.72 4.39, 0.62 4.27 C0.52 4.16, 0.43 4.03, 0.35 3.9 C0.28 3.77, 0.21 3.63, 0.16 3.49 C0.11 3.35, 0.07 3.2, 0.04 3.05 C0.01 2.9, 0 2.75, 0 2.6 C0 2.45, 0.01 2.3, 0.04 2.15 C0.07 2, 0.11 1.85, 0.16 1.71 C0.21 1.57, 0.28 1.43, 0.35 1.3 C0.43 1.17, 0.52 1.04, 0.62 0.93 C0.72 0.81, 0.83 0.71, 0.95 0.61 C1.06 0.51, 1.19 0.42, 1.32 0.35 C1.46 0.27, 1.6 0.21, 1.74 0.16 C1.89 0.11, 2.04 0.07, 2.19 0.04 C2.34 0.01, 2.5 0, 2.65 0 C2.8 0, 2.96 0.01, 3.11 0.04 C3.26 0.07, 3.41 0.11, 3.56 0.16 C3.7 0.21, 3.84 0.27, 3.97 0.35 C4.11 0.42, 4.23 0.51, 4.35 0.61 C4.47 0.71, 4.58 0.81, 4.68 0.93 C4.78 1.04, 4.87 1.17, 4.94 1.3 C5.02 1.43, 5.09 1.57, 5.14 1.71 C5.19 1.85, 5.23 2, 5.26 2.15 C5.28 2.3, 5.29 2.53, 5.3 2.6 C5.3 2.68, 5.3 2.53, 5.3 2.6" stroke="#e03131" stroke-width="1" fill="none"></path></g></svg>