<svg version="1.1" xmlns="http://www.w3.org/2000/svg" viewBox="0 0 291.2484509278827 257.12347842592237" width="291.2484509278827" height="257.12347842592237" filter="invert(93%) hue-rotate(180deg)">
  <!-- svg-source:excalidraw -->
  
  <defs>
    <style class="style-fonts">
      @font-face {
        font-family: "Virgil";
        src: url("/woff2/Virgil.woff2");
      }
      @font-face {
        font-family: "Cascadia";
        src: url("/woff2/Cascadia.woff2");
      }
    </style>
    
  </defs>
  <g stroke-linecap="round" transform="translate(213.86125843720697 38.3066402972313) rotate(0 33.5 15)"><path d="M0 0 C16.03 0, 32.06 0, 67 0 M0 0 C16.77 0, 33.55 0, 67 0 M67 0 C67 6.65, 67 13.3, 67 30 M67 0 C67 10.59, 67 21.18, 67 30 M67 30 C45.15 30, 23.29 30, 0 30 M67 30 C52 30, 37.01 30, 0 30 M0 30 C0 22.1, 0 14.2, 0 0 M0 30 C0 22.83, 0 15.65, 0 0" stroke="#1e1e1e" stroke-width="1" fill="none"></path></g><g transform="translate(235.92927448945306 43.3066402972313) rotate(0 11.431983947753906 10)"><text x="11.431983947753906" y="0" font-family="HanziPen SC, HanziPen Remote, Virgil, KaiTi, Segoe UI Emoji" font-size="16px" fill="#1e1e1e" text-anchor="middle" style="white-space: pre;" direction="ltr" dominant-baseline="text-before-edge">0.0</text></g><g stroke-linecap="round" transform="translate(10.078434334112217 39.04216854782493) rotate(0 12 15)"><path d="M0 0 C8.09 0, 16.19 0, 24 0 M0 0 C7.01 0, 14.02 0, 24 0 M24 0 C24 10.8, 24 21.59, 24 30 M24 0 C24 6.99, 24 13.98, 24 30 M24 30 C17.85 30, 11.7 30, 0 30 M24 30 C14.74 30, 5.48 30, 0 30 M0 30 C0 20.37, 0 10.75, 0 0 M0 30 C0 18.22, 0 6.44, 0 0" stroke="#1e1e1e" stroke-width="1" fill="none"></path></g><g transform="translate(17.45444141419034 44.04216854782493) rotate(0 4.623992919921875 10)"><text x="4.623992919921875" y="0" font-family="HanziPen SC, HanziPen Remote, Virgil, KaiTi, Segoe UI Emoji" font-size="16px" fill="#1e1e1e" text-anchor="middle" style="white-space: pre;" direction="ltr" dominant-baseline="text-before-edge">0</text></g><g stroke-linecap="round" transform="translate(33.984896720934785 39.036907548904935) rotate(0 12 15)"><path d="M0 0 C7.43 0, 14.86 0, 24 0 M0 0 C5.42 0, 10.84 0, 24 0 M24 0 C24 7.97, 24 15.94, 24 30 M24 0 C24 10.01, 24 20.03, 24 30 M24 30 C17.92 30, 11.85 30, 0 30 M24 30 C14.61 30, 5.22 30, 0 30 M0 30 C0 19.46, 0 8.93, 0 0 M0 30 C0 20.82, 0 11.64, 0 0" stroke="#1e1e1e" stroke-width="1" fill="none"></path></g><g transform="translate(41.36090380101291 44.036907548904935) rotate(0 4.623992919921875 10)"><text x="4.623992919921875" y="0" font-family="HanziPen SC, HanziPen Remote, Virgil, KaiTi, Segoe UI Emoji" font-size="16px" fill="#1e1e1e" text-anchor="middle" style="white-space: pre;" direction="ltr" dominant-baseline="text-before-edge">0</text></g><g stroke-linecap="round" transform="translate(58.04432181557945 39.057193684244965) rotate(0 12 15)"><path d="M0 0 C7.72 0, 15.44 0, 24 0 M0 0 C7.63 0, 15.27 0, 24 0 M24 0 C24 10.26, 24 20.52, 24 30 M24 0 C24 8.52, 24 17.05, 24 30 M24 30 C15.42 30, 6.84 30, 0 30 M24 30 C18.45 30, 12.9 30, 0 30 M0 30 C0 23.04, 0 16.08, 0 0 M0 30 C0 20.03, 0 10.06, 0 0" stroke="#1e1e1e" stroke-width="1" fill="none"></path></g><g transform="translate(65.42032889565758 44.057193684244965) rotate(0 4.623992919921875 10)"><text x="4.623992919921875" y="0" font-family="HanziPen SC, HanziPen Remote, Virgil, KaiTi, Segoe UI Emoji" font-size="16px" fill="#1e1e1e" text-anchor="middle" style="white-space: pre;" direction="ltr" dominant-baseline="text-before-edge">0</text></g><g stroke-linecap="round" transform="translate(82.05087164262659 39.009336994260536) rotate(0 12 15)"><path d="M0 0 C8.73 0, 17.46 0, 24 0 M0 0 C5.03 0, 10.05 0, 24 0 M24 0 C24 6.49, 24 12.98, 24 30 M24 0 C24 8.62, 24 17.25, 24 30 M24 30 C18.37 30, 12.75 30, 0 30 M24 30 C17.48 30, 10.97 30, 0 30 M0 30 C0 22.02, 0 14.05, 0 0 M0 30 C0 23.99, 0 17.98, 0 0" stroke="#1e1e1e" stroke-width="1" fill="none"></path></g><g transform="translate(89.42687872270471 44.009336994260536) rotate(0 4.623992919921875 10)"><text x="4.623992919921875" y="0" font-family="HanziPen SC, HanziPen Remote, Virgil, KaiTi, Segoe UI Emoji" font-size="16px" fill="#1e1e1e" text-anchor="middle" style="white-space: pre;" direction="ltr" dominant-baseline="text-before-edge">0</text></g><g stroke-linecap="round" transform="translate(214.19021138123207 75.68000042685296) rotate(0 33.5 15)"><path d="M0 0 C16.82 0, 33.64 0, 67 0 M0 0 C21.18 0, 42.36 0, 67 0 M67 0 C67 10.25, 67 20.49, 67 30 M67 0 C67 9.67, 67 19.33, 67 30 M67 30 C41.94 30, 16.89 30, 0 30 M67 30 C50.03 30, 33.06 30, 0 30 M0 30 C0 18.58, 0 7.16, 0 0 M0 30 C0 23.59, 0 17.18, 0 0" stroke="#1e1e1e" stroke-width="1" fill="none"></path></g><g transform="translate(227.01024159363442 80.68000042685296) rotate(0 20.679969787597656 10)"><text x="20.679969787597656" y="0" font-family="HanziPen SC, HanziPen Remote, Virgil, KaiTi, Segoe UI Emoji" font-size="16px" fill="#1e1e1e" text-anchor="middle" style="white-space: pre;" direction="ltr" dominant-baseline="text-before-edge">1.125</text></g><g stroke-linecap="round" transform="translate(10 76.0387222001088) rotate(0 12 15)"><path d="M0 0 C5.37 0, 10.74 0, 24 0 M0 0 C5.5 0, 11 0, 24 0 M24 0 C24 11.86, 24 23.72, 24 30 M24 0 C24 10.26, 24 20.52, 24 30 M24 30 C17 30, 10.01 30, 0 30 M24 30 C16.98 30, 9.96 30, 0 30 M0 30 C0 20.12, 0 10.25, 0 0 M0 30 C0 22.49, 0 14.97, 0 0" stroke="#1e1e1e" stroke-width="1" fill="none"></path></g><g transform="translate(17.376007080078125 81.0387222001088) rotate(0 4.623992919921875 10)"><text x="4.623992919921875" y="0" font-family="HanziPen SC, HanziPen Remote, Virgil, KaiTi, Segoe UI Emoji" font-size="16px" fill="#1e1e1e" text-anchor="middle" style="white-space: pre;" direction="ltr" dominant-baseline="text-before-edge">0</text></g><g stroke-linecap="round" transform="translate(33.90646238682257 76.0334612011888) rotate(0 12 15)"><path d="M0 0 C8.33 0, 16.65 0, 24 0 M0 0 C7.54 0, 15.09 0, 24 0 M24 0 C24 8.41, 24 16.82, 24 30 M24 0 C24 8.26, 24 16.52, 24 30 M24 30 C16.14 30, 8.29 30, 0 30 M24 30 C17.28 30, 10.55 30, 0 30 M0 30 C0 21.33, 0 12.65, 0 0 M0 30 C0 19.06, 0 8.13, 0 0" stroke="#1e1e1e" stroke-width="1" fill="none"></path></g><g transform="translate(41.28246946690069 81.0334612011888) rotate(0 4.623992919921875 10)"><text x="4.623992919921875" y="0" font-family="HanziPen SC, HanziPen Remote, Virgil, KaiTi, Segoe UI Emoji" font-size="16px" fill="#1e1e1e" text-anchor="middle" style="white-space: pre;" direction="ltr" dominant-baseline="text-before-edge">0</text></g><g stroke-linecap="round" transform="translate(57.965887481467234 76.05374733652877) rotate(0 12 15)"><path d="M0 0 C7.47 0, 14.93 0, 24 0 M0 0 C7.51 0, 15.02 0, 24 0 M24 0 C24 9.73, 24 19.46, 24 30 M24 0 C24 6.77, 24 13.54, 24 30 M24 30 C18.08 30, 12.16 30, 0 30 M24 30 C17.22 30, 10.45 30, 0 30 M0 30 C0 22.11, 0 14.21, 0 0 M0 30 C0 18.47, 0 6.94, 0 0" stroke="#1e1e1e" stroke-width="1" fill="none"></path></g><g transform="translate(65.34189456154536 81.05374733652877) rotate(0 4.623992919921875 10)"><text x="4.623992919921875" y="0" font-family="HanziPen SC, HanziPen Remote, Virgil, KaiTi, Segoe UI Emoji" font-size="16px" fill="#1e1e1e" text-anchor="middle" style="white-space: pre;" direction="ltr" dominant-baseline="text-before-edge">0</text></g><g stroke-linecap="round" transform="translate(81.97243730851415 76.00589064654446) rotate(0 12 15)"><path d="M0 0 C5.55 0, 11.11 0, 24 0 M0 0 C8.18 0, 16.36 0, 24 0 M24 0 C24 8.41, 24 16.82, 24 30 M24 0 C24 8.15, 24 16.3, 24 30 M24 30 C18.25 30, 12.5 30, 0 30 M24 30 C15.84 30, 7.68 30, 0 30 M0 30 C0 21.63, 0 13.26, 0 0 M0 30 C0 20.6, 0 11.21, 0 0" stroke="#1e1e1e" stroke-width="1" fill="none"></path></g><g transform="translate(89.34844438859227 81.00589064654446) rotate(0 4.623992919921875 10)"><text x="4.623992919921875" y="0" font-family="HanziPen SC, HanziPen Remote, Virgil, KaiTi, Segoe UI Emoji" font-size="16px" fill="#1e1e1e" text-anchor="middle" style="white-space: pre;" direction="ltr" dominant-baseline="text-before-edge">1</text></g><g stroke-linecap="round" transform="translate(214.2484509278827 111.5875031527267) rotate(0 33.5 15)"><path d="M0 0 C16.61 0, 33.23 0, 67 0 M0 0 C19.37 0, 38.75 0, 67 0 M67 0 C67 9.77, 67 19.54, 67 30 M67 0 C67 8, 67 15.99, 67 30 M67 30 C45.47 30, 23.93 30, 0 30 M67 30 C48.96 30, 30.91 30, 0 30 M0 30 C0 18.32, 0 6.64, 0 0 M0 30 C0 20.1, 0 10.2, 0 0" stroke="#1e1e1e" stroke-width="1" fill="none"></path></g><g transform="translate(231.6924740602069 116.5875031527267) rotate(0 16.05597686767578 10)"><text x="16.05597686767578" y="0" font-family="HanziPen SC, HanziPen Remote, Virgil, KaiTi, Segoe UI Emoji" font-size="16px" fill="#1e1e1e" text-anchor="middle" style="white-space: pre;" direction="ltr" dominant-baseline="text-before-edge">2.25</text></g><g stroke-linecap="round" transform="translate(10.030356292888655 111.60226767952207) rotate(0 12 15)"><path d="M0 0 C7.83 0, 15.66 0, 24 0 M0 0 C5.37 0, 10.74 0, 24 0 M24 0 C24 7.9, 24 15.8, 24 30 M24 0 C24 7.17, 24 14.35, 24 30 M24 30 C16.02 30, 8.04 30, 0 30 M24 30 C17.73 30, 11.47 30, 0 30 M0 30 C0 21.84, 0 13.67, 0 0 M0 30 C0 18.36, 0 6.72, 0 0" stroke="#1e1e1e" stroke-width="1" fill="none"></path></g><g transform="translate(17.40636337296678 116.60226767952207) rotate(0 4.623992919921875 10)"><text x="4.623992919921875" y="0" font-family="HanziPen SC, HanziPen Remote, Virgil, KaiTi, Segoe UI Emoji" font-size="16px" fill="#1e1e1e" text-anchor="middle" style="white-space: pre;" direction="ltr" dominant-baseline="text-before-edge">0</text></g><g stroke-linecap="round" transform="translate(33.93681867971122 111.59700668060208) rotate(0 12 15)"><path d="M0 0 C6.15 0, 12.3 0, 24 0 M0 0 C9.26 0, 18.52 0, 24 0 M24 0 C24 9.63, 24 19.25, 24 30 M24 0 C24 11.78, 24 23.56, 24 30 M24 30 C15.89 30, 7.78 30, 0 30 M24 30 C17.25 30, 10.49 30, 0 30 M0 30 C0 23.1, 0 16.2, 0 0 M0 30 C0 23.53, 0 17.06, 0 0" stroke="#1e1e1e" stroke-width="1" fill="none"></path></g><g transform="translate(41.31282575978935 116.59700668060208) rotate(0 4.623992919921875 10)"><text x="4.623992919921875" y="0" font-family="HanziPen SC, HanziPen Remote, Virgil, KaiTi, Segoe UI Emoji" font-size="16px" fill="#1e1e1e" text-anchor="middle" style="white-space: pre;" direction="ltr" dominant-baseline="text-before-edge">0</text></g><g stroke-linecap="round" transform="translate(57.99624377435589 111.61729281594205) rotate(0 12 15)"><path d="M0 0 C6.08 0, 12.15 0, 24 0 M0 0 C9.39 0, 18.78 0, 24 0 M24 0 C24 10.54, 24 21.07, 24 30 M24 0 C24 9.18, 24 18.36, 24 30 M24 30 C18.53 30, 13.06 30, 0 30 M24 30 C17.49 30, 10.98 30, 0 30 M0 30 C0 18.28, 0 6.57, 0 0 M0 30 C0 20.5, 0 11, 0 0" stroke="#1e1e1e" stroke-width="1" fill="none"></path></g><g transform="translate(65.37225085443401 116.61729281594205) rotate(0 4.623992919921875 10)"><text x="4.623992919921875" y="0" font-family="HanziPen SC, HanziPen Remote, Virgil, KaiTi, Segoe UI Emoji" font-size="16px" fill="#1e1e1e" text-anchor="middle" style="white-space: pre;" direction="ltr" dominant-baseline="text-before-edge">1</text></g><g stroke-linecap="round" transform="translate(82.0027936014028 111.56943612595774) rotate(0 12 15)"><path d="M0 0 C8.58 0, 17.16 0, 24 0 M0 0 C5.55 0, 11.1 0, 24 0 M24 0 C24 6.96, 24 13.92, 24 30 M24 0 C24 9.97, 24 19.94, 24 30 M24 30 C16.37 30, 8.75 30, 0 30 M24 30 C15.68 30, 7.35 30, 0 30 M0 30 C0 20.8, 0 11.6, 0 0 M0 30 C0 18.91, 0 7.83, 0 0" stroke="#1e1e1e" stroke-width="1" fill="none"></path></g><g transform="translate(89.37880068148093 116.56943612595774) rotate(0 4.623992919921875 10)"><text x="4.623992919921875" y="0" font-family="HanziPen SC, HanziPen Remote, Virgil, KaiTi, Segoe UI Emoji" font-size="16px" fill="#1e1e1e" text-anchor="middle" style="white-space: pre;" direction="ltr" dominant-baseline="text-before-edge">0</text></g><g stroke-linecap="round" transform="translate(214.85528148339154 147.83469684581607) rotate(0 33 15)"><path d="M0 0 C15.47 0, 30.94 0, 66 0 M0 0 C17.92 0, 35.84 0, 66 0 M66 0 C66 7.98, 66 15.95, 66 30 M66 0 C66 6.01, 66 12.02, 66 30 M66 30 C43.05 30, 20.1 30, 0 30 M66 30 C39.67 30, 13.35 30, 0 30 M0 30 C0 19.32, 0 8.64, 0 0 M0 30 C0 23.17, 0 16.34, 0 0" stroke="#1e1e1e" stroke-width="1" fill="none"></path></g><g transform="translate(236.42329753563763 152.83469684581607) rotate(0 11.431983947753906 10)"><text x="11.431983947753906" y="0" font-family="HanziPen SC, HanziPen Remote, Virgil, KaiTi, Segoe UI Emoji" font-size="16px" fill="#1e1e1e" text-anchor="middle" style="white-space: pre;" direction="ltr" dominant-baseline="text-before-edge">2.5</text></g><g stroke-linecap="round" transform="translate(10.33803150268568 148.72177923493723) rotate(0 12 15)"><path d="M0 0 C8.98 0, 17.95 0, 24 0 M0 0 C6.08 0, 12.16 0, 24 0 M24 0 C24 11.42, 24 22.84, 24 30 M24 0 C24 6.41, 24 12.82, 24 30 M24 30 C17.21 30, 10.41 30, 0 30 M24 30 C16.95 30, 9.91 30, 0 30 M0 30 C0 19.76, 0 9.52, 0 0 M0 30 C0 20.41, 0 10.82, 0 0" stroke="#1e1e1e" stroke-width="1" fill="none"></path></g><g transform="translate(17.714038582763806 153.72177923493723) rotate(0 4.623992919921875 10)"><text x="4.623992919921875" y="0" font-family="HanziPen SC, HanziPen Remote, Virgil, KaiTi, Segoe UI Emoji" font-size="16px" fill="#1e1e1e" text-anchor="middle" style="white-space: pre;" direction="ltr" dominant-baseline="text-before-edge">0</text></g><g stroke-linecap="round" transform="translate(34.24449388950825 148.71651823601724) rotate(0 12 15)"><path d="M0 0 C7 0, 13.99 0, 24 0 M0 0 C7.02 0, 14.04 0, 24 0 M24 0 C24 9.88, 24 19.75, 24 30 M24 0 C24 7.51, 24 15.03, 24 30 M24 30 C16.47 30, 8.93 30, 0 30 M24 30 C17.47 30, 10.95 30, 0 30 M0 30 C0 21.28, 0 12.57, 0 0 M0 30 C0 22.53, 0 15.06, 0 0" stroke="#1e1e1e" stroke-width="1" fill="none"></path></g><g transform="translate(41.620500969586374 153.71651823601724) rotate(0 4.623992919921875 10)"><text x="4.623992919921875" y="0" font-family="HanziPen SC, HanziPen Remote, Virgil, KaiTi, Segoe UI Emoji" font-size="16px" fill="#1e1e1e" text-anchor="middle" style="white-space: pre;" direction="ltr" dominant-baseline="text-before-edge">0</text></g><g stroke-linecap="round" transform="translate(58.303918984152915 148.73680437135727) rotate(0 12 15)"><path d="M0 0 C7.86 0, 15.71 0, 24 0 M0 0 C6.72 0, 13.45 0, 24 0 M24 0 C24 8.67, 24 17.35, 24 30 M24 0 C24 10.94, 24 21.87, 24 30 M24 30 C17.87 30, 11.73 30, 0 30 M24 30 C15.6 30, 7.2 30, 0 30 M0 30 C0 22.32, 0 14.64, 0 0 M0 30 C0 18.17, 0 6.35, 0 0" stroke="#1e1e1e" stroke-width="1" fill="none"></path></g><g transform="translate(65.67992606423104 153.73680437135727) rotate(0 4.623992919921875 10)"><text x="4.623992919921875" y="0" font-family="HanziPen SC, HanziPen Remote, Virgil, KaiTi, Segoe UI Emoji" font-size="16px" fill="#1e1e1e" text-anchor="middle" style="white-space: pre;" direction="ltr" dominant-baseline="text-before-edge">1</text></g><g stroke-linecap="round" transform="translate(82.31046881120005 148.68894768137284) rotate(0 12 15)"><path d="M0 0 C5.92 0, 11.84 0, 24 0 M0 0 C6.78 0, 13.55 0, 24 0 M24 0 C24 7.89, 24 15.79, 24 30 M24 0 C24 11.53, 24 23.06, 24 30 M24 30 C15.64 30, 7.28 30, 0 30 M24 30 C16.35 30, 8.7 30, 0 30 M0 30 C0 20.53, 0 11.05, 0 0 M0 30 C0 20.74, 0 11.47, 0 0" stroke="#1e1e1e" stroke-width="1" fill="none"></path></g><g transform="translate(89.68647589127818 153.68894768137284) rotate(0 4.623992919921875 10)"><text x="4.623992919921875" y="0" font-family="HanziPen SC, HanziPen Remote, Virgil, KaiTi, Segoe UI Emoji" font-size="16px" fill="#1e1e1e" text-anchor="middle" style="white-space: pre;" direction="ltr" dominant-baseline="text-before-edge">0</text></g><g transform="translate(67.48286357741551 11.075311392231015) rotate(0 24.719993591308594 10)"><text x="0" y="0" font-family="HanziPen SC, HanziPen Remote, Virgil, KaiTi, Segoe UI Emoji" font-size="16px" fill="#1e1e1e" text-anchor="start" style="white-space: pre;" direction="ltr" dominant-baseline="text-before-edge">二进制</text></g><g transform="translate(222.97399652887134 10) rotate(0 24.719993591308594 10)"><text x="0" y="0" font-family="HanziPen SC, HanziPen Remote, Virgil, KaiTi, Segoe UI Emoji" font-size="16px" fill="#1e1e1e" text-anchor="start" style="white-space: pre;" direction="ltr" dominant-baseline="text-before-edge">十进制</text></g><g stroke-linecap="round" transform="translate(105.6934683412868 39.04463436097549) rotate(0 12 15)"><path d="M0 0 C7.71 0, 15.43 0, 24 0 M0 0 C6.46 0, 12.93 0, 24 0 M24 0 C24 11.68, 24 23.36, 24 30 M24 0 C24 9.9, 24 19.8, 24 30 M24 30 C17.45 30, 10.91 30, 0 30 M24 30 C15.19 30, 6.38 30, 0 30 M0 30 C0 19.38, 0 8.77, 0 0 M0 30 C0 19.95, 0 9.89, 0 0" stroke="#1e1e1e" stroke-width="1" fill="none"></path></g><g transform="translate(113.06947542136493 44.04463436097549) rotate(0 4.623992919921875 10)"><text x="4.623992919921875" y="0" font-family="HanziPen SC, HanziPen Remote, Virgil, KaiTi, Segoe UI Emoji" font-size="16px" fill="#1e1e1e" text-anchor="middle" style="white-space: pre;" direction="ltr" dominant-baseline="text-before-edge">0</text></g><g stroke-linecap="round" transform="translate(129.59993072810937 39.0393733620555) rotate(0 12 15)"><path d="M0 0 C7.98 0, 15.96 0, 24 0 M0 0 C6.27 0, 12.53 0, 24 0 M24 0 C24 8.16, 24 16.33, 24 30 M24 0 C24 11.64, 24 23.28, 24 30 M24 30 C16.56 30, 9.12 30, 0 30 M24 30 C16.71 30, 9.41 30, 0 30 M0 30 C0 23.62, 0 17.24, 0 0 M0 30 C0 23.13, 0 16.27, 0 0" stroke="#1e1e1e" stroke-width="1" fill="none"></path></g><g transform="translate(136.9759378081875 44.0393733620555) rotate(0 4.623992919921875 10)"><text x="4.623992919921875" y="0" font-family="HanziPen SC, HanziPen Remote, Virgil, KaiTi, Segoe UI Emoji" font-size="16px" fill="#1e1e1e" text-anchor="middle" style="white-space: pre;" direction="ltr" dominant-baseline="text-before-edge">0</text></g><g stroke-linecap="round" transform="translate(153.65935582275404 39.05965949739553) rotate(0 12 15)"><path d="M0 0 C8.11 0, 16.22 0, 24 0 M0 0 C6.75 0, 13.51 0, 24 0 M24 0 C24 6.9, 24 13.8, 24 30 M24 0 C24 6.47, 24 12.94, 24 30 M24 30 C16.58 30, 9.16 30, 0 30 M24 30 C18.11 30, 12.22 30, 0 30 M0 30 C0 20.2, 0 10.41, 0 0 M0 30 C0 22.32, 0 14.63, 0 0" stroke="#1e1e1e" stroke-width="1" fill="none"></path></g><g transform="translate(161.03536290283216 44.05965949739553) rotate(0 4.623992919921875 10)"><text x="4.623992919921875" y="0" font-family="HanziPen SC, HanziPen Remote, Virgil, KaiTi, Segoe UI Emoji" font-size="16px" fill="#1e1e1e" text-anchor="middle" style="white-space: pre;" direction="ltr" dominant-baseline="text-before-edge">0</text></g><g stroke-linecap="round" transform="translate(102.9216128101483 62.468977259862754) rotate(0 2.64913313201248 2.6014324419246577)"><path d="M5.3 2.6 C5.3 2.75, 5.28 2.9, 5.26 3.05 C5.23 3.2, 5.19 3.35, 5.14 3.49 C5.09 3.63, 5.02 3.77, 4.94 3.9 C4.87 4.03, 4.78 4.16, 4.68 4.27 C4.58 4.39, 4.47 4.5, 4.35 4.59 C4.23 4.69, 4.11 4.78, 3.97 4.85 C3.84 4.93, 3.7 4.99, 3.56 5.05 C3.41 5.1, 3.26 5.14, 3.11 5.16 C2.96 5.19, 2.8 5.2, 2.65 5.2 C2.5 5.2, 2.34 5.19, 2.19 5.16 C2.04 5.14, 1.89 5.1, 1.74 5.05 C1.6 4.99, 1.46 4.93, 1.32 4.85 C1.19 4.78, 1.06 4.69, 0.95 4.59 C0.83 4.5, 0.72 4.39, 0.62 4.27 C0.52 4.16, 0.43 4.03, 0.35 3.9 C0.28 3.77, 0.21 3.63, 0.16 3.49 C0.11 3.35, 0.07 3.2, 0.04 3.05 C0.01 2.9, 0 2.75, 0 2.6 C0 2.45, 0.01 2.3, 0.04 2.15 C0.07 2, 0.11 1.85, 0.16 1.71 C0.21 1.57, 0.28 1.43, 0.35 1.3 C0.43 1.17, 0.52 1.04, 0.62 0.93 C0.72 0.81, 0.83 0.71, 0.95 0.61 C1.06 0.51, 1.19 0.42, 1.32 0.35 C1.46 0.27, 1.6 0.21, 1.74 0.16 C1.89 0.11, 2.04 0.07, 2.19 0.04 C2.34 0.01, 2.5 0, 2.65 0 C2.8 0, 2.96 0.01, 3.11 0.04 C3.26 0.07, 3.41 0.11, 3.56 0.16 C3.7 0.21, 3.84 0.27, 3.97 0.35 C4.11 0.42, 4.23 0.51, 4.35 0.61 C4.47 0.71, 4.58 0.81, 4.68 0.93 C4.78 1.04, 4.87 1.17, 4.94 1.3 C5.02 1.43, 5.09 1.57, 5.14 1.71 C5.19 1.85, 5.23 2, 5.26 2.15 C5.28 2.3, 5.29 2.53, 5.3 2.6 C5.3 2.68, 5.3 2.53, 5.3 2.6" stroke="none" stroke-width="0" fill="#ffc9c9"></path><path d="M5.3 2.6 C5.3 2.75, 5.28 2.9, 5.26 3.05 C5.23 3.2, 5.19 3.35, 5.14 3.49 C5.09 3.63, 5.02 3.77, 4.94 3.9 C4.87 4.03, 4.78 4.16, 4.68 4.27 C4.58 4.39, 4.47 4.5, 4.35 4.59 C4.23 4.69, 4.11 4.78, 3.97 4.85 C3.84 4.93, 3.7 4.99, 3.56 5.05 C3.41 5.1, 3.26 5.14, 3.11 5.16 C2.96 5.19, 2.8 5.2, 2.65 5.2 C2.5 5.2, 2.34 5.19, 2.19 5.16 C2.04 5.14, 1.89 5.1, 1.74 5.05 C1.6 4.99, 1.46 4.93, 1.32 4.85 C1.19 4.78, 1.06 4.69, 0.95 4.59 C0.83 4.5, 0.72 4.39, 0.62 4.27 C0.52 4.16, 0.43 4.03, 0.35 3.9 C0.28 3.77, 0.21 3.63, 0.16 3.49 C0.11 3.35, 0.07 3.2, 0.04 3.05 C0.01 2.9, 0 2.75, 0 2.6 C0 2.45, 0.01 2.3, 0.04 2.15 C0.07 2, 0.11 1.85, 0.16 1.71 C0.21 1.57, 0.28 1.43, 0.35 1.3 C0.43 1.17, 0.52 1.04, 0.62 0.93 C0.72 0.81, 0.83 0.71, 0.95 0.61 C1.06 0.51, 1.19 0.42, 1.32 0.35 C1.46 0.27, 1.6 0.21, 1.74 0.16 C1.89 0.11, 2.04 0.07, 2.19 0.04 C2.34 0.01, 2.5 0, 2.65 0 C2.8 0, 2.96 0.01, 3.11 0.04 C3.26 0.07, 3.41 0.11, 3.56 0.16 C3.7 0.21, 3.84 0.27, 3.97 0.35 C4.11 0.42, 4.23 0.51, 4.35 0.61 C4.47 0.71, 4.58 0.81, 4.68 0.93 C4.78 1.04, 4.87 1.17, 4.94 1.3 C5.02 1.43, 5.09 1.57, 5.14 1.71 C5.19 1.85, 5.23 2, 5.26 2.15 C5.28 2.3, 5.29 2.53, 5.3 2.6 C5.3 2.68, 5.3 2.53, 5.3 2.6" stroke="#e03131" stroke-width="1" fill="none"></path></g><g stroke-linecap="round" transform="translate(105.62705761159953 75.90005217825762) rotate(0 12 15)"><path d="M0 0 C6.31 0, 12.63 0, 24 0 M0 0 C9.22 0, 18.44 0, 24 0 M24 0 C24 10.45, 24 20.9, 24 30 M24 0 C24 9.56, 24 19.12, 24 30 M24 30 C16.42 30, 8.84 30, 0 30 M24 30 C16.59 30, 9.18 30, 0 30 M0 30 C0 21.95, 0 13.91, 0 0 M0 30 C0 19.09, 0 8.18, 0 0" stroke="#1e1e1e" stroke-width="1" fill="none"></path></g><g transform="translate(113.00306469167765 80.90005217825762) rotate(0 4.623992919921875 10)"><text x="4.623992919921875" y="0" font-family="HanziPen SC, HanziPen Remote, Virgil, KaiTi, Segoe UI Emoji" font-size="16px" fill="#1e1e1e" text-anchor="middle" style="white-space: pre;" direction="ltr" dominant-baseline="text-before-edge">0</text></g><g stroke-linecap="round" transform="translate(129.5335199984221 75.89479117933763) rotate(0 12 15)"><path d="M0 0 C6.69 0, 13.39 0, 24 0 M0 0 C7.52 0, 15.04 0, 24 0 M24 0 C24 7.72, 24 15.44, 24 30 M24 0 C24 10.32, 24 20.64, 24 30 M24 30 C15.06 30, 6.12 30, 0 30 M24 30 C16.29 30, 8.58 30, 0 30 M0 30 C0 23.65, 0 17.31, 0 0 M0 30 C0 23.41, 0 16.83, 0 0" stroke="#1e1e1e" stroke-width="1" fill="none"></path></g><g transform="translate(136.90952707850022 80.89479117933763) rotate(0 4.623992919921875 10)"><text x="4.623992919921875" y="0" font-family="HanziPen SC, HanziPen Remote, Virgil, KaiTi, Segoe UI Emoji" font-size="16px" fill="#1e1e1e" text-anchor="middle" style="white-space: pre;" direction="ltr" dominant-baseline="text-before-edge">0</text></g><g stroke-linecap="round" transform="translate(153.59294509306676 75.91507731467766) rotate(0 12 15)"><path d="M0 0 C9.34 0, 18.69 0, 24 0 M0 0 C7.92 0, 15.84 0, 24 0 M24 0 C24 8.18, 24 16.37, 24 30 M24 0 C24 11.01, 24 22.03, 24 30 M24 30 C15.51 30, 7.01 30, 0 30 M24 30 C15.96 30, 7.92 30, 0 30 M0 30 C0 20.88, 0 11.76, 0 0 M0 30 C0 18.77, 0 7.54, 0 0" stroke="#1e1e1e" stroke-width="1" fill="none"></path></g><g transform="translate(160.96895217314488 80.91507731467766) rotate(0 4.623992919921875 10)"><text x="4.623992919921875" y="0" font-family="HanziPen SC, HanziPen Remote, Virgil, KaiTi, Segoe UI Emoji" font-size="16px" fill="#1e1e1e" text-anchor="middle" style="white-space: pre;" direction="ltr" dominant-baseline="text-before-edge">1</text></g><g stroke-linecap="round" transform="translate(102.85520208046103 99.32439507714486) rotate(0 2.64913313201248 2.6014324419246577)"><path d="M5.3 2.6 C5.3 2.75, 5.28 2.9, 5.26 3.05 C5.23 3.2, 5.19 3.35, 5.14 3.49 C5.09 3.63, 5.02 3.77, 4.94 3.9 C4.87 4.03, 4.78 4.16, 4.68 4.27 C4.58 4.39, 4.47 4.5, 4.35 4.59 C4.23 4.69, 4.11 4.78, 3.97 4.85 C3.84 4.93, 3.7 4.99, 3.56 5.05 C3.41 5.1, 3.26 5.14, 3.11 5.16 C2.96 5.19, 2.8 5.2, 2.65 5.2 C2.5 5.2, 2.34 5.19, 2.19 5.16 C2.04 5.14, 1.89 5.1, 1.74 5.05 C1.6 4.99, 1.46 4.93, 1.32 4.85 C1.19 4.78, 1.06 4.69, 0.95 4.59 C0.83 4.5, 0.72 4.39, 0.62 4.27 C0.52 4.16, 0.43 4.03, 0.35 3.9 C0.28 3.77, 0.21 3.63, 0.16 3.49 C0.11 3.35, 0.07 3.2, 0.04 3.05 C0.01 2.9, 0 2.75, 0 2.6 C0 2.45, 0.01 2.3, 0.04 2.15 C0.07 2, 0.11 1.85, 0.16 1.71 C0.21 1.57, 0.28 1.43, 0.35 1.3 C0.43 1.17, 0.52 1.04, 0.62 0.93 C0.72 0.81, 0.83 0.71, 0.95 0.61 C1.06 0.51, 1.19 0.42, 1.32 0.35 C1.46 0.27, 1.6 0.21, 1.74 0.16 C1.89 0.11, 2.04 0.07, 2.19 0.04 C2.34 0.01, 2.5 0, 2.65 0 C2.8 0, 2.96 0.01, 3.11 0.04 C3.26 0.07, 3.41 0.11, 3.56 0.16 C3.7 0.21, 3.84 0.27, 3.97 0.35 C4.11 0.42, 4.23 0.51, 4.35 0.61 C4.47 0.71, 4.58 0.81, 4.68 0.93 C4.78 1.04, 4.87 1.17, 4.94 1.3 C5.02 1.43, 5.09 1.57, 5.14 1.71 C5.19 1.85, 5.23 2, 5.26 2.15 C5.28 2.3, 5.29 2.53, 5.3 2.6 C5.3 2.68, 5.3 2.53, 5.3 2.6" stroke="none" stroke-width="0" fill="#ffc9c9"></path><path d="M5.3 2.6 C5.3 2.75, 5.28 2.9, 5.26 3.05 C5.23 3.2, 5.19 3.35, 5.14 3.49 C5.09 3.63, 5.02 3.77, 4.94 3.9 C4.87 4.03, 4.78 4.16, 4.68 4.27 C4.58 4.39, 4.47 4.5, 4.35 4.59 C4.23 4.69, 4.11 4.78, 3.97 4.85 C3.84 4.93, 3.7 4.99, 3.56 5.05 C3.41 5.1, 3.26 5.14, 3.11 5.16 C2.96 5.19, 2.8 5.2, 2.65 5.2 C2.5 5.2, 2.34 5.19, 2.19 5.16 C2.04 5.14, 1.89 5.1, 1.74 5.05 C1.6 4.99, 1.46 4.93, 1.32 4.85 C1.19 4.78, 1.06 4.69, 0.95 4.59 C0.83 4.5, 0.72 4.39, 0.62 4.27 C0.52 4.16, 0.43 4.03, 0.35 3.9 C0.28 3.77, 0.21 3.63, 0.16 3.49 C0.11 3.35, 0.07 3.2, 0.04 3.05 C0.01 2.9, 0 2.75, 0 2.6 C0 2.45, 0.01 2.3, 0.04 2.15 C0.07 2, 0.11 1.85, 0.16 1.71 C0.21 1.57, 0.28 1.43, 0.35 1.3 C0.43 1.17, 0.52 1.04, 0.62 0.93 C0.72 0.81, 0.83 0.71, 0.95 0.61 C1.06 0.51, 1.19 0.42, 1.32 0.35 C1.46 0.27, 1.6 0.21, 1.74 0.16 C1.89 0.11, 2.04 0.07, 2.19 0.04 C2.34 0.01, 2.5 0, 2.65 0 C2.8 0, 2.96 0.01, 3.11 0.04 C3.26 0.07, 3.41 0.11, 3.56 0.16 C3.7 0.21, 3.84 0.27, 3.97 0.35 C4.11 0.42, 4.23 0.51, 4.35 0.61 C4.47 0.71, 4.58 0.81, 4.68 0.93 C4.78 1.04, 4.87 1.17, 4.94 1.3 C5.02 1.43, 5.09 1.57, 5.14 1.71 C5.19 1.85, 5.23 2, 5.26 2.15 C5.28 2.3, 5.29 2.53, 5.3 2.6 C5.3 2.68, 5.3 2.53, 5.3 2.6" stroke="#e03131" stroke-width="1" fill="none"></path></g><g stroke-linecap="round" transform="translate(105.74072172423678 111.54282571398792) rotate(0 12 15)"><path d="M0 0 C7.53 0, 15.07 0, 24 0 M0 0 C6.53 0, 13.05 0, 24 0 M24 0 C24 8.72, 24 17.43, 24 30 M24 0 C24 7.47, 24 14.94, 24 30 M24 30 C14.57 30, 5.15 30, 0 30 M24 30 C17.77 30, 11.55 30, 0 30 M0 30 C0 21.19, 0 12.38, 0 0 M0 30 C0 20.49, 0 10.98, 0 0" stroke="#1e1e1e" stroke-width="1" fill="none"></path></g><g transform="translate(113.1167288043149 116.54282571398792) rotate(0 4.623992919921875 10)"><text x="4.623992919921875" y="0" font-family="HanziPen SC, HanziPen Remote, Virgil, KaiTi, Segoe UI Emoji" font-size="16px" fill="#1e1e1e" text-anchor="middle" style="white-space: pre;" direction="ltr" dominant-baseline="text-before-edge">0</text></g><g stroke-linecap="round" transform="translate(129.64718411105935 111.53756471506793) rotate(0 12 15)"><path d="M0 0 C6.13 0, 12.27 0, 24 0 M0 0 C8.4 0, 16.8 0, 24 0 M24 0 C24 7.68, 24 15.36, 24 30 M24 0 C24 11.83, 24 23.65, 24 30 M24 30 C16.59 30, 9.18 30, 0 30 M24 30 C15.83 30, 7.65 30, 0 30 M0 30 C0 21.88, 0 13.76, 0 0 M0 30 C0 21.94, 0 13.88, 0 0" stroke="#1e1e1e" stroke-width="1" fill="none"></path></g><g transform="translate(137.02319119113747 116.53756471506793) rotate(0 4.623992919921875 10)"><text x="4.623992919921875" y="0" font-family="HanziPen SC, HanziPen Remote, Virgil, KaiTi, Segoe UI Emoji" font-size="16px" fill="#1e1e1e" text-anchor="middle" style="white-space: pre;" direction="ltr" dominant-baseline="text-before-edge">1</text></g><g stroke-linecap="round" transform="translate(153.706609205704 111.55785085040796) rotate(0 12 15)"><path d="M0 0 C8.36 0, 16.72 0, 24 0 M0 0 C7.65 0, 15.3 0, 24 0 M24 0 C24 9.47, 24 18.95, 24 30 M24 0 C24 9.26, 24 18.53, 24 30 M24 30 C17.56 30, 11.13 30, 0 30 M24 30 C15.27 30, 6.54 30, 0 30 M0 30 C0 22.59, 0 15.17, 0 0 M0 30 C0 23.15, 0 16.29, 0 0" stroke="#1e1e1e" stroke-width="1" fill="none"></path></g><g transform="translate(161.08261628578214 116.55785085040796) rotate(0 4.623992919921875 10)"><text x="4.623992919921875" y="0" font-family="HanziPen SC, HanziPen Remote, Virgil, KaiTi, Segoe UI Emoji" font-size="16px" fill="#1e1e1e" text-anchor="middle" style="white-space: pre;" direction="ltr" dominant-baseline="text-before-edge">0</text></g><g stroke-linecap="round" transform="translate(102.96886619309828 134.96716861287516) rotate(0 2.64913313201248 2.6014324419246577)"><path d="M5.3 2.6 C5.3 2.75, 5.28 2.9, 5.26 3.05 C5.23 3.2, 5.19 3.35, 5.14 3.49 C5.09 3.63, 5.02 3.77, 4.94 3.9 C4.87 4.03, 4.78 4.16, 4.68 4.27 C4.58 4.39, 4.47 4.5, 4.35 4.59 C4.23 4.69, 4.11 4.78, 3.97 4.85 C3.84 4.93, 3.7 4.99, 3.56 5.05 C3.41 5.1, 3.26 5.14, 3.11 5.16 C2.96 5.19, 2.8 5.2, 2.65 5.2 C2.5 5.2, 2.34 5.19, 2.19 5.16 C2.04 5.14, 1.89 5.1, 1.74 5.05 C1.6 4.99, 1.46 4.93, 1.32 4.85 C1.19 4.78, 1.06 4.69, 0.95 4.59 C0.83 4.5, 0.72 4.39, 0.62 4.27 C0.52 4.16, 0.43 4.03, 0.35 3.9 C0.28 3.77, 0.21 3.63, 0.16 3.49 C0.11 3.35, 0.07 3.2, 0.04 3.05 C0.01 2.9, 0 2.75, 0 2.6 C0 2.45, 0.01 2.3, 0.04 2.15 C0.07 2, 0.11 1.85, 0.16 1.71 C0.21 1.57, 0.28 1.43, 0.35 1.3 C0.43 1.17, 0.52 1.04, 0.62 0.93 C0.72 0.81, 0.83 0.71, 0.95 0.61 C1.06 0.51, 1.19 0.42, 1.32 0.35 C1.46 0.27, 1.6 0.21, 1.74 0.16 C1.89 0.11, 2.04 0.07, 2.19 0.04 C2.34 0.01, 2.5 0, 2.65 0 C2.8 0, 2.96 0.01, 3.11 0.04 C3.26 0.07, 3.41 0.11, 3.56 0.16 C3.7 0.21, 3.84 0.27, 3.97 0.35 C4.11 0.42, 4.23 0.51, 4.35 0.61 C4.47 0.71, 4.58 0.81, 4.68 0.93 C4.78 1.04, 4.87 1.17, 4.94 1.3 C5.02 1.43, 5.09 1.57, 5.14 1.71 C5.19 1.85, 5.23 2, 5.26 2.15 C5.28 2.3, 5.29 2.53, 5.3 2.6 C5.3 2.68, 5.3 2.53, 5.3 2.6" stroke="none" stroke-width="0" fill="#ffc9c9"></path><path d="M5.3 2.6 C5.3 2.75, 5.28 2.9, 5.26 3.05 C5.23 3.2, 5.19 3.35, 5.14 3.49 C5.09 3.63, 5.02 3.77, 4.94 3.9 C4.87 4.03, 4.78 4.16, 4.68 4.27 C4.58 4.39, 4.47 4.5, 4.35 4.59 C4.23 4.69, 4.11 4.78, 3.97 4.85 C3.84 4.93, 3.7 4.99, 3.56 5.05 C3.41 5.1, 3.26 5.14, 3.11 5.16 C2.96 5.19, 2.8 5.2, 2.65 5.2 C2.5 5.2, 2.34 5.19, 2.19 5.16 C2.04 5.14, 1.89 5.1, 1.74 5.05 C1.6 4.99, 1.46 4.93, 1.32 4.85 C1.19 4.78, 1.06 4.69, 0.95 4.59 C0.83 4.5, 0.72 4.39, 0.62 4.27 C0.52 4.16, 0.43 4.03, 0.35 3.9 C0.28 3.77, 0.21 3.63, 0.16 3.49 C0.11 3.35, 0.07 3.2, 0.04 3.05 C0.01 2.9, 0 2.75, 0 2.6 C0 2.45, 0.01 2.3, 0.04 2.15 C0.07 2, 0.11 1.85, 0.16 1.71 C0.21 1.57, 0.28 1.43, 0.35 1.3 C0.43 1.17, 0.52 1.04, 0.62 0.93 C0.72 0.81, 0.83 0.71, 0.95 0.61 C1.06 0.51, 1.19 0.42, 1.32 0.35 C1.46 0.27, 1.6 0.21, 1.74 0.16 C1.89 0.11, 2.04 0.07, 2.19 0.04 C2.34 0.01, 2.5 0, 2.65 0 C2.8 0, 2.96 0.01, 3.11 0.04 C3.26 0.07, 3.41 0.11, 3.56 0.16 C3.7 0.21, 3.84 0.27, 3.97 0.35 C4.11 0.42, 4.23 0.51, 4.35 0.61 C4.47 0.71, 4.58 0.81, 4.68 0.93 C4.78 1.04, 4.87 1.17, 4.94 1.3 C5.02 1.43, 5.09 1.57, 5.14 1.71 C5.19 1.85, 5.23 2, 5.26 2.15 C5.28 2.3, 5.29 2.53, 5.3 2.6 C5.3 2.68, 5.3 2.53, 5.3 2.6" stroke="#e03131" stroke-width="1" fill="none"></path></g><g stroke-linecap="round" transform="translate(106.30114008320663 148.8323294386833) rotate(0 12 15)"><path d="M0 0 C8.54 0, 17.09 0, 24 0 M0 0 C5.46 0, 10.93 0, 24 0 M24 0 C24 7.68, 24 15.35, 24 30 M24 0 C24 7, 24 14.01, 24 30 M24 30 C15.57 30, 7.14 30, 0 30 M24 30 C16.83 30, 9.67 30, 0 30 M0 30 C0 19.93, 0 9.86, 0 0 M0 30 C0 18.24, 0 6.49, 0 0" stroke="#1e1e1e" stroke-width="1" fill="none"></path></g><g transform="translate(113.67714716328476 153.8323294386833) rotate(0 4.623992919921875 10)"><text x="4.623992919921875" y="0" font-family="HanziPen SC, HanziPen Remote, Virgil, KaiTi, Segoe UI Emoji" font-size="16px" fill="#1e1e1e" text-anchor="middle" style="white-space: pre;" direction="ltr" dominant-baseline="text-before-edge">1</text></g><g stroke-linecap="round" transform="translate(130.2076024700292 148.8270684397633) rotate(0 12 15)"><path d="M0 0 C8.19 0, 16.39 0, 24 0 M0 0 C7.67 0, 15.34 0, 24 0 M24 0 C24 6.16, 24 12.31, 24 30 M24 0 C24 6.12, 24 12.24, 24 30 M24 30 C15.29 30, 6.57 30, 0 30 M24 30 C16.92 30, 9.85 30, 0 30 M0 30 C0 18.23, 0 6.45, 0 0 M0 30 C0 20.21, 0 10.43, 0 0" stroke="#1e1e1e" stroke-width="1" fill="none"></path></g><g transform="translate(137.58360955010733 153.8270684397633) rotate(0 4.623992919921875 10)"><text x="4.623992919921875" y="0" font-family="HanziPen SC, HanziPen Remote, Virgil, KaiTi, Segoe UI Emoji" font-size="16px" fill="#1e1e1e" text-anchor="middle" style="white-space: pre;" direction="ltr" dominant-baseline="text-before-edge">0</text></g><g stroke-linecap="round" transform="translate(154.26702756467387 148.84735457510334) rotate(0 12 15)"><path d="M0 0 C6.97 0, 13.94 0, 24 0 M0 0 C5.98 0, 11.95 0, 24 0 M24 0 C24 11.78, 24 23.57, 24 30 M24 0 C24 7.78, 24 15.56, 24 30 M24 30 C16.95 30, 9.91 30, 0 30 M24 30 C16.39 30, 8.79 30, 0 30 M0 30 C0 22.35, 0 14.7, 0 0 M0 30 C0 20.35, 0 10.71, 0 0" stroke="#1e1e1e" stroke-width="1" fill="none"></path></g><g transform="translate(161.643034644752 153.84735457510334) rotate(0 4.623992919921875 10)"><text x="4.623992919921875" y="0" font-family="HanziPen SC, HanziPen Remote, Virgil, KaiTi, Segoe UI Emoji" font-size="16px" fill="#1e1e1e" text-anchor="middle" style="white-space: pre;" direction="ltr" dominant-baseline="text-before-edge">0</text></g><g stroke-linecap="round" transform="translate(103.52928455206813 172.25667233757054) rotate(0 2.64913313201248 2.6014324419246577)"><path d="M5.3 2.6 C5.3 2.75, 5.28 2.9, 5.26 3.05 C5.23 3.2, 5.19 3.35, 5.14 3.49 C5.09 3.63, 5.02 3.77, 4.94 3.9 C4.87 4.03, 4.78 4.16, 4.68 4.27 C4.58 4.39, 4.47 4.5, 4.35 4.59 C4.23 4.69, 4.11 4.78, 3.97 4.85 C3.84 4.93, 3.7 4.99, 3.56 5.05 C3.41 5.1, 3.26 5.14, 3.11 5.16 C2.96 5.19, 2.8 5.2, 2.65 5.2 C2.5 5.2, 2.34 5.19, 2.19 5.16 C2.04 5.14, 1.89 5.1, 1.74 5.05 C1.6 4.99, 1.46 4.93, 1.32 4.85 C1.19 4.78, 1.06 4.69, 0.95 4.59 C0.83 4.5, 0.72 4.39, 0.62 4.27 C0.52 4.16, 0.43 4.03, 0.35 3.9 C0.28 3.77, 0.21 3.63, 0.16 3.49 C0.11 3.35, 0.07 3.2, 0.04 3.05 C0.01 2.9, 0 2.75, 0 2.6 C0 2.45, 0.01 2.3, 0.04 2.15 C0.07 2, 0.11 1.85, 0.16 1.71 C0.21 1.57, 0.28 1.43, 0.35 1.3 C0.43 1.17, 0.52 1.04, 0.62 0.93 C0.72 0.81, 0.83 0.71, 0.95 0.61 C1.06 0.51, 1.19 0.42, 1.32 0.35 C1.46 0.27, 1.6 0.21, 1.74 0.16 C1.89 0.11, 2.04 0.07, 2.19 0.04 C2.34 0.01, 2.5 0, 2.65 0 C2.8 0, 2.96 0.01, 3.11 0.04 C3.26 0.07, 3.41 0.11, 3.56 0.16 C3.7 0.21, 3.84 0.27, 3.97 0.35 C4.11 0.42, 4.23 0.51, 4.35 0.61 C4.47 0.71, 4.58 0.81, 4.68 0.93 C4.78 1.04, 4.87 1.17, 4.94 1.3 C5.02 1.43, 5.09 1.57, 5.14 1.71 C5.19 1.85, 5.23 2, 5.26 2.15 C5.28 2.3, 5.29 2.53, 5.3 2.6 C5.3 2.68, 5.3 2.53, 5.3 2.6" stroke="none" stroke-width="0" fill="#ffc9c9"></path><path d="M5.3 2.6 C5.3 2.75, 5.28 2.9, 5.26 3.05 C5.23 3.2, 5.19 3.35, 5.14 3.49 C5.09 3.63, 5.02 3.77, 4.94 3.9 C4.87 4.03, 4.78 4.16, 4.68 4.27 C4.58 4.39, 4.47 4.5, 4.35 4.59 C4.23 4.69, 4.11 4.78, 3.97 4.85 C3.84 4.93, 3.7 4.99, 3.56 5.05 C3.41 5.1, 3.26 5.14, 3.11 5.16 C2.96 5.19, 2.8 5.2, 2.65 5.2 C2.5 5.2, 2.34 5.19, 2.19 5.16 C2.04 5.14, 1.89 5.1, 1.74 5.05 C1.6 4.99, 1.46 4.93, 1.32 4.85 C1.19 4.78, 1.06 4.69, 0.95 4.59 C0.83 4.5, 0.72 4.39, 0.62 4.27 C0.52 4.16, 0.43 4.03, 0.35 3.9 C0.28 3.77, 0.21 3.63, 0.16 3.49 C0.11 3.35, 0.07 3.2, 0.04 3.05 C0.01 2.9, 0 2.75, 0 2.6 C0 2.45, 0.01 2.3, 0.04 2.15 C0.07 2, 0.11 1.85, 0.16 1.71 C0.21 1.57, 0.28 1.43, 0.35 1.3 C0.43 1.17, 0.52 1.04, 0.62 0.93 C0.72 0.81, 0.83 0.71, 0.95 0.61 C1.06 0.51, 1.19 0.42, 1.32 0.35 C1.46 0.27, 1.6 0.21, 1.74 0.16 C1.89 0.11, 2.04 0.07, 2.19 0.04 C2.34 0.01, 2.5 0, 2.65 0 C2.8 0, 2.96 0.01, 3.11 0.04 C3.26 0.07, 3.41 0.11, 3.56 0.16 C3.7 0.21, 3.84 0.27, 3.97 0.35 C4.11 0.42, 4.23 0.51, 4.35 0.61 C4.47 0.71, 4.58 0.81, 4.68 0.93 C4.78 1.04, 4.87 1.17, 4.94 1.3 C5.02 1.43, 5.09 1.57, 5.14 1.71 C5.19 1.85, 5.23 2, 5.26 2.15 C5.28 2.3, 5.29 2.53, 5.3 2.6 C5.3 2.68, 5.3 2.53, 5.3 2.6" stroke="#e03131" stroke-width="1" fill="none"></path></g><g transform="translate(81.00357088276644 183.19579470563053) rotate(0 13.103988647460938 10)"><text x="0" y="0" font-family="HanziPen SC, HanziPen Remote, Virgil, KaiTi, Segoe UI Emoji" font-size="16px" fill="#1e1e1e" text-anchor="start" style="white-space: pre;" direction="ltr" dominant-baseline="text-before-edge">......</text></g><g transform="translate(232.64076998004202 183.75287724103532) rotate(0 13.103988647460938 10)"><text x="0" y="0" font-family="HanziPen SC, HanziPen Remote, Virgil, KaiTi, Segoe UI Emoji" font-size="16px" fill="#1e1e1e" text-anchor="start" style="white-space: pre;" direction="ltr" dominant-baseline="text-before-edge">......</text></g><g stroke-linecap="round" transform="translate(215.0386293530346 216.06007606890512) rotate(0 33 15)"><path d="M0 0 C18.44 0, 36.87 0, 66 0 M0 0 C25.19 0, 50.37 0, 66 0 M66 0 C66 10.67, 66 21.34, 66 30 M66 0 C66 12, 66 24, 66 30 M66 30 C43.28 30, 20.56 30, 0 30 M66 30 C50.99 30, 35.97 30, 0 30 M0 30 C0 18.2, 0 6.41, 0 0 M0 30 C0 23.91, 0 17.82, 0 0" stroke="#1e1e1e" stroke-width="1" fill="none"></path></g><g transform="translate(222.73466664551506 221.06007606890512) rotate(0 25.30396270751953 10)"><text x="25.30396270751953" y="0" font-family="HanziPen SC, HanziPen Remote, Virgil, KaiTi, Segoe UI Emoji" font-size="16px" fill="#1e1e1e" text-anchor="middle" style="white-space: pre;" direction="ltr" dominant-baseline="text-before-edge">15.875</text></g><g stroke-linecap="round" transform="translate(10.521379372328624 216.94715845802625) rotate(0 12 15)"><path d="M0 0 C6.14 0, 12.28 0, 24 0 M0 0 C5.6 0, 11.2 0, 24 0 M24 0 C24 10.54, 24 21.08, 24 30 M24 0 C24 8.96, 24 17.92, 24 30 M24 30 C15.95 30, 7.89 30, 0 30 M24 30 C14.6 30, 5.19 30, 0 30 M0 30 C0 19.77, 0 9.53, 0 0 M0 30 C0 20.47, 0 10.95, 0 0" stroke="#1e1e1e" stroke-width="1" fill="none"></path></g><g transform="translate(17.89738645240675 221.94715845802625) rotate(0 4.623992919921875 10)"><text x="4.623992919921875" y="0" font-family="HanziPen SC, HanziPen Remote, Virgil, KaiTi, Segoe UI Emoji" font-size="16px" fill="#1e1e1e" text-anchor="middle" style="white-space: pre;" direction="ltr" dominant-baseline="text-before-edge">1</text></g><g stroke-linecap="round" transform="translate(34.42784175915119 216.94189745910626) rotate(0 12 15)"><path d="M0 0 C4.93 0, 9.85 0, 24 0 M0 0 C4.9 0, 9.79 0, 24 0 M24 0 C24 10.89, 24 21.78, 24 30 M24 0 C24 8.84, 24 17.69, 24 30 M24 30 C14.58 30, 5.16 30, 0 30 M24 30 C16.17 30, 8.34 30, 0 30 M0 30 C0 23.7, 0 17.39, 0 0 M0 30 C0 18.95, 0 7.9, 0 0" stroke="#1e1e1e" stroke-width="1" fill="none"></path></g><g transform="translate(41.80384883922932 221.94189745910626) rotate(0 4.623992919921875 10)"><text x="4.623992919921875" y="0" font-family="HanziPen SC, HanziPen Remote, Virgil, KaiTi, Segoe UI Emoji" font-size="16px" fill="#1e1e1e" text-anchor="middle" style="white-space: pre;" direction="ltr" dominant-baseline="text-before-edge">1</text></g><g stroke-linecap="round" transform="translate(58.48726685379586 216.9621835944463) rotate(0 12 15)"><path d="M0 0 C9.43 0, 18.85 0, 24 0 M0 0 C6.23 0, 12.45 0, 24 0 M24 0 C24 8.81, 24 17.62, 24 30 M24 0 C24 9.51, 24 19.02, 24 30 M24 30 C17.88 30, 11.76 30, 0 30 M24 30 C16.28 30, 8.57 30, 0 30 M0 30 C0 18.66, 0 7.32, 0 0 M0 30 C0 23.74, 0 17.48, 0 0" stroke="#1e1e1e" stroke-width="1" fill="none"></path></g><g transform="translate(65.86327393387398 221.9621835944463) rotate(0 4.623992919921875 10)"><text x="4.623992919921875" y="0" font-family="HanziPen SC, HanziPen Remote, Virgil, KaiTi, Segoe UI Emoji" font-size="16px" fill="#1e1e1e" text-anchor="middle" style="white-space: pre;" direction="ltr" dominant-baseline="text-before-edge">1</text></g><g stroke-linecap="round" transform="translate(82.49381668084322 216.91432690446186) rotate(0 12 15)"><path d="M0 0 C7.41 0, 14.82 0, 24 0 M0 0 C8.17 0, 16.35 0, 24 0 M24 0 C24 8.12, 24 16.24, 24 30 M24 0 C24 8.06, 24 16.12, 24 30 M24 30 C17.08 30, 10.15 30, 0 30 M24 30 C18.15 30, 12.3 30, 0 30 M0 30 C0 22.58, 0 15.15, 0 0 M0 30 C0 21.98, 0 13.96, 0 0" stroke="#1e1e1e" stroke-width="1" fill="none"></path></g><g transform="translate(89.86982376092135 221.91432690446186) rotate(0 4.623992919921875 10)"><text x="4.623992919921875" y="0" font-family="HanziPen SC, HanziPen Remote, Virgil, KaiTi, Segoe UI Emoji" font-size="16px" fill="#1e1e1e" text-anchor="middle" style="white-space: pre;" direction="ltr" dominant-baseline="text-before-edge">1</text></g><g stroke-linecap="round" transform="translate(106.85257389964465 217.10845328950234) rotate(0 12 15)"><path d="M0 0 C6.44 0, 12.87 0, 24 0 M0 0 C8.73 0, 17.46 0, 24 0 M24 0 C24 7.41, 24 14.83, 24 30 M24 0 C24 6.85, 24 13.71, 24 30 M24 30 C17.2 30, 10.41 30, 0 30 M24 30 C15.98 30, 7.96 30, 0 30 M0 30 C0 22.61, 0 15.22, 0 0 M0 30 C0 19.57, 0 9.14, 0 0" stroke="#1e1e1e" stroke-width="1" fill="none"></path></g><g transform="translate(114.22858097972278 222.10845328950234) rotate(0 4.623992919921875 10)"><text x="4.623992919921875" y="0" font-family="HanziPen SC, HanziPen Remote, Virgil, KaiTi, Segoe UI Emoji" font-size="16px" fill="#1e1e1e" text-anchor="middle" style="white-space: pre;" direction="ltr" dominant-baseline="text-before-edge">1</text></g><g stroke-linecap="round" transform="translate(130.75903628646722 217.10319229058234) rotate(0 12 15)"><path d="M0 0 C5.08 0, 10.16 0, 24 0 M0 0 C5.27 0, 10.54 0, 24 0 M24 0 C24 6.01, 24 12.03, 24 30 M24 0 C24 7.49, 24 14.99, 24 30 M24 30 C17.9 30, 11.79 30, 0 30 M24 30 C19 30, 13.99 30, 0 30 M0 30 C0 23.18, 0 16.36, 0 0 M0 30 C0 23.15, 0 16.31, 0 0" stroke="#1e1e1e" stroke-width="1" fill="none"></path></g><g transform="translate(138.13504336654535 222.10319229058234) rotate(0 4.623992919921875 10)"><text x="4.623992919921875" y="0" font-family="HanziPen SC, HanziPen Remote, Virgil, KaiTi, Segoe UI Emoji" font-size="16px" fill="#1e1e1e" text-anchor="middle" style="white-space: pre;" direction="ltr" dominant-baseline="text-before-edge">1</text></g><g stroke-linecap="round" transform="translate(154.8184613811119 217.12347842592237) rotate(0 12 15)"><path d="M0 0 C7.3 0, 14.59 0, 24 0 M0 0 C8.98 0, 17.97 0, 24 0 M24 0 C24 10.01, 24 20.02, 24 30 M24 0 C24 10.84, 24 21.67, 24 30 M24 30 C18.19 30, 12.38 30, 0 30 M24 30 C17.81 30, 11.62 30, 0 30 M0 30 C0 21.96, 0 13.92, 0 0 M0 30 C0 22.12, 0 14.25, 0 0" stroke="#1e1e1e" stroke-width="1" fill="none"></path></g><g transform="translate(162.19446846119 222.12347842592237) rotate(0 4.623992919921875 10)"><text x="4.623992919921875" y="0" font-family="HanziPen SC, HanziPen Remote, Virgil, KaiTi, Segoe UI Emoji" font-size="16px" fill="#1e1e1e" text-anchor="middle" style="white-space: pre;" direction="ltr" dominant-baseline="text-before-edge">1</text></g><g stroke-linecap="round" transform="translate(104.08071836850615 240.53279618838963) rotate(0 2.64913313201248 2.6014324419246577)"><path d="M5.3 2.6 C5.3 2.75, 5.28 2.9, 5.26 3.05 C5.23 3.2, 5.19 3.35, 5.14 3.49 C5.09 3.63, 5.02 3.77, 4.94 3.9 C4.87 4.03, 4.78 4.16, 4.68 4.27 C4.58 4.39, 4.47 4.5, 4.35 4.59 C4.23 4.69, 4.11 4.78, 3.97 4.85 C3.84 4.93, 3.7 4.99, 3.56 5.05 C3.41 5.1, 3.26 5.14, 3.11 5.16 C2.96 5.19, 2.8 5.2, 2.65 5.2 C2.5 5.2, 2.34 5.19, 2.19 5.16 C2.04 5.14, 1.89 5.1, 1.74 5.05 C1.6 4.99, 1.46 4.93, 1.32 4.85 C1.19 4.78, 1.06 4.69, 0.95 4.59 C0.83 4.5, 0.72 4.39, 0.62 4.27 C0.52 4.16, 0.43 4.03, 0.35 3.9 C0.28 3.77, 0.21 3.63, 0.16 3.49 C0.11 3.35, 0.07 3.2, 0.04 3.05 C0.01 2.9, 0 2.75, 0 2.6 C0 2.45, 0.01 2.3, 0.04 2.15 C0.07 2, 0.11 1.85, 0.16 1.71 C0.21 1.57, 0.28 1.43, 0.35 1.3 C0.43 1.17, 0.52 1.04, 0.62 0.93 C0.72 0.81, 0.83 0.71, 0.95 0.61 C1.06 0.51, 1.19 0.42, 1.32 0.35 C1.46 0.27, 1.6 0.21, 1.74 0.16 C1.89 0.11, 2.04 0.07, 2.19 0.04 C2.34 0.01, 2.5 0, 2.65 0 C2.8 0, 2.96 0.01, 3.11 0.04 C3.26 0.07, 3.41 0.11, 3.56 0.16 C3.7 0.21, 3.84 0.27, 3.97 0.35 C4.11 0.42, 4.23 0.51, 4.35 0.61 C4.47 0.71, 4.58 0.81, 4.68 0.93 C4.78 1.04, 4.87 1.17, 4.94 1.3 C5.02 1.43, 5.09 1.57, 5.14 1.71 C5.19 1.85, 5.23 2, 5.26 2.15 C5.28 2.3, 5.29 2.53, 5.3 2.6 C5.3 2.68, 5.3 2.53, 5.3 2.6" stroke="none" stroke-width="0" fill="#ffc9c9"></path><path d="M5.3 2.6 C5.3 2.75, 5.28 2.9, 5.26 3.05 C5.23 3.2, 5.19 3.35, 5.14 3.49 C5.09 3.63, 5.02 3.77, 4.94 3.9 C4.87 4.03, 4.78 4.16, 4.68 4.27 C4.58 4.39, 4.47 4.5, 4.35 4.59 C4.23 4.69, 4.11 4.78, 3.97 4.85 C3.84 4.93, 3.7 4.99, 3.56 5.05 C3.41 5.1, 3.26 5.14, 3.11 5.16 C2.96 5.19, 2.8 5.2, 2.65 5.2 C2.5 5.2, 2.34 5.19, 2.19 5.16 C2.04 5.14, 1.89 5.1, 1.74 5.05 C1.6 4.99, 1.46 4.93, 1.32 4.85 C1.19 4.78, 1.06 4.69, 0.95 4.59 C0.83 4.5, 0.72 4.39, 0.62 4.27 C0.52 4.16, 0.43 4.03, 0.35 3.9 C0.28 3.77, 0.21 3.63, 0.16 3.49 C0.11 3.35, 0.07 3.2, 0.04 3.05 C0.01 2.9, 0 2.75, 0 2.6 C0 2.45, 0.01 2.3, 0.04 2.15 C0.07 2, 0.11 1.85, 0.16 1.71 C0.21 1.57, 0.28 1.43, 0.35 1.3 C0.43 1.17, 0.52 1.04, 0.62 0.93 C0.72 0.81, 0.83 0.71, 0.95 0.61 C1.06 0.51, 1.19 0.42, 1.32 0.35 C1.46 0.27, 1.6 0.21, 1.74 0.16 C1.89 0.11, 2.04 0.07, 2.19 0.04 C2.34 0.01, 2.5 0, 2.65 0 C2.8 0, 2.96 0.01, 3.11 0.04 C3.26 0.07, 3.41 0.11, 3.56 0.16 C3.7 0.21, 3.84 0.27, 3.97 0.35 C4.11 0.42, 4.23 0.51, 4.35 0.61 C4.47 0.71, 4.58 0.81, 4.68 0.93 C4.78 1.04, 4.87 1.17, 4.94 1.3 C5.02 1.43, 5.09 1.57, 5.14 1.71 C5.19 1.85, 5.23 2, 5.26 2.15 C5.28 2.3, 5.29 2.53, 5.3 2.6 C5.3 2.68, 5.3 2.53, 5.3 2.6" stroke="#e03131" stroke-width="1" fill="none"></path></g></svg>