<svg version="1.1" xmlns="http://www.w3.org/2000/svg" viewBox="0 0 188.23070347124985 218.83087100627705" width="188.23070347124985" height="218.83087100627705" filter="invert(93%) hue-rotate(180deg)">
  <!-- svg-source:excalidraw -->
  
  <defs>
    <style class="style-fonts">
      @font-face {
        font-family: "Virgil";
        src: url("https://unpkg.com/revedraw@1.0.0-alpha.10/dist/excalidraw-assets/Virgil.woff2");
      }
      @font-face {
        font-family: "Cascadia";
        src: url("https://unpkg.com/revedraw@1.0.0-alpha.10/dist/excalidraw-assets/Cascadia.woff2");
      }
    </style>
    
  </defs>
  <g stroke-linecap="round" transform="translate(111.13280690834017 10.284932911992911) rotate(0 33.5 15)"><path d="M0 0 C25.04 0, 50.08 0, 67 0 M0 0 C23.53 0, 47.06 0, 67 0 M67 0 C67 8.48, 67 16.96, 67 30 M67 0 C67 10.28, 67 20.55, 67 30 M67 30 C45.93 30, 24.87 30, 0 30 M67 30 C44.3 30, 21.59 30, 0 30 M0 30 C0 20.86, 0 11.73, 0 0 M0 30 C0 18.26, 0 6.52, 0 0" stroke="#1e1e1e" stroke-width="1" fill="none"></path></g><g transform="translate(140.0088139884183 15.284932911992911) rotate(0 4.623992919921875 10)"><text x="4.623992919921875" y="0" font-family="HanziPen SC, HanziPen Remote, Virgil, KaiTi, Segoe UI Emoji" font-size="16px" fill="#1e1e1e" text-anchor="middle" style="white-space: pre;" direction="ltr" dominant-baseline="text-before-edge">1</text></g><g stroke-linecap="round" transform="translate(10 10.032831553564364) rotate(0 12 15)"><path d="M0 0 C9.15 0, 18.31 0, 24 0 M0 0 C5.09 0, 10.18 0, 24 0 M24 0 C24 7.81, 24 15.61, 24 30 M24 0 C24 10.11, 24 20.22, 24 30 M24 30 C15.28 30, 6.55 30, 0 30 M24 30 C15.34 30, 6.69 30, 0 30 M0 30 C0 20.67, 0 11.34, 0 0 M0 30 C0 24, 0 18, 0 0" stroke="#1e1e1e" stroke-width="1" fill="none"></path></g><g transform="translate(17.376007080078125 15.032831553564364) rotate(0 4.623992919921875 10)"><text x="4.623992919921875" y="0" font-family="HanziPen SC, HanziPen Remote, Virgil, KaiTi, Segoe UI Emoji" font-size="16px" fill="#1e1e1e" text-anchor="middle" style="white-space: pre;" direction="ltr" dominant-baseline="text-before-edge">0</text></g><g stroke-linecap="round" transform="translate(33.90646238682257 10.02757055464437) rotate(0 12 15)"><path d="M0 0 C9.4 0, 18.8 0, 24 0 M0 0 C9.29 0, 18.57 0, 24 0 M24 0 C24 7.01, 24 14.02, 24 30 M24 0 C24 8.23, 24 16.46, 24 30 M24 30 C19.01 30, 14.03 30, 0 30 M24 30 C18.05 30, 12.1 30, 0 30 M0 30 C0 20.46, 0 10.91, 0 0 M0 30 C0 21.29, 0 12.58, 0 0" stroke="#1e1e1e" stroke-width="1" fill="none"></path></g><g transform="translate(41.28246946690069 15.02757055464437) rotate(0 4.623992919921875 10)"><text x="4.623992919921875" y="0" font-family="HanziPen SC, HanziPen Remote, Virgil, KaiTi, Segoe UI Emoji" font-size="16px" fill="#1e1e1e" text-anchor="middle" style="white-space: pre;" direction="ltr" dominant-baseline="text-before-edge">0</text></g><g stroke-linecap="round" transform="translate(57.965887481467234 10.047856689984371) rotate(0 12 15)"><path d="M0 0 C8.87 0, 17.75 0, 24 0 M0 0 C8.21 0, 16.42 0, 24 0 M24 0 C24 6.17, 24 12.33, 24 30 M24 0 C24 11.49, 24 22.97, 24 30 M24 30 C17.1 30, 10.2 30, 0 30 M24 30 C14.61 30, 5.22 30, 0 30 M0 30 C0 23.88, 0 17.76, 0 0 M0 30 C0 23.53, 0 17.07, 0 0" stroke="#1e1e1e" stroke-width="1" fill="none"></path></g><g transform="translate(65.34189456154536 15.047856689984371) rotate(0 4.623992919921875 10)"><text x="4.623992919921875" y="0" font-family="HanziPen SC, HanziPen Remote, Virgil, KaiTi, Segoe UI Emoji" font-size="16px" fill="#1e1e1e" text-anchor="middle" style="white-space: pre;" direction="ltr" dominant-baseline="text-before-edge">0</text></g><g stroke-linecap="round" transform="translate(81.97243730851415 10) rotate(0 12 15)"><path d="M0 0 C7.34 0, 14.68 0, 24 0 M0 0 C7.64 0, 15.28 0, 24 0 M24 0 C24 6.11, 24 12.22, 24 30 M24 0 C24 7.99, 24 15.98, 24 30 M24 30 C17.57 30, 11.15 30, 0 30 M24 30 C15.43 30, 6.86 30, 0 30 M0 30 C0 21.87, 0 13.74, 0 0 M0 30 C0 20.87, 0 11.74, 0 0" stroke="#1e1e1e" stroke-width="1" fill="none"></path></g><g transform="translate(89.34844438859227 15) rotate(0 4.623992919921875 10)"><text x="4.623992919921875" y="0" font-family="HanziPen SC, HanziPen Remote, Virgil, KaiTi, Segoe UI Emoji" font-size="16px" fill="#1e1e1e" text-anchor="middle" style="white-space: pre;" direction="ltr" dominant-baseline="text-before-edge">0</text></g><g stroke-linecap="round" transform="translate(111.23070347124985 47.40444446740804) rotate(0 33.5 15)"><path d="M0 0 C14.43 0, 28.86 0, 67 0 M0 0 C22.22 0, 44.44 0, 67 0 M67 0 C67 8.42, 67 16.84, 67 30 M67 0 C67 9.09, 67 18.18, 67 30 M67 30 C50.99 30, 34.98 30, 0 30 M67 30 C47.83 30, 28.66 30, 0 30 M0 30 C0 22.59, 0 15.17, 0 0 M0 30 C0 22.19, 0 14.39, 0 0" stroke="#1e1e1e" stroke-width="1" fill="none"></path></g><g transform="translate(140.10671055132798 52.40444446740804) rotate(0 4.623992919921875 10)"><text x="4.623992919921875" y="0" font-family="HanziPen SC, HanziPen Remote, Virgil, KaiTi, Segoe UI Emoji" font-size="16px" fill="#1e1e1e" text-anchor="middle" style="white-space: pre;" direction="ltr" dominant-baseline="text-before-edge">2</text></g><g stroke-linecap="round" transform="translate(10.035584690334417 47.152343108979494) rotate(0 12 15)"><path d="M0 0 C8.12 0, 16.24 0, 24 0 M0 0 C8.96 0, 17.91 0, 24 0 M24 0 C24 9.44, 24 18.87, 24 30 M24 0 C24 7.4, 24 14.8, 24 30 M24 30 C16.41 30, 8.82 30, 0 30 M24 30 C16.93 30, 9.86 30, 0 30 M0 30 C0 21.45, 0 12.9, 0 0 M0 30 C0 19.15, 0 8.31, 0 0" stroke="#1e1e1e" stroke-width="1" fill="none"></path></g><g transform="translate(17.411591770412542 52.152343108979494) rotate(0 4.623992919921875 10)"><text x="4.623992919921875" y="0" font-family="HanziPen SC, HanziPen Remote, Virgil, KaiTi, Segoe UI Emoji" font-size="16px" fill="#1e1e1e" text-anchor="middle" style="white-space: pre;" direction="ltr" dominant-baseline="text-before-edge">0</text></g><g stroke-linecap="round" transform="translate(33.942047077156985 47.1470821100595) rotate(0 12 15)"><path d="M0 0 C8.16 0, 16.32 0, 24 0 M0 0 C5.01 0, 10.03 0, 24 0 M24 0 C24 6.23, 24 12.46, 24 30 M24 0 C24 6.77, 24 13.55, 24 30 M24 30 C18.24 30, 12.49 30, 0 30 M24 30 C17.44 30, 10.88 30, 0 30 M0 30 C0 19.13, 0 8.25, 0 0 M0 30 C0 22.14, 0 14.28, 0 0" stroke="#1e1e1e" stroke-width="1" fill="none"></path></g><g transform="translate(41.31805415723511 52.1470821100595) rotate(0 4.623992919921875 10)"><text x="4.623992919921875" y="0" font-family="HanziPen SC, HanziPen Remote, Virgil, KaiTi, Segoe UI Emoji" font-size="16px" fill="#1e1e1e" text-anchor="middle" style="white-space: pre;" direction="ltr" dominant-baseline="text-before-edge">0</text></g><g stroke-linecap="round" transform="translate(58.00147217180165 47.16736824539953) rotate(0 12 15)"><path d="M0 0 C7.46 0, 14.92 0, 24 0 M0 0 C9.11 0, 18.23 0, 24 0 M24 0 C24 8.64, 24 17.29, 24 30 M24 0 C24 10.31, 24 20.63, 24 30 M24 30 C15 30, 6 30, 0 30 M24 30 C17.08 30, 10.16 30, 0 30 M0 30 C0 21.54, 0 13.07, 0 0 M0 30 C0 18.3, 0 6.6, 0 0" stroke="#1e1e1e" stroke-width="1" fill="none"></path></g><g transform="translate(65.37747925187978 52.16736824539953) rotate(0 4.623992919921875 10)"><text x="4.623992919921875" y="0" font-family="HanziPen SC, HanziPen Remote, Virgil, KaiTi, Segoe UI Emoji" font-size="16px" fill="#1e1e1e" text-anchor="middle" style="white-space: pre;" direction="ltr" dominant-baseline="text-before-edge">0</text></g><g stroke-linecap="round" transform="translate(82.00802199884856 47.11951155541516) rotate(0 12 15)"><path d="M0 0 C8.78 0, 17.56 0, 24 0 M0 0 C4.85 0, 9.69 0, 24 0 M24 0 C24 9.25, 24 18.5, 24 30 M24 0 C24 8.37, 24 16.75, 24 30 M24 30 C16.51 30, 9.02 30, 0 30 M24 30 C14.86 30, 5.72 30, 0 30 M0 30 C0 21.85, 0 13.7, 0 0 M0 30 C0 19.53, 0 9.05, 0 0" stroke="#1e1e1e" stroke-width="1" fill="none"></path></g><g transform="translate(89.38402907892669 52.11951155541516) rotate(0 4.623992919921875 10)"><text x="4.623992919921875" y="0" font-family="HanziPen SC, HanziPen Remote, Virgil, KaiTi, Segoe UI Emoji" font-size="16px" fill="#1e1e1e" text-anchor="middle" style="white-space: pre;" direction="ltr" dominant-baseline="text-before-edge">1</text></g><g stroke-linecap="round" transform="translate(111.19874789156302 82.96798994682138) rotate(0 33.5 15)"><path d="M0 0 C16.43 0, 32.86 0, 67 0 M0 0 C24.54 0, 49.08 0, 67 0 M67 0 C67 7.39, 67 14.78, 67 30 M67 0 C67 8.56, 67 17.13, 67 30 M67 30 C49.17 30, 31.33 30, 0 30 M67 30 C42.42 30, 17.84 30, 0 30 M0 30 C0 18.48, 0 6.96, 0 0 M0 30 C0 20.47, 0 10.93, 0 0" stroke="#1e1e1e" stroke-width="1" fill="none"></path></g><g transform="translate(140.07475497164114 87.96798994682138) rotate(0 4.623992919921875 10)"><text x="4.623992919921875" y="0" font-family="HanziPen SC, HanziPen Remote, Virgil, KaiTi, Segoe UI Emoji" font-size="16px" fill="#1e1e1e" text-anchor="middle" style="white-space: pre;" direction="ltr" dominant-baseline="text-before-edge">4</text></g><g stroke-linecap="round" transform="translate(10.065940983222845 82.71588858839283) rotate(0 12 15)"><path d="M0 0 C7.55 0, 15.09 0, 24 0 M0 0 C8.13 0, 16.26 0, 24 0 M24 0 C24 9.14, 24 18.27, 24 30 M24 0 C24 11.74, 24 23.48, 24 30 M24 30 C17.34 30, 10.68 30, 0 30 M24 30 C18.31 30, 12.62 30, 0 30 M0 30 C0 21.09, 0 12.19, 0 0 M0 30 C0 22.51, 0 15.02, 0 0" stroke="#1e1e1e" stroke-width="1" fill="none"></path></g><g transform="translate(17.44194806330097 87.71588858839283) rotate(0 4.623992919921875 10)"><text x="4.623992919921875" y="0" font-family="HanziPen SC, HanziPen Remote, Virgil, KaiTi, Segoe UI Emoji" font-size="16px" fill="#1e1e1e" text-anchor="middle" style="white-space: pre;" direction="ltr" dominant-baseline="text-before-edge">0</text></g><g stroke-linecap="round" transform="translate(33.97240337004541 82.71062758947284) rotate(0 12 15)"><path d="M0 0 C8.72 0, 17.45 0, 24 0 M0 0 C8.66 0, 17.31 0, 24 0 M24 0 C24 9.33, 24 18.66, 24 30 M24 0 C24 6, 24 12, 24 30 M24 30 C18.93 30, 13.85 30, 0 30 M24 30 C15.41 30, 6.82 30, 0 30 M0 30 C0 20.62, 0 11.23, 0 0 M0 30 C0 21.81, 0 13.61, 0 0" stroke="#1e1e1e" stroke-width="1" fill="none"></path></g><g transform="translate(41.34841045012354 87.71062758947284) rotate(0 4.623992919921875 10)"><text x="4.623992919921875" y="0" font-family="HanziPen SC, HanziPen Remote, Virgil, KaiTi, Segoe UI Emoji" font-size="16px" fill="#1e1e1e" text-anchor="middle" style="white-space: pre;" direction="ltr" dominant-baseline="text-before-edge">0</text></g><g stroke-linecap="round" transform="translate(58.03182846469008 82.73091372481281) rotate(0 12 15)"><path d="M0 0 C4.99 0, 9.97 0, 24 0 M0 0 C5.95 0, 11.9 0, 24 0 M24 0 C24 9.54, 24 19.09, 24 30 M24 0 C24 8.71, 24 17.42, 24 30 M24 30 C15.41 30, 6.81 30, 0 30 M24 30 C17.52 30, 11.03 30, 0 30 M0 30 C0 19.21, 0 8.42, 0 0 M0 30 C0 21.25, 0 12.49, 0 0" stroke="#1e1e1e" stroke-width="1" fill="none"></path></g><g transform="translate(65.4078355447682 87.73091372481281) rotate(0 4.623992919921875 10)"><text x="4.623992919921875" y="0" font-family="HanziPen SC, HanziPen Remote, Virgil, KaiTi, Segoe UI Emoji" font-size="16px" fill="#1e1e1e" text-anchor="middle" style="white-space: pre;" direction="ltr" dominant-baseline="text-before-edge">1</text></g><g stroke-linecap="round" transform="translate(82.03837829173699 82.6830570348285) rotate(0 12 15)"><path d="M0 0 C6.9 0, 13.8 0, 24 0 M0 0 C9.39 0, 18.78 0, 24 0 M24 0 C24 6.12, 24 12.24, 24 30 M24 0 C24 6.47, 24 12.93, 24 30 M24 30 C18.42 30, 12.83 30, 0 30 M24 30 C17.04 30, 10.09 30, 0 30 M0 30 C0 18.29, 0 6.59, 0 0 M0 30 C0 18.48, 0 6.95, 0 0" stroke="#1e1e1e" stroke-width="1" fill="none"></path></g><g transform="translate(89.41438537181511 87.6830570348285) rotate(0 4.623992919921875 10)"><text x="4.623992919921875" y="0" font-family="HanziPen SC, HanziPen Remote, Virgil, KaiTi, Segoe UI Emoji" font-size="16px" fill="#1e1e1e" text-anchor="middle" style="white-space: pre;" direction="ltr" dominant-baseline="text-before-edge">0</text></g><g stroke-linecap="round" transform="translate(111.56873497393553 120.08750150223653) rotate(0 33 15)"><path d="M0 0 C17.67 0, 35.34 0, 66 0 M0 0 C23.56 0, 47.13 0, 66 0 M66 0 C66 8.13, 66 16.26, 66 30 M66 0 C66 9.13, 66 18.26, 66 30 M66 30 C41.22 30, 16.44 30, 0 30 M66 30 C45.67 30, 25.34 30, 0 30 M0 30 C0 18.54, 0 7.07, 0 0 M0 30 C0 23.89, 0 17.78, 0 0" stroke="#1e1e1e" stroke-width="1" fill="none"></path></g><g transform="translate(139.94474205401366 125.08750150223653) rotate(0 4.623992919921875 10)"><text x="4.623992919921875" y="0" font-family="HanziPen SC, HanziPen Remote, Virgil, KaiTi, Segoe UI Emoji" font-size="16px" fill="#1e1e1e" text-anchor="middle" style="white-space: pre;" direction="ltr" dominant-baseline="text-before-edge">8</text></g><g stroke-linecap="round" transform="translate(10.373616193020098 119.83540014380799) rotate(0 12 15)"><path d="M0 0 C5.73 0, 11.47 0, 24 0 M0 0 C6.87 0, 13.73 0, 24 0 M24 0 C24 7.41, 24 14.83, 24 30 M24 0 C24 7.81, 24 15.61, 24 30 M24 30 C15.56 30, 7.12 30, 0 30 M24 30 C14.62 30, 5.25 30, 0 30 M0 30 C0 19.85, 0 9.71, 0 0 M0 30 C0 18.63, 0 7.27, 0 0" stroke="#1e1e1e" stroke-width="1" fill="none"></path></g><g transform="translate(17.749623273098223 124.83540014380799) rotate(0 4.623992919921875 10)"><text x="4.623992919921875" y="0" font-family="HanziPen SC, HanziPen Remote, Virgil, KaiTi, Segoe UI Emoji" font-size="16px" fill="#1e1e1e" text-anchor="middle" style="white-space: pre;" direction="ltr" dominant-baseline="text-before-edge">0</text></g><g stroke-linecap="round" transform="translate(34.280078579842666 119.830139144888) rotate(0 12 15)"><path d="M0 0 C7.59 0, 15.18 0, 24 0 M0 0 C7.07 0, 14.14 0, 24 0 M24 0 C24 8.55, 24 17.1, 24 30 M24 0 C24 10.85, 24 21.69, 24 30 M24 30 C15.56 30, 7.12 30, 0 30 M24 30 C14.91 30, 5.82 30, 0 30 M0 30 C0 21.42, 0 12.84, 0 0 M0 30 C0 20.6, 0 11.2, 0 0" stroke="#1e1e1e" stroke-width="1" fill="none"></path></g><g transform="translate(41.65608565992079 124.830139144888) rotate(0 4.623992919921875 10)"><text x="4.623992919921875" y="0" font-family="HanziPen SC, HanziPen Remote, Virgil, KaiTi, Segoe UI Emoji" font-size="16px" fill="#1e1e1e" text-anchor="middle" style="white-space: pre;" direction="ltr" dominant-baseline="text-before-edge">0</text></g><g stroke-linecap="round" transform="translate(58.33950367448733 119.85042528022802) rotate(0 12 15)"><path d="M0 0 C5.76 0, 11.51 0, 24 0 M0 0 C6.56 0, 13.12 0, 24 0 M24 0 C24 10.87, 24 21.75, 24 30 M24 0 C24 7.86, 24 15.72, 24 30 M24 30 C14.62 30, 5.25 30, 0 30 M24 30 C17.07 30, 10.15 30, 0 30 M0 30 C0 21.64, 0 13.29, 0 0 M0 30 C0 18.43, 0 6.87, 0 0" stroke="#1e1e1e" stroke-width="1" fill="none"></path></g><g transform="translate(65.71551075456546 124.85042528022802) rotate(0 4.623992919921875 10)"><text x="4.623992919921875" y="0" font-family="HanziPen SC, HanziPen Remote, Virgil, KaiTi, Segoe UI Emoji" font-size="16px" fill="#1e1e1e" text-anchor="middle" style="white-space: pre;" direction="ltr" dominant-baseline="text-before-edge">1</text></g><g stroke-linecap="round" transform="translate(82.34605350153424 119.8025685902436) rotate(0 12 15)"><path d="M0 0 C9 0, 18 0, 24 0 M0 0 C6.92 0, 13.84 0, 24 0 M24 0 C24 8.46, 24 16.93, 24 30 M24 0 C24 11.7, 24 23.4, 24 30 M24 30 C16.59 30, 9.18 30, 0 30 M24 30 C16.54 30, 9.08 30, 0 30 M0 30 C0 18.2, 0 6.4, 0 0 M0 30 C0 19.53, 0 9.06, 0 0" stroke="#1e1e1e" stroke-width="1" fill="none"></path></g><g transform="translate(89.72206058161237 124.8025685902436) rotate(0 4.623992919921875 10)"><text x="4.623992919921875" y="0" font-family="HanziPen SC, HanziPen Remote, Virgil, KaiTi, Segoe UI Emoji" font-size="16px" fill="#1e1e1e" text-anchor="middle" style="white-space: pre;" direction="ltr" dominant-baseline="text-before-edge">1</text></g><g transform="translate(45.4978732408772 153.19668155365184) rotate(0 13.103988647460938 10)"><text x="0" y="0" font-family="HanziPen SC, HanziPen Remote, Virgil, KaiTi, Segoe UI Emoji" font-size="16px" fill="#1e1e1e" text-anchor="start" style="white-space: pre;" direction="ltr" dominant-baseline="text-before-edge">......</text></g><g transform="translate(131.10884753627442 153.3707971739792) rotate(0 13.103988647460938 10)"><text x="0" y="0" font-family="HanziPen SC, HanziPen Remote, Virgil, KaiTi, Segoe UI Emoji" font-size="16px" fill="#1e1e1e" text-anchor="start" style="white-space: pre;" direction="ltr" dominant-baseline="text-before-edge">......</text></g><g stroke-linecap="round" transform="translate(111.29362166976762 178.83087100627705) rotate(0 33 15)"><path d="M0 0 C17.57 0, 35.14 0, 66 0 M0 0 C24.21 0, 48.42 0, 66 0 M66 0 C66 11.52, 66 23.04, 66 30 M66 0 C66 9.53, 66 19.07, 66 30 M66 30 C48.3 30, 30.6 30, 0 30 M66 30 C44.09 30, 22.18 30, 0 30 M0 30 C0 23.23, 0 16.45, 0 0 M0 30 C0 22.84, 0 15.68, 0 0" stroke="#1e1e1e" stroke-width="1" fill="none"></path></g><g transform="translate(121.17365707015824 183.83087100627705) rotate(0 23.119964599609375 10)"><text x="23.119964599609375" y="0" font-family="HanziPen SC, HanziPen Remote, Virgil, KaiTi, Segoe UI Emoji" font-size="16px" fill="#1e1e1e" text-anchor="middle" style="white-space: pre;" direction="ltr" dominant-baseline="text-before-edge">32768</text></g><g stroke-linecap="round" transform="translate(10.098502888852181 178.57876964784856) rotate(0 12 15)"><path d="M0 0 C6.66 0, 13.32 0, 24 0 M0 0 C5.69 0, 11.38 0, 24 0 M24 0 C24 8.91, 24 17.81, 24 30 M24 0 C24 7.49, 24 14.98, 24 30 M24 30 C16.44 30, 8.87 30, 0 30 M24 30 C14.69 30, 5.38 30, 0 30 M0 30 C0 23.28, 0 16.56, 0 0 M0 30 C0 19.59, 0 9.18, 0 0" stroke="#1e1e1e" stroke-width="1" fill="none"></path></g><g transform="translate(17.474509968930306 183.57876964784856) rotate(0 4.623992919921875 10)"><text x="4.623992919921875" y="0" font-family="HanziPen SC, HanziPen Remote, Virgil, KaiTi, Segoe UI Emoji" font-size="16px" fill="#1e1e1e" text-anchor="middle" style="white-space: pre;" direction="ltr" dominant-baseline="text-before-edge">1</text></g><g stroke-linecap="round" transform="translate(34.00496527567475 178.57350864892857) rotate(0 12 15)"><path d="M0 0 C5.07 0, 10.15 0, 24 0 M0 0 C8.59 0, 17.18 0, 24 0 M24 0 C24 9.38, 24 18.77, 24 30 M24 0 C24 8.19, 24 16.39, 24 30 M24 30 C17.95 30, 11.9 30, 0 30 M24 30 C17.51 30, 11.02 30, 0 30 M0 30 C0 20.84, 0 11.68, 0 0 M0 30 C0 20.68, 0 11.36, 0 0" stroke="#1e1e1e" stroke-width="1" fill="none"></path></g><g transform="translate(41.380972355752874 183.57350864892857) rotate(0 4.623992919921875 10)"><text x="4.623992919921875" y="0" font-family="HanziPen SC, HanziPen Remote, Virgil, KaiTi, Segoe UI Emoji" font-size="16px" fill="#1e1e1e" text-anchor="middle" style="white-space: pre;" direction="ltr" dominant-baseline="text-before-edge">1</text></g><g stroke-linecap="round" transform="translate(58.064390370319416 178.5937947842686) rotate(0 12 15)"><path d="M0 0 C8.59 0, 17.19 0, 24 0 M0 0 C6.48 0, 12.97 0, 24 0 M24 0 C24 10.79, 24 21.58, 24 30 M24 0 C24 8.75, 24 17.51, 24 30 M24 30 C18.13 30, 12.27 30, 0 30 M24 30 C18.1 30, 12.21 30, 0 30 M0 30 C0 21.82, 0 13.64, 0 0 M0 30 C0 19.26, 0 8.52, 0 0" stroke="#1e1e1e" stroke-width="1" fill="none"></path></g><g transform="translate(65.44039745039754 183.5937947842686) rotate(0 4.623992919921875 10)"><text x="4.623992919921875" y="0" font-family="HanziPen SC, HanziPen Remote, Virgil, KaiTi, Segoe UI Emoji" font-size="16px" fill="#1e1e1e" text-anchor="middle" style="white-space: pre;" direction="ltr" dominant-baseline="text-before-edge">1</text></g><g stroke-linecap="round" transform="translate(82.07094019736633 178.54593809428417) rotate(0 12 15)"><path d="M0 0 C5.58 0, 11.17 0, 24 0 M0 0 C6.96 0, 13.91 0, 24 0 M24 0 C24 11.71, 24 23.41, 24 30 M24 0 C24 11.52, 24 23.05, 24 30 M24 30 C17.22 30, 10.45 30, 0 30 M24 30 C15.49 30, 6.98 30, 0 30 M0 30 C0 19.38, 0 8.77, 0 0 M0 30 C0 21.21, 0 12.43, 0 0" stroke="#1e1e1e" stroke-width="1" fill="none"></path></g><g transform="translate(89.44694727744445 183.54593809428417) rotate(0 4.623992919921875 10)"><text x="4.623992919921875" y="0" font-family="HanziPen SC, HanziPen Remote, Virgil, KaiTi, Segoe UI Emoji" font-size="16px" fill="#1e1e1e" text-anchor="middle" style="white-space: pre;" direction="ltr" dominant-baseline="text-before-edge">1</text></g></svg>