<svg version="1.1" xmlns="http://www.w3.org/2000/svg" viewBox="0 0 291.24845092788246 160.54071427787204" width="291.24845092788246" height="160.54071427787204">
  <!-- svg-source:excalidraw -->
  
  <defs>
    <style class="style-fonts">
      @font-face {
        font-family: "Virgil";
        src: url("https://unpkg.com/revedraw@1.0.0-alpha.10/dist/excalidraw-assets/Virgil.woff2");
      }
      @font-face {
        font-family: "Cascadia";
        src: url("https://unpkg.com/revedraw@1.0.0-alpha.10/dist/excalidraw-assets/Cascadia.woff2");
      }
    </style>
    
  </defs>
  <rect x="0" y="0" width="291.24845092788246" height="160.54071427787204" fill="#ffffff"></rect><g stroke-linecap="round" transform="translate(191.86125843720674 10) rotate(0 44.5 15)"><path d="M0 0 C0 0, 0 0, 0 0 M0 0 C0 0, 0 0, 0 0 M-0.26 6.4 C1.83 4, 3.91 1.6, 4.99 0.36 M-0.26 6.4 C1.18 4.74, 2.62 3.08, 4.99 0.36 M0.13 12.04 C3.66 7.98, 7.18 3.93, 10.63 -0.03 M0.13 12.04 C3.18 8.54, 6.22 5.04, 10.63 -0.03 M-0.13 18.44 C4.29 13.35, 8.71 8.27, 15.62 0.33 M-0.13 18.44 C5.53 11.93, 11.18 5.43, 15.62 0.33 M0.27 24.08 C8.17 14.98, 16.08 5.89, 21.26 -0.07 M0.27 24.08 C6.03 17.45, 11.8 10.82, 21.26 -0.07 M0 30.48 C6.77 22.7, 13.53 14.92, 26.25 0.29 M0 30.48 C5.62 24.02, 11.24 17.56, 26.25 0.29 M5.65 30.08 C13.44 21.13, 21.22 12.17, 31.89 -0.1 M5.65 30.08 C13.29 21.29, 20.93 12.5, 31.89 -0.1 M10.63 30.45 C17.35 22.72, 24.06 15, 36.88 0.26 M10.63 30.45 C18.66 21.21, 26.69 11.97, 36.88 0.26 M16.28 30.05 C25.09 19.92, 33.89 9.79, 42.52 -0.14 M16.28 30.05 C23.99 21.17, 31.71 12.3, 42.52 -0.14 M21.27 30.41 C27.21 23.57, 33.16 16.73, 47.51 0.22 M21.27 30.41 C28.53 22.05, 35.8 13.69, 47.51 0.22 M26.91 30.02 C36.29 19.22, 45.68 8.42, 53.15 -0.17 M26.91 30.02 C32.48 23.6, 38.06 17.19, 53.15 -0.17 M31.9 30.38 C41.01 19.89, 50.12 9.41, 58.14 0.19 M31.9 30.38 C40.92 20, 49.94 9.62, 58.14 0.19 M37.54 29.98 C44.16 22.36, 50.79 14.74, 63.78 -0.21 M37.54 29.98 C46.74 19.4, 55.94 8.82, 63.78 -0.21 M42.53 30.34 C48.29 23.71, 54.05 17.08, 68.77 0.15 M42.53 30.34 C50.35 21.34, 58.17 12.34, 68.77 0.15 M48.17 29.95 C56.94 19.86, 65.71 9.77, 74.41 -0.24 M48.17 29.95 C58.35 18.24, 68.52 6.53, 74.41 -0.24 M53.16 30.31 C60.26 22.13, 67.37 13.96, 79.4 0.12 M53.16 30.31 C61.21 21.04, 69.26 11.78, 79.4 0.12 M58.8 29.91 C67.79 19.57, 76.78 9.22, 85.04 -0.28 M58.8 29.91 C68.73 18.48, 78.67 7.06, 85.04 -0.28 M63.79 30.27 C72.81 19.9, 81.83 9.52, 89.37 0.84 M63.79 30.27 C71.77 21.09, 79.74 11.91, 89.37 0.84 M69.43 29.88 C74.35 24.21, 79.28 18.55, 89.77 6.48 M69.43 29.88 C76.59 21.64, 83.74 13.41, 89.77 6.48 M74.42 30.24 C79.58 24.3, 84.74 18.37, 89.5 12.88 M74.42 30.24 C77.88 26.25, 81.35 22.26, 89.5 12.88 M80.06 29.84 C82.24 27.33, 84.43 24.82, 89.9 18.52 M80.06 29.84 C83.13 26.31, 86.21 22.77, 89.9 18.52 M85.05 30.2 C86.61 28.4, 88.18 26.6, 89.64 24.92 M85.05 30.2 C86.66 28.34, 88.28 26.48, 89.64 24.92" stroke="#ffec99" stroke-width="0.5" fill="none"></path><path d="M0 0 C24.01 0, 48.02 0, 89 0 M0 0 C18.64 0, 37.29 0, 89 0 M89 0 C89 9.91, 89 19.82, 89 30 M89 0 C89 6.75, 89 13.5, 89 30 M89 30 C65.91 30, 42.83 30, 0 30 M89 30 C64.6 30, 40.2 30, 0 30 M0 30 C0 20.81, 0 11.61, 0 0 M0 30 C0 21.93, 0 13.86, 0 0" stroke="#1e1e1e" stroke-width="1" fill="none"></path></g><g transform="translate(216.63328449921846 15) rotate(0 19.72797393798828 10)"><text x="19.72797393798828" y="0" font-family="HanziPen SC, HanziPen Remote, Virgil, KaiTi, Segoe UI Emoji" font-size="16px" fill="#1e1e1e" text-anchor="middle" style="white-space: pre;" direction="ltr" dominant-baseline="text-before-edge">1x0.0</text></g><g stroke-linecap="round" transform="translate(10.07843433411199 10.735528250593632) rotate(0 12 15)"><path d="M0 0 C6.72 0, 13.44 0, 24 0 M0 0 C8.33 0, 16.66 0, 24 0 M24 0 C24 8.94, 24 17.88, 24 30 M24 0 C24 6.88, 24 13.75, 24 30 M24 30 C18.71 30, 13.43 30, 0 30 M24 30 C15.5 30, 7 30, 0 30 M0 30 C0 18.58, 0 7.16, 0 0 M0 30 C0 23.99, 0 17.99, 0 0" stroke="#1e1e1e" stroke-width="1" fill="none"></path></g><g transform="translate(17.454441414190114 15.735528250593632) rotate(0 4.623992919921875 10)"><text x="4.623992919921875" y="0" font-family="HanziPen SC, HanziPen Remote, Virgil, KaiTi, Segoe UI Emoji" font-size="16px" fill="#1e1e1e" text-anchor="middle" style="white-space: pre;" direction="ltr" dominant-baseline="text-before-edge">0</text></g><g stroke-linecap="round" transform="translate(33.98489672093456 10.730267251673638) rotate(0 12 15)"><path d="M0 0 C8.44 0, 16.88 0, 24 0 M0 0 C7.49 0, 14.97 0, 24 0 M24 0 C24 6.79, 24 13.58, 24 30 M24 0 C24 8.49, 24 16.98, 24 30 M24 30 C18.06 30, 12.12 30, 0 30 M24 30 C19.19 30, 14.39 30, 0 30 M0 30 C0 23, 0 16, 0 0 M0 30 C0 20.78, 0 11.57, 0 0" stroke="#1e1e1e" stroke-width="1" fill="none"></path></g><g transform="translate(41.36090380101268 15.730267251673638) rotate(0 4.623992919921875 10)"><text x="4.623992919921875" y="0" font-family="HanziPen SC, HanziPen Remote, Virgil, KaiTi, Segoe UI Emoji" font-size="16px" fill="#1e1e1e" text-anchor="middle" style="white-space: pre;" direction="ltr" dominant-baseline="text-before-edge">0</text></g><g stroke-linecap="round" transform="translate(58.044321815579224 10.750553387013667) rotate(0 12 15)"><path d="M0 0 C6.9 0, 13.79 0, 24 0 M0 0 C7.98 0, 15.96 0, 24 0 M24 0 C24 10.67, 24 21.35, 24 30 M24 0 C24 11.32, 24 22.65, 24 30 M24 30 C18.74 30, 13.49 30, 0 30 M24 30 C15.23 30, 6.45 30, 0 30 M0 30 C0 18.61, 0 7.23, 0 0 M0 30 C0 20.82, 0 11.64, 0 0" stroke="#1e1e1e" stroke-width="1" fill="none"></path></g><g transform="translate(65.42032889565735 15.750553387013667) rotate(0 4.623992919921875 10)"><text x="4.623992919921875" y="0" font-family="HanziPen SC, HanziPen Remote, Virgil, KaiTi, Segoe UI Emoji" font-size="16px" fill="#1e1e1e" text-anchor="middle" style="white-space: pre;" direction="ltr" dominant-baseline="text-before-edge">0</text></g><g stroke-linecap="round" transform="translate(82.05087164262659 10.70269669702924) rotate(0 12 15)"><path d="M0 0 C7.56 0, 15.11 0, 24 0 M0 0 C5.09 0, 10.19 0, 24 0 M24 0 C24 10.54, 24 21.09, 24 30 M24 0 C24 8.36, 24 16.72, 24 30 M24 30 C18.3 30, 12.61 30, 0 30 M24 30 C14.91 30, 5.82 30, 0 30 M0 30 C0 19.21, 0 8.42, 0 0 M0 30 C0 21.37, 0 12.74, 0 0" stroke="#1e1e1e" stroke-width="1" fill="none"></path></g><g transform="translate(89.42687872270471 15.70269669702924) rotate(0 4.623992919921875 10)"><text x="4.623992919921875" y="0" font-family="HanziPen SC, HanziPen Remote, Virgil, KaiTi, Segoe UI Emoji" font-size="16px" fill="#1e1e1e" text-anchor="middle" style="white-space: pre;" direction="ltr" dominant-baseline="text-before-edge">0</text></g><g stroke-linecap="round" transform="translate(191.19021138123207 47.37336012962169) rotate(0 45 15)"><path d="M0 0 C0 0, 0 0, 0 0 M0 0 C0 0, 0 0, 0 0 M-0.26 6.4 C1.47 4.4, 3.21 2.4, 4.99 0.36 M-0.26 6.4 C1.5 4.37, 3.26 2.35, 4.99 0.36 M0.13 12.04 C2.78 8.99, 5.43 5.94, 10.63 -0.03 M0.13 12.04 C3.68 7.96, 7.23 3.87, 10.63 -0.03 M-0.13 18.44 C5.09 12.43, 10.31 6.43, 15.62 0.33 M-0.13 18.44 C4.92 12.63, 9.97 6.83, 15.62 0.33 M0.27 24.08 C5.2 18.41, 10.13 12.73, 21.26 -0.07 M0.27 24.08 C4.52 19.19, 8.78 14.29, 21.26 -0.07 M0 30.48 C5.73 23.89, 11.45 17.31, 26.25 0.29 M0 30.48 C10.26 18.69, 20.51 6.9, 26.25 0.29 M5.65 30.08 C15.52 18.73, 25.38 7.38, 31.89 -0.1 M5.65 30.08 C14.21 20.24, 22.77 10.39, 31.89 -0.1 M10.63 30.45 C18.31 21.62, 25.98 12.79, 36.88 0.26 M10.63 30.45 C16.86 23.28, 23.09 16.12, 36.88 0.26 M16.28 30.05 C23.89 21.29, 31.51 12.53, 42.52 -0.14 M16.28 30.05 C23.83 21.36, 31.38 12.67, 42.52 -0.14 M21.27 30.41 C28.65 21.92, 36.03 13.43, 47.51 0.22 M21.27 30.41 C29.86 20.53, 38.45 10.64, 47.51 0.22 M26.91 30.02 C32.6 23.47, 38.29 16.93, 53.15 -0.17 M26.91 30.02 C33.26 22.71, 39.6 15.41, 53.15 -0.17 M31.9 30.38 C40.73 20.21, 49.57 10.04, 58.14 0.19 M31.9 30.38 C39.84 21.23, 47.79 12.09, 58.14 0.19 M37.54 29.98 C43.32 23.33, 49.11 16.67, 63.78 -0.21 M37.54 29.98 C45.88 20.39, 54.22 10.8, 63.78 -0.21 M42.53 30.34 C48.71 23.22, 54.9 16.1, 68.77 0.15 M42.53 30.34 C52.5 18.86, 62.48 7.38, 68.77 0.15 M48.17 29.95 C58.41 18.16, 68.66 6.37, 74.41 -0.24 M48.17 29.95 C53.93 23.31, 59.7 16.68, 74.41 -0.24 M53.16 30.31 C63.14 18.82, 73.12 7.34, 79.4 0.12 M53.16 30.31 C62.38 19.69, 71.61 9.08, 79.4 0.12 M58.8 29.91 C65.13 22.63, 71.46 15.34, 85.04 -0.28 M58.8 29.91 C64.76 23.06, 70.71 16.21, 85.04 -0.28 M63.79 30.27 C74.22 18.27, 84.65 6.27, 90.03 0.08 M63.79 30.27 C73.85 18.7, 83.91 7.12, 90.03 0.08 M69.43 29.88 C75.78 22.57, 82.14 15.26, 89.77 6.48 M69.43 29.88 C77.44 20.66, 85.45 11.44, 89.77 6.48 M74.42 30.24 C79.75 24.1, 85.09 17.96, 90.16 12.13 M74.42 30.24 C77.84 26.29, 81.27 22.35, 90.16 12.13 M80.06 29.84 C83.68 25.67, 87.31 21.5, 89.9 18.52 M80.06 29.84 C83.5 25.88, 86.95 21.92, 89.9 18.52 M85.05 30.2 C86.52 28.5, 88 26.8, 90.29 24.17 M85.05 30.2 C86.99 27.96, 88.94 25.72, 90.29 24.17" stroke="#ffc9c9" stroke-width="0.5" fill="none"></path><path d="M0 0 C25.83 0, 51.67 0, 90 0 M0 0 C29.68 0, 59.36 0, 90 0 M90 0 C90 9.11, 90 18.22, 90 30 M90 0 C90 9.82, 90 19.65, 90 30 M90 30 C69.26 30, 48.52 30, 0 30 M90 30 C59.09 30, 28.18 30, 0 30 M0 30 C0 19.84, 0 9.67, 0 0 M0 30 C0 20.45, 0 10.9, 0 0" stroke="#1e1e1e" stroke-width="1" fill="none"></path></g><g transform="translate(211.83824452332192 52.37336012962169) rotate(0 24.351966857910156 10)"><text x="24.351966857910156" y="0" font-family="HanziPen SC, HanziPen Remote, Virgil, KaiTi, Segoe UI Emoji" font-size="16px" fill="#1e1e1e" text-anchor="middle" style="white-space: pre;" direction="ltr" dominant-baseline="text-before-edge">2x0.25</text></g><g stroke-linecap="round" transform="translate(10 47.732081902877496) rotate(0 12 15)"><path d="M0 0 C7.15 0, 14.3 0, 24 0 M0 0 C5.5 0, 11 0, 24 0 M24 0 C24 6.61, 24 13.21, 24 30 M24 0 C24 10.63, 24 21.26, 24 30 M24 30 C14.86 30, 5.73 30, 0 30 M24 30 C19.2 30, 14.39 30, 0 30 M0 30 C0 22.43, 0 14.87, 0 0 M0 30 C0 18.58, 0 7.15, 0 0" stroke="#1e1e1e" stroke-width="1" fill="none"></path></g><g transform="translate(17.376007080078125 52.732081902877496) rotate(0 4.623992919921875 10)"><text x="4.623992919921875" y="0" font-family="HanziPen SC, HanziPen Remote, Virgil, KaiTi, Segoe UI Emoji" font-size="16px" fill="#1e1e1e" text-anchor="middle" style="white-space: pre;" direction="ltr" dominant-baseline="text-before-edge">0</text></g><g stroke-linecap="round" transform="translate(33.90646238682257 47.7268209039575) rotate(0 12 15)"><path d="M0 0 C5.43 0, 10.86 0, 24 0 M0 0 C6.79 0, 13.58 0, 24 0 M24 0 C24 7.42, 24 14.85, 24 30 M24 0 C24 6.01, 24 12.01, 24 30 M24 30 C18.4 30, 12.8 30, 0 30 M24 30 C16.63 30, 9.25 30, 0 30 M0 30 C0 22.77, 0 15.54, 0 0 M0 30 C0 21.5, 0 13, 0 0" stroke="#1e1e1e" stroke-width="1" fill="none"></path></g><g transform="translate(41.28246946690069 52.7268209039575) rotate(0 4.623992919921875 10)"><text x="4.623992919921875" y="0" font-family="HanziPen SC, HanziPen Remote, Virgil, KaiTi, Segoe UI Emoji" font-size="16px" fill="#1e1e1e" text-anchor="middle" style="white-space: pre;" direction="ltr" dominant-baseline="text-before-edge">0</text></g><g stroke-linecap="round" transform="translate(57.965887481467234 47.747107039297475) rotate(0 12 15)"><path d="M0 0 C8.54 0, 17.08 0, 24 0 M0 0 C9.06 0, 18.12 0, 24 0 M24 0 C24 6.57, 24 13.14, 24 30 M24 0 C24 10.97, 24 21.93, 24 30 M24 30 C14.89 30, 5.78 30, 0 30 M24 30 C16.66 30, 9.31 30, 0 30 M0 30 C0 21.63, 0 13.25, 0 0 M0 30 C0 19.68, 0 9.37, 0 0" stroke="#1e1e1e" stroke-width="1" fill="none"></path></g><g transform="translate(65.34189456154536 52.747107039297475) rotate(0 4.623992919921875 10)"><text x="4.623992919921875" y="0" font-family="HanziPen SC, HanziPen Remote, Virgil, KaiTi, Segoe UI Emoji" font-size="16px" fill="#1e1e1e" text-anchor="middle" style="white-space: pre;" direction="ltr" dominant-baseline="text-before-edge">0</text></g><g stroke-linecap="round" transform="translate(81.97243730851415 47.69925034931316) rotate(0 12 15)"><path d="M0 0 C8.43 0, 16.87 0, 24 0 M0 0 C6.69 0, 13.37 0, 24 0 M24 0 C24 7.12, 24 14.24, 24 30 M24 0 C24 11.36, 24 22.73, 24 30 M24 30 C15.37 30, 6.74 30, 0 30 M24 30 C17.09 30, 10.19 30, 0 30 M0 30 C0 19.67, 0 9.35, 0 0 M0 30 C0 23.52, 0 17.04, 0 0" stroke="#1e1e1e" stroke-width="1" fill="none"></path></g><g transform="translate(89.34844438859227 52.69925034931316) rotate(0 4.623992919921875 10)"><text x="4.623992919921875" y="0" font-family="HanziPen SC, HanziPen Remote, Virgil, KaiTi, Segoe UI Emoji" font-size="16px" fill="#1e1e1e" text-anchor="middle" style="white-space: pre;" direction="ltr" dominant-baseline="text-before-edge">1</text></g><g stroke-linecap="round" transform="translate(191.24845092788246 83.2808628554954) rotate(0 45 15)"><path d="M0 0 C0 0, 0 0, 0 0 M0 0 C0 0, 0 0, 0 0 M-0.26 6.4 C1.06 4.87, 2.39 3.35, 4.99 0.36 M-0.26 6.4 C1.51 4.36, 3.29 2.31, 4.99 0.36 M0.13 12.04 C3.61 8.04, 7.09 4.03, 10.63 -0.03 M0.13 12.04 C3.5 8.17, 6.86 4.3, 10.63 -0.03 M-0.13 18.44 C3.57 14.18, 7.27 9.93, 15.62 0.33 M-0.13 18.44 C3.06 14.77, 6.26 11.09, 15.62 0.33 M0.27 24.08 C4.85 18.81, 9.43 13.55, 21.26 -0.07 M0.27 24.08 C8.47 14.65, 16.67 5.21, 21.26 -0.07 M0 30.48 C9.87 19.13, 19.74 7.78, 26.25 0.29 M0 30.48 C8.56 20.63, 17.12 10.79, 26.25 0.29 M5.65 30.08 C13.32 21.26, 20.99 12.43, 31.89 -0.1 M5.65 30.08 C11.88 22.92, 18.1 15.76, 31.89 -0.1 M10.63 30.45 C18.25 21.69, 25.86 12.93, 36.88 0.26 M10.63 30.45 C18.19 21.76, 25.74 13.07, 36.88 0.26 M16.28 30.05 C23.66 21.56, 31.04 13.07, 42.52 -0.14 M16.28 30.05 C24.87 20.17, 33.46 10.28, 42.52 -0.14 M21.27 30.41 C26.95 23.87, 32.64 17.32, 47.51 0.22 M21.27 30.41 C27.61 23.11, 33.96 15.81, 47.51 0.22 M26.91 30.02 C35.75 19.85, 44.58 9.68, 53.15 -0.17 M26.91 30.02 C34.86 20.87, 42.8 11.73, 53.15 -0.17 M31.9 30.38 C37.68 23.72, 43.46 17.07, 58.14 0.19 M31.9 30.38 C40.23 20.78, 48.57 11.19, 58.14 0.19 M37.54 29.98 C43.73 22.86, 49.92 15.74, 63.78 -0.21 M37.54 29.98 C47.52 18.5, 57.5 7.02, 63.78 -0.21 M42.53 30.34 C52.77 18.56, 63.02 6.77, 68.77 0.15 M42.53 30.34 C48.29 23.71, 54.06 17.08, 68.77 0.15 M48.17 29.95 C58.15 18.46, 68.14 6.98, 74.41 -0.24 M48.17 29.95 C57.39 19.33, 66.62 8.72, 74.41 -0.24 M53.16 30.31 C59.49 23.02, 65.82 15.74, 79.4 0.12 M53.16 30.31 C59.11 23.45, 65.07 16.6, 79.4 0.12 M58.8 29.91 C69.23 17.91, 79.66 5.91, 85.04 -0.28 M58.8 29.91 C68.86 18.34, 78.92 6.76, 85.04 -0.28 M63.79 30.27 C71.99 20.84, 80.19 11.4, 90.03 0.08 M63.79 30.27 C74.12 18.38, 84.46 6.48, 90.03 0.08 M69.43 29.88 C76.32 21.95, 83.22 14.02, 89.77 6.48 M69.43 29.88 C73.86 24.78, 78.29 19.69, 89.77 6.48 M74.42 30.24 C80.22 23.56, 86.02 16.89, 90.16 12.13 M74.42 30.24 C79.93 23.9, 85.43 17.56, 90.16 12.13 M80.06 29.84 C82.83 26.65, 85.6 23.46, 89.9 18.52 M80.06 29.84 C83.71 25.64, 87.37 21.44, 89.9 18.52 M85.05 30.2 C87.14 27.8, 89.23 25.39, 90.29 24.17 M85.05 30.2 C86.62 28.4, 88.19 26.59, 90.29 24.17" stroke="#ffc9c9" stroke-width="0.5" fill="none"></path><path d="M0 0 C27.33 0, 54.65 0, 90 0 M0 0 C29.47 0, 58.94 0, 90 0 M90 0 C90 6.91, 90 13.83, 90 30 M90 0 C90 10.3, 90 20.61, 90 30 M90 30 C59.51 30, 29.02 30, 0 30 M90 30 C61.35 30, 32.71 30, 0 30 M0 30 C0 22.83, 0 15.65, 0 0 M0 30 C0 20.15, 0 10.31, 0 0" stroke="#1e1e1e" stroke-width="1" fill="none"></path></g><g transform="translate(207.27249115005043 88.2808628554954) rotate(0 28.97595977783203 10)"><text x="28.97595977783203" y="0" font-family="HanziPen SC, HanziPen Remote, Virgil, KaiTi, Segoe UI Emoji" font-size="16px" fill="#1e1e1e" text-anchor="middle" style="white-space: pre;" direction="ltr" dominant-baseline="text-before-edge">4x0.125</text></g><g stroke-linecap="round" transform="translate(10.030356292888428 83.29562738229077) rotate(0 12 15)"><path d="M0 0 C7.86 0, 15.72 0, 24 0 M0 0 C5.76 0, 11.52 0, 24 0 M24 0 C24 10.53, 24 21.05, 24 30 M24 0 C24 10.14, 24 20.28, 24 30 M24 30 C16.63 30, 9.25 30, 0 30 M24 30 C18.27 30, 12.54 30, 0 30 M0 30 C0 18.26, 0 6.52, 0 0 M0 30 C0 21.48, 0 12.96, 0 0" stroke="#1e1e1e" stroke-width="1" fill="none"></path></g><g transform="translate(17.406363372966553 88.29562738229077) rotate(0 4.623992919921875 10)"><text x="4.623992919921875" y="0" font-family="HanziPen SC, HanziPen Remote, Virgil, KaiTi, Segoe UI Emoji" font-size="16px" fill="#1e1e1e" text-anchor="middle" style="white-space: pre;" direction="ltr" dominant-baseline="text-before-edge">0</text></g><g stroke-linecap="round" transform="translate(33.936818679710996 83.29036638337078) rotate(0 12 15)"><path d="M0 0 C8.72 0, 17.45 0, 24 0 M0 0 C7.37 0, 14.75 0, 24 0 M24 0 C24 11.3, 24 22.59, 24 30 M24 0 C24 6.48, 24 12.96, 24 30 M24 30 C17.27 30, 10.55 30, 0 30 M24 30 C17.64 30, 11.28 30, 0 30 M0 30 C0 22.38, 0 14.76, 0 0 M0 30 C0 22.14, 0 14.29, 0 0" stroke="#1e1e1e" stroke-width="1" fill="none"></path></g><g transform="translate(41.31282575978912 88.29036638337078) rotate(0 4.623992919921875 10)"><text x="4.623992919921875" y="0" font-family="HanziPen SC, HanziPen Remote, Virgil, KaiTi, Segoe UI Emoji" font-size="16px" fill="#1e1e1e" text-anchor="middle" style="white-space: pre;" direction="ltr" dominant-baseline="text-before-edge">0</text></g><g stroke-linecap="round" transform="translate(57.99624377435566 83.31065251871075) rotate(0 12 15)"><path d="M0 0 C9.04 0, 18.07 0, 24 0 M0 0 C9.49 0, 18.97 0, 24 0 M24 0 C24 9.3, 24 18.6, 24 30 M24 0 C24 6.18, 24 12.36, 24 30 M24 30 C16.85 30, 9.69 30, 0 30 M24 30 C14.68 30, 5.36 30, 0 30 M0 30 C0 20.87, 0 11.73, 0 0 M0 30 C0 23.54, 0 17.08, 0 0" stroke="#1e1e1e" stroke-width="1" fill="none"></path></g><g transform="translate(65.37225085443379 88.31065251871075) rotate(0 4.623992919921875 10)"><text x="4.623992919921875" y="0" font-family="HanziPen SC, HanziPen Remote, Virgil, KaiTi, Segoe UI Emoji" font-size="16px" fill="#1e1e1e" text-anchor="middle" style="white-space: pre;" direction="ltr" dominant-baseline="text-before-edge">1</text></g><g stroke-linecap="round" transform="translate(82.00279360140257 83.26279582872644) rotate(0 12 15)"><path d="M0 0 C8.57 0, 17.14 0, 24 0 M0 0 C8.28 0, 16.56 0, 24 0 M24 0 C24 11.37, 24 22.74, 24 30 M24 0 C24 9.34, 24 18.69, 24 30 M24 30 C18.58 30, 13.16 30, 0 30 M24 30 C15.01 30, 6.02 30, 0 30 M0 30 C0 22.63, 0 15.26, 0 0 M0 30 C0 21.81, 0 13.62, 0 0" stroke="#1e1e1e" stroke-width="1" fill="none"></path></g><g transform="translate(89.3788006814807 88.26279582872644) rotate(0 4.623992919921875 10)"><text x="4.623992919921875" y="0" font-family="HanziPen SC, HanziPen Remote, Virgil, KaiTi, Segoe UI Emoji" font-size="16px" fill="#1e1e1e" text-anchor="middle" style="white-space: pre;" direction="ltr" dominant-baseline="text-before-edge">0</text></g><g stroke-linecap="round" transform="translate(190.85528148339154 119.52805654858474) rotate(0 45 15)"><path d="M0 0 C0 0, 0 0, 0 0 M0 0 C0 0, 0 0, 0 0 M-0.26 6.4 C1.49 4.39, 3.23 2.38, 4.99 0.36 M-0.26 6.4 C1.54 4.33, 3.34 2.25, 4.99 0.36 M0.13 12.04 C3.48 8.19, 6.84 4.33, 10.63 -0.03 M0.13 12.04 C3.42 8.26, 6.7 4.49, 10.63 -0.03 M-0.13 18.44 C5.52 11.94, 11.18 5.43, 15.62 0.33 M-0.13 18.44 C5.85 11.57, 11.82 4.7, 15.62 0.33 M0.27 24.08 C7.19 16.12, 14.11 8.16, 21.26 -0.07 M0.27 24.08 C8.19 14.97, 16.11 5.86, 21.26 -0.07 M0 30.48 C6.51 22.99, 13.02 15.51, 26.25 0.29 M0 30.48 C7.26 22.13, 14.52 13.79, 26.25 0.29 M5.65 30.08 C14.04 20.43, 22.43 10.79, 31.89 -0.1 M5.65 30.08 C14.39 20.03, 23.12 9.98, 31.89 -0.1 M10.63 30.45 C20.85 18.69, 31.07 6.93, 36.88 0.26 M10.63 30.45 C16.9 23.24, 23.16 16.03, 36.88 0.26 M16.28 30.05 C26.54 18.24, 36.8 6.44, 42.52 -0.14 M16.28 30.05 C23.4 21.85, 30.53 13.66, 42.52 -0.14 M21.27 30.41 C31.7 18.41, 42.13 6.41, 47.51 0.22 M21.27 30.41 C27.7 23, 34.14 15.6, 47.51 0.22 M26.91 30.02 C34.02 21.84, 41.13 13.66, 53.15 -0.17 M26.91 30.02 C33.73 22.17, 40.55 14.33, 53.15 -0.17 M31.9 30.38 C40.08 20.96, 48.27 11.54, 58.14 0.19 M31.9 30.38 C38.47 22.81, 45.05 15.24, 58.14 0.19 M37.54 29.98 C45.7 20.59, 53.86 11.2, 63.78 -0.21 M37.54 29.98 C46.45 19.73, 55.36 9.48, 63.78 -0.21 M42.53 30.34 C52.95 18.35, 63.37 6.36, 68.77 0.15 M42.53 30.34 C52.6 18.75, 62.68 7.15, 68.77 0.15 M48.17 29.95 C55.74 21.24, 63.31 12.53, 74.41 -0.24 M48.17 29.95 C56.77 20.05, 65.37 10.16, 74.41 -0.24 M53.16 30.31 C62.14 19.97, 71.13 9.63, 79.4 0.12 M53.16 30.31 C62.34 19.75, 71.52 9.19, 79.4 0.12 M58.8 29.91 C64.19 23.71, 69.57 17.52, 85.04 -0.28 M58.8 29.91 C64.46 23.4, 70.13 16.88, 85.04 -0.28 M63.79 30.27 C70.67 22.35, 77.56 14.43, 90.03 0.08 M63.79 30.27 C69.75 23.42, 75.71 16.56, 90.03 0.08 M69.43 29.88 C75.29 23.13, 81.15 16.39, 89.77 6.48 M69.43 29.88 C76.97 21.2, 84.52 12.52, 89.77 6.48 M74.42 30.24 C79.08 24.87, 83.75 19.5, 90.16 12.13 M74.42 30.24 C78.67 25.34, 82.93 20.44, 90.16 12.13 M80.06 29.84 C83.89 25.44, 87.72 21.03, 89.9 18.52 M80.06 29.84 C83.35 26.05, 86.65 22.27, 89.9 18.52 M85.05 30.2 C86.14 28.94, 87.24 27.68, 90.29 24.17 M85.05 30.2 C86.67 28.34, 88.29 26.47, 90.29 24.17" stroke="#ffec99" stroke-width="0.5" fill="none"></path><path d="M0 0 C28.83 0, 57.65 0, 90 0 M0 0 C33.54 0, 67.08 0, 90 0 M90 0 C90 7.09, 90 14.19, 90 30 M90 0 C90 9.33, 90 18.66, 90 30 M90 30 C58.14 30, 26.28 30, 0 30 M90 30 C57.18 30, 24.35 30, 0 30 M0 30 C0 23.85, 0 17.69, 0 0 M0 30 C0 19.85, 0 9.7, 0 0" stroke="#1e1e1e" stroke-width="1" fill="none"></path></g><g transform="translate(216.12730754540326 124.52805654858474) rotate(0 19.72797393798828 10)"><text x="19.72797393798828" y="0" font-family="HanziPen SC, HanziPen Remote, Virgil, KaiTi, Segoe UI Emoji" font-size="16px" fill="#1e1e1e" text-anchor="middle" style="white-space: pre;" direction="ltr" dominant-baseline="text-before-edge">4x0.0</text></g><g stroke-linecap="round" transform="translate(10.33803150268568 120.41513893770593) rotate(0 12 15)"><path d="M0 0 C7.35 0, 14.71 0, 24 0 M0 0 C6.46 0, 12.91 0, 24 0 M24 0 C24 10.8, 24 21.6, 24 30 M24 0 C24 10.74, 24 21.47, 24 30 M24 30 C14.46 30, 4.92 30, 0 30 M24 30 C17.4 30, 10.81 30, 0 30 M0 30 C0 19.92, 0 9.85, 0 0 M0 30 C0 21.3, 0 12.6, 0 0" stroke="#1e1e1e" stroke-width="1" fill="none"></path></g><g transform="translate(17.714038582763806 125.41513893770593) rotate(0 4.623992919921875 10)"><text x="4.623992919921875" y="0" font-family="HanziPen SC, HanziPen Remote, Virgil, KaiTi, Segoe UI Emoji" font-size="16px" fill="#1e1e1e" text-anchor="middle" style="white-space: pre;" direction="ltr" dominant-baseline="text-before-edge">0</text></g><g stroke-linecap="round" transform="translate(34.24449388950825 120.40987793878594) rotate(0 12 15)"><path d="M0 0 C9.14 0, 18.27 0, 24 0 M0 0 C4.8 0, 9.61 0, 24 0 M24 0 C24 7.57, 24 15.13, 24 30 M24 0 C24 11.42, 24 22.85, 24 30 M24 30 C16.88 30, 9.75 30, 0 30 M24 30 C14.5 30, 5 30, 0 30 M0 30 C0 23.54, 0 17.07, 0 0 M0 30 C0 18.57, 0 7.13, 0 0" stroke="#1e1e1e" stroke-width="1" fill="none"></path></g><g transform="translate(41.620500969586374 125.40987793878594) rotate(0 4.623992919921875 10)"><text x="4.623992919921875" y="0" font-family="HanziPen SC, HanziPen Remote, Virgil, KaiTi, Segoe UI Emoji" font-size="16px" fill="#1e1e1e" text-anchor="middle" style="white-space: pre;" direction="ltr" dominant-baseline="text-before-edge">0</text></g><g stroke-linecap="round" transform="translate(58.303918984152915 120.43016407412597) rotate(0 12 15)"><path d="M0 0 C5.6 0, 11.2 0, 24 0 M0 0 C7.37 0, 14.75 0, 24 0 M24 0 C24 7.23, 24 14.46, 24 30 M24 0 C24 8.5, 24 17, 24 30 M24 30 C18.79 30, 13.58 30, 0 30 M24 30 C14.54 30, 5.09 30, 0 30 M0 30 C0 22.6, 0 15.2, 0 0 M0 30 C0 22.78, 0 15.57, 0 0" stroke="#1e1e1e" stroke-width="1" fill="none"></path></g><g transform="translate(65.67992606423104 125.43016407412597) rotate(0 4.623992919921875 10)"><text x="4.623992919921875" y="0" font-family="HanziPen SC, HanziPen Remote, Virgil, KaiTi, Segoe UI Emoji" font-size="16px" fill="#1e1e1e" text-anchor="middle" style="white-space: pre;" direction="ltr" dominant-baseline="text-before-edge">1</text></g><g stroke-linecap="round" transform="translate(82.31046881119983 120.38230738414154) rotate(0 12 15)"><path d="M0 0 C9.11 0, 18.22 0, 24 0 M0 0 C7.34 0, 14.69 0, 24 0 M24 0 C24 8.37, 24 16.75, 24 30 M24 0 C24 10.32, 24 20.63, 24 30 M24 30 C15.64 30, 7.27 30, 0 30 M24 30 C16.56 30, 9.12 30, 0 30 M0 30 C0 22.28, 0 14.56, 0 0 M0 30 C0 21.85, 0 13.7, 0 0" stroke="#1e1e1e" stroke-width="1" fill="none"></path></g><g transform="translate(89.68647589127795 125.38230738414154) rotate(0 4.623992919921875 10)"><text x="4.623992919921875" y="0" font-family="HanziPen SC, HanziPen Remote, Virgil, KaiTi, Segoe UI Emoji" font-size="16px" fill="#1e1e1e" text-anchor="middle" style="white-space: pre;" direction="ltr" dominant-baseline="text-before-edge">0</text></g><g stroke-linecap="round" transform="translate(105.74674809812905 10.737994063744168) rotate(0 12 15)"><path d="M0 0 C8.63 0, 17.26 0, 24 0 M0 0 C6.91 0, 13.81 0, 24 0 M24 0 C24 10.33, 24 20.65, 24 30 M24 0 C24 6.48, 24 12.96, 24 30 M24 30 C16.65 30, 9.3 30, 0 30 M24 30 C15.35 30, 6.71 30, 0 30 M0 30 C0 21, 0 12, 0 0 M0 30 C0 22.41, 0 14.82, 0 0" stroke="#1e1e1e" stroke-width="1" fill="none"></path></g><g transform="translate(113.12275517820717 15.737994063744168) rotate(0 4.623992919921875 10)"><text x="4.623992919921875" y="0" font-family="HanziPen SC, HanziPen Remote, Virgil, KaiTi, Segoe UI Emoji" font-size="16px" fill="#2f9e44" text-anchor="middle" style="white-space: pre;" direction="ltr" dominant-baseline="text-before-edge">0</text></g><g stroke-linecap="round" transform="translate(129.65321048495161 10.732733064824174) rotate(0 12 15)"><path d="M0 0 C8.13 0, 16.26 0, 24 0 M0 0 C7.64 0, 15.28 0, 24 0 M24 0 C24 7.17, 24 14.35, 24 30 M24 0 C24 9.85, 24 19.69, 24 30 M24 30 C16.06 30, 8.12 30, 0 30 M24 30 C15.95 30, 7.9 30, 0 30 M0 30 C0 22.43, 0 14.85, 0 0 M0 30 C0 19.86, 0 9.71, 0 0" stroke="#1e1e1e" stroke-width="1" fill="none"></path></g><g transform="translate(137.02921756502974 15.732733064824174) rotate(0 4.623992919921875 10)"><text x="4.623992919921875" y="0" font-family="HanziPen SC, HanziPen Remote, Virgil, KaiTi, Segoe UI Emoji" font-size="16px" fill="#2f9e44" text-anchor="middle" style="white-space: pre;" direction="ltr" dominant-baseline="text-before-edge">0</text></g><g stroke-linecap="round" transform="translate(153.71263557959583 10.753019200164204) rotate(0 12 15)"><path d="M0 0 C7.37 0, 14.75 0, 24 0 M0 0 C5.73 0, 11.46 0, 24 0 M24 0 C24 11.74, 24 23.48, 24 30 M24 0 C24 8.52, 24 17.04, 24 30 M24 30 C17.11 30, 10.22 30, 0 30 M24 30 C19.16 30, 14.32 30, 0 30 M0 30 C0 23.48, 0 16.95, 0 0 M0 30 C0 22.33, 0 14.67, 0 0" stroke="#1e1e1e" stroke-width="1" fill="none"></path></g><g transform="translate(161.08864265967395 15.753019200164204) rotate(0 4.623992919921875 10)"><text x="4.623992919921875" y="0" font-family="HanziPen SC, HanziPen Remote, Virgil, KaiTi, Segoe UI Emoji" font-size="16px" fill="#2f9e44" text-anchor="middle" style="white-space: pre;" direction="ltr" dominant-baseline="text-before-edge">0</text></g><g stroke-linecap="round" transform="translate(105.68033736844154 47.59341188102633) rotate(0 12 15)"><path d="M0 0 C6.73 0, 13.45 0, 24 0 M0 0 C6.36 0, 12.72 0, 24 0 M24 0 C24 7.62, 24 15.24, 24 30 M24 0 C24 7.86, 24 15.71, 24 30 M24 30 C17.62 30, 11.25 30, 0 30 M24 30 C16.8 30, 9.6 30, 0 30 M0 30 C0 20.32, 0 10.63, 0 0 M0 30 C0 20.74, 0 11.48, 0 0" stroke="#1e1e1e" stroke-width="1" fill="none"></path></g><g transform="translate(113.05634444851967 52.59341188102633) rotate(0 4.623992919921875 10)"><text x="4.623992919921875" y="0" font-family="HanziPen SC, HanziPen Remote, Virgil, KaiTi, Segoe UI Emoji" font-size="16px" fill="#2f9e44" text-anchor="middle" style="white-space: pre;" direction="ltr" dominant-baseline="text-before-edge">0</text></g><g stroke-linecap="round" transform="translate(129.5867997552641 47.58815088210633) rotate(0 12 15)"><path d="M0 0 C7.15 0, 14.31 0, 24 0 M0 0 C9.32 0, 18.64 0, 24 0 M24 0 C24 9.13, 24 18.27, 24 30 M24 0 C24 6.46, 24 12.92, 24 30 M24 30 C14.84 30, 5.69 30, 0 30 M24 30 C15.69 30, 7.38 30, 0 30 M0 30 C0 20.37, 0 10.73, 0 0 M0 30 C0 18.71, 0 7.43, 0 0" stroke="#1e1e1e" stroke-width="1" fill="none"></path></g><g transform="translate(136.96280683534223 52.58815088210633) rotate(0 4.623992919921875 10)"><text x="4.623992919921875" y="0" font-family="HanziPen SC, HanziPen Remote, Virgil, KaiTi, Segoe UI Emoji" font-size="16px" fill="#2f9e44" text-anchor="middle" style="white-space: pre;" direction="ltr" dominant-baseline="text-before-edge">1</text></g><g stroke-linecap="round" transform="translate(153.64622484990878 47.60843701744636) rotate(0 12 15)"><path d="M0 0 C5.42 0, 10.84 0, 24 0 M0 0 C8.99 0, 17.98 0, 24 0 M24 0 C24 7.37, 24 14.74, 24 30 M24 0 C24 8.19, 24 16.38, 24 30 M24 30 C15 30, 6 30, 0 30 M24 30 C18.44 30, 12.87 30, 0 30 M0 30 C0 18.29, 0 6.58, 0 0 M0 30 C0 20.66, 0 11.31, 0 0" stroke="#1e1e1e" stroke-width="1" fill="none"></path></g><g transform="translate(161.0222319299869 52.60843701744636) rotate(0 4.623992919921875 10)"><text x="4.623992919921875" y="0" font-family="HanziPen SC, HanziPen Remote, Virgil, KaiTi, Segoe UI Emoji" font-size="16px" fill="#2f9e44" text-anchor="middle" style="white-space: pre;" direction="ltr" dominant-baseline="text-before-edge">0</text></g><g stroke-linecap="round" transform="translate(105.7940014810788 83.2361854167566) rotate(0 12 15)"><path d="M0 0 C8.5 0, 16.99 0, 24 0 M0 0 C8.75 0, 17.51 0, 24 0 M24 0 C24 6.15, 24 12.31, 24 30 M24 0 C24 10.15, 24 20.3, 24 30 M24 30 C18.93 30, 13.86 30, 0 30 M24 30 C18.66 30, 13.32 30, 0 30 M0 30 C0 20.01, 0 10.03, 0 0 M0 30 C0 19.71, 0 9.41, 0 0" stroke="#1e1e1e" stroke-width="1" fill="none"></path></g><g transform="translate(113.17000856115692 88.2361854167566) rotate(0 4.623992919921875 10)"><text x="4.623992919921875" y="0" font-family="HanziPen SC, HanziPen Remote, Virgil, KaiTi, Segoe UI Emoji" font-size="16px" fill="#2f9e44" text-anchor="middle" style="white-space: pre;" direction="ltr" dominant-baseline="text-before-edge">0</text></g><g stroke-linecap="round" transform="translate(129.70046386790136 83.2309244178366) rotate(0 12 15)"><path d="M0 0 C9.54 0, 19.08 0, 24 0 M0 0 C6.6 0, 13.19 0, 24 0 M24 0 C24 10.08, 24 20.15, 24 30 M24 0 C24 8.7, 24 17.4, 24 30 M24 30 C17.26 30, 10.53 30, 0 30 M24 30 C15.38 30, 6.76 30, 0 30 M0 30 C0 18.7, 0 7.4, 0 0 M0 30 C0 21.76, 0 13.52, 0 0" stroke="#1e1e1e" stroke-width="1" fill="none"></path></g><g transform="translate(137.0764709479795 88.2309244178366) rotate(0 4.623992919921875 10)"><text x="4.623992919921875" y="0" font-family="HanziPen SC, HanziPen Remote, Virgil, KaiTi, Segoe UI Emoji" font-size="16px" fill="#2f9e44" text-anchor="middle" style="white-space: pre;" direction="ltr" dominant-baseline="text-before-edge">0</text></g><g stroke-linecap="round" transform="translate(153.75988896254603 83.25121055317663) rotate(0 12 15)"><path d="M0 0 C7.12 0, 14.25 0, 24 0 M0 0 C9.5 0, 19 0, 24 0 M24 0 C24 6.46, 24 12.93, 24 30 M24 0 C24 11.43, 24 22.87, 24 30 M24 30 C14.44 30, 4.88 30, 0 30 M24 30 C17.81 30, 11.61 30, 0 30 M0 30 C0 18.77, 0 7.53, 0 0 M0 30 C0 21.47, 0 12.93, 0 0" stroke="#1e1e1e" stroke-width="1" fill="none"></path></g><g transform="translate(161.13589604262415 88.25121055317663) rotate(0 4.623992919921875 10)"><text x="4.623992919921875" y="0" font-family="HanziPen SC, HanziPen Remote, Virgil, KaiTi, Segoe UI Emoji" font-size="16px" fill="#2f9e44" text-anchor="middle" style="white-space: pre;" direction="ltr" dominant-baseline="text-before-edge">1</text></g><g stroke-linecap="round" transform="translate(106.35441984004865 120.525689141452) rotate(0 12 15)"><path d="M0 0 C5.21 0, 10.42 0, 24 0 M0 0 C9.46 0, 18.91 0, 24 0 M24 0 C24 7.4, 24 14.8, 24 30 M24 0 C24 7.22, 24 14.43, 24 30 M24 30 C19.09 30, 14.18 30, 0 30 M24 30 C16.56 30, 9.11 30, 0 30 M0 30 C0 23.88, 0 17.76, 0 0 M0 30 C0 20.22, 0 10.43, 0 0" stroke="#1e1e1e" stroke-width="1" fill="none"></path></g><g transform="translate(113.73042692012677 125.525689141452) rotate(0 4.623992919921875 10)"><text x="4.623992919921875" y="0" font-family="HanziPen SC, HanziPen Remote, Virgil, KaiTi, Segoe UI Emoji" font-size="16px" fill="#2f9e44" text-anchor="middle" style="white-space: pre;" direction="ltr" dominant-baseline="text-before-edge">0</text></g><g stroke-linecap="round" transform="translate(130.26088222687122 120.52042814253201) rotate(0 12 15)"><path d="M0 0 C8.36 0, 16.73 0, 24 0 M0 0 C7.44 0, 14.88 0, 24 0 M24 0 C24 7.72, 24 15.44, 24 30 M24 0 C24 8.15, 24 16.3, 24 30 M24 30 C15.25 30, 6.51 30, 0 30 M24 30 C17.25 30, 10.49 30, 0 30 M0 30 C0 18.96, 0 7.93, 0 0 M0 30 C0 20.15, 0 10.3, 0 0" stroke="#1e1e1e" stroke-width="1" fill="none"></path></g><g transform="translate(137.63688930694934 125.52042814253201) rotate(0 4.623992919921875 10)"><text x="4.623992919921875" y="0" font-family="HanziPen SC, HanziPen Remote, Virgil, KaiTi, Segoe UI Emoji" font-size="16px" fill="#2f9e44" text-anchor="middle" style="white-space: pre;" direction="ltr" dominant-baseline="text-before-edge">0</text></g><g stroke-linecap="round" transform="translate(154.32030732151588 120.54071427787204) rotate(0 12 15)"><path d="M0 0 C7.35 0, 14.7 0, 24 0 M0 0 C8.65 0, 17.29 0, 24 0 M24 0 C24 9, 24 18, 24 30 M24 0 C24 7.59, 24 15.18, 24 30 M24 30 C15.16 30, 6.32 30, 0 30 M24 30 C16.49 30, 8.98 30, 0 30 M0 30 C0 18.18, 0 6.36, 0 0 M0 30 C0 18.17, 0 6.34, 0 0" stroke="#1e1e1e" stroke-width="1" fill="none"></path></g><g transform="translate(161.696314401594 125.54071427787204) rotate(0 4.623992919921875 10)"><text x="4.623992919921875" y="0" font-family="HanziPen SC, HanziPen Remote, Virgil, KaiTi, Segoe UI Emoji" font-size="16px" fill="#2f9e44" text-anchor="middle" style="white-space: pre;" direction="ltr" dominant-baseline="text-before-edge">0</text></g></svg>