<svg version="1.1" xmlns="http://www.w3.org/2000/svg" viewBox="0 0 291.24845092788246 160.54071427787204" width="291.24845092788246" height="160.54071427787204" filter="invert(93%) hue-rotate(180deg)">
  <!-- svg-source:excalidraw -->
  
  <defs>
    <style class="style-fonts">
      @font-face {
        font-family: "Virgil";
        src: url("https://unpkg.com/revedraw@1.0.0-alpha.10/dist/excalidraw-assets/Virgil.woff2");
      }
      @font-face {
        font-family: "Cascadia";
        src: url("https://unpkg.com/revedraw@1.0.0-alpha.10/dist/excalidraw-assets/Cascadia.woff2");
      }
    </style>
    
  </defs>
  <g stroke-linecap="round" transform="translate(191.86125843720674 10) rotate(0 44.5 15)"><path d="M0 0 C0 0, 0 0, 0 0 M0 0 C0 0, 0 0, 0 0 M-0.26 6.4 C1.69 4.15, 3.65 1.9, 4.99 0.36 M-0.26 6.4 C1.58 4.28, 3.42 2.16, 4.99 0.36 M0.13 12.04 C3.6 8.05, 7.06 4.07, 10.63 -0.03 M0.13 12.04 C4.11 7.46, 8.09 2.89, 10.63 -0.03 M-0.13 18.44 C3.76 13.96, 7.66 9.48, 15.62 0.33 M-0.13 18.44 C4.23 13.43, 8.58 8.42, 15.62 0.33 M0.27 24.08 C8.53 14.57, 16.8 5.06, 21.26 -0.07 M0.27 24.08 C7.6 15.64, 14.93 7.21, 21.26 -0.07 M0 30.48 C8.55 20.64, 17.1 10.81, 26.25 0.29 M0 30.48 C8.98 20.15, 17.96 9.83, 26.25 0.29 M5.65 30.08 C11.82 22.99, 17.99 15.89, 31.89 -0.1 M5.65 30.08 C13.22 21.37, 20.79 12.66, 31.89 -0.1 M10.63 30.45 C18.5 21.4, 26.37 12.35, 36.88 0.26 M10.63 30.45 C20.13 19.52, 29.62 8.6, 36.88 0.26 M16.28 30.05 C22.4 23.01, 28.53 15.96, 42.52 -0.14 M16.28 30.05 C24.77 20.28, 33.26 10.51, 42.52 -0.14 M21.27 30.41 C27.45 23.29, 33.64 16.17, 47.51 0.22 M21.27 30.41 C31.11 19.08, 40.96 7.76, 47.51 0.22 M26.91 30.02 C35.91 19.67, 44.9 9.32, 53.15 -0.17 M26.91 30.02 C32.33 23.78, 37.75 17.54, 53.15 -0.17 M31.9 30.38 C41.76 19.03, 51.63 7.68, 58.14 0.19 M31.9 30.38 C38.37 22.92, 44.85 15.47, 58.14 0.19 M37.54 29.98 C45.22 21.14, 52.91 12.3, 63.78 -0.21 M37.54 29.98 C45.79 20.49, 54.04 11, 63.78 -0.21 M42.53 30.34 C51.37 20.17, 60.21 10, 68.77 0.15 M42.53 30.34 C49.51 22.31, 56.5 14.27, 68.77 0.15 M48.17 29.95 C58.34 18.24, 68.51 6.54, 74.41 -0.24 M48.17 29.95 C54.7 22.43, 61.23 14.92, 74.41 -0.24 M53.16 30.31 C61.3 20.94, 69.45 11.56, 79.4 0.12 M53.16 30.31 C62.28 19.81, 71.4 9.32, 79.4 0.12 M58.8 29.91 C66.84 20.66, 74.89 11.4, 85.04 -0.28 M58.8 29.91 C65.02 22.76, 71.24 15.6, 85.04 -0.28 M63.79 30.27 C70.52 22.52, 77.26 14.77, 89.37 0.84 M63.79 30.27 C69.69 23.48, 75.59 16.69, 89.37 0.84 M69.43 29.88 C75.61 22.77, 81.79 15.66, 89.77 6.48 M69.43 29.88 C76.16 22.13, 82.89 14.39, 89.77 6.48 M74.42 30.24 C79.51 24.38, 84.6 18.52, 89.5 12.88 M74.42 30.24 C78.64 25.38, 82.86 20.53, 89.5 12.88 M80.06 29.84 C82.11 27.48, 84.17 25.11, 89.9 18.52 M80.06 29.84 C82.1 27.49, 84.14 25.14, 89.9 18.52 M85.05 30.2 C86.19 28.89, 87.34 27.57, 89.64 24.92 M85.05 30.2 C86.35 28.7, 87.66 27.2, 89.64 24.92" stroke="#ffec99" stroke-width="0.5" fill="none"></path><path d="M0 0 C21.08 0, 42.16 0, 89 0 M0 0 C34.49 0, 68.99 0, 89 0 M89 0 C89 10.23, 89 20.47, 89 30 M89 0 C89 11.6, 89 23.2, 89 30 M89 30 C62.88 30, 36.77 30, 0 30 M89 30 C56.72 30, 24.44 30, 0 30 M0 30 C0 18.47, 0 6.95, 0 0 M0 30 C0 18.72, 0 7.45, 0 0" stroke="#1e1e1e" stroke-width="1" fill="none"></path></g><g transform="translate(216.63328449921846 15) rotate(0 19.72797393798828 10)"><text x="19.72797393798828" y="0" font-family="HanziPen SC, HanziPen Remote, Virgil, KaiTi, Segoe UI Emoji" font-size="16px" fill="#1e1e1e" text-anchor="middle" style="white-space: pre;" direction="ltr" dominant-baseline="text-before-edge">1x0.0</text></g><g stroke-linecap="round" transform="translate(10.07843433411199 10.735528250593632) rotate(0 12 15)"><path d="M0 0 C7.56 0, 15.11 0, 24 0 M0 0 C8.18 0, 16.35 0, 24 0 M24 0 C24 10.53, 24 21.06, 24 30 M24 0 C24 7.75, 24 15.49, 24 30 M24 30 C18.88 30, 13.75 30, 0 30 M24 30 C19.1 30, 14.2 30, 0 30 M0 30 C0 19.25, 0 8.5, 0 0 M0 30 C0 23.31, 0 16.62, 0 0" stroke="#1e1e1e" stroke-width="1" fill="none"></path></g><g transform="translate(17.454441414190114 15.735528250593632) rotate(0 4.623992919921875 10)"><text x="4.623992919921875" y="0" font-family="HanziPen SC, HanziPen Remote, Virgil, KaiTi, Segoe UI Emoji" font-size="16px" fill="#1e1e1e" text-anchor="middle" style="white-space: pre;" direction="ltr" dominant-baseline="text-before-edge">0</text></g><g stroke-linecap="round" transform="translate(33.98489672093456 10.730267251673638) rotate(0 12 15)"><path d="M0 0 C9.15 0, 18.31 0, 24 0 M0 0 C8.09 0, 16.18 0, 24 0 M24 0 C24 11.53, 24 23.07, 24 30 M24 0 C24 7.99, 24 15.97, 24 30 M24 30 C17.14 30, 10.28 30, 0 30 M24 30 C17.25 30, 10.5 30, 0 30 M0 30 C0 20.79, 0 11.58, 0 0 M0 30 C0 23.65, 0 17.3, 0 0" stroke="#1e1e1e" stroke-width="1" fill="none"></path></g><g transform="translate(41.36090380101268 15.730267251673638) rotate(0 4.623992919921875 10)"><text x="4.623992919921875" y="0" font-family="HanziPen SC, HanziPen Remote, Virgil, KaiTi, Segoe UI Emoji" font-size="16px" fill="#1e1e1e" text-anchor="middle" style="white-space: pre;" direction="ltr" dominant-baseline="text-before-edge">0</text></g><g stroke-linecap="round" transform="translate(58.044321815579224 10.750553387013667) rotate(0 12 15)"><path d="M0 0 C8.16 0, 16.32 0, 24 0 M0 0 C8.2 0, 16.41 0, 24 0 M24 0 C24 9.22, 24 18.44, 24 30 M24 0 C24 6.4, 24 12.79, 24 30 M24 30 C15.87 30, 7.74 30, 0 30 M24 30 C18.37 30, 12.74 30, 0 30 M0 30 C0 23.36, 0 16.72, 0 0 M0 30 C0 23.42, 0 16.83, 0 0" stroke="#1e1e1e" stroke-width="1" fill="none"></path></g><g transform="translate(65.42032889565735 15.750553387013667) rotate(0 4.623992919921875 10)"><text x="4.623992919921875" y="0" font-family="HanziPen SC, HanziPen Remote, Virgil, KaiTi, Segoe UI Emoji" font-size="16px" fill="#1e1e1e" text-anchor="middle" style="white-space: pre;" direction="ltr" dominant-baseline="text-before-edge">0</text></g><g stroke-linecap="round" transform="translate(82.05087164262659 10.70269669702924) rotate(0 12 15)"><path d="M0 0 C6.46 0, 12.91 0, 24 0 M0 0 C8.29 0, 16.58 0, 24 0 M24 0 C24 10.82, 24 21.64, 24 30 M24 0 C24 9.81, 24 19.63, 24 30 M24 30 C14.98 30, 5.96 30, 0 30 M24 30 C16.1 30, 8.2 30, 0 30 M0 30 C0 21.98, 0 13.95, 0 0 M0 30 C0 19.52, 0 9.05, 0 0" stroke="#1e1e1e" stroke-width="1" fill="none"></path></g><g transform="translate(89.42687872270471 15.70269669702924) rotate(0 4.623992919921875 10)"><text x="4.623992919921875" y="0" font-family="HanziPen SC, HanziPen Remote, Virgil, KaiTi, Segoe UI Emoji" font-size="16px" fill="#1e1e1e" text-anchor="middle" style="white-space: pre;" direction="ltr" dominant-baseline="text-before-edge">0</text></g><g stroke-linecap="round" transform="translate(191.19021138123207 47.37336012962166) rotate(0 45 15)"><path d="M0 0 C0 0, 0 0, 0 0 M0 0 C0 0, 0 0, 0 0 M-0.26 6.4 C1.82 4.01, 3.9 1.61, 4.99 0.36 M-0.26 6.4 C1.51 4.36, 3.27 2.33, 4.99 0.36 M0.13 12.04 C2.36 9.47, 4.59 6.91, 10.63 -0.03 M0.13 12.04 C3.09 8.64, 6.04 5.24, 10.63 -0.03 M-0.13 18.44 C5.5 11.96, 11.13 5.49, 15.62 0.33 M-0.13 18.44 C3.41 14.37, 6.95 10.29, 15.62 0.33 M0.27 24.08 C5.08 18.55, 9.89 13.01, 21.26 -0.07 M0.27 24.08 C6.45 16.97, 12.63 9.86, 21.26 -0.07 M0 30.48 C5.56 24.09, 11.12 17.69, 26.25 0.29 M0 30.48 C9.37 19.7, 18.74 8.93, 26.25 0.29 M5.65 30.08 C11.56 23.28, 17.48 16.48, 31.89 -0.1 M5.65 30.08 C12.68 21.99, 19.72 13.9, 31.89 -0.1 M10.63 30.45 C17.88 22.11, 25.12 13.78, 36.88 0.26 M10.63 30.45 C19.1 20.71, 27.57 10.97, 36.88 0.26 M16.28 30.05 C21.67 23.85, 27.06 17.65, 42.52 -0.14 M16.28 30.05 C24.27 20.86, 32.25 11.67, 42.52 -0.14 M21.27 30.41 C27.61 23.11, 33.95 15.81, 47.51 0.22 M21.27 30.41 C30.09 20.26, 38.92 10.1, 47.51 0.22 M26.91 30.02 C36.06 19.49, 45.21 8.96, 53.15 -0.17 M26.91 30.02 C35.58 20.04, 44.25 10.07, 53.15 -0.17 M31.9 30.38 C41.76 19.02, 51.63 7.67, 58.14 0.19 M31.9 30.38 C38.13 23.2, 44.37 16.03, 58.14 0.19 M37.54 29.98 C43.04 23.66, 48.53 17.33, 63.78 -0.21 M37.54 29.98 C45.36 20.98, 53.18 11.99, 63.78 -0.21 M42.53 30.34 C50.94 20.66, 59.35 10.99, 68.77 0.15 M42.53 30.34 C50.16 21.56, 57.79 12.78, 68.77 0.15 M48.17 29.95 C56.49 20.38, 64.8 10.81, 74.41 -0.24 M48.17 29.95 C58.25 18.35, 68.33 6.75, 74.41 -0.24 M53.16 30.31 C60.82 21.49, 68.49 12.67, 79.4 0.12 M53.16 30.31 C63.27 18.67, 73.39 7.03, 79.4 0.12 M58.8 29.91 C68.65 18.57, 78.51 7.24, 85.04 -0.28 M58.8 29.91 C69.06 18.11, 79.31 6.31, 85.04 -0.28 M63.79 30.27 C71.2 21.74, 78.62 13.21, 90.03 0.08 M63.79 30.27 C69.98 23.15, 76.17 16.03, 90.03 0.08 M69.43 29.88 C74.81 23.69, 80.19 17.5, 89.77 6.48 M69.43 29.88 C76.45 21.8, 83.46 13.73, 89.77 6.48 M74.42 30.24 C78.49 25.55, 82.56 20.87, 90.16 12.13 M74.42 30.24 C80.43 23.32, 86.44 16.41, 90.16 12.13 M80.06 29.84 C82.4 27.15, 84.75 24.45, 89.9 18.52 M80.06 29.84 C83 26.46, 85.94 23.08, 89.9 18.52 M85.05 30.2 C86.95 28.02, 88.85 25.83, 90.29 24.17 M85.05 30.2 C87.08 27.86, 89.11 25.53, 90.29 24.17" stroke="#ffc9c9" stroke-width="0.5" fill="none"></path><path d="M0 0 C20 0, 39.99 0, 90 0 M0 0 C32.65 0, 65.29 0, 90 0 M90 0 C90 10.82, 90 21.64, 90 30 M90 0 C90 7.82, 90 15.64, 90 30 M90 30 C56.17 30, 22.35 30, 0 30 M90 30 C67.04 30, 44.08 30, 0 30 M0 30 C0 18.41, 0 6.83, 0 0 M0 30 C0 20.14, 0 10.28, 0 0" stroke="#1e1e1e" stroke-width="1" fill="none"></path></g><g transform="translate(211.83824452332192 52.37336012962166) rotate(0 24.351966857910156 10)"><text x="24.351966857910156" y="0" font-family="HanziPen SC, HanziPen Remote, Virgil, KaiTi, Segoe UI Emoji" font-size="16px" fill="#1e1e1e" text-anchor="middle" style="white-space: pre;" direction="ltr" dominant-baseline="text-before-edge">2x0.25</text></g><g stroke-linecap="round" transform="translate(10 47.732081902877496) rotate(0 12 15)"><path d="M0 0 C8.42 0, 16.85 0, 24 0 M0 0 C6.2 0, 12.4 0, 24 0 M24 0 C24 6.41, 24 12.81, 24 30 M24 0 C24 6.12, 24 12.25, 24 30 M24 30 C15.4 30, 6.8 30, 0 30 M24 30 C18.65 30, 13.29 30, 0 30 M0 30 C0 21.68, 0 13.36, 0 0 M0 30 C0 22.53, 0 15.06, 0 0" stroke="#1e1e1e" stroke-width="1" fill="none"></path></g><g transform="translate(17.376007080078125 52.732081902877496) rotate(0 4.623992919921875 10)"><text x="4.623992919921875" y="0" font-family="HanziPen SC, HanziPen Remote, Virgil, KaiTi, Segoe UI Emoji" font-size="16px" fill="#1e1e1e" text-anchor="middle" style="white-space: pre;" direction="ltr" dominant-baseline="text-before-edge">0</text></g><g stroke-linecap="round" transform="translate(33.90646238682257 47.7268209039575) rotate(0 12 15)"><path d="M0 0 C9.23 0, 18.45 0, 24 0 M0 0 C6.39 0, 12.78 0, 24 0 M24 0 C24 8.57, 24 17.15, 24 30 M24 0 C24 8.44, 24 16.88, 24 30 M24 30 C16.63 30, 9.26 30, 0 30 M24 30 C18.92 30, 13.84 30, 0 30 M0 30 C0 23.83, 0 17.66, 0 0 M0 30 C0 21.74, 0 13.48, 0 0" stroke="#1e1e1e" stroke-width="1" fill="none"></path></g><g transform="translate(41.28246946690069 52.7268209039575) rotate(0 4.623992919921875 10)"><text x="4.623992919921875" y="0" font-family="HanziPen SC, HanziPen Remote, Virgil, KaiTi, Segoe UI Emoji" font-size="16px" fill="#1e1e1e" text-anchor="middle" style="white-space: pre;" direction="ltr" dominant-baseline="text-before-edge">0</text></g><g stroke-linecap="round" transform="translate(57.965887481467234 47.747107039297475) rotate(0 12 15)"><path d="M0 0 C7.38 0, 14.75 0, 24 0 M0 0 C5.12 0, 10.23 0, 24 0 M24 0 C24 10.16, 24 20.32, 24 30 M24 0 C24 7.04, 24 14.07, 24 30 M24 30 C18.69 30, 13.37 30, 0 30 M24 30 C18.73 30, 13.47 30, 0 30 M0 30 C0 18.65, 0 7.29, 0 0 M0 30 C0 21.89, 0 13.77, 0 0" stroke="#1e1e1e" stroke-width="1" fill="none"></path></g><g transform="translate(65.34189456154536 52.747107039297475) rotate(0 4.623992919921875 10)"><text x="4.623992919921875" y="0" font-family="HanziPen SC, HanziPen Remote, Virgil, KaiTi, Segoe UI Emoji" font-size="16px" fill="#1e1e1e" text-anchor="middle" style="white-space: pre;" direction="ltr" dominant-baseline="text-before-edge">0</text></g><g stroke-linecap="round" transform="translate(81.97243730851415 47.69925034931316) rotate(0 12 15)"><path d="M0 0 C8.66 0, 17.32 0, 24 0 M0 0 C7.85 0, 15.7 0, 24 0 M24 0 C24 11.28, 24 22.55, 24 30 M24 0 C24 9.87, 24 19.75, 24 30 M24 30 C17.58 30, 11.16 30, 0 30 M24 30 C15.62 30, 7.24 30, 0 30 M0 30 C0 20.28, 0 10.55, 0 0 M0 30 C0 18.77, 0 7.54, 0 0" stroke="#1e1e1e" stroke-width="1" fill="none"></path></g><g transform="translate(89.34844438859227 52.69925034931316) rotate(0 4.623992919921875 10)"><text x="4.623992919921875" y="0" font-family="HanziPen SC, HanziPen Remote, Virgil, KaiTi, Segoe UI Emoji" font-size="16px" fill="#1e1e1e" text-anchor="middle" style="white-space: pre;" direction="ltr" dominant-baseline="text-before-edge">1</text></g><g stroke-linecap="round" transform="translate(191.24845092788246 83.2808628554954) rotate(0 45 15)"><path d="M0 0 C0 0, 0 0, 0 0 M0 0 C0 0, 0 0, 0 0 M-0.26 6.4 C0.85 5.11, 1.97 3.83, 4.99 0.36 M-0.26 6.4 C1.22 4.7, 2.69 3, 4.99 0.36 M0.13 12.04 C3.89 7.72, 7.64 3.41, 10.63 -0.03 M0.13 12.04 C2.49 9.33, 4.85 6.61, 10.63 -0.03 M-0.13 18.44 C3.48 14.29, 7.09 10.14, 15.62 0.33 M-0.13 18.44 C4.51 13.11, 9.14 7.77, 15.62 0.33 M0.27 24.08 C4.71 18.97, 9.16 13.85, 21.26 -0.07 M0.27 24.08 C7.76 15.46, 15.25 6.84, 21.26 -0.07 M0 30.48 C5.92 23.68, 11.83 16.87, 26.25 0.29 M0 30.48 C7.04 22.39, 14.07 14.3, 26.25 0.29 M5.65 30.08 C12.89 21.75, 20.13 13.42, 31.89 -0.1 M5.65 30.08 C14.11 20.35, 22.58 10.61, 31.89 -0.1 M10.63 30.45 C16.03 24.24, 21.42 18.04, 36.88 0.26 M10.63 30.45 C18.62 21.26, 26.61 12.07, 36.88 0.26 M16.28 30.05 C22.62 22.75, 28.97 15.45, 42.52 -0.14 M16.28 30.05 C25.1 19.9, 33.93 9.74, 42.52 -0.14 M21.27 30.41 C30.42 19.88, 39.57 9.36, 47.51 0.22 M21.27 30.41 C29.94 20.44, 38.61 10.46, 47.51 0.22 M26.91 30.02 C36.78 18.66, 46.65 7.31, 53.15 -0.17 M26.91 30.02 C33.14 22.84, 39.38 15.67, 53.15 -0.17 M31.9 30.38 C37.39 24.05, 42.89 17.73, 58.14 0.19 M31.9 30.38 C39.72 21.38, 47.54 12.38, 58.14 0.19 M37.54 29.98 C45.95 20.3, 54.36 10.63, 63.78 -0.21 M37.54 29.98 C45.17 21.2, 52.8 12.42, 63.78 -0.21 M42.53 30.34 C50.84 20.77, 59.16 11.2, 68.77 0.15 M42.53 30.34 C52.61 18.74, 62.69 7.14, 68.77 0.15 M48.17 29.95 C55.84 21.13, 63.5 12.31, 74.41 -0.24 M48.17 29.95 C58.28 18.31, 68.4 6.67, 74.41 -0.24 M53.16 30.31 C63.01 18.97, 72.87 7.63, 79.4 0.12 M53.16 30.31 C63.41 18.51, 73.67 6.71, 79.4 0.12 M58.8 29.91 C66.21 21.38, 73.63 12.85, 85.04 -0.28 M58.8 29.91 C64.99 22.79, 71.18 15.67, 85.04 -0.28 M63.79 30.27 C70.73 22.29, 77.67 14.3, 90.03 0.08 M63.79 30.27 C72.84 19.86, 81.9 9.44, 90.03 0.08 M69.43 29.88 C74.69 23.83, 79.95 17.78, 89.77 6.48 M69.43 29.88 C77.19 20.95, 84.96 12.01, 89.77 6.48 M74.42 30.24 C78.16 25.93, 81.91 21.61, 90.16 12.13 M74.42 30.24 C79.12 24.83, 83.82 19.42, 90.16 12.13 M80.06 29.84 C83.62 25.74, 87.19 21.64, 89.9 18.52 M80.06 29.84 C83.87 25.46, 87.68 21.07, 89.9 18.52 M85.05 30.2 C86.75 28.24, 88.46 26.27, 90.29 24.17 M85.05 30.2 C86.77 28.22, 88.49 26.24, 90.29 24.17" stroke="#ffc9c9" stroke-width="0.5" fill="none"></path><path d="M0 0 C32.46 0, 64.92 0, 90 0 M0 0 C23.45 0, 46.91 0, 90 0 M90 0 C90 11.28, 90 22.55, 90 30 M90 0 C90 7.65, 90 15.31, 90 30 M90 30 C55.24 30, 20.48 30, 0 30 M90 30 C60.43 30, 30.85 30, 0 30 M0 30 C0 19.61, 0 9.23, 0 0 M0 30 C0 19.43, 0 8.86, 0 0" stroke="#1e1e1e" stroke-width="1" fill="none"></path></g><g transform="translate(207.27249115005043 88.2808628554954) rotate(0 28.97595977783203 10)"><text x="28.97595977783203" y="0" font-family="HanziPen SC, HanziPen Remote, Virgil, KaiTi, Segoe UI Emoji" font-size="16px" fill="#1e1e1e" text-anchor="middle" style="white-space: pre;" direction="ltr" dominant-baseline="text-before-edge">4x0.125</text></g><g stroke-linecap="round" transform="translate(10.030356292888428 83.29562738229077) rotate(0 12 15)"><path d="M0 0 C7.16 0, 14.31 0, 24 0 M0 0 C6.99 0, 13.99 0, 24 0 M24 0 C24 8.76, 24 17.52, 24 30 M24 0 C24 9.84, 24 19.67, 24 30 M24 30 C16.95 30, 9.9 30, 0 30 M24 30 C16.55 30, 9.1 30, 0 30 M0 30 C0 20.3, 0 10.61, 0 0 M0 30 C0 18.16, 0 6.32, 0 0" stroke="#1e1e1e" stroke-width="1" fill="none"></path></g><g transform="translate(17.406363372966553 88.29562738229077) rotate(0 4.623992919921875 10)"><text x="4.623992919921875" y="0" font-family="HanziPen SC, HanziPen Remote, Virgil, KaiTi, Segoe UI Emoji" font-size="16px" fill="#1e1e1e" text-anchor="middle" style="white-space: pre;" direction="ltr" dominant-baseline="text-before-edge">0</text></g><g stroke-linecap="round" transform="translate(33.936818679710996 83.29036638337078) rotate(0 12 15)"><path d="M0 0 C8.14 0, 16.28 0, 24 0 M0 0 C7.73 0, 15.47 0, 24 0 M24 0 C24 7.59, 24 15.18, 24 30 M24 0 C24 8.63, 24 17.26, 24 30 M24 30 C17.26 30, 10.52 30, 0 30 M24 30 C17.46 30, 10.93 30, 0 30 M0 30 C0 20.74, 0 11.48, 0 0 M0 30 C0 20.5, 0 11.01, 0 0" stroke="#1e1e1e" stroke-width="1" fill="none"></path></g><g transform="translate(41.31282575978912 88.29036638337078) rotate(0 4.623992919921875 10)"><text x="4.623992919921875" y="0" font-family="HanziPen SC, HanziPen Remote, Virgil, KaiTi, Segoe UI Emoji" font-size="16px" fill="#1e1e1e" text-anchor="middle" style="white-space: pre;" direction="ltr" dominant-baseline="text-before-edge">0</text></g><g stroke-linecap="round" transform="translate(57.99624377435566 83.31065251871075) rotate(0 12 15)"><path d="M0 0 C5.39 0, 10.79 0, 24 0 M0 0 C6.74 0, 13.48 0, 24 0 M24 0 C24 10.87, 24 21.73, 24 30 M24 0 C24 8.99, 24 17.97, 24 30 M24 30 C18.87 30, 13.74 30, 0 30 M24 30 C18.79 30, 13.58 30, 0 30 M0 30 C0 20.07, 0 10.14, 0 0 M0 30 C0 19.25, 0 8.51, 0 0" stroke="#1e1e1e" stroke-width="1" fill="none"></path></g><g transform="translate(65.37225085443379 88.31065251871075) rotate(0 4.623992919921875 10)"><text x="4.623992919921875" y="0" font-family="HanziPen SC, HanziPen Remote, Virgil, KaiTi, Segoe UI Emoji" font-size="16px" fill="#1e1e1e" text-anchor="middle" style="white-space: pre;" direction="ltr" dominant-baseline="text-before-edge">1</text></g><g stroke-linecap="round" transform="translate(82.00279360140257 83.26279582872644) rotate(0 12 15)"><path d="M0 0 C6.5 0, 13.01 0, 24 0 M0 0 C7.68 0, 15.36 0, 24 0 M24 0 C24 8.95, 24 17.89, 24 30 M24 0 C24 10.62, 24 21.23, 24 30 M24 30 C15.99 30, 7.99 30, 0 30 M24 30 C15.06 30, 6.12 30, 0 30 M0 30 C0 18.18, 0 6.37, 0 0 M0 30 C0 18.46, 0 6.91, 0 0" stroke="#1e1e1e" stroke-width="1" fill="none"></path></g><g transform="translate(89.3788006814807 88.26279582872644) rotate(0 4.623992919921875 10)"><text x="4.623992919921875" y="0" font-family="HanziPen SC, HanziPen Remote, Virgil, KaiTi, Segoe UI Emoji" font-size="16px" fill="#1e1e1e" text-anchor="middle" style="white-space: pre;" direction="ltr" dominant-baseline="text-before-edge">0</text></g><g stroke-linecap="round" transform="translate(190.85528148339154 119.52805654858474) rotate(0 45 15)"><path d="M0 0 C0 0, 0 0, 0 0 M0 0 C0 0, 0 0, 0 0 M-0.26 6.4 C1.1 4.83, 2.47 3.26, 4.99 0.36 M-0.26 6.4 C0.82 5.15, 1.9 3.91, 4.99 0.36 M0.13 12.04 C2.43 9.4, 4.73 6.75, 10.63 -0.03 M0.13 12.04 C2.36 9.48, 4.58 6.92, 10.63 -0.03 M-0.13 18.44 C5.32 12.17, 10.77 5.9, 15.62 0.33 M-0.13 18.44 C3.83 13.89, 7.78 9.34, 15.62 0.33 M0.27 24.08 C5.59 17.96, 10.91 11.84, 21.26 -0.07 M0.27 24.08 C6.83 16.53, 13.39 8.98, 21.26 -0.07 M0 30.48 C10.22 18.73, 20.43 6.99, 26.25 0.29 M0 30.48 C7.19 22.22, 14.37 13.95, 26.25 0.29 M5.65 30.08 C15.81 18.4, 25.97 6.71, 31.89 -0.1 M5.65 30.08 C14.87 19.48, 24.08 8.88, 31.89 -0.1 M10.63 30.45 C16.35 23.87, 22.07 17.29, 36.88 0.26 M10.63 30.45 C19.84 19.85, 29.05 9.26, 36.88 0.26 M16.28 30.05 C25.12 19.88, 33.97 9.7, 42.52 -0.14 M16.28 30.05 C24.6 20.47, 32.93 10.9, 42.52 -0.14 M21.27 30.41 C27.48 23.26, 33.69 16.12, 47.51 0.22 M21.27 30.41 C31.35 18.81, 41.44 7.2, 47.51 0.22 M26.91 30.02 C37.27 18.1, 47.63 6.18, 53.15 -0.17 M26.91 30.02 C32.81 23.22, 38.72 16.43, 53.15 -0.17 M31.9 30.38 C37.8 23.58, 43.7 16.79, 58.14 0.19 M31.9 30.38 C39.8 21.28, 47.71 12.19, 58.14 0.19 M37.54 29.98 C43.5 23.12, 49.46 16.26, 63.78 -0.21 M37.54 29.98 C45.78 20.5, 54.02 11.02, 63.78 -0.21 M42.53 30.34 C51.37 20.17, 60.21 9.99, 68.77 0.15 M42.53 30.34 C49.18 22.69, 55.83 15.03, 68.77 0.15 M48.17 29.95 C55.41 21.61, 62.66 13.28, 74.41 -0.24 M48.17 29.95 C54.7 22.43, 61.23 14.92, 74.41 -0.24 M53.16 30.31 C61.08 21.19, 69.01 12.07, 79.4 0.12 M53.16 30.31 C58.88 23.72, 64.61 17.14, 79.4 0.12 M58.8 29.91 C68.2 19.09, 77.61 8.28, 85.04 -0.28 M58.8 29.91 C67.16 20.29, 75.53 10.67, 85.04 -0.28 M63.79 30.27 C69.67 23.5, 75.56 16.72, 90.03 0.08 M63.79 30.27 C74.2 18.29, 84.62 6.3, 90.03 0.08 M69.43 29.88 C74.83 23.66, 80.23 17.45, 89.77 6.48 M69.43 29.88 C74.27 24.3, 79.12 18.73, 89.77 6.48 M74.42 30.24 C80.45 23.29, 86.49 16.35, 90.16 12.13 M74.42 30.24 C77.83 26.31, 81.25 22.37, 90.16 12.13 M80.06 29.84 C83.65 25.71, 87.24 21.58, 89.9 18.52 M80.06 29.84 C83.47 25.92, 86.89 21.99, 89.9 18.52 M85.05 30.2 C86.27 28.8, 87.49 27.39, 90.29 24.17 M85.05 30.2 C86.78 28.21, 88.51 26.21, 90.29 24.17" stroke="#ffec99" stroke-width="0.5" fill="none"></path><path d="M0 0 C33.19 0, 66.38 0, 90 0 M0 0 C19.57 0, 39.15 0, 90 0 M90 0 C90 9.44, 90 18.87, 90 30 M90 0 C90 7.98, 90 15.96, 90 30 M90 30 C66.96 30, 43.91 30, 0 30 M90 30 C54.79 30, 19.57 30, 0 30 M0 30 C0 21.73, 0 13.45, 0 0 M0 30 C0 21.4, 0 12.8, 0 0" stroke="#1e1e1e" stroke-width="1" fill="none"></path></g><g transform="translate(216.12730754540326 124.52805654858474) rotate(0 19.72797393798828 10)"><text x="19.72797393798828" y="0" font-family="HanziPen SC, HanziPen Remote, Virgil, KaiTi, Segoe UI Emoji" font-size="16px" fill="#1e1e1e" text-anchor="middle" style="white-space: pre;" direction="ltr" dominant-baseline="text-before-edge">4x0.0</text></g><g stroke-linecap="round" transform="translate(10.33803150268568 120.41513893770593) rotate(0 12 15)"><path d="M0 0 C9.22 0, 18.44 0, 24 0 M0 0 C9.02 0, 18.04 0, 24 0 M24 0 C24 7.19, 24 14.39, 24 30 M24 0 C24 8.28, 24 16.55, 24 30 M24 30 C15.06 30, 6.13 30, 0 30 M24 30 C15.57 30, 7.15 30, 0 30 M0 30 C0 20.1, 0 10.19, 0 0 M0 30 C0 18.63, 0 7.25, 0 0" stroke="#1e1e1e" stroke-width="1" fill="none"></path></g><g transform="translate(17.714038582763806 125.41513893770593) rotate(0 4.623992919921875 10)"><text x="4.623992919921875" y="0" font-family="HanziPen SC, HanziPen Remote, Virgil, KaiTi, Segoe UI Emoji" font-size="16px" fill="#1e1e1e" text-anchor="middle" style="white-space: pre;" direction="ltr" dominant-baseline="text-before-edge">0</text></g><g stroke-linecap="round" transform="translate(34.24449388950825 120.40987793878594) rotate(0 12 15)"><path d="M0 0 C8.6 0, 17.2 0, 24 0 M0 0 C5.35 0, 10.71 0, 24 0 M24 0 C24 8.32, 24 16.64, 24 30 M24 0 C24 7.47, 24 14.94, 24 30 M24 30 C18.04 30, 12.08 30, 0 30 M24 30 C15.49 30, 6.98 30, 0 30 M0 30 C0 21.44, 0 12.87, 0 0 M0 30 C0 23.93, 0 17.87, 0 0" stroke="#1e1e1e" stroke-width="1" fill="none"></path></g><g transform="translate(41.620500969586374 125.40987793878594) rotate(0 4.623992919921875 10)"><text x="4.623992919921875" y="0" font-family="HanziPen SC, HanziPen Remote, Virgil, KaiTi, Segoe UI Emoji" font-size="16px" fill="#1e1e1e" text-anchor="middle" style="white-space: pre;" direction="ltr" dominant-baseline="text-before-edge">0</text></g><g stroke-linecap="round" transform="translate(58.303918984152915 120.43016407412597) rotate(0 12 15)"><path d="M0 0 C7.37 0, 14.74 0, 24 0 M0 0 C5.08 0, 10.16 0, 24 0 M24 0 C24 6.17, 24 12.34, 24 30 M24 0 C24 8.26, 24 16.52, 24 30 M24 30 C18.59 30, 13.18 30, 0 30 M24 30 C16.08 30, 8.17 30, 0 30 M0 30 C0 22.64, 0 15.28, 0 0 M0 30 C0 20.36, 0 10.72, 0 0" stroke="#1e1e1e" stroke-width="1" fill="none"></path></g><g transform="translate(65.67992606423104 125.43016407412597) rotate(0 4.623992919921875 10)"><text x="4.623992919921875" y="0" font-family="HanziPen SC, HanziPen Remote, Virgil, KaiTi, Segoe UI Emoji" font-size="16px" fill="#1e1e1e" text-anchor="middle" style="white-space: pre;" direction="ltr" dominant-baseline="text-before-edge">1</text></g><g stroke-linecap="round" transform="translate(82.31046881119983 120.38230738414154) rotate(0 12 15)"><path d="M0 0 C5.31 0, 10.63 0, 24 0 M0 0 C5.27 0, 10.53 0, 24 0 M24 0 C24 11.35, 24 22.71, 24 30 M24 0 C24 8.11, 24 16.23, 24 30 M24 30 C18.74 30, 13.48 30, 0 30 M24 30 C18.5 30, 13 30, 0 30 M0 30 C0 21.35, 0 12.7, 0 0 M0 30 C0 20.2, 0 10.41, 0 0" stroke="#1e1e1e" stroke-width="1" fill="none"></path></g><g transform="translate(89.68647589127795 125.38230738414154) rotate(0 4.623992919921875 10)"><text x="4.623992919921875" y="0" font-family="HanziPen SC, HanziPen Remote, Virgil, KaiTi, Segoe UI Emoji" font-size="16px" fill="#1e1e1e" text-anchor="middle" style="white-space: pre;" direction="ltr" dominant-baseline="text-before-edge">0</text></g><g stroke-linecap="round" transform="translate(105.74674809812905 10.737994063744196) rotate(0 12 15)"><path d="M0 0 C6.42 0, 12.84 0, 24 0 M0 0 C8.38 0, 16.76 0, 24 0 M24 0 C24 9.72, 24 19.45, 24 30 M24 0 C24 11.23, 24 22.46, 24 30 M24 30 C16.3 30, 8.61 30, 0 30 M24 30 C18.46 30, 12.93 30, 0 30 M0 30 C0 21.96, 0 13.93, 0 0 M0 30 C0 23, 0 16.01, 0 0" stroke="#1e1e1e" stroke-width="1" fill="none"></path></g><g transform="translate(113.12275517820717 15.737994063744196) rotate(0 4.623992919921875 10)"><text x="4.623992919921875" y="0" font-family="HanziPen SC, HanziPen Remote, Virgil, KaiTi, Segoe UI Emoji" font-size="16px" fill="#2f9e44" text-anchor="middle" style="white-space: pre;" direction="ltr" dominant-baseline="text-before-edge">0</text></g><g stroke-linecap="round" transform="translate(129.65321048495161 10.732733064824203) rotate(0 12 15)"><path d="M0 0 C9.27 0, 18.54 0, 24 0 M0 0 C7.89 0, 15.77 0, 24 0 M24 0 C24 10.39, 24 20.77, 24 30 M24 0 C24 10.57, 24 21.14, 24 30 M24 30 C14.49 30, 4.98 30, 0 30 M24 30 C15.92 30, 7.83 30, 0 30 M0 30 C0 23.62, 0 17.25, 0 0 M0 30 C0 21.56, 0 13.11, 0 0" stroke="#1e1e1e" stroke-width="1" fill="none"></path></g><g transform="translate(137.02921756502974 15.732733064824203) rotate(0 4.623992919921875 10)"><text x="4.623992919921875" y="0" font-family="HanziPen SC, HanziPen Remote, Virgil, KaiTi, Segoe UI Emoji" font-size="16px" fill="#2f9e44" text-anchor="middle" style="white-space: pre;" direction="ltr" dominant-baseline="text-before-edge">0</text></g><g stroke-linecap="round" transform="translate(153.71263557959583 10.753019200164232) rotate(0 12 15)"><path d="M0 0 C7.05 0, 14.1 0, 24 0 M0 0 C7.45 0, 14.9 0, 24 0 M24 0 C24 9.7, 24 19.39, 24 30 M24 0 C24 11.84, 24 23.68, 24 30 M24 30 C17.12 30, 10.25 30, 0 30 M24 30 C14.99 30, 5.98 30, 0 30 M0 30 C0 20.23, 0 10.46, 0 0 M0 30 C0 19.9, 0 9.8, 0 0" stroke="#1e1e1e" stroke-width="1" fill="none"></path></g><g transform="translate(161.08864265967395 15.753019200164232) rotate(0 4.623992919921875 10)"><text x="4.623992919921875" y="0" font-family="HanziPen SC, HanziPen Remote, Virgil, KaiTi, Segoe UI Emoji" font-size="16px" fill="#2f9e44" text-anchor="middle" style="white-space: pre;" direction="ltr" dominant-baseline="text-before-edge">0</text></g><g stroke-linecap="round" transform="translate(105.68033736844154 47.59341188102633) rotate(0 12 15)"><path d="M0 0 C6.74 0, 13.48 0, 24 0 M0 0 C6.54 0, 13.07 0, 24 0 M24 0 C24 9.26, 24 18.52, 24 30 M24 0 C24 9.5, 24 18.99, 24 30 M24 30 C19.01 30, 14.02 30, 0 30 M24 30 C14.41 30, 4.83 30, 0 30 M0 30 C0 18.42, 0 6.84, 0 0 M0 30 C0 21.33, 0 12.66, 0 0" stroke="#1e1e1e" stroke-width="1" fill="none"></path></g><g transform="translate(113.05634444851967 52.59341188102633) rotate(0 4.623992919921875 10)"><text x="4.623992919921875" y="0" font-family="HanziPen SC, HanziPen Remote, Virgil, KaiTi, Segoe UI Emoji" font-size="16px" fill="#2f9e44" text-anchor="middle" style="white-space: pre;" direction="ltr" dominant-baseline="text-before-edge">0</text></g><g stroke-linecap="round" transform="translate(129.5867997552641 47.58815088210633) rotate(0 12 15)"><path d="M0 0 C5.13 0, 10.26 0, 24 0 M0 0 C5.21 0, 10.42 0, 24 0 M24 0 C24 9.93, 24 19.86, 24 30 M24 0 C24 10.75, 24 21.49, 24 30 M24 30 C15.58 30, 7.15 30, 0 30 M24 30 C17.13 30, 10.26 30, 0 30 M0 30 C0 19.59, 0 9.18, 0 0 M0 30 C0 22.39, 0 14.78, 0 0" stroke="#1e1e1e" stroke-width="1" fill="none"></path></g><g transform="translate(136.96280683534223 52.58815088210633) rotate(0 4.623992919921875 10)"><text x="4.623992919921875" y="0" font-family="HanziPen SC, HanziPen Remote, Virgil, KaiTi, Segoe UI Emoji" font-size="16px" fill="#2f9e44" text-anchor="middle" style="white-space: pre;" direction="ltr" dominant-baseline="text-before-edge">1</text></g><g stroke-linecap="round" transform="translate(153.64622484990878 47.60843701744636) rotate(0 12 15)"><path d="M0 0 C8.01 0, 16.01 0, 24 0 M0 0 C8.94 0, 17.88 0, 24 0 M24 0 C24 11.82, 24 23.63, 24 30 M24 0 C24 11.54, 24 23.09, 24 30 M24 30 C17.23 30, 10.46 30, 0 30 M24 30 C15.87 30, 7.74 30, 0 30 M0 30 C0 19.89, 0 9.77, 0 0 M0 30 C0 18.87, 0 7.74, 0 0" stroke="#1e1e1e" stroke-width="1" fill="none"></path></g><g transform="translate(161.0222319299869 52.60843701744636) rotate(0 4.623992919921875 10)"><text x="4.623992919921875" y="0" font-family="HanziPen SC, HanziPen Remote, Virgil, KaiTi, Segoe UI Emoji" font-size="16px" fill="#2f9e44" text-anchor="middle" style="white-space: pre;" direction="ltr" dominant-baseline="text-before-edge">0</text></g><g stroke-linecap="round" transform="translate(105.7940014810788 83.23618541675663) rotate(0 12 15)"><path d="M0 0 C6.15 0, 12.29 0, 24 0 M0 0 C9.39 0, 18.78 0, 24 0 M24 0 C24 8.27, 24 16.55, 24 30 M24 0 C24 8.6, 24 17.2, 24 30 M24 30 C15.79 30, 7.57 30, 0 30 M24 30 C17.17 30, 10.34 30, 0 30 M0 30 C0 22.2, 0 14.41, 0 0 M0 30 C0 23.82, 0 17.63, 0 0" stroke="#1e1e1e" stroke-width="1" fill="none"></path></g><g transform="translate(113.17000856115692 88.23618541675663) rotate(0 4.623992919921875 10)"><text x="4.623992919921875" y="0" font-family="HanziPen SC, HanziPen Remote, Virgil, KaiTi, Segoe UI Emoji" font-size="16px" fill="#2f9e44" text-anchor="middle" style="white-space: pre;" direction="ltr" dominant-baseline="text-before-edge">0</text></g><g stroke-linecap="round" transform="translate(129.70046386790136 83.23092441783663) rotate(0 12 15)"><path d="M0 0 C8.94 0, 17.87 0, 24 0 M0 0 C8.43 0, 16.85 0, 24 0 M24 0 C24 9.9, 24 19.81, 24 30 M24 0 C24 11.37, 24 22.75, 24 30 M24 30 C18.07 30, 12.13 30, 0 30 M24 30 C17.36 30, 10.72 30, 0 30 M0 30 C0 18.19, 0 6.37, 0 0 M0 30 C0 19.52, 0 9.04, 0 0" stroke="#1e1e1e" stroke-width="1" fill="none"></path></g><g transform="translate(137.0764709479795 88.23092441783663) rotate(0 4.623992919921875 10)"><text x="4.623992919921875" y="0" font-family="HanziPen SC, HanziPen Remote, Virgil, KaiTi, Segoe UI Emoji" font-size="16px" fill="#2f9e44" text-anchor="middle" style="white-space: pre;" direction="ltr" dominant-baseline="text-before-edge">0</text></g><g stroke-linecap="round" transform="translate(153.75988896254603 83.25121055317666) rotate(0 12 15)"><path d="M0 0 C5.96 0, 11.92 0, 24 0 M0 0 C8.51 0, 17.02 0, 24 0 M24 0 C24 8.56, 24 17.13, 24 30 M24 0 C24 6.07, 24 12.13, 24 30 M24 30 C17.08 30, 10.16 30, 0 30 M24 30 C16.98 30, 9.96 30, 0 30 M0 30 C0 18.23, 0 6.45, 0 0 M0 30 C0 23.53, 0 17.05, 0 0" stroke="#1e1e1e" stroke-width="1" fill="none"></path></g><g transform="translate(161.13589604262415 88.25121055317666) rotate(0 4.623992919921875 10)"><text x="4.623992919921875" y="0" font-family="HanziPen SC, HanziPen Remote, Virgil, KaiTi, Segoe UI Emoji" font-size="16px" fill="#2f9e44" text-anchor="middle" style="white-space: pre;" direction="ltr" dominant-baseline="text-before-edge">1</text></g><g stroke-linecap="round" transform="translate(106.35441984004865 120.525689141452) rotate(0 12 15)"><path d="M0 0 C5.41 0, 10.82 0, 24 0 M0 0 C7.92 0, 15.83 0, 24 0 M24 0 C24 7.36, 24 14.72, 24 30 M24 0 C24 9.64, 24 19.28, 24 30 M24 30 C16.05 30, 8.1 30, 0 30 M24 30 C15.96 30, 7.91 30, 0 30 M0 30 C0 21.47, 0 12.94, 0 0 M0 30 C0 22.62, 0 15.25, 0 0" stroke="#1e1e1e" stroke-width="1" fill="none"></path></g><g transform="translate(113.73042692012677 125.525689141452) rotate(0 4.623992919921875 10)"><text x="4.623992919921875" y="0" font-family="HanziPen SC, HanziPen Remote, Virgil, KaiTi, Segoe UI Emoji" font-size="16px" fill="#2f9e44" text-anchor="middle" style="white-space: pre;" direction="ltr" dominant-baseline="text-before-edge">0</text></g><g stroke-linecap="round" transform="translate(130.26088222687122 120.52042814253201) rotate(0 12 15)"><path d="M0 0 C5.26 0, 10.52 0, 24 0 M0 0 C5.5 0, 11 0, 24 0 M24 0 C24 8.65, 24 17.3, 24 30 M24 0 C24 9.8, 24 19.59, 24 30 M24 30 C18.78 30, 13.57 30, 0 30 M24 30 C18.43 30, 12.86 30, 0 30 M0 30 C0 21.82, 0 13.63, 0 0 M0 30 C0 20.86, 0 11.72, 0 0" stroke="#1e1e1e" stroke-width="1" fill="none"></path></g><g transform="translate(137.63688930694934 125.52042814253201) rotate(0 4.623992919921875 10)"><text x="4.623992919921875" y="0" font-family="HanziPen SC, HanziPen Remote, Virgil, KaiTi, Segoe UI Emoji" font-size="16px" fill="#2f9e44" text-anchor="middle" style="white-space: pre;" direction="ltr" dominant-baseline="text-before-edge">0</text></g><g stroke-linecap="round" transform="translate(154.32030732151588 120.54071427787204) rotate(0 12 15)"><path d="M0 0 C7.7 0, 15.39 0, 24 0 M0 0 C5.54 0, 11.07 0, 24 0 M24 0 C24 8.04, 24 16.07, 24 30 M24 0 C24 7, 24 13.99, 24 30 M24 30 C15.3 30, 6.61 30, 0 30 M24 30 C18.34 30, 12.67 30, 0 30 M0 30 C0 19.9, 0 9.8, 0 0 M0 30 C0 21.53, 0 13.06, 0 0" stroke="#1e1e1e" stroke-width="1" fill="none"></path></g><g transform="translate(161.696314401594 125.54071427787204) rotate(0 4.623992919921875 10)"><text x="4.623992919921875" y="0" font-family="HanziPen SC, HanziPen Remote, Virgil, KaiTi, Segoe UI Emoji" font-size="16px" fill="#2f9e44" text-anchor="middle" style="white-space: pre;" direction="ltr" dominant-baseline="text-before-edge">0</text></g></svg>