<svg version="1.1" xmlns="http://www.w3.org/2000/svg" viewBox="0 0 291.24845092788246 160.54486872654056" width="291.24845092788246" height="160.54486872654056" filter="invert(93%) hue-rotate(180deg)">
  <!-- svg-source:excalidraw -->
  
  <defs>
    <style class="style-fonts">
      @font-face {
        font-family: "Virgil";
        src: url("https://unpkg.com/revedraw@1.0.0-alpha.10/dist/excalidraw-assets/Virgil.woff2");
      }
      @font-face {
        font-family: "Cascadia";
        src: url("https://unpkg.com/revedraw@1.0.0-alpha.10/dist/excalidraw-assets/Cascadia.woff2");
      }
    </style>
    
  </defs>
  <g stroke-linecap="round" transform="translate(191.86125843720674 10) rotate(0 44.5 15)"><path d="M0 0 C30.88 0, 61.75 0, 89 0 M0 0 C22.66 0, 45.32 0, 89 0 M89 0 C89 8.54, 89 17.09, 89 30 M89 0 C89 7.61, 89 15.23, 89 30 M89 30 C64.47 30, 39.93 30, 0 30 M89 30 C66.83 30, 44.67 30, 0 30 M0 30 C0 20.28, 0 10.56, 0 0 M0 30 C0 22.14, 0 14.29, 0 0" stroke="#1e1e1e" stroke-width="1" fill="none"></path></g><g transform="translate(216.63328449921846 15) rotate(0 19.72797393798828 10)"><text x="19.72797393798828" y="0" font-family="HanziPen SC, HanziPen Remote, Virgil, KaiTi, Segoe UI Emoji" font-size="16px" fill="#1e1e1e" text-anchor="middle" style="white-space: pre;" direction="ltr" dominant-baseline="text-before-edge">1x1.0</text></g><g stroke-linecap="round" transform="translate(10.07843433411199 10.735528250593632) rotate(0 12 15)"><path d="M0 0 C9.08 0, 18.17 0, 24 0 M0 0 C7.93 0, 15.86 0, 24 0 M24 0 C24 8.76, 24 17.51, 24 30 M24 0 C24 6.74, 24 13.48, 24 30 M24 30 C15.1 30, 6.19 30, 0 30 M24 30 C17.23 30, 10.46 30, 0 30 M0 30 C0 21.43, 0 12.86, 0 0 M0 30 C0 23.74, 0 17.49, 0 0" stroke="#1e1e1e" stroke-width="1" fill="none"></path></g><g transform="translate(17.454441414190114 15.735528250593632) rotate(0 4.623992919921875 10)"><text x="4.623992919921875" y="0" font-family="HanziPen SC, HanziPen Remote, Virgil, KaiTi, Segoe UI Emoji" font-size="16px" fill="#1e1e1e" text-anchor="middle" style="white-space: pre;" direction="ltr" dominant-baseline="text-before-edge">0</text></g><g stroke-linecap="round" transform="translate(33.98489672093456 10.730267251673638) rotate(0 12 15)"><path d="M0 0 C9.47 0, 18.95 0, 24 0 M0 0 C5.4 0, 10.8 0, 24 0 M24 0 C24 6.75, 24 13.5, 24 30 M24 0 C24 9.04, 24 18.08, 24 30 M24 30 C18.55 30, 13.09 30, 0 30 M24 30 C16.46 30, 8.92 30, 0 30 M0 30 C0 19.89, 0 9.78, 0 0 M0 30 C0 22.39, 0 14.79, 0 0" stroke="#1e1e1e" stroke-width="1" fill="none"></path></g><g transform="translate(41.36090380101268 15.730267251673638) rotate(0 4.623992919921875 10)"><text x="4.623992919921875" y="0" font-family="HanziPen SC, HanziPen Remote, Virgil, KaiTi, Segoe UI Emoji" font-size="16px" fill="#1e1e1e" text-anchor="middle" style="white-space: pre;" direction="ltr" dominant-baseline="text-before-edge">0</text></g><g stroke-linecap="round" transform="translate(58.044321815579224 10.750553387013667) rotate(0 12 15)"><path d="M0 0 C8.09 0, 16.17 0, 24 0 M0 0 C6.39 0, 12.78 0, 24 0 M24 0 C24 11.63, 24 23.26, 24 30 M24 0 C24 7.47, 24 14.93, 24 30 M24 30 C16.55 30, 9.1 30, 0 30 M24 30 C15.66 30, 7.31 30, 0 30 M0 30 C0 20.8, 0 11.61, 0 0 M0 30 C0 22.89, 0 15.77, 0 0" stroke="#1e1e1e" stroke-width="1" fill="none"></path></g><g transform="translate(65.42032889565735 15.750553387013667) rotate(0 4.623992919921875 10)"><text x="4.623992919921875" y="0" font-family="HanziPen SC, HanziPen Remote, Virgil, KaiTi, Segoe UI Emoji" font-size="16px" fill="#1e1e1e" text-anchor="middle" style="white-space: pre;" direction="ltr" dominant-baseline="text-before-edge">0</text></g><g stroke-linecap="round" transform="translate(82.05087164262659 10.70269669702924) rotate(0 12 15)"><path d="M0 0 C7.7 0, 15.4 0, 24 0 M0 0 C4.96 0, 9.92 0, 24 0 M24 0 C24 7.75, 24 15.5, 24 30 M24 0 C24 7.73, 24 15.46, 24 30 M24 30 C17.72 30, 11.44 30, 0 30 M24 30 C18.95 30, 13.89 30, 0 30 M0 30 C0 18.06, 0 6.13, 0 0 M0 30 C0 23.27, 0 16.54, 0 0" stroke="#1e1e1e" stroke-width="1" fill="none"></path></g><g transform="translate(89.42687872270471 15.70269669702924) rotate(0 4.623992919921875 10)"><text x="4.623992919921875" y="0" font-family="HanziPen SC, HanziPen Remote, Virgil, KaiTi, Segoe UI Emoji" font-size="16px" fill="#1e1e1e" text-anchor="middle" style="white-space: pre;" direction="ltr" dominant-baseline="text-before-edge">0</text></g><g stroke-linecap="round" transform="translate(191.19021138123207 47.37336012962163) rotate(0 45 15)"><path d="M0 0 C21.4 0, 42.8 0, 90 0 M0 0 C20.17 0, 40.34 0, 90 0 M90 0 C90 8.72, 90 17.44, 90 30 M90 0 C90 10.28, 90 20.57, 90 30 M90 30 C63.27 30, 36.54 30, 0 30 M90 30 C58 30, 26 30, 0 30 M0 30 C0 18.32, 0 6.64, 0 0 M0 30 C0 20.83, 0 11.66, 0 0" stroke="#1e1e1e" stroke-width="1" fill="none"></path></g><g transform="translate(211.83824452332192 52.37336012962163) rotate(0 24.351966857910156 10)"><text x="24.351966857910156" y="0" font-family="HanziPen SC, HanziPen Remote, Virgil, KaiTi, Segoe UI Emoji" font-size="16px" fill="#1e1e1e" text-anchor="middle" style="white-space: pre;" direction="ltr" dominant-baseline="text-before-edge">2x1.25</text></g><g stroke-linecap="round" transform="translate(10 47.732081902877496) rotate(0 12 15)"><path d="M0 0 C7.01 0, 14.01 0, 24 0 M0 0 C5.39 0, 10.78 0, 24 0 M24 0 C24 11.13, 24 22.26, 24 30 M24 0 C24 8.46, 24 16.93, 24 30 M24 30 C17.14 30, 10.29 30, 0 30 M24 30 C18.99 30, 13.99 30, 0 30 M0 30 C0 18.24, 0 6.48, 0 0 M0 30 C0 19.54, 0 9.08, 0 0" stroke="#1e1e1e" stroke-width="1" fill="none"></path></g><g transform="translate(17.376007080078125 52.732081902877496) rotate(0 4.623992919921875 10)"><text x="4.623992919921875" y="0" font-family="HanziPen SC, HanziPen Remote, Virgil, KaiTi, Segoe UI Emoji" font-size="16px" fill="#1e1e1e" text-anchor="middle" style="white-space: pre;" direction="ltr" dominant-baseline="text-before-edge">0</text></g><g stroke-linecap="round" transform="translate(33.90646238682257 47.7268209039575) rotate(0 12 15)"><path d="M0 0 C5.4 0, 10.8 0, 24 0 M0 0 C7.23 0, 14.46 0, 24 0 M24 0 C24 6.82, 24 13.63, 24 30 M24 0 C24 9.42, 24 18.85, 24 30 M24 30 C15.91 30, 7.82 30, 0 30 M24 30 C17.91 30, 11.83 30, 0 30 M0 30 C0 21.72, 0 13.43, 0 0 M0 30 C0 22.53, 0 15.07, 0 0" stroke="#1e1e1e" stroke-width="1" fill="none"></path></g><g transform="translate(41.28246946690069 52.7268209039575) rotate(0 4.623992919921875 10)"><text x="4.623992919921875" y="0" font-family="HanziPen SC, HanziPen Remote, Virgil, KaiTi, Segoe UI Emoji" font-size="16px" fill="#1e1e1e" text-anchor="middle" style="white-space: pre;" direction="ltr" dominant-baseline="text-before-edge">0</text></g><g stroke-linecap="round" transform="translate(57.965887481467234 47.747107039297475) rotate(0 12 15)"><path d="M0 0 C9.3 0, 18.61 0, 24 0 M0 0 C5.97 0, 11.94 0, 24 0 M24 0 C24 9.31, 24 18.63, 24 30 M24 0 C24 10.43, 24 20.86, 24 30 M24 30 C16.64 30, 9.28 30, 0 30 M24 30 C18.31 30, 12.62 30, 0 30 M0 30 C0 22.1, 0 14.2, 0 0 M0 30 C0 23.08, 0 16.16, 0 0" stroke="#1e1e1e" stroke-width="1" fill="none"></path></g><g transform="translate(65.34189456154536 52.747107039297475) rotate(0 4.623992919921875 10)"><text x="4.623992919921875" y="0" font-family="HanziPen SC, HanziPen Remote, Virgil, KaiTi, Segoe UI Emoji" font-size="16px" fill="#1e1e1e" text-anchor="middle" style="white-space: pre;" direction="ltr" dominant-baseline="text-before-edge">0</text></g><g stroke-linecap="round" transform="translate(81.97243730851415 47.69925034931316) rotate(0 12 15)"><path d="M0 0 C6.2 0, 12.4 0, 24 0 M0 0 C6.18 0, 12.37 0, 24 0 M24 0 C24 7.85, 24 15.7, 24 30 M24 0 C24 6.32, 24 12.63, 24 30 M24 30 C14.45 30, 4.9 30, 0 30 M24 30 C18.61 30, 13.23 30, 0 30 M0 30 C0 20.41, 0 10.81, 0 0 M0 30 C0 18.09, 0 6.18, 0 0" stroke="#1e1e1e" stroke-width="1" fill="none"></path></g><g transform="translate(89.34844438859227 52.69925034931316) rotate(0 4.623992919921875 10)"><text x="4.623992919921875" y="0" font-family="HanziPen SC, HanziPen Remote, Virgil, KaiTi, Segoe UI Emoji" font-size="16px" fill="#1e1e1e" text-anchor="middle" style="white-space: pre;" direction="ltr" dominant-baseline="text-before-edge">1</text></g><g stroke-linecap="round" transform="translate(191.24845092788246 83.28086285549543) rotate(0 45 15)"><path d="M0 0 C26.16 0, 52.31 0, 90 0 M0 0 C30.85 0, 61.7 0, 90 0 M90 0 C90 8.91, 90 17.82, 90 30 M90 0 C90 10.67, 90 21.33, 90 30 M90 30 C54.95 30, 19.91 30, 0 30 M90 30 C62.49 30, 34.98 30, 0 30 M0 30 C0 18.41, 0 6.82, 0 0 M0 30 C0 21.74, 0 13.48, 0 0" stroke="#1e1e1e" stroke-width="1" fill="none"></path></g><g transform="translate(207.27249115005043 88.28086285549543) rotate(0 28.97595977783203 10)"><text x="28.97595977783203" y="0" font-family="HanziPen SC, HanziPen Remote, Virgil, KaiTi, Segoe UI Emoji" font-size="16px" fill="#1e1e1e" text-anchor="middle" style="white-space: pre;" direction="ltr" dominant-baseline="text-before-edge">4x1.125</text></g><g stroke-linecap="round" transform="translate(10.030356292888428 83.2956273822908) rotate(0 12 15)"><path d="M0 0 C7.51 0, 15.02 0, 24 0 M0 0 C8.27 0, 16.54 0, 24 0 M24 0 C24 6.22, 24 12.44, 24 30 M24 0 C24 7.81, 24 15.62, 24 30 M24 30 C18.37 30, 12.74 30, 0 30 M24 30 C14.49 30, 4.98 30, 0 30 M0 30 C0 18.62, 0 7.25, 0 0 M0 30 C0 23.44, 0 16.88, 0 0" stroke="#1e1e1e" stroke-width="1" fill="none"></path></g><g transform="translate(17.406363372966553 88.2956273822908) rotate(0 4.623992919921875 10)"><text x="4.623992919921875" y="0" font-family="HanziPen SC, HanziPen Remote, Virgil, KaiTi, Segoe UI Emoji" font-size="16px" fill="#1e1e1e" text-anchor="middle" style="white-space: pre;" direction="ltr" dominant-baseline="text-before-edge">0</text></g><g stroke-linecap="round" transform="translate(33.936818679710996 83.29036638337081) rotate(0 12 15)"><path d="M0 0 C7.89 0, 15.79 0, 24 0 M0 0 C7.88 0, 15.76 0, 24 0 M24 0 C24 10.76, 24 21.52, 24 30 M24 0 C24 6.83, 24 13.67, 24 30 M24 30 C17.71 30, 11.41 30, 0 30 M24 30 C18.33 30, 12.66 30, 0 30 M0 30 C0 18.32, 0 6.64, 0 0 M0 30 C0 23.86, 0 17.72, 0 0" stroke="#1e1e1e" stroke-width="1" fill="none"></path></g><g transform="translate(41.31282575978912 88.29036638337081) rotate(0 4.623992919921875 10)"><text x="4.623992919921875" y="0" font-family="HanziPen SC, HanziPen Remote, Virgil, KaiTi, Segoe UI Emoji" font-size="16px" fill="#1e1e1e" text-anchor="middle" style="white-space: pre;" direction="ltr" dominant-baseline="text-before-edge">0</text></g><g stroke-linecap="round" transform="translate(57.99624377435566 83.31065251871073) rotate(0 12 15)"><path d="M0 0 C7.61 0, 15.21 0, 24 0 M0 0 C9.22 0, 18.44 0, 24 0 M24 0 C24 8.76, 24 17.53, 24 30 M24 0 C24 11.56, 24 23.13, 24 30 M24 30 C14.99 30, 5.97 30, 0 30 M24 30 C14.62 30, 5.24 30, 0 30 M0 30 C0 21.52, 0 13.05, 0 0 M0 30 C0 22.92, 0 15.84, 0 0" stroke="#1e1e1e" stroke-width="1" fill="none"></path></g><g transform="translate(65.37225085443379 88.31065251871073) rotate(0 4.623992919921875 10)"><text x="4.623992919921875" y="0" font-family="HanziPen SC, HanziPen Remote, Virgil, KaiTi, Segoe UI Emoji" font-size="16px" fill="#1e1e1e" text-anchor="middle" style="white-space: pre;" direction="ltr" dominant-baseline="text-before-edge">1</text></g><g stroke-linecap="round" transform="translate(82.00279360140257 83.26279582872652) rotate(0 12 15)"><path d="M0 0 C5.54 0, 11.07 0, 24 0 M0 0 C5.46 0, 10.92 0, 24 0 M24 0 C24 9.71, 24 19.42, 24 30 M24 0 C24 8.58, 24 17.17, 24 30 M24 30 C17.92 30, 11.85 30, 0 30 M24 30 C17.99 30, 11.97 30, 0 30 M0 30 C0 21, 0 11.99, 0 0 M0 30 C0 19.79, 0 9.58, 0 0" stroke="#1e1e1e" stroke-width="1" fill="none"></path></g><g transform="translate(89.3788006814807 88.26279582872652) rotate(0 4.623992919921875 10)"><text x="4.623992919921875" y="0" font-family="HanziPen SC, HanziPen Remote, Virgil, KaiTi, Segoe UI Emoji" font-size="16px" fill="#1e1e1e" text-anchor="middle" style="white-space: pre;" direction="ltr" dominant-baseline="text-before-edge">0</text></g><g stroke-linecap="round" transform="translate(190.85528148339154 119.52805654858477) rotate(0 45 15)"><path d="M0 0 C35.86 0, 71.73 0, 90 0 M0 0 C35.84 0, 71.68 0, 90 0 M90 0 C90 10.33, 90 20.66, 90 30 M90 0 C90 9.23, 90 18.46, 90 30 M90 30 C58.62 30, 27.24 30, 0 30 M90 30 C69.27 30, 48.54 30, 0 30 M0 30 C0 22.26, 0 14.52, 0 0 M0 30 C0 18.88, 0 7.76, 0 0" stroke="#1e1e1e" stroke-width="1" fill="none"></path></g><g transform="translate(216.12730754540326 124.52805654858477) rotate(0 19.72797393798828 10)"><text x="19.72797393798828" y="0" font-family="HanziPen SC, HanziPen Remote, Virgil, KaiTi, Segoe UI Emoji" font-size="16px" fill="#1e1e1e" text-anchor="middle" style="white-space: pre;" direction="ltr" dominant-baseline="text-before-edge">4x1.0</text></g><g stroke-linecap="round" transform="translate(10.33803150268568 120.41513893770602) rotate(0 12 15)"><path d="M0 0 C7.78 0, 15.55 0, 24 0 M0 0 C6.28 0, 12.57 0, 24 0 M24 0 C24 6.6, 24 13.21, 24 30 M24 0 C24 7.58, 24 15.15, 24 30 M24 30 C17.03 30, 10.06 30, 0 30 M24 30 C15.11 30, 6.21 30, 0 30 M0 30 C0 19.59, 0 9.17, 0 0 M0 30 C0 23.87, 0 17.73, 0 0" stroke="#1e1e1e" stroke-width="1" fill="none"></path></g><g transform="translate(17.714038582763806 125.41513893770602) rotate(0 4.623992919921875 10)"><text x="4.623992919921875" y="0" font-family="HanziPen SC, HanziPen Remote, Virgil, KaiTi, Segoe UI Emoji" font-size="16px" fill="#1e1e1e" text-anchor="middle" style="white-space: pre;" direction="ltr" dominant-baseline="text-before-edge">0</text></g><g stroke-linecap="round" transform="translate(34.24449388950825 120.40987793878602) rotate(0 12 15)"><path d="M0 0 C6.86 0, 13.71 0, 24 0 M0 0 C5.01 0, 10.01 0, 24 0 M24 0 C24 11.76, 24 23.52, 24 30 M24 0 C24 10.46, 24 20.92, 24 30 M24 30 C17.23 30, 10.46 30, 0 30 M24 30 C15.93 30, 7.85 30, 0 30 M0 30 C0 19.99, 0 9.99, 0 0 M0 30 C0 19.66, 0 9.32, 0 0" stroke="#1e1e1e" stroke-width="1" fill="none"></path></g><g transform="translate(41.620500969586374 125.40987793878602) rotate(0 4.623992919921875 10)"><text x="4.623992919921875" y="0" font-family="HanziPen SC, HanziPen Remote, Virgil, KaiTi, Segoe UI Emoji" font-size="16px" fill="#1e1e1e" text-anchor="middle" style="white-space: pre;" direction="ltr" dominant-baseline="text-before-edge">0</text></g><g stroke-linecap="round" transform="translate(58.303918984152915 120.43016407412605) rotate(0 12 15)"><path d="M0 0 C8.09 0, 16.18 0, 24 0 M0 0 C6.09 0, 12.17 0, 24 0 M24 0 C24 8.28, 24 16.57, 24 30 M24 0 C24 7.47, 24 14.93, 24 30 M24 30 C16.75 30, 9.5 30, 0 30 M24 30 C18.76 30, 13.53 30, 0 30 M0 30 C0 19.25, 0 8.5, 0 0 M0 30 C0 20.44, 0 10.87, 0 0" stroke="#1e1e1e" stroke-width="1" fill="none"></path></g><g transform="translate(65.67992606423104 125.43016407412605) rotate(0 4.623992919921875 10)"><text x="4.623992919921875" y="0" font-family="HanziPen SC, HanziPen Remote, Virgil, KaiTi, Segoe UI Emoji" font-size="16px" fill="#1e1e1e" text-anchor="middle" style="white-space: pre;" direction="ltr" dominant-baseline="text-before-edge">1</text></g><g stroke-linecap="round" transform="translate(82.31046881119983 120.38230738414163) rotate(0 12 15)"><path d="M0 0 C7.36 0, 14.72 0, 24 0 M0 0 C5.69 0, 11.38 0, 24 0 M24 0 C24 7.9, 24 15.8, 24 30 M24 0 C24 6.92, 24 13.84, 24 30 M24 30 C16.71 30, 9.41 30, 0 30 M24 30 C16.06 30, 8.11 30, 0 30 M0 30 C0 19.88, 0 9.75, 0 0 M0 30 C0 21.61, 0 13.22, 0 0" stroke="#1e1e1e" stroke-width="1" fill="none"></path></g><g transform="translate(89.68647589127795 125.38230738414163) rotate(0 4.623992919921875 10)"><text x="4.623992919921875" y="0" font-family="HanziPen SC, HanziPen Remote, Virgil, KaiTi, Segoe UI Emoji" font-size="16px" fill="#1e1e1e" text-anchor="middle" style="white-space: pre;" direction="ltr" dominant-baseline="text-before-edge">0</text></g><g stroke-linecap="round" transform="translate(105.74674809812859 10.742148512412768) rotate(0 12 15)"><path d="M0 0 C9.55 0, 19.1 0, 24 0 M0 0 C5.39 0, 10.77 0, 24 0 M24 0 C24 9.59, 24 19.19, 24 30 M24 0 C24 11.91, 24 23.82, 24 30 M24 30 C18.81 30, 13.62 30, 0 30 M24 30 C18.84 30, 13.67 30, 0 30 M0 30 C0 19.14, 0 8.29, 0 0 M0 30 C0 23.84, 0 17.69, 0 0" stroke="#1e1e1e" stroke-width="1" fill="none"></path></g><g transform="translate(113.12275517820672 15.742148512412768) rotate(0 4.623992919921875 10)"><text x="4.623992919921875" y="0" font-family="HanziPen SC, HanziPen Remote, Virgil, KaiTi, Segoe UI Emoji" font-size="16px" fill="#2f9e44" text-anchor="middle" style="white-space: pre;" direction="ltr" dominant-baseline="text-before-edge">0</text></g><g stroke-linecap="round" transform="translate(129.65321048495116 10.736887513492775) rotate(0 12 15)"><path d="M0 0 C9.35 0, 18.69 0, 24 0 M0 0 C7.34 0, 14.67 0, 24 0 M24 0 C24 11.59, 24 23.18, 24 30 M24 0 C24 8.26, 24 16.52, 24 30 M24 30 C15.78 30, 7.57 30, 0 30 M24 30 C18.34 30, 12.67 30, 0 30 M0 30 C0 21.07, 0 12.14, 0 0 M0 30 C0 21.06, 0 12.13, 0 0" stroke="#1e1e1e" stroke-width="1" fill="none"></path></g><g transform="translate(137.02921756502928 15.736887513492775) rotate(0 4.623992919921875 10)"><text x="4.623992919921875" y="0" font-family="HanziPen SC, HanziPen Remote, Virgil, KaiTi, Segoe UI Emoji" font-size="16px" fill="#2f9e44" text-anchor="middle" style="white-space: pre;" direction="ltr" dominant-baseline="text-before-edge">0</text></g><g stroke-linecap="round" transform="translate(153.71263557959537 10.757173648832804) rotate(0 12 15)"><path d="M0 0 C5.63 0, 11.26 0, 24 0 M0 0 C9.51 0, 19.02 0, 24 0 M24 0 C24 11.38, 24 22.75, 24 30 M24 0 C24 6.56, 24 13.12, 24 30 M24 30 C15.34 30, 6.67 30, 0 30 M24 30 C14.8 30, 5.59 30, 0 30 M0 30 C0 18.42, 0 6.84, 0 0 M0 30 C0 18.43, 0 6.87, 0 0" stroke="#1e1e1e" stroke-width="1" fill="none"></path></g><g transform="translate(161.0886426596735 15.757173648832804) rotate(0 4.623992919921875 10)"><text x="4.623992919921875" y="0" font-family="HanziPen SC, HanziPen Remote, Virgil, KaiTi, Segoe UI Emoji" font-size="16px" fill="#2f9e44" text-anchor="middle" style="white-space: pre;" direction="ltr" dominant-baseline="text-before-edge">0</text></g><g stroke-linecap="round" transform="translate(105.54947223538147 47.59756632969487) rotate(0 12 15)"><path d="M0 0 C6.29 0, 12.59 0, 24 0 M0 0 C5.67 0, 11.34 0, 24 0 M24 0 C24 11.68, 24 23.36, 24 30 M24 0 C24 6.14, 24 12.28, 24 30 M24 30 C16.19 30, 8.38 30, 0 30 M24 30 C17.44 30, 10.89 30, 0 30 M0 30 C0 22.72, 0 15.45, 0 0 M0 30 C0 20.37, 0 10.74, 0 0" stroke="#1e1e1e" stroke-width="1" fill="none"></path></g><g transform="translate(112.9254793154596 52.59756632969487) rotate(0 4.623992919921875 10)"><text x="4.623992919921875" y="0" font-family="HanziPen SC, HanziPen Remote, Virgil, KaiTi, Segoe UI Emoji" font-size="16px" fill="#2f9e44" text-anchor="middle" style="white-space: pre;" direction="ltr" dominant-baseline="text-before-edge">0</text></g><g stroke-linecap="round" transform="translate(129.45593462220404 47.59230533077488) rotate(0 12 15)"><path d="M0 0 C9.01 0, 18.03 0, 24 0 M0 0 C9.38 0, 18.76 0, 24 0 M24 0 C24 8.48, 24 16.95, 24 30 M24 0 C24 7.08, 24 14.16, 24 30 M24 30 C17.65 30, 11.3 30, 0 30 M24 30 C15.72 30, 7.44 30, 0 30 M0 30 C0 22.24, 0 14.48, 0 0 M0 30 C0 18.55, 0 7.09, 0 0" stroke="#1e1e1e" stroke-width="1" fill="none"></path></g><g transform="translate(136.83194170228217 52.59230533077488) rotate(0 4.623992919921875 10)"><text x="4.623992919921875" y="0" font-family="HanziPen SC, HanziPen Remote, Virgil, KaiTi, Segoe UI Emoji" font-size="16px" fill="#2f9e44" text-anchor="middle" style="white-space: pre;" direction="ltr" dominant-baseline="text-before-edge">1</text></g><g stroke-linecap="round" transform="translate(153.5153597168487 47.61259146611491) rotate(0 12 15)"><path d="M0 0 C6.08 0, 12.15 0, 24 0 M0 0 C6.01 0, 12.03 0, 24 0 M24 0 C24 9, 24 18.01, 24 30 M24 0 C24 10.21, 24 20.42, 24 30 M24 30 C14.84 30, 5.69 30, 0 30 M24 30 C17.65 30, 11.31 30, 0 30 M0 30 C0 24, 0 17.99, 0 0 M0 30 C0 21.88, 0 13.75, 0 0" stroke="#1e1e1e" stroke-width="1" fill="none"></path></g><g transform="translate(160.89136679692683 52.61259146611491) rotate(0 4.623992919921875 10)"><text x="4.623992919921875" y="0" font-family="HanziPen SC, HanziPen Remote, Virgil, KaiTi, Segoe UI Emoji" font-size="16px" fill="#2f9e44" text-anchor="middle" style="white-space: pre;" direction="ltr" dominant-baseline="text-before-edge">0</text></g><g stroke-linecap="round" transform="translate(105.66313634801872 83.24033986542517) rotate(0 12 15)"><path d="M0 0 C8.37 0, 16.73 0, 24 0 M0 0 C5.53 0, 11.06 0, 24 0 M24 0 C24 7.74, 24 15.48, 24 30 M24 0 C24 11.12, 24 22.24, 24 30 M24 30 C17.88 30, 11.76 30, 0 30 M24 30 C16.28 30, 8.56 30, 0 30 M0 30 C0 23.76, 0 17.52, 0 0 M0 30 C0 20.53, 0 11.06, 0 0" stroke="#1e1e1e" stroke-width="1" fill="none"></path></g><g transform="translate(113.03914342809685 88.24033986542517) rotate(0 4.623992919921875 10)"><text x="4.623992919921875" y="0" font-family="HanziPen SC, HanziPen Remote, Virgil, KaiTi, Segoe UI Emoji" font-size="16px" fill="#2f9e44" text-anchor="middle" style="white-space: pre;" direction="ltr" dominant-baseline="text-before-edge">0</text></g><g stroke-linecap="round" transform="translate(129.5695987348413 83.23507886650518) rotate(0 12 15)"><path d="M0 0 C6.97 0, 13.94 0, 24 0 M0 0 C8.89 0, 17.79 0, 24 0 M24 0 C24 10.41, 24 20.83, 24 30 M24 0 C24 6.13, 24 12.27, 24 30 M24 30 C18.28 30, 12.56 30, 0 30 M24 30 C18.44 30, 12.87 30, 0 30 M0 30 C0 18.05, 0 6.1, 0 0 M0 30 C0 21.92, 0 13.84, 0 0" stroke="#1e1e1e" stroke-width="1" fill="none"></path></g><g transform="translate(136.94560581491942 88.23507886650518) rotate(0 4.623992919921875 10)"><text x="4.623992919921875" y="0" font-family="HanziPen SC, HanziPen Remote, Virgil, KaiTi, Segoe UI Emoji" font-size="16px" fill="#2f9e44" text-anchor="middle" style="white-space: pre;" direction="ltr" dominant-baseline="text-before-edge">0</text></g><g stroke-linecap="round" transform="translate(153.62902382948596 83.2553650018452) rotate(0 12 15)"><path d="M0 0 C6.77 0, 13.54 0, 24 0 M0 0 C8.07 0, 16.15 0, 24 0 M24 0 C24 10.01, 24 20.01, 24 30 M24 0 C24 10.34, 24 20.68, 24 30 M24 30 C17.75 30, 11.5 30, 0 30 M24 30 C15.96 30, 7.91 30, 0 30 M0 30 C0 22.13, 0 14.26, 0 0 M0 30 C0 20.72, 0 11.45, 0 0" stroke="#1e1e1e" stroke-width="1" fill="none"></path></g><g transform="translate(161.00503090956408 88.2553650018452) rotate(0 4.623992919921875 10)"><text x="4.623992919921875" y="0" font-family="HanziPen SC, HanziPen Remote, Virgil, KaiTi, Segoe UI Emoji" font-size="16px" fill="#2f9e44" text-anchor="middle" style="white-space: pre;" direction="ltr" dominant-baseline="text-before-edge">1</text></g><g stroke-linecap="round" transform="translate(106.22355470698858 120.52984359012052) rotate(0 12 15)"><path d="M0 0 C7.25 0, 14.5 0, 24 0 M0 0 C5.24 0, 10.47 0, 24 0 M24 0 C24 10.75, 24 21.5, 24 30 M24 0 C24 9.56, 24 19.13, 24 30 M24 30 C18.61 30, 13.23 30, 0 30 M24 30 C14.47 30, 4.94 30, 0 30 M0 30 C0 22.03, 0 14.06, 0 0 M0 30 C0 22.85, 0 15.7, 0 0" stroke="#1e1e1e" stroke-width="1" fill="none"></path></g><g transform="translate(113.5995617870667 125.52984359012052) rotate(0 4.623992919921875 10)"><text x="4.623992919921875" y="0" font-family="HanziPen SC, HanziPen Remote, Virgil, KaiTi, Segoe UI Emoji" font-size="16px" fill="#2f9e44" text-anchor="middle" style="white-space: pre;" direction="ltr" dominant-baseline="text-before-edge">0</text></g><g stroke-linecap="round" transform="translate(130.13001709381115 120.52458259120053) rotate(0 12 15)"><path d="M0 0 C7.29 0, 14.59 0, 24 0 M0 0 C7.94 0, 15.89 0, 24 0 M24 0 C24 10.12, 24 20.25, 24 30 M24 0 C24 8.39, 24 16.78, 24 30 M24 30 C18.98 30, 13.97 30, 0 30 M24 30 C19.02 30, 14.04 30, 0 30 M0 30 C0 22.51, 0 15.03, 0 0 M0 30 C0 21.47, 0 12.95, 0 0" stroke="#1e1e1e" stroke-width="1" fill="none"></path></g><g transform="translate(137.50602417388927 125.52458259120053) rotate(0 4.623992919921875 10)"><text x="4.623992919921875" y="0" font-family="HanziPen SC, HanziPen Remote, Virgil, KaiTi, Segoe UI Emoji" font-size="16px" fill="#2f9e44" text-anchor="middle" style="white-space: pre;" direction="ltr" dominant-baseline="text-before-edge">0</text></g><g stroke-linecap="round" transform="translate(154.1894421884558 120.54486872654056) rotate(0 12 15)"><path d="M0 0 C5.19 0, 10.38 0, 24 0 M0 0 C5.16 0, 10.33 0, 24 0 M24 0 C24 10.86, 24 21.71, 24 30 M24 0 C24 6.16, 24 12.31, 24 30 M24 30 C17.58 30, 11.15 30, 0 30 M24 30 C14.83 30, 5.67 30, 0 30 M0 30 C0 23.1, 0 16.2, 0 0 M0 30 C0 21.01, 0 12.02, 0 0" stroke="#1e1e1e" stroke-width="1" fill="none"></path></g><g transform="translate(161.56544926853394 125.54486872654056) rotate(0 4.623992919921875 10)"><text x="4.623992919921875" y="0" font-family="HanziPen SC, HanziPen Remote, Virgil, KaiTi, Segoe UI Emoji" font-size="16px" fill="#2f9e44" text-anchor="middle" style="white-space: pre;" direction="ltr" dominant-baseline="text-before-edge">0</text></g></svg>