<svg version="1.1" xmlns="http://www.w3.org/2000/svg" viewBox="0 0 188.23070347124985 218.83087100627694" width="188.23070347124985" height="218.83087100627694">
  <!-- svg-source:excalidraw -->
  
  <defs>
    <style class="style-fonts">
      @font-face {
        font-family: "Virgil";
        src: url("https://unpkg.com/revedraw@1.0.0-alpha.10/dist/excalidraw-assets/Virgil.woff2");
      }
      @font-face {
        font-family: "Cascadia";
        src: url("https://unpkg.com/revedraw@1.0.0-alpha.10/dist/excalidraw-assets/Cascadia.woff2");
      }
    </style>
    
  </defs>
  <rect x="0" y="0" width="188.23070347124985" height="218.83087100627694" fill="#ffffff"></rect><g stroke-linecap="round" transform="translate(111.13280690833972 10.284932911992883) rotate(0 33.5 15)"><path d="M0 0 C21.43 0, 42.87 0, 67 0 M0 0 C26.67 0, 53.33 0, 67 0 M67 0 C67 9.02, 67 18.04, 67 30 M67 0 C67 10.52, 67 21.05, 67 30 M67 30 C47.4 30, 27.79 30, 0 30 M67 30 C40.5 30, 14.01 30, 0 30 M0 30 C0 18.61, 0 7.21, 0 0 M0 30 C0 21.04, 0 12.08, 0 0" stroke="#1e1e1e" stroke-width="1" fill="none"></path></g><g transform="translate(140.00881398841784 15.284932911992883) rotate(0 4.623992919921875 10)"><text x="4.623992919921875" y="0" font-family="HanziPen SC, HanziPen Remote, Virgil, KaiTi, Segoe UI Emoji" font-size="16px" fill="#1e1e1e" text-anchor="middle" style="white-space: pre;" direction="ltr" dominant-baseline="text-before-edge">2</text></g><g stroke-linecap="round" transform="translate(10 10.032831553564336) rotate(0 12 15)"><path d="M0 0 C7.98 0, 15.96 0, 24 0 M0 0 C6.62 0, 13.23 0, 24 0 M24 0 C24 6.52, 24 13.05, 24 30 M24 0 C24 10.3, 24 20.6, 24 30 M24 30 C17.9 30, 11.79 30, 0 30 M24 30 C14.59 30, 5.19 30, 0 30 M0 30 C0 21.22, 0 12.43, 0 0 M0 30 C0 18.83, 0 7.66, 0 0" stroke="#1e1e1e" stroke-width="1" fill="none"></path></g><g transform="translate(17.376007080078125 15.032831553564336) rotate(0 4.623992919921875 10)"><text x="4.623992919921875" y="0" font-family="HanziPen SC, HanziPen Remote, Virgil, KaiTi, Segoe UI Emoji" font-size="16px" fill="#1e1e1e" text-anchor="middle" style="white-space: pre;" direction="ltr" dominant-baseline="text-before-edge">0</text></g><g stroke-linecap="round" transform="translate(33.90646238682257 10.027570554644342) rotate(0 12 15)"><path d="M0 0 C7.91 0, 15.83 0, 24 0 M0 0 C5.11 0, 10.22 0, 24 0 M24 0 C24 9.87, 24 19.73, 24 30 M24 0 C24 9.41, 24 18.82, 24 30 M24 30 C16.46 30, 8.91 30, 0 30 M24 30 C17.03 30, 10.05 30, 0 30 M0 30 C0 20.95, 0 11.91, 0 0 M0 30 C0 21.63, 0 13.27, 0 0" stroke="#1e1e1e" stroke-width="1" fill="none"></path></g><g transform="translate(41.28246946690069 15.027570554644342) rotate(0 4.623992919921875 10)"><text x="4.623992919921875" y="0" font-family="HanziPen SC, HanziPen Remote, Virgil, KaiTi, Segoe UI Emoji" font-size="16px" fill="#1e1e1e" text-anchor="middle" style="white-space: pre;" direction="ltr" dominant-baseline="text-before-edge">0</text></g><g stroke-linecap="round" transform="translate(57.965887481467234 10.047856689984314) rotate(0 12 15)"><path d="M0 0 C6.36 0, 12.73 0, 24 0 M0 0 C7.8 0, 15.61 0, 24 0 M24 0 C24 10.53, 24 21.05, 24 30 M24 0 C24 6.44, 24 12.88, 24 30 M24 30 C15.57 30, 7.14 30, 0 30 M24 30 C17.24 30, 10.48 30, 0 30 M0 30 C0 22.59, 0 15.18, 0 0 M0 30 C0 22.62, 0 15.24, 0 0" stroke="#1e1e1e" stroke-width="1" fill="none"></path></g><g transform="translate(65.34189456154536 15.047856689984314) rotate(0 4.623992919921875 10)"><text x="4.623992919921875" y="0" font-family="HanziPen SC, HanziPen Remote, Virgil, KaiTi, Segoe UI Emoji" font-size="16px" fill="#1e1e1e" text-anchor="middle" style="white-space: pre;" direction="ltr" dominant-baseline="text-before-edge">0</text></g><g stroke-linecap="round" transform="translate(81.97243730851415 10) rotate(0 12 15)"><path d="M0 0 C6.41 0, 12.82 0, 24 0 M0 0 C8.46 0, 16.91 0, 24 0 M24 0 C24 11.23, 24 22.47, 24 30 M24 0 C24 6.71, 24 13.43, 24 30 M24 30 C18.76 30, 13.52 30, 0 30 M24 30 C14.87 30, 5.74 30, 0 30 M0 30 C0 19.64, 0 9.28, 0 0 M0 30 C0 20.21, 0 10.41, 0 0" stroke="#1e1e1e" stroke-width="1" fill="none"></path></g><g transform="translate(89.34844438859227 15) rotate(0 4.623992919921875 10)"><text x="4.623992919921875" y="0" font-family="HanziPen SC, HanziPen Remote, Virgil, KaiTi, Segoe UI Emoji" font-size="16px" fill="#1e1e1e" text-anchor="middle" style="white-space: pre;" direction="ltr" dominant-baseline="text-before-edge">0</text></g><g stroke-linecap="round" transform="translate(111.23070347124985 47.404444467407984) rotate(0 33.5 15)"><path d="M0 0 C16.03 0, 32.07 0, 67 0 M0 0 C17.42 0, 34.83 0, 67 0 M67 0 C67 7.97, 67 15.94, 67 30 M67 0 C67 10.32, 67 20.63, 67 30 M67 30 C43.94 30, 20.87 30, 0 30 M67 30 C51.79 30, 36.57 30, 0 30 M0 30 C0 18.38, 0 6.76, 0 0 M0 30 C0 18.06, 0 6.12, 0 0" stroke="#1e1e1e" stroke-width="1" fill="none"></path></g><g transform="translate(140.10671055132798 52.404444467407984) rotate(0 4.623992919921875 10)"><text x="4.623992919921875" y="0" font-family="HanziPen SC, HanziPen Remote, Virgil, KaiTi, Segoe UI Emoji" font-size="16px" fill="#1e1e1e" text-anchor="middle" style="white-space: pre;" direction="ltr" dominant-baseline="text-before-edge">2</text></g><g stroke-linecap="round" transform="translate(10.035584690334872 47.152343108979494) rotate(0 12 15)"><path d="M0 0 C6.24 0, 12.49 0, 24 0 M0 0 C5.71 0, 11.43 0, 24 0 M24 0 C24 7.96, 24 15.93, 24 30 M24 0 C24 6.08, 24 12.17, 24 30 M24 30 C16.02 30, 8.04 30, 0 30 M24 30 C17.12 30, 10.23 30, 0 30 M0 30 C0 19.82, 0 9.65, 0 0 M0 30 C0 19.1, 0 8.2, 0 0" stroke="#1e1e1e" stroke-width="1" fill="none"></path></g><g transform="translate(17.411591770412997 52.152343108979494) rotate(0 4.623992919921875 10)"><text x="4.623992919921875" y="0" font-family="HanziPen SC, HanziPen Remote, Virgil, KaiTi, Segoe UI Emoji" font-size="16px" fill="#1e1e1e" text-anchor="middle" style="white-space: pre;" direction="ltr" dominant-baseline="text-before-edge">0</text></g><g stroke-linecap="round" transform="translate(33.94204707715744 47.1470821100595) rotate(0 12 15)"><path d="M0 0 C9.2 0, 18.39 0, 24 0 M0 0 C7.25 0, 14.5 0, 24 0 M24 0 C24 11.7, 24 23.4, 24 30 M24 0 C24 7.59, 24 15.19, 24 30 M24 30 C15.32 30, 6.64 30, 0 30 M24 30 C18 30, 12 30, 0 30 M0 30 C0 19.74, 0 9.48, 0 0 M0 30 C0 19.5, 0 8.99, 0 0" stroke="#1e1e1e" stroke-width="1" fill="none"></path></g><g transform="translate(41.318054157235565 52.1470821100595) rotate(0 4.623992919921875 10)"><text x="4.623992919921875" y="0" font-family="HanziPen SC, HanziPen Remote, Virgil, KaiTi, Segoe UI Emoji" font-size="16px" fill="#1e1e1e" text-anchor="middle" style="white-space: pre;" direction="ltr" dominant-baseline="text-before-edge">0</text></g><g stroke-linecap="round" transform="translate(58.0014721718012 47.16736824539953) rotate(0 12 15)"><path d="M0 0 C5.69 0, 11.37 0, 24 0 M0 0 C7.01 0, 14.02 0, 24 0 M24 0 C24 6.9, 24 13.81, 24 30 M24 0 C24 11.18, 24 22.36, 24 30 M24 30 C14.75 30, 5.51 30, 0 30 M24 30 C18.44 30, 12.87 30, 0 30 M0 30 C0 20.66, 0 11.31, 0 0 M0 30 C0 20.66, 0 11.32, 0 0" stroke="#1e1e1e" stroke-width="1" fill="none"></path></g><g transform="translate(65.37747925187932 52.16736824539953) rotate(0 4.623992919921875 10)"><text x="4.623992919921875" y="0" font-family="HanziPen SC, HanziPen Remote, Virgil, KaiTi, Segoe UI Emoji" font-size="16px" fill="#1e1e1e" text-anchor="middle" style="white-space: pre;" direction="ltr" dominant-baseline="text-before-edge">0</text></g><g stroke-linecap="round" transform="translate(82.00802199884811 47.1195115554151) rotate(0 12 15)"><path d="M0 0 C5.4 0, 10.8 0, 24 0 M0 0 C6.56 0, 13.12 0, 24 0 M24 0 C24 10.56, 24 21.12, 24 30 M24 0 C24 7.92, 24 15.84, 24 30 M24 30 C16.04 30, 8.08 30, 0 30 M24 30 C15.06 30, 6.12 30, 0 30 M0 30 C0 19.83, 0 9.67, 0 0 M0 30 C0 23.27, 0 16.53, 0 0" stroke="#1e1e1e" stroke-width="1" fill="none"></path></g><g transform="translate(89.38402907892623 52.1195115554151) rotate(0 4.623992919921875 10)"><text x="4.623992919921875" y="0" font-family="HanziPen SC, HanziPen Remote, Virgil, KaiTi, Segoe UI Emoji" font-size="16px" fill="#1e1e1e" text-anchor="middle" style="white-space: pre;" direction="ltr" dominant-baseline="text-before-edge">1</text></g><g stroke-linecap="round" transform="translate(111.19874789156302 82.96798994682138) rotate(0 33.5 15)"><path d="M0 0 C21.82 0, 43.63 0, 67 0 M0 0 C22.51 0, 45.02 0, 67 0 M67 0 C67 8.9, 67 17.79, 67 30 M67 0 C67 7.66, 67 15.31, 67 30 M67 30 C46.59 30, 26.19 30, 0 30 M67 30 C51.11 30, 35.22 30, 0 30 M0 30 C0 21.3, 0 12.59, 0 0 M0 30 C0 21.23, 0 12.46, 0 0" stroke="#1e1e1e" stroke-width="1" fill="none"></path></g><g transform="translate(140.07475497164114 87.96798994682138) rotate(0 4.623992919921875 10)"><text x="4.623992919921875" y="0" font-family="HanziPen SC, HanziPen Remote, Virgil, KaiTi, Segoe UI Emoji" font-size="16px" fill="#1e1e1e" text-anchor="middle" style="white-space: pre;" direction="ltr" dominant-baseline="text-before-edge">2</text></g><g stroke-linecap="round" transform="translate(10.0659409832233 82.71588858839277) rotate(0 12 15)"><path d="M0 0 C7.02 0, 14.04 0, 24 0 M0 0 C9.49 0, 18.98 0, 24 0 M24 0 C24 11.39, 24 22.79, 24 30 M24 0 C24 8.96, 24 17.92, 24 30 M24 30 C14.82 30, 5.65 30, 0 30 M24 30 C18.81 30, 13.62 30, 0 30 M0 30 C0 23.81, 0 17.62, 0 0 M0 30 C0 19.72, 0 9.44, 0 0" stroke="#1e1e1e" stroke-width="1" fill="none"></path></g><g transform="translate(17.441948063301425 87.71588858839277) rotate(0 4.623992919921875 10)"><text x="4.623992919921875" y="0" font-family="HanziPen SC, HanziPen Remote, Virgil, KaiTi, Segoe UI Emoji" font-size="16px" fill="#1e1e1e" text-anchor="middle" style="white-space: pre;" direction="ltr" dominant-baseline="text-before-edge">0</text></g><g stroke-linecap="round" transform="translate(33.97240337004587 82.71062758947278) rotate(0 12 15)"><path d="M0 0 C6.1 0, 12.21 0, 24 0 M0 0 C9.41 0, 18.81 0, 24 0 M24 0 C24 8.78, 24 17.57, 24 30 M24 0 C24 11.17, 24 22.34, 24 30 M24 30 C18.75 30, 13.51 30, 0 30 M24 30 C16.21 30, 8.41 30, 0 30 M0 30 C0 20.9, 0 11.8, 0 0 M0 30 C0 23.15, 0 16.3, 0 0" stroke="#1e1e1e" stroke-width="1" fill="none"></path></g><g transform="translate(41.34841045012399 87.71062758947278) rotate(0 4.623992919921875 10)"><text x="4.623992919921875" y="0" font-family="HanziPen SC, HanziPen Remote, Virgil, KaiTi, Segoe UI Emoji" font-size="16px" fill="#1e1e1e" text-anchor="middle" style="white-space: pre;" direction="ltr" dominant-baseline="text-before-edge">0</text></g><g stroke-linecap="round" transform="translate(58.031828464689625 82.73091372481281) rotate(0 12 15)"><path d="M0 0 C7.54 0, 15.09 0, 24 0 M0 0 C6.97 0, 13.95 0, 24 0 M24 0 C24 9.05, 24 18.09, 24 30 M24 0 C24 8.37, 24 16.73, 24 30 M24 30 C18.2 30, 12.4 30, 0 30 M24 30 C19.13 30, 14.25 30, 0 30 M0 30 C0 18.83, 0 7.66, 0 0 M0 30 C0 23.2, 0 16.39, 0 0" stroke="#1e1e1e" stroke-width="1" fill="none"></path></g><g transform="translate(65.40783554476775 87.73091372481281) rotate(0 4.623992919921875 10)"><text x="4.623992919921875" y="0" font-family="HanziPen SC, HanziPen Remote, Virgil, KaiTi, Segoe UI Emoji" font-size="16px" fill="#1e1e1e" text-anchor="middle" style="white-space: pre;" direction="ltr" dominant-baseline="text-before-edge">1</text></g><g stroke-linecap="round" transform="translate(82.03837829173654 82.6830570348285) rotate(0 12 15)"><path d="M0 0 C8.43 0, 16.86 0, 24 0 M0 0 C6.76 0, 13.52 0, 24 0 M24 0 C24 7.41, 24 14.82, 24 30 M24 0 C24 7.38, 24 14.76, 24 30 M24 30 C17.87 30, 11.74 30, 0 30 M24 30 C16.4 30, 8.81 30, 0 30 M0 30 C0 18.62, 0 7.25, 0 0 M0 30 C0 22.77, 0 15.54, 0 0" stroke="#1e1e1e" stroke-width="1" fill="none"></path></g><g transform="translate(89.41438537181466 87.6830570348285) rotate(0 4.623992919921875 10)"><text x="4.623992919921875" y="0" font-family="HanziPen SC, HanziPen Remote, Virgil, KaiTi, Segoe UI Emoji" font-size="16px" fill="#1e1e1e" text-anchor="middle" style="white-space: pre;" direction="ltr" dominant-baseline="text-before-edge">0</text></g><g stroke-linecap="round" transform="translate(111.56873497393508 120.08750150223648) rotate(0 33 15)"><path d="M0 0 C14.41 0, 28.81 0, 66 0 M0 0 C25.11 0, 50.21 0, 66 0 M66 0 C66 10.36, 66 20.72, 66 30 M66 0 C66 9.79, 66 19.59, 66 30 M66 30 C50.29 30, 34.58 30, 0 30 M66 30 C42.56 30, 19.13 30, 0 30 M0 30 C0 22.05, 0 14.1, 0 0 M0 30 C0 18.04, 0 6.08, 0 0" stroke="#1e1e1e" stroke-width="1" fill="none"></path></g><g transform="translate(139.9447420540132 125.08750150223648) rotate(0 4.623992919921875 10)"><text x="4.623992919921875" y="0" font-family="HanziPen SC, HanziPen Remote, Virgil, KaiTi, Segoe UI Emoji" font-size="16px" fill="#1e1e1e" text-anchor="middle" style="white-space: pre;" direction="ltr" dominant-baseline="text-before-edge">2</text></g><g stroke-linecap="round" transform="translate(10.373616193020098 119.83540014380799) rotate(0 12 15)"><path d="M0 0 C8.26 0, 16.52 0, 24 0 M0 0 C5.45 0, 10.9 0, 24 0 M24 0 C24 11.62, 24 23.24, 24 30 M24 0 C24 11.94, 24 23.88, 24 30 M24 30 C15.76 30, 7.53 30, 0 30 M24 30 C18.38 30, 12.76 30, 0 30 M0 30 C0 19.62, 0 9.25, 0 0 M0 30 C0 22.43, 0 14.85, 0 0" stroke="#1e1e1e" stroke-width="1" fill="none"></path></g><g transform="translate(17.749623273098223 124.83540014380799) rotate(0 4.623992919921875 10)"><text x="4.623992919921875" y="0" font-family="HanziPen SC, HanziPen Remote, Virgil, KaiTi, Segoe UI Emoji" font-size="16px" fill="#1e1e1e" text-anchor="middle" style="white-space: pre;" direction="ltr" dominant-baseline="text-before-edge">0</text></g><g stroke-linecap="round" transform="translate(34.280078579842666 119.830139144888) rotate(0 12 15)"><path d="M0 0 C7.98 0, 15.96 0, 24 0 M0 0 C6.88 0, 13.77 0, 24 0 M24 0 C24 10.18, 24 20.35, 24 30 M24 0 C24 10.9, 24 21.8, 24 30 M24 30 C16.82 30, 9.63 30, 0 30 M24 30 C16.94 30, 9.89 30, 0 30 M0 30 C0 20.62, 0 11.24, 0 0 M0 30 C0 18.6, 0 7.2, 0 0" stroke="#1e1e1e" stroke-width="1" fill="none"></path></g><g transform="translate(41.65608565992079 124.830139144888) rotate(0 4.623992919921875 10)"><text x="4.623992919921875" y="0" font-family="HanziPen SC, HanziPen Remote, Virgil, KaiTi, Segoe UI Emoji" font-size="16px" fill="#1e1e1e" text-anchor="middle" style="white-space: pre;" direction="ltr" dominant-baseline="text-before-edge">0</text></g><g stroke-linecap="round" transform="translate(58.33950367448733 119.85042528022802) rotate(0 12 15)"><path d="M0 0 C8.68 0, 17.36 0, 24 0 M0 0 C6 0, 12 0, 24 0 M24 0 C24 10.26, 24 20.52, 24 30 M24 0 C24 10.5, 24 21.01, 24 30 M24 30 C18.96 30, 13.92 30, 0 30 M24 30 C16.8 30, 9.61 30, 0 30 M0 30 C0 23.06, 0 16.11, 0 0 M0 30 C0 18.47, 0 6.94, 0 0" stroke="#1e1e1e" stroke-width="1" fill="none"></path></g><g transform="translate(65.71551075456546 124.85042528022802) rotate(0 4.623992919921875 10)"><text x="4.623992919921875" y="0" font-family="HanziPen SC, HanziPen Remote, Virgil, KaiTi, Segoe UI Emoji" font-size="16px" fill="#1e1e1e" text-anchor="middle" style="white-space: pre;" direction="ltr" dominant-baseline="text-before-edge">1</text></g><g stroke-linecap="round" transform="translate(82.34605350153424 119.8025685902436) rotate(0 12 15)"><path d="M0 0 C9.25 0, 18.49 0, 24 0 M0 0 C5.56 0, 11.13 0, 24 0 M24 0 C24 9.34, 24 18.69, 24 30 M24 0 C24 9.34, 24 18.68, 24 30 M24 30 C15.51 30, 7.02 30, 0 30 M24 30 C18.2 30, 12.4 30, 0 30 M0 30 C0 19.7, 0 9.4, 0 0 M0 30 C0 21.21, 0 12.42, 0 0" stroke="#1e1e1e" stroke-width="1" fill="none"></path></g><g transform="translate(89.72206058161237 124.8025685902436) rotate(0 4.623992919921875 10)"><text x="4.623992919921875" y="0" font-family="HanziPen SC, HanziPen Remote, Virgil, KaiTi, Segoe UI Emoji" font-size="16px" fill="#1e1e1e" text-anchor="middle" style="white-space: pre;" direction="ltr" dominant-baseline="text-before-edge">1</text></g><g transform="translate(45.4978732408772 153.19668155365184) rotate(0 13.103988647460938 10)"><text x="0" y="0" font-family="HanziPen SC, HanziPen Remote, Virgil, KaiTi, Segoe UI Emoji" font-size="16px" fill="#1e1e1e" text-anchor="start" style="white-space: pre;" direction="ltr" dominant-baseline="text-before-edge">......</text></g><g transform="translate(131.10884753627442 153.3707971739792) rotate(0 13.103988647460938 10)"><text x="0" y="0" font-family="HanziPen SC, HanziPen Remote, Virgil, KaiTi, Segoe UI Emoji" font-size="16px" fill="#1e1e1e" text-anchor="start" style="white-space: pre;" direction="ltr" dominant-baseline="text-before-edge">......</text></g><g stroke-linecap="round" transform="translate(111.29362166976762 178.83087100627694) rotate(0 33 15)"><path d="M0 0 C20.1 0, 40.2 0, 66 0 M0 0 C15.65 0, 31.31 0, 66 0 M66 0 C66 8.7, 66 17.41, 66 30 M66 0 C66 8.77, 66 17.54, 66 30 M66 30 C44.25 30, 22.51 30, 0 30 M66 30 C51.47 30, 36.94 30, 0 30 M0 30 C0 18.45, 0 6.9, 0 0 M0 30 C0 22.22, 0 14.45, 0 0" stroke="#1e1e1e" stroke-width="1" fill="none"></path></g><g transform="translate(139.66962874984574 183.83087100627694) rotate(0 4.623992919921875 10)"><text x="4.623992919921875" y="0" font-family="HanziPen SC, HanziPen Remote, Virgil, KaiTi, Segoe UI Emoji" font-size="16px" fill="#1e1e1e" text-anchor="middle" style="white-space: pre;" direction="ltr" dominant-baseline="text-before-edge">2</text></g><g stroke-linecap="round" transform="translate(10.098502888852636 178.57876964784845) rotate(0 12 15)"><path d="M0 0 C9.18 0, 18.35 0, 24 0 M0 0 C5.19 0, 10.38 0, 24 0 M24 0 C24 6.19, 24 12.38, 24 30 M24 0 C24 10.28, 24 20.56, 24 30 M24 30 C14.56 30, 5.11 30, 0 30 M24 30 C15.31 30, 6.62 30, 0 30 M0 30 C0 21.84, 0 13.69, 0 0 M0 30 C0 21.08, 0 12.16, 0 0" stroke="#1e1e1e" stroke-width="1" fill="none"></path></g><g transform="translate(17.47450996893076 183.57876964784845) rotate(0 4.623992919921875 10)"><text x="4.623992919921875" y="0" font-family="HanziPen SC, HanziPen Remote, Virgil, KaiTi, Segoe UI Emoji" font-size="16px" fill="#1e1e1e" text-anchor="middle" style="white-space: pre;" direction="ltr" dominant-baseline="text-before-edge">1</text></g><g stroke-linecap="round" transform="translate(34.004965275675204 178.57350864892845) rotate(0 12 15)"><path d="M0 0 C5.25 0, 10.49 0, 24 0 M0 0 C7.79 0, 15.59 0, 24 0 M24 0 C24 9.1, 24 18.2, 24 30 M24 0 C24 6.85, 24 13.7, 24 30 M24 30 C15.49 30, 6.98 30, 0 30 M24 30 C17.97 30, 11.94 30, 0 30 M0 30 C0 22.02, 0 14.04, 0 0 M0 30 C0 23.98, 0 17.96, 0 0" stroke="#1e1e1e" stroke-width="1" fill="none"></path></g><g transform="translate(41.38097235575333 183.57350864892845) rotate(0 4.623992919921875 10)"><text x="4.623992919921875" y="0" font-family="HanziPen SC, HanziPen Remote, Virgil, KaiTi, Segoe UI Emoji" font-size="16px" fill="#1e1e1e" text-anchor="middle" style="white-space: pre;" direction="ltr" dominant-baseline="text-before-edge">1</text></g><g stroke-linecap="round" transform="translate(58.06439037031896 178.59379478426848) rotate(0 12 15)"><path d="M0 0 C5.8 0, 11.6 0, 24 0 M0 0 C4.87 0, 9.75 0, 24 0 M24 0 C24 11.17, 24 22.34, 24 30 M24 0 C24 6.8, 24 13.61, 24 30 M24 30 C15.21 30, 6.42 30, 0 30 M24 30 C19.14 30, 14.28 30, 0 30 M0 30 C0 21.51, 0 13.02, 0 0 M0 30 C0 20.34, 0 10.68, 0 0" stroke="#1e1e1e" stroke-width="1" fill="none"></path></g><g transform="translate(65.44039745039709 183.59379478426848) rotate(0 4.623992919921875 10)"><text x="4.623992919921875" y="0" font-family="HanziPen SC, HanziPen Remote, Virgil, KaiTi, Segoe UI Emoji" font-size="16px" fill="#1e1e1e" text-anchor="middle" style="white-space: pre;" direction="ltr" dominant-baseline="text-before-edge">1</text></g><g stroke-linecap="round" transform="translate(82.07094019736587 178.54593809428405) rotate(0 12 15)"><path d="M0 0 C6.13 0, 12.26 0, 24 0 M0 0 C7.6 0, 15.19 0, 24 0 M24 0 C24 11.38, 24 22.75, 24 30 M24 0 C24 7.23, 24 14.46, 24 30 M24 30 C15.43 30, 6.85 30, 0 30 M24 30 C15.44 30, 6.88 30, 0 30 M0 30 C0 23.57, 0 17.15, 0 0 M0 30 C0 22.82, 0 15.65, 0 0" stroke="#1e1e1e" stroke-width="1" fill="none"></path></g><g transform="translate(89.446947277444 183.54593809428405) rotate(0 4.623992919921875 10)"><text x="4.623992919921875" y="0" font-family="HanziPen SC, HanziPen Remote, Virgil, KaiTi, Segoe UI Emoji" font-size="16px" fill="#1e1e1e" text-anchor="middle" style="white-space: pre;" direction="ltr" dominant-baseline="text-before-edge">1</text></g><g transform="translate(149.98024505208423 13.995381585742052) rotate(0 4.842769640738368 5.952283405390659)"><text x="0" y="0" font-family="HanziPen SC, HanziPen Remote, Virgil, KaiTi, Segoe UI Emoji" font-size="9.52365344862506px" fill="#1e1e1e" text-anchor="start" style="white-space: pre;" direction="ltr" dominant-baseline="text-before-edge">-7</text></g><g transform="translate(149.4260820552695 51.31548534304068) rotate(0 4.840911865234375 5.952283405390659)"><text x="0" y="0" font-family="HanziPen SC, HanziPen Remote, Virgil, KaiTi, Segoe UI Emoji" font-size="9.52365344862506px" fill="#1e1e1e" text-anchor="start" style="white-space: pre;" direction="ltr" dominant-baseline="text-before-edge">-6</text></g><g transform="translate(149.95196951407934 84.94995202920165) rotate(0 4.840911865234375 5.952283405390659)"><text x="0" y="0" font-family="HanziPen SC, HanziPen Remote, Virgil, KaiTi, Segoe UI Emoji" font-size="9.52365344862506px" fill="#1e1e1e" text-anchor="start" style="white-space: pre;" direction="ltr" dominant-baseline="text-before-edge">-5</text></g><g transform="translate(148.98281810378876 123.52954728238592) rotate(0 4.840911865234375 5.952283405390659)"><text x="0" y="0" font-family="HanziPen SC, HanziPen Remote, Virgil, KaiTi, Segoe UI Emoji" font-size="9.52365344862506px" fill="#1e1e1e" text-anchor="start" style="white-space: pre;" direction="ltr" dominant-baseline="text-before-edge">-4</text></g><g transform="translate(148.95229639669242 181.48435500419822) rotate(0 2.7512741088867188 5.952283405390659)"><text x="0" y="0" font-family="HanziPen SC, HanziPen Remote, Virgil, KaiTi, Segoe UI Emoji" font-size="9.52365344862506px" fill="#1e1e1e" text-anchor="start" style="white-space: pre;" direction="ltr" dominant-baseline="text-before-edge">8</text></g></svg>