<?xml version="1.0" standalone="no"?>
<!DOCTYPE svg PUBLIC "-//W3C//DTD SVG 20010904//EN"
 "http://www.w3.org/TR/2001/REC-SVG-20010904/DTD/svg10.dtd">
<svg version="1.0" xmlns="http://www.w3.org/2000/svg"
 width="512.000000pt" height="512.000000pt" viewBox="0 0 512.000000 512.000000"
 preserveAspectRatio="xMidYMid meet">

<g transform="translate(0.000000,512.000000) scale(0.100000,-0.100000)"
fill="#000000" stroke="none">
<path d="M2493 4188 c-6 -7 -24 -42 -40 -78 -37 -80 -55 -96 -117 -107 -59
-10 -61 -27 -4 -31 93 -5 102 -15 72 -74 -14 -28 -15 -37 -4 -67 8 -20 19 -61
25 -91 11 -52 10 -58 -17 -112 -16 -32 -26 -62 -23 -68 3 -5 22 -10 41 -10
l35 0 -2 -152 c-1 -85 3 -171 9 -193 5 -22 13 -65 17 -96 l6 -57 -58 1 c-40 0
-78 -8 -124 -27 -36 -14 -73 -26 -83 -26 -34 0 -55 -20 -71 -70 -15 -44 -20
-50 -44 -50 -42 0 -44 -9 -10 -47 16 -19 29 -42 27 -51 -3 -18 -100 -70 -130
-71 -15 -1 -18 8 -18 49 0 52 -79 292 -106 319 -11 13 -23 10 -81 -21 -66 -35
-68 -37 -67 -73 l1 -37 -36 35 c-20 19 -60 47 -90 62 -29 14 -85 58 -125 97
-110 109 -199 171 -315 217 -63 25 -117 53 -141 75 -47 42 -163 81 -270 91
-105 9 -135 21 -171 66 -17 21 -35 39 -40 39 -11 0 -10 -93 0 -130 7 -21 0
-33 -40 -76 -26 -28 -59 -75 -74 -105 -15 -30 -38 -67 -50 -84 -12 -16 -39
-61 -60 -100 -21 -38 -62 -104 -91 -146 -67 -96 -124 -224 -124 -279 0 -51 17
-84 67 -131 51 -49 93 -69 145 -69 49 0 57 4 81 43 10 15 22 27 27 27 6 0 31
-15 57 -33 83 -58 167 -80 373 -98 74 -6 140 -16 146 -23 7 -6 31 -58 53 -116
23 -57 74 -159 112 -226 57 -99 72 -134 79 -185 30 -212 84 -381 145 -458 19
-24 35 -46 35 -48 0 -15 -34 -60 -108 -146 -95 -109 -149 -160 -203 -187 -51
-27 -167 -128 -184 -161 -17 -33 -83 -84 -72 -56 11 30 -21 19 -40 -13 -19
-33 -40 -42 -23 -11 16 31 12 34 -20 11 l-30 -21 -11 24 c-6 14 -28 33 -48 44
-20 10 -49 28 -64 41 l-29 22 -46 -47 c-28 -29 -49 -62 -54 -83 -5 -23 -5 -13
-2 28 6 71 -11 112 -46 112 -13 0 -20 7 -20 19 0 10 -6 24 -14 30 -7 6 -31 41
-52 76 -20 36 -41 65 -45 65 -19 0 -39 34 -39 66 0 19 -4 34 -10 34 -5 0 -10
-7 -10 -15 0 -30 -20 -14 -31 26 -7 23 -19 43 -26 46 -7 3 -34 -2 -60 -11 -25
-9 -66 -16 -90 -16 l-43 0 0 -635 0 -635 2560 0 2560 0 0 330 c0 213 -4 330
-10 330 -5 0 -10 14 -10 30 0 17 5 30 10 30 18 0 11 40 -14 83 -13 23 -27 56
-31 73 -3 18 -20 54 -37 80 -17 27 -39 72 -48 99 -10 28 -46 107 -80 178 -59
124 -81 196 -94 315 -5 54 -5 54 20 48 l25 -7 -30 58 c-16 32 -54 121 -86 198
-92 226 -118 270 -210 362 -93 94 -140 119 -255 135 -65 9 -81 8 -108 -6 -17
-9 -38 -16 -47 -16 -24 0 -103 42 -186 98 -115 79 -253 129 -434 159 -49 8
-99 16 -111 19 -16 3 -25 20 -42 77 -22 76 -46 108 -95 126 -43 16 -83 13
-129 -10 -33 -17 -42 -18 -50 -7 -19 28 3 120 67 288 14 37 16 66 12 155 -11
225 -100 405 -256 519 -70 52 -101 87 -101 116 0 17 21 11 52 -15 29 -25 78
-34 78 -15 0 5 -25 37 -56 72 -45 51 -54 67 -50 88 17 74 18 91 5 107 -21 25
-95 55 -189 74 -47 10 -94 21 -106 24 -12 4 -25 1 -31 -7z m-183 -1373 c16
-19 5 -61 -19 -74 -23 -13 -61 12 -61 39 0 19 35 50 56 50 6 0 17 -7 24 -15z
m-1452 -41 c37 -26 121 -217 108 -249 -7 -18 -91 -20 -236 -5 -106 11 -152 24
-192 52 -28 19 -37 58 -20 85 8 13 162 109 197 124 35 14 119 10 143 -7z
m3455 -936 c29 -46 66 -119 81 -162 15 -44 41 -103 56 -130 39 -70 88 -231
105 -342 8 -51 19 -102 24 -113 17 -30 13 -77 -11 -155 l-22 -71 -6 45 -6 45
-12 -28 c-7 -16 -12 -36 -12 -45 0 -11 -6 -7 -19 13 -10 17 -55 69 -100 117
-79 87 -111 137 -152 240 -11 29 -34 74 -50 99 -34 53 -38 107 -15 216 8 37
17 95 21 128 8 86 46 225 60 225 3 0 29 -37 58 -82z m-956 -480 c11 -13 28
-36 38 -51 18 -27 17 -29 -3 -55 -12 -15 -41 -55 -64 -89 -24 -34 -46 -63 -49
-63 -5 0 2 83 17 195 8 63 -8 50 -25 -20 -7 -27 -19 -60 -27 -73 -15 -22 -22
-52 -49 -195 -19 -99 -99 -340 -106 -317 -1 3 -14 122 -30 265 l-28 260 4
-160 c3 -88 8 -243 11 -345 4 -102 4 -182 0 -178 -10 8 -35 116 -36 149 0 15
-9 37 -21 50 l-20 24 5 -101 c4 -87 2 -104 -14 -129 l-19 -29 -10 28 c-6 15
-12 46 -12 69 -1 44 -16 114 -18 86 0 -9 -8 -48 -17 -87 -12 -52 -20 -69 -30
-65 -9 3 -15 -7 -20 -37 -6 -35 -9 -39 -17 -25 -10 18 2 154 25 293 6 35 8 65
5 68 -3 3 -14 -14 -25 -38 -11 -24 -42 -71 -69 -104 -28 -34 -70 -89 -93 -123
-24 -34 -46 -61 -50 -61 -12 0 -19 26 -26 88 -4 32 -13 69 -21 85 -12 25 -11
34 12 98 15 42 25 92 25 124 0 73 29 278 41 290 5 5 33 15 62 22 46 10 55 9
83 -8 31 -18 32 -18 103 0 40 11 74 21 75 23 1 1 12 17 24 35 25 35 137 84
247 108 85 19 99 18 122 -7z m140 -165 c26 -32 69 -79 96 -104 28 -27 47 -54
47 -67 0 -37 -51 -265 -67 -302 l-16 -35 -7 30 c-6 27 -8 28 -15 10 -24 -63
-90 -196 -93 -187 -2 6 4 34 12 63 18 60 34 259 20 246 -5 -5 -17 -29 -26 -55
l-18 -47 6 55 c3 30 10 79 15 108 10 50 7 73 -7 59 -4 -3 -23 -64 -44 -134
-21 -70 -43 -141 -51 -158 -12 -29 -13 -26 -22 58 -6 57 -13 87 -21 84 -8 -3
-10 -42 -7 -129 3 -99 0 -131 -11 -147 -8 -12 -18 -18 -21 -14 -4 3 -7 50 -7
103 0 64 -5 110 -15 133 -22 53 -19 172 5 225 23 50 123 207 153 240 11 12 26
22 33 22 7 0 34 -26 61 -57z m-1588 -138 c30 -125 36 -197 22 -259 l-6 -29
-15 27 c-16 31 -68 72 -77 62 -4 -3 7 -21 24 -39 17 -18 47 -72 67 -121 38
-94 43 -116 26 -116 -16 0 -46 56 -70 131 -27 82 -40 95 -40 40 0 -22 -4 -43
-10 -46 -5 -3 -10 -27 -11 -53 0 -26 -3 -65 -8 -87 -6 -36 -8 -38 -18 -20 -6
11 -14 39 -18 62 -3 22 -15 49 -26 59 -20 18 -20 18 -13 -34 5 -43 4 -52 -9
-52 -17 0 -47 87 -47 137 0 17 -3 23 -8 16 -4 -7 -16 44 -27 115 -10 70 -24
143 -31 164 -15 45 -13 47 108 112 48 26 98 56 110 66 18 14 26 16 34 7 7 -7
26 -71 43 -142z m699 117 c4 -13 -32 -197 -53 -266 -8 -27 -15 -62 -15 -78 0
-16 -22 -77 -49 -136 -27 -59 -51 -115 -54 -124 -4 -11 -16 -18 -30 -18 -14 0
-30 -7 -37 -15 -7 -8 -16 -15 -21 -15 -16 0 -10 30 20 103 15 40 31 88 35 107
l7 35 -20 -35 c-11 -19 -28 -57 -38 -85 -12 -34 -18 -44 -21 -30 -2 11 -5 27
-8 35 -10 29 -24 -13 -25 -75 l-1 -60 -12 45 c-9 34 -14 41 -19 27 -4 -10 -7
-32 -7 -48 0 -16 -4 -29 -10 -29 -6 0 -11 50 -12 128 0 70 -3 111 -5 92 -11
-121 -15 -142 -25 -132 -13 13 -25 68 -38 180 -10 77 -9 111 5 204 20 137 25
148 70 148 24 0 45 9 66 28 31 28 32 28 162 27 87 -1 132 -5 135 -13z m1499
-258 c3 -8 2 -26 -3 -42 l-8 -27 -4 28 c-6 49 -21 29 -39 -55 -17 -80 -17 -81
-30 -52 -8 19 -11 49 -7 86 5 53 3 63 -30 122 -20 35 -36 67 -36 70 0 10 151
-116 157 -130z m-2516 99 c16 -42 39 -220 38 -298 l-1 -70 -23 65 c-22 61 -23
63 -24 29 -1 -20 6 -58 14 -85 18 -58 19 -88 4 -115 -10 -20 -11 -20 -31 -2
-18 16 -19 25 -13 124 5 72 4 109 -4 113 -13 8 -18 -15 -26 -117 -4 -42 -11
-75 -15 -72 -5 3 -10 -4 -12 -16 -2 -16 -10 -9 -40 37 -21 31 -38 69 -38 83 0
14 -5 33 -10 41 -8 12 -10 10 -10 -10 0 -23 -2 -22 -22 13 -21 35 -38 48 -38
28 0 -5 7 -28 15 -52 14 -37 14 -45 1 -57 -22 -22 -42 -8 -70 45 -13 27 -33
59 -45 73 -17 21 -22 23 -30 10 -17 -25 -24 -3 -11 34 6 19 26 47 43 62 32 27
300 162 325 163 7 1 17 -11 23 -26z m2139 -75 c46 -70 47 -74 22 -102 -10 -12
-26 -41 -36 -66 -16 -43 -90 -140 -98 -130 -3 3 1 43 8 90 6 47 18 127 25 178
9 63 17 92 26 92 7 0 31 -28 53 -62z m887 1 c-6 -45 -37 -91 -37 -55 0 31 22
96 33 96 6 0 7 -17 4 -41z m-436 -60 c19 -15 48 -45 62 -67 27 -38 27 -39 15
-116 -11 -74 -12 -76 -30 -59 -9 10 -35 70 -56 133 -21 63 -42 124 -47 134
-10 23 0 18 56 -25z m-3247 -21 c-14 -20 -15 -20 -9 -3 4 11 10 29 13 40 5 17
7 18 10 3 2 -10 -4 -28 -14 -40z m-314 7 l23 -24 -34 12 c-44 15 -42 14 -34
26 10 16 19 13 45 -14z m57 -27 c-3 -8 -6 -5 -6 6 -1 11 2 17 5 13 3 -3 4 -12
1 -19z m3476 -73 c24 -78 31 -119 18 -111 -16 10 -14 -1 5 -30 13 -19 15 -37
10 -82 -9 -74 -34 -168 -35 -130 -2 55 -23 129 -35 125 -8 -3 -12 15 -13 62
-1 36 -3 94 -3 127 -2 61 15 114 30 98 4 -5 15 -31 23 -59z m-3526 18 c-3 -10
-5 -4 -5 12 0 17 2 24 5 18 2 -7 2 -21 0 -30z m-50 -15 c-3 -7 -5 -2 -5 12 0
14 2 19 5 13 2 -7 2 -19 0 -25z m2640 -78 l0 -55 -7 50 c-5 28 -8 66 -8 85 l0
35 8 -30 c4 -16 8 -55 7 -85z m1392 42 c-17 -50 -23 -25 -8 30 8 26 14 36 16
25 3 -9 -1 -34 -8 -55z m48 -19 c-2 -16 -4 -5 -4 22 0 28 2 40 4 28 2 -13 2
-35 0 -50z m-110 -5 c-2 -13 -4 -5 -4 17 -1 22 1 32 4 23 2 -10 2 -28 0 -40z
m-528 -75 c1 -12 -3 -24 -8 -27 -12 -8 -21 30 -20 84 l1 45 13 -40 c8 -22 14
-50 14 -62z m309 9 c18 -48 32 -90 32 -93 0 -4 -18 2 -40 13 l-40 20 0 74 c0
41 3 74 8 74 4 0 22 -40 40 -88z m-1532 -14 c-17 -95 -22 -105 -47 -82 -31 28
-24 74 17 123 20 23 38 40 40 39 2 -2 -3 -38 -10 -80z m-917 -35 c11 -40 16
-73 12 -73 -14 0 -31 50 -36 108 -6 66 -3 62 24 -35z m1661 68 c0 -10 -9 -29
-20 -42 l-19 -24 16 43 c18 46 23 52 23 23z m398 -69 c3 -94 -10 -136 -27 -89
-6 16 -11 37 -11 48 0 10 -5 19 -11 19 -9 0 -10 -26 -6 -92 5 -84 4 -90 -8
-63 -8 17 -14 36 -15 43 -1 30 -20 -2 -20 -33 0 -19 -4 -37 -10 -40 -6 -4 -10
9 -10 32 0 22 -7 48 -15 59 -8 10 -15 26 -15 35 0 29 115 172 135 166 5 -2 11
-40 13 -85z m-1444 -8 c-23 -55 -30 -23 -8 34 14 36 19 42 22 26 2 -12 -4 -39
-14 -60z m2213 34 c-3 -7 -5 -2 -5 12 0 14 2 19 5 13 2 -7 2 -19 0 -25z m-140
-15 c-3 -10 -5 -4 -5 12 0 17 2 24 5 18 2 -7 2 -21 0 -30z m-1211 -14 c-9 -22
-15 -27 -15 -16 -1 21 18 61 25 54 3 -3 -2 -20 -10 -38z m-655 -62 c-10 -26
-35 -40 -26 -14 19 54 28 71 32 56 2 -8 -1 -28 -6 -42z m508 -9 c0 -35 -4 -72
-8 -83 l-8 -20 -6 20 c-16 56 -18 89 -7 116 20 46 30 34 29 -33z m-1199 -60
c0 -9 -4 -19 -9 -22 -12 -8 -31 49 -30 88 l1 31 19 -40 c10 -22 19 -48 19 -57z
m481 44 c-5 -10 -19 -26 -30 -36 -21 -19 -21 -19 -21 7 0 15 9 32 22 41 26 18
42 11 29 -12z m1726 -14 c-3 -7 -5 -2 -5 12 0 14 2 19 5 13 2 -7 2 -19 0 -25z
m83 -18 c0 -14 -5 -32 -10 -40 -7 -11 -10 1 -10 40 0 39 3 51 10 40 5 -8 10
-26 10 -40z m-1551 -10 c0 -23 -1 -23 -9 -5 -5 11 -9 29 -9 40 -1 17 1 17 9 5
5 -8 9 -26 9 -40z m-103 -36 c-3 -8 -10 -14 -16 -14 -14 0 -13 43 3 59 10 10
13 8 15 -9 2 -12 1 -28 -2 -36z m779 16 c-4 -12 -9 -19 -12 -17 -3 3 -2 15 2
27 4 12 9 19 12 17 3 -3 2 -15 -2 -27z m270 -100 c-4 -12 -9 -19 -12 -17 -3 3
-2 15 2 27 4 12 9 19 12 17 3 -3 2 -15 -2 -27z"/>
<path d="M2916 1078 c-12 -70 -19 -333 -8 -323 6 6 14 84 18 183 7 163 3 212
-10 140z"/>
<path d="M27 1313 c-15 -2 -27 -9 -27 -15 0 -10 9 -9 80 10 34 10 35 10 5 9
-16 0 -42 -2 -58 -4z"/>
<path d="M5112 1225 c0 -16 2 -22 5 -12 2 9 2 23 0 30 -3 6 -5 -1 -5 -18z"/>
<path d="M5000 1165 c0 -4 20 -33 45 -64 25 -31 52 -65 60 -76 14 -20 14 -20
15 3 0 13 -9 37 -20 52 -22 30 -100 97 -100 85z"/>
<path d="M680 905 c0 -2 14 -11 30 -20 17 -9 30 -22 30 -31 0 -8 5 -12 10 -9
17 11 11 23 -24 44 -33 21 -46 25 -46 16z"/>
</g>
</svg>
